M48
; DRILL file {KiCad 8.99.0-unknown-7774a43762~178~ubuntu22.04.1} date 2024-05-27T17:10:49+0530
; FORMAT={-:-/ absolute / inch / decimal}
; #@! TF.CreationDate,2024-05-27T17:10:49+05:30
; #@! TF.GenerationSoftware,Kicad,Pcbnew,8.99.0-unknown-7774a43762~178~ubuntu22.04.1
; #@! TF.FileFunction,Plated,1,2,PTH
FMAT,2
INCH
; #@! TA.AperFunction,Plated,PTH,ViaDrill
T1C0.0118
; #@! TA.AperFunction,Plated,PTH,ViaDrill
T2C0.0155
; #@! TA.AperFunction,Plated,PTH,ViaDrill
T3C0.0157
; #@! TA.AperFunction,Plated,PTH,ComponentDrill
T4C0.0394
%
G90
G05
T1
X5.3976Y-3.7677
X5.3976Y-3.8031
X5.3976Y-3.8386
X5.3976Y-3.874
X5.3976Y-3.9055
X5.3976Y-3.9331
X5.407Y-3.96
X5.415Y-3.985
X5.432Y-4.004
X5.45Y-4.025
X5.477Y-4.035
X5.485Y-3.9028
X5.485Y-3.93
X5.4921Y-3.7677
X5.4921Y-3.8031
X5.4921Y-3.8386
X5.4921Y-3.874
X5.5Y-3.95
X5.5043Y-4.0362
X5.51Y-4.505
X5.585Y-4.505
X5.599Y-3.936
X5.61Y-4.505
X5.613Y-3.917
X5.6492Y-3.774
X5.685Y-4.51
X5.71Y-4.51
X5.795Y-4.415
X5.795Y-4.505
X5.7992Y-3.7638
X5.7992Y-3.7992
X5.7992Y-3.8346
X5.7992Y-3.8701
X5.81Y-3.9331
X5.885Y-4.505
X5.89Y-4.045
X5.8937Y-3.7638
X5.8937Y-3.7992
X5.8937Y-3.8346
X5.8937Y-3.8701
X5.91Y-4.505
X5.915Y-4.065
X5.935Y-4.085
X5.9476Y-4.1683
X5.9476Y-4.2161
X5.99Y-4.13
X5.995Y-4.415
X5.995Y-4.5
X5.9984Y-3.9012
X6.015Y-4.13
X6.0161Y-3.9209
X6.0232Y-3.8933
X6.0319Y-3.9394
X6.0386Y-4.1303
X6.0409Y-3.9122
X6.0433Y-3.7441
X6.0433Y-3.7835
X6.0433Y-3.8346
X6.0433Y-3.8701
X6.0472Y-3.9567
X6.061Y-3.8906
X6.0614Y-3.9323
X6.065Y-4.1299
X6.0685Y-3.965
X6.0803Y-4.298
X6.0811Y-3.9106
X6.0811Y-4.2496
X6.0812Y-4.2737
X6.0858Y-3.9386
X6.09Y-4.413
X6.09Y-4.505
X6.0917Y-3.9646
X6.0921Y-3.887
X6.0933Y-4.1303
X6.1024Y-4.2402
X6.1091Y-3.9386
X6.11Y-4.2
X6.1114Y-3.9146
X6.1142Y-3.965
X6.1213Y-4.1311
X6.122Y-4.2244
X6.13Y-4.29
X6.13Y-4.312
X6.1307Y-3.939
X6.135Y-4.205
X6.1374Y-3.965
X6.141Y-4.269
X6.1417Y-3.9146
X6.152Y-4.291
X6.152Y-4.315
X6.1591Y-3.9654
X6.1602Y-3.9374
X6.1677Y-3.9138
X6.1846Y-3.9654
X6.185Y-4.07
X6.19Y-3.94
X6.1957Y-3.9157
X6.2Y-3.86
X6.2Y-3.89
X6.2004Y-3.7953
X6.2004Y-3.8307
X6.2008Y-3.7598
X6.202Y-4.5031
X6.2028Y-4.0878
X6.2055Y-3.9791
X6.2114Y-3.9567
X6.2205Y-4.1067
X6.2217Y-3.9961
X6.2299Y-3.9752
X6.23Y-4.155
X6.231Y-4.249
X6.232Y-4.222
X6.2346Y-4.1303
X6.2378Y-4.0118
X6.243Y-4.269
X6.2484Y-3.9925
X6.2913Y-3.7598
X6.2913Y-3.7953
X6.2913Y-3.8307
X6.2913Y-3.86
X6.2913Y-3.8898
X6.295Y-3.92
X6.315Y-3.94
X6.3161Y-4.1031
X6.3165Y-4.1512
X6.3169Y-4.1252
X6.335Y-3.92
X6.3398Y-4.098
X6.3402Y-4.1492
X6.3417Y-4.1232
X6.36Y-3.91
X6.39Y-3.905
X6.4055Y-4.0394
X6.4252Y-3.7874
X6.4331Y-3.811
X6.4331Y-3.8346
X6.4331Y-3.8583
X6.4331Y-4.0315
X6.435Y-3.89
X6.435Y-3.925
X6.435Y-4.005
T2
X6.0136Y-3.7594
X6.0145Y-3.809
X6.015Y-3.8602
X6.0736Y-3.7594
X6.0745Y-3.809
X6.0748Y-3.8591
X6.4065Y-3.765
X6.4065Y-3.809
X6.4065Y-3.845
X6.4075Y-3.8835
T3
X5.2681Y-4.4618
X5.2744Y-4.4213
X5.2764Y-4.2846
X5.2764Y-4.328
X5.2768Y-4.1516
X5.2768Y-4.2378
X5.2776Y-4.0681
X5.2776Y-4.1114
X5.2776Y-4.1976
X5.278Y-3.8965
X5.278Y-4.0213
X5.2787Y-3.813
X5.2787Y-3.8563
X5.2787Y-3.9378
X5.2787Y-3.9811
X5.2791Y-3.7752
X5.2801Y-4.503
X5.3055Y-4.3933
X5.313Y-4.5323
X5.3287Y-4.2846
X5.3287Y-4.328
X5.3291Y-4.1516
X5.3291Y-4.2378
X5.3299Y-4.0681
X5.3299Y-4.1114
X5.3299Y-4.1976
X5.3303Y-4.0213
X5.3311Y-3.9378
X5.3311Y-3.9811
X5.3461Y-3.8224
X5.3465Y-3.7661
X5.3465Y-3.8689
X5.3504Y-4.3819
X5.3618Y-4.5386
X5.3811Y-4.2839
X5.3811Y-4.3272
X5.3815Y-4.1508
X5.3815Y-4.237
X5.3823Y-4.1969
X5.3835Y-3.9803
X5.3917Y-4.3913
X5.4051Y-4.515
X5.4189Y-4.4232
X5.4236Y-4.276
X5.4272Y-4.4724
X5.4366Y-4.2378
X5.4374Y-4.1543
X5.4374Y-4.1976
X5.4492Y-4.5319
X5.46Y-4.4
X5.463Y-4.2638
X5.475Y-4.505
X5.4811Y-4.4685
X5.485Y-4.43
X5.4886Y-4.2378
X5.4894Y-4.1543
X5.4894Y-4.1976
X5.5Y-4.39
X5.5Y-4.535
X5.5028Y-4.2748
X5.5307Y-3.9146
X5.5307Y-3.9488
X5.5433Y-4.5354
X5.548Y-3.7606
X5.5496Y-3.8098
X5.55Y-3.8657
X5.5709Y-3.9488
X5.5713Y-3.9146
X5.5827Y-4.5354
X5.592Y-4.1358
X5.592Y-4.22
X5.592Y-4.3055
X5.592Y-4.352
X5.592Y-4.396
X5.5929Y-4.0953
X5.593Y-4.264
X5.5933Y-4.0512
X5.594Y-4.179
X5.622Y-4.5354
X5.6504Y-3.8622
X5.6504Y-3.8949
X5.6575Y-4.5354
X5.6693Y-4.3976
X5.6862Y-4.0571
X5.6929Y-4.5354
X5.7087Y-4.3071
X5.7087Y-4.3976
X5.7299Y-4.0567
X5.7457Y-3.7539
X5.7472Y-3.8031
X5.7476Y-3.8591
X5.7559Y-4.3071
X5.8059Y-4.0453
X5.8459Y-4.2567
X5.8504Y-4.0453
X5.8504Y-4.0827
X5.8902Y-4.2547
X5.8937Y-4.0827
X5.9421Y-3.9689
X5.9484Y-3.752
X5.95Y-3.8012
X5.9504Y-3.8571
X5.9587Y-4.122
X5.972Y-3.9996
X5.9996Y-4.0295
X6.0378Y-4.0484
X6.0776Y-4.0488
X6.085Y-4.1748
X6.085Y-4.215
X6.1189Y-4.0488
X6.13Y-4.1744
X6.148Y-3.7504
X6.1496Y-3.7996
X6.15Y-3.8555
X6.1598Y-4.0512
X6.2303Y-4.3598
X6.265Y-4.025
X6.2673Y-4.4669
X6.27Y-4.235
X6.275Y-4.42
X6.283Y-4.51
X6.29Y-4.05
X6.3Y-4.21
X6.3106Y-4.3874
X6.315Y-4.075
X6.3185Y-4.5354
X6.325Y-4.18
X6.3469Y-3.7476
X6.3484Y-3.7969
X6.3488Y-3.8528
X6.364Y-4.378
X6.3697Y-4.5354
X6.408Y-4.405
X6.4087Y-4.5063
X6.426Y-4.4555
X6.4276Y-4.2193
X6.4276Y-4.2626
X6.4283Y-4.0591
X6.4283Y-4.1358
X6.4283Y-4.1791
X6.4287Y-4.0945
T4
X5.5465Y-4.459
X5.6465Y-4.459
X5.7465Y-4.459
X5.8465Y-4.459
X5.9465Y-4.459
X6.0465Y-4.459
X6.1465Y-4.459
M30
