%TF.GenerationSoftware,KiCad,Pcbnew,8.99.0-unknown-7774a43762~178~ubuntu22.04.1*%
%TF.CreationDate,2024-05-27T17:10:49+05:30*%
%TF.ProjectId,Adafruit Si5351A,41646166-7275-4697-9420-536935333531,rev?*%
%TF.SameCoordinates,Original*%
%TF.FileFunction,Soldermask,Top*%
%TF.FilePolarity,Negative*%
%FSLAX46Y46*%
G04 Gerber Fmt 4.6, Leading zero omitted, Abs format (unit mm)*
G04 Created by KiCad (PCBNEW 8.99.0-unknown-7774a43762~178~ubuntu22.04.1) date 2024-05-27 17:10:49*
%MOMM*%
%LPD*%
G01*
G04 APERTURE LIST*
G04 Aperture macros list*
%AMRoundRect*
0 Rectangle with rounded corners*
0 $1 Rounding radius*
0 $2 $3 $4 $5 $6 $7 $8 $9 X,Y pos of 4 corners*
0 Add a 4 corners polygon primitive as box body*
4,1,4,$2,$3,$4,$5,$6,$7,$8,$9,$2,$3,0*
0 Add four circle primitives for the rounded corners*
1,1,$1+$1,$2,$3*
1,1,$1+$1,$4,$5*
1,1,$1+$1,$6,$7*
1,1,$1+$1,$8,$9*
0 Add four rect primitives between the rounded corners*
20,1,$1+$1,$2,$3,$4,$5,0*
20,1,$1+$1,$4,$5,$6,$7,0*
20,1,$1+$1,$6,$7,$8,$9,0*
20,1,$1+$1,$8,$9,$2,$3,0*%
G04 Aperture macros list end*
%ADD10RoundRect,0.050800X-0.762000X-2.032000X0.762000X-2.032000X0.762000X2.032000X-0.762000X2.032000X0*%
%ADD11RoundRect,0.050800X-0.635000X-2.032000X0.635000X-2.032000X0.635000X2.032000X-0.635000X2.032000X0*%
%ADD12RoundRect,0.250000X0.450000X-0.350000X0.450000X0.350000X-0.450000X0.350000X-0.450000X-0.350000X0*%
%ADD13RoundRect,0.250000X-0.450000X0.350000X-0.450000X-0.350000X0.450000X-0.350000X0.450000X0.350000X0*%
%ADD14C,2.000000*%
%ADD15RoundRect,0.250000X-0.350000X-0.450000X0.350000X-0.450000X0.350000X0.450000X-0.350000X0.450000X0*%
%ADD16C,2.500000*%
%ADD17RoundRect,0.250000X0.350000X0.450000X-0.350000X0.450000X-0.350000X-0.450000X0.350000X-0.450000X0*%
%ADD18RoundRect,0.050800X-0.965200X0.965200X-0.965200X-0.965200X0.965200X-0.965200X0.965200X0.965200X0*%
%ADD19C,2.032000*%
%ADD20RoundRect,0.250000X-0.337500X-0.475000X0.337500X-0.475000X0.337500X0.475000X-0.337500X0.475000X0*%
%ADD21R,1.000000X0.800000*%
%ADD22RoundRect,0.250000X-0.250000X-0.475000X0.250000X-0.475000X0.250000X0.475000X-0.250000X0.475000X0*%
%ADD23R,1.400000X0.300000*%
G04 APERTURE END LIST*
D10*
%TO.C,X3*%
X156121100Y-96748600D03*
X161201100Y-96748600D03*
D11*
X158661100Y-96748600D03*
%TD*%
D12*
%TO.C,R5*%
X161610000Y-109570000D03*
X161610000Y-107570000D03*
%TD*%
D13*
%TO.C,R2*%
X143500000Y-96120000D03*
X143500000Y-98120000D03*
%TD*%
D14*
%TO.C,FID2*%
X138810000Y-109990000D03*
%TD*%
D15*
%TO.C,R1*%
X137160000Y-103990000D03*
X139160000Y-103990000D03*
%TD*%
%TO.C,R4*%
X150825000Y-110850000D03*
X152825000Y-110850000D03*
%TD*%
D16*
%TO.C,H2*%
X161201100Y-113258600D03*
%TD*%
%TO.C,H1*%
X135801100Y-113258600D03*
%TD*%
D10*
%TO.C,X2*%
X145961100Y-96748600D03*
X151041100Y-96748600D03*
D11*
X148501100Y-96748600D03*
%TD*%
D17*
%TO.C,R3*%
X148431000Y-110871000D03*
X146431000Y-110871000D03*
%TD*%
D18*
%TO.C,JP1*%
X156121100Y-113258600D03*
D19*
X153581100Y-113258600D03*
X151041100Y-113258600D03*
X148501100Y-113258600D03*
X145961100Y-113258600D03*
X143421100Y-113258600D03*
X140881100Y-113258600D03*
%TD*%
D20*
%TO.C,C1*%
X154942500Y-110850000D03*
X157017500Y-110850000D03*
%TD*%
D21*
%TO.C,Y1*%
X145770000Y-108347500D03*
X145770000Y-105327500D03*
X144370000Y-105327500D03*
X144370000Y-108347500D03*
%TD*%
D10*
%TO.C,X1*%
X135801100Y-96748600D03*
X140881100Y-96748600D03*
D11*
X138341100Y-96748600D03*
%TD*%
D22*
%TO.C,C2*%
X147830000Y-105330000D03*
X149730000Y-105330000D03*
%TD*%
D14*
%TO.C,FID1*%
X162320000Y-100710000D03*
%TD*%
D23*
%TO.C,U1*%
X152680000Y-105950000D03*
X152680000Y-106450000D03*
X152680000Y-106950000D03*
X152680000Y-107450000D03*
X152680000Y-107950000D03*
X157080000Y-107950000D03*
X157080000Y-107450000D03*
X157080000Y-106950000D03*
X157080000Y-106450000D03*
X157080000Y-105950000D03*
%TD*%
M02*
