%TF.GenerationSoftware,KiCad,Pcbnew,8.99.0-unknown-7774a43762~178~ubuntu22.04.1*%
%TF.CreationDate,2024-05-27T17:10:49+05:30*%
%TF.ProjectId,Adafruit Si5351A,41646166-7275-4697-9420-536935333531,rev?*%
%TF.SameCoordinates,Original*%
%TF.FileFunction,Copper,L2,Bot*%
%TF.FilePolarity,Positive*%
%FSLAX46Y46*%
G04 Gerber Fmt 4.6, Leading zero omitted, Abs format (unit mm)*
G04 Created by KiCad (PCBNEW 8.99.0-unknown-7774a43762~178~ubuntu22.04.1) date 2024-05-27 17:10:49*
%MOMM*%
%LPD*%
G01*
G04 APERTURE LIST*
%TA.AperFunction,SMDPad,CuDef*%
%ADD10R,1.524000X4.064000*%
%TD*%
%TA.AperFunction,ComponentPad*%
%ADD11R,1.930400X1.930400*%
%TD*%
%TA.AperFunction,ComponentPad*%
%ADD12C,1.930400*%
%TD*%
%TA.AperFunction,ViaPad*%
%ADD13C,0.800000*%
%TD*%
%TA.AperFunction,ViaPad*%
%ADD14C,0.500000*%
%TD*%
%TA.AperFunction,ViaPad*%
%ADD15C,0.800100*%
%TD*%
%TA.AperFunction,Conductor*%
%ADD16C,0.500000*%
%TD*%
%TA.AperFunction,Conductor*%
%ADD17C,0.250000*%
%TD*%
G04 APERTURE END LIST*
D10*
%TO.P,X3,GND@3,GND2*%
%TO.N,GND*%
X161201100Y-96748600D03*
%TO.P,X3,GND@4,GND1*%
X156121100Y-96748600D03*
%TD*%
%TO.P,X2,GND@3,GND2*%
%TO.N,GND*%
X151041100Y-96748600D03*
%TO.P,X2,GND@4,GND1*%
X145961100Y-96748600D03*
%TD*%
D11*
%TO.P,JP1,1,1*%
%TO.N,+3.3V*%
X156121100Y-113258600D03*
D12*
%TO.P,JP1,2,2*%
%TO.N,GND*%
X153581100Y-113258600D03*
%TO.P,JP1,3,3*%
%TO.N,/SDA_3V*%
X151041100Y-113258600D03*
%TO.P,JP1,4,4*%
%TO.N,/SCL_3V*%
X148501100Y-113258600D03*
%TO.P,JP1,5,5*%
%TO.N,CLK2*%
X145961100Y-113258600D03*
%TO.P,JP1,6,6*%
%TO.N,CLK1*%
X143421100Y-113258600D03*
%TO.P,JP1,7,7*%
%TO.N,CLK0*%
X140881100Y-113258600D03*
%TD*%
D10*
%TO.P,X1,GND@3,GND2*%
%TO.N,GND*%
X140881100Y-96748600D03*
%TO.P,X1,GND@4,GND1*%
X135801100Y-96748600D03*
%TD*%
D13*
%TO.N,GND*%
X143700000Y-115200000D03*
D14*
X163400000Y-98000000D03*
D13*
X145940000Y-95350000D03*
X145000000Y-109400000D03*
D14*
X159893000Y-99568000D03*
X143490000Y-95860000D03*
D13*
X136680000Y-109910000D03*
X160290000Y-111440000D03*
D14*
X158242000Y-105537000D03*
D13*
X134114168Y-114376541D03*
X161260000Y-97860000D03*
X134050000Y-103330000D03*
D14*
X162306000Y-99187000D03*
D13*
X142060000Y-104020000D03*
D14*
X157620000Y-101070000D03*
X155300000Y-100710000D03*
X163400000Y-96800000D03*
D13*
X138110000Y-106620000D03*
D14*
X157480000Y-98806000D03*
X141859000Y-114427000D03*
X137100000Y-96600000D03*
D13*
X163280000Y-106150000D03*
D14*
X160450000Y-104780000D03*
X154140000Y-100710000D03*
X158710000Y-101410000D03*
X139115800Y-102489000D03*
X156000000Y-99430000D03*
X147193000Y-114427000D03*
X138430000Y-102235000D03*
X153500000Y-97400000D03*
X160909000Y-99568000D03*
X160401000Y-100076000D03*
X153600000Y-100500000D03*
X157490000Y-97300000D03*
D13*
X145540000Y-103040000D03*
X151690000Y-101590000D03*
X156160000Y-95260000D03*
D14*
X156470000Y-100010000D03*
D13*
X137760000Y-108610000D03*
D14*
X163200000Y-96200000D03*
D13*
X161210000Y-95190000D03*
X151090000Y-95300000D03*
X151140000Y-97970000D03*
D14*
X155000000Y-107700000D03*
X147300000Y-95600000D03*
X155829000Y-106807000D03*
X154461786Y-108552562D03*
D13*
X153360000Y-102830000D03*
D14*
X152146000Y-104902000D03*
D13*
X136690000Y-107620000D03*
D14*
X155702000Y-109524800D03*
X150114000Y-114427000D03*
D13*
X142087600Y-106146600D03*
X142036800Y-110540800D03*
X134950000Y-115120000D03*
D15*
X154293100Y-96748600D03*
D13*
X149610000Y-108070000D03*
D14*
X153500000Y-96100000D03*
X137541000Y-101219000D03*
D13*
X142070000Y-102900000D03*
X155702000Y-106030000D03*
X144430000Y-103050000D03*
D14*
X149700000Y-95600000D03*
D13*
X135380000Y-106620000D03*
D14*
X161544000Y-99314000D03*
D13*
X142036800Y-105050000D03*
D14*
X152273000Y-112141000D03*
X144399000Y-114554000D03*
D13*
X160401000Y-103505000D03*
X135350000Y-108830000D03*
D15*
X154270000Y-95490000D03*
D13*
X134080000Y-96850000D03*
X147470000Y-102750000D03*
X142036800Y-107188000D03*
D14*
X149606000Y-102743000D03*
D13*
X144000000Y-111700000D03*
X138110000Y-105520000D03*
D14*
X139500000Y-98400000D03*
D13*
X135380000Y-103330000D03*
D14*
X139500000Y-97500000D03*
D13*
X139319000Y-112522000D03*
D14*
X147300000Y-97400000D03*
D13*
X152390000Y-102350000D03*
X159131000Y-102235000D03*
D14*
X153380000Y-104910000D03*
D13*
X135390000Y-102140000D03*
D14*
X139319000Y-99130000D03*
X154740000Y-98730000D03*
D13*
X134050000Y-104430000D03*
X135410000Y-101120000D03*
D14*
X154730000Y-100700000D03*
X158440000Y-101900000D03*
X154440000Y-109170000D03*
D13*
X136950000Y-111540000D03*
D14*
X158000000Y-104310000D03*
D13*
X156200000Y-96510000D03*
X139065000Y-114427000D03*
D14*
X158240000Y-100970000D03*
D13*
X156460000Y-102900000D03*
X145000000Y-111700000D03*
X154370000Y-102840000D03*
X135800000Y-95660000D03*
X141500000Y-100300000D03*
X138090000Y-107640000D03*
D14*
X157530800Y-114380000D03*
D13*
X154559000Y-106040000D03*
D14*
X154050000Y-104900000D03*
X155981400Y-108432600D03*
X155230000Y-99430000D03*
D13*
X134020000Y-108830000D03*
D14*
X155170000Y-100040000D03*
D15*
X152780000Y-98050000D03*
D14*
X160430000Y-104220000D03*
D13*
X142800000Y-115200000D03*
X159588200Y-114554000D03*
D14*
X155194000Y-106680000D03*
D13*
X134030000Y-107640000D03*
X156210000Y-97930000D03*
X161790000Y-115200000D03*
D14*
X158360000Y-104910000D03*
D13*
X140480000Y-99430000D03*
X155420000Y-102840000D03*
X133810000Y-113330000D03*
X151130000Y-96550000D03*
X134080000Y-101120000D03*
D14*
X139700000Y-100330000D03*
X139810000Y-102520000D03*
X142214600Y-99974400D03*
X153950000Y-98820000D03*
D13*
X135900000Y-111300000D03*
X145990000Y-98020000D03*
X133970000Y-112300000D03*
D14*
X158292800Y-107238800D03*
X158572200Y-108432600D03*
D13*
X134060000Y-102140000D03*
D14*
X157226000Y-100076000D03*
X159800000Y-98044000D03*
X147300000Y-98300000D03*
X156660000Y-99410000D03*
D13*
X140970000Y-98190000D03*
X134080000Y-97950000D03*
X161250000Y-96440000D03*
X163280000Y-105050000D03*
X136690000Y-105430000D03*
D14*
X157090000Y-100720000D03*
X153210000Y-100060000D03*
X152781000Y-104902000D03*
D13*
X140920000Y-95520000D03*
D14*
X159800000Y-97300000D03*
D15*
X162725100Y-97663000D03*
D13*
X160490000Y-115200000D03*
D14*
X139954000Y-114427000D03*
D13*
X159190000Y-113460000D03*
D14*
X153960000Y-99880000D03*
D13*
X159385000Y-112268000D03*
X139430000Y-106620000D03*
X163260000Y-107170000D03*
D14*
X150241000Y-103251000D03*
X142570200Y-99491800D03*
D13*
X159258000Y-107569000D03*
X139410000Y-107640000D03*
D14*
X163449000Y-98806000D03*
D13*
X146200000Y-109400000D03*
X138684000Y-111760000D03*
D14*
X139319000Y-99822000D03*
D15*
X154300000Y-98020000D03*
D14*
X157099000Y-103378000D03*
X161080000Y-104730000D03*
D13*
X134050000Y-106620000D03*
D14*
X137100000Y-97500000D03*
D13*
X140480000Y-100300000D03*
D15*
X162725100Y-95631000D03*
D14*
X149700000Y-97400000D03*
X150749000Y-103759000D03*
X158030000Y-101500000D03*
X155702000Y-108966000D03*
D13*
X134060000Y-98970000D03*
X142036800Y-111658400D03*
X135800000Y-98270000D03*
D14*
X137972800Y-101701600D03*
X157370000Y-99460000D03*
D13*
X163280000Y-103100000D03*
X134090000Y-95890000D03*
D14*
X139500000Y-95700000D03*
D13*
X136710000Y-106600000D03*
X162763200Y-111887000D03*
D15*
X152746000Y-95490000D03*
D13*
X139430000Y-105520000D03*
X163290000Y-104000000D03*
X134030000Y-105450000D03*
X161645600Y-111201200D03*
D14*
X152810000Y-99590000D03*
X154460000Y-99330000D03*
D13*
X149700000Y-103700000D03*
D14*
X155500000Y-107300000D03*
D13*
X159766000Y-102870000D03*
D14*
X157480000Y-98044000D03*
X137100000Y-95700000D03*
X153500000Y-95100000D03*
D13*
X137290000Y-114680000D03*
D14*
X147193000Y-112141000D03*
X157490000Y-96400000D03*
D13*
X154560000Y-107061000D03*
D14*
X147300000Y-96500000D03*
X163400000Y-102400000D03*
X154686000Y-114427000D03*
X153440000Y-99370000D03*
X137337800Y-100584000D03*
D13*
X151350000Y-104700000D03*
X135380000Y-104430000D03*
D14*
X161030000Y-104090000D03*
X139500000Y-96600000D03*
X142494000Y-114427000D03*
X159800000Y-98800000D03*
X157770000Y-100500000D03*
D13*
X148600000Y-102750000D03*
D14*
X158267400Y-107924600D03*
X157500000Y-95500000D03*
X163400000Y-97400000D03*
X145034000Y-114554000D03*
D13*
X140960000Y-96770000D03*
D14*
X155480000Y-104930000D03*
X156440000Y-100720000D03*
D13*
X139770000Y-108580000D03*
X135360000Y-107640000D03*
X135410000Y-100020000D03*
D15*
X162750000Y-98640000D03*
D14*
X154460000Y-107940000D03*
D13*
X136190000Y-115280000D03*
X141510000Y-99430000D03*
D15*
X162725100Y-96748600D03*
D13*
X144600000Y-115200000D03*
D14*
X149700000Y-98300000D03*
D13*
X160020000Y-106934000D03*
X134020000Y-109930000D03*
D14*
X152990000Y-98890000D03*
X160440000Y-105440000D03*
X163449000Y-99695000D03*
D13*
X141800000Y-115200000D03*
X136680000Y-108810000D03*
X140800000Y-115200000D03*
D14*
X149479000Y-114427000D03*
D13*
X145980000Y-96600000D03*
X148485000Y-108120000D03*
X142036800Y-109360000D03*
D14*
X137100000Y-98400000D03*
X161040000Y-105390000D03*
D13*
X162780000Y-114460000D03*
X139220000Y-113500000D03*
D14*
X137100000Y-99200000D03*
X163449000Y-101727000D03*
D13*
X136740000Y-101100000D03*
X137640000Y-112350000D03*
D14*
X152273000Y-114300000D03*
X156260800Y-108991400D03*
X155720000Y-100050000D03*
X153500000Y-98300000D03*
D13*
X139700000Y-115189000D03*
D14*
X159800000Y-96400000D03*
D13*
X148600000Y-103700000D03*
X135350000Y-109930000D03*
D14*
X154580000Y-100040000D03*
D13*
X163220000Y-113170000D03*
X134080000Y-100020000D03*
X137850000Y-113600000D03*
X139700000Y-111506000D03*
X135360000Y-105450000D03*
D14*
X159800000Y-95500000D03*
X154770000Y-104910000D03*
X157550000Y-103830000D03*
X149700000Y-96500000D03*
X154686000Y-112090200D03*
X162700000Y-102600000D03*
D13*
X160655000Y-106172000D03*
D14*
X137100000Y-99900000D03*
X156260800Y-109601000D03*
D15*
X152769100Y-96748600D03*
D13*
X134760000Y-111590000D03*
X150930000Y-100810000D03*
X138760000Y-108300000D03*
D14*
X152360000Y-99090000D03*
D13*
X135790000Y-97090000D03*
D14*
X155890000Y-100710000D03*
D13*
X163260000Y-108270000D03*
X138410000Y-115110000D03*
X142062200Y-108305600D03*
%TO.N,CLK1*%
X143520000Y-98930000D03*
X143520000Y-98100000D03*
D14*
X147574000Y-99900000D03*
D13*
%TO.N,CLK2*%
X158250000Y-110740000D03*
D14*
%TO.N,+3.3V*%
X151070000Y-105875500D03*
X151070000Y-107090000D03*
%TD*%
D16*
%TO.N,CLK1*%
X143540000Y-98910000D02*
X143520000Y-98930000D01*
X142950000Y-100150000D02*
X142950000Y-112787500D01*
X143200000Y-99900000D02*
X142950000Y-100150000D01*
X143540000Y-98950000D02*
X143540000Y-99900000D01*
X143540000Y-99900000D02*
X147475000Y-99900000D01*
X143540000Y-98220000D02*
X143520000Y-98100000D01*
X143520000Y-98930000D02*
X143540000Y-98950000D01*
X143520000Y-98100000D02*
X143540000Y-98180000D01*
X143540000Y-98220000D02*
X143540000Y-98910000D01*
%TO.N,CLK2*%
X158250000Y-114830000D02*
X158250000Y-110740000D01*
X146320000Y-115230000D02*
X157850000Y-115230000D01*
X145961100Y-113258600D02*
X145961100Y-114871100D01*
X145961100Y-114871100D02*
X146320000Y-115230000D01*
X157850000Y-115230000D02*
X158250000Y-114830000D01*
D17*
%TO.N,+3.3V*%
X151070000Y-107090000D02*
X151070000Y-105875500D01*
%TD*%
%TA.AperFunction,Conductor*%
%TO.N,GND*%
G36*
X140071377Y-94253785D02*
G01*
X140117132Y-94306589D01*
X140127076Y-94375747D01*
X140098051Y-94439303D01*
X140039273Y-94477077D01*
X140028529Y-94479717D01*
X140021559Y-94481103D01*
X140021555Y-94481105D01*
X139938860Y-94536360D01*
X139883605Y-94619055D01*
X139883603Y-94619059D01*
X139869100Y-94691971D01*
X139869100Y-95559823D01*
X140881100Y-96571823D01*
X141893099Y-95559823D01*
X141893100Y-95559822D01*
X141893100Y-94691973D01*
X141893099Y-94691971D01*
X141878596Y-94619059D01*
X141878594Y-94619055D01*
X141823339Y-94536360D01*
X141740644Y-94481105D01*
X141740640Y-94481103D01*
X141733671Y-94479717D01*
X141671760Y-94447332D01*
X141637186Y-94386617D01*
X141640925Y-94316847D01*
X141681792Y-94260175D01*
X141746810Y-94234594D01*
X141757862Y-94234100D01*
X145084338Y-94234100D01*
X145151377Y-94253785D01*
X145197132Y-94306589D01*
X145207076Y-94375747D01*
X145178051Y-94439303D01*
X145119273Y-94477077D01*
X145108529Y-94479717D01*
X145101559Y-94481103D01*
X145101555Y-94481105D01*
X145018860Y-94536360D01*
X144963605Y-94619055D01*
X144963603Y-94619059D01*
X144949100Y-94691971D01*
X144949100Y-95559823D01*
X145961100Y-96571823D01*
X146973099Y-95559823D01*
X146973100Y-95559822D01*
X146973100Y-94691973D01*
X146973099Y-94691971D01*
X146958596Y-94619059D01*
X146958594Y-94619055D01*
X146903339Y-94536360D01*
X146820644Y-94481105D01*
X146820640Y-94481103D01*
X146813671Y-94479717D01*
X146751760Y-94447332D01*
X146717186Y-94386617D01*
X146720925Y-94316847D01*
X146761792Y-94260175D01*
X146826810Y-94234594D01*
X146837862Y-94234100D01*
X150164338Y-94234100D01*
X150231377Y-94253785D01*
X150277132Y-94306589D01*
X150287076Y-94375747D01*
X150258051Y-94439303D01*
X150199273Y-94477077D01*
X150188529Y-94479717D01*
X150181559Y-94481103D01*
X150181555Y-94481105D01*
X150098860Y-94536360D01*
X150043605Y-94619055D01*
X150043603Y-94619059D01*
X150029100Y-94691971D01*
X150029100Y-95559823D01*
X151041100Y-96571823D01*
X152053099Y-95559823D01*
X152053100Y-95559822D01*
X152053100Y-94691973D01*
X152053099Y-94691971D01*
X152038596Y-94619059D01*
X152038594Y-94619055D01*
X151983339Y-94536360D01*
X151900644Y-94481105D01*
X151900640Y-94481103D01*
X151893671Y-94479717D01*
X151831760Y-94447332D01*
X151797186Y-94386617D01*
X151800925Y-94316847D01*
X151841792Y-94260175D01*
X151906810Y-94234594D01*
X151917862Y-94234100D01*
X155244338Y-94234100D01*
X155311377Y-94253785D01*
X155357132Y-94306589D01*
X155367076Y-94375747D01*
X155338051Y-94439303D01*
X155279273Y-94477077D01*
X155268529Y-94479717D01*
X155261559Y-94481103D01*
X155261555Y-94481105D01*
X155178860Y-94536360D01*
X155123605Y-94619055D01*
X155123603Y-94619059D01*
X155109100Y-94691971D01*
X155109100Y-95559823D01*
X156121100Y-96571823D01*
X157133099Y-95559823D01*
X157133100Y-95559822D01*
X157133100Y-94691973D01*
X157133099Y-94691971D01*
X157118596Y-94619059D01*
X157118594Y-94619055D01*
X157063339Y-94536360D01*
X156980644Y-94481105D01*
X156980640Y-94481103D01*
X156973671Y-94479717D01*
X156911760Y-94447332D01*
X156877186Y-94386617D01*
X156880925Y-94316847D01*
X156921792Y-94260175D01*
X156986810Y-94234594D01*
X156997862Y-94234100D01*
X160324338Y-94234100D01*
X160391377Y-94253785D01*
X160437132Y-94306589D01*
X160447076Y-94375747D01*
X160418051Y-94439303D01*
X160359273Y-94477077D01*
X160348529Y-94479717D01*
X160341559Y-94481103D01*
X160341555Y-94481105D01*
X160258860Y-94536360D01*
X160203605Y-94619055D01*
X160203603Y-94619059D01*
X160189100Y-94691971D01*
X160189100Y-95559823D01*
X161201100Y-96571823D01*
X162213099Y-95559823D01*
X162213100Y-95559822D01*
X162213100Y-94691973D01*
X162208153Y-94667104D01*
X162214380Y-94597512D01*
X162257243Y-94542335D01*
X162323132Y-94519090D01*
X162391129Y-94535158D01*
X162393915Y-94536792D01*
X162623086Y-94675330D01*
X162635397Y-94683828D01*
X162645794Y-94691973D01*
X162862620Y-94861846D01*
X162873828Y-94871776D01*
X163077923Y-95075871D01*
X163087853Y-95087079D01*
X163265867Y-95314296D01*
X163274373Y-95326619D01*
X163423697Y-95573633D01*
X163430656Y-95586892D01*
X163549122Y-95850112D01*
X163554431Y-95864113D01*
X163640299Y-96139674D01*
X163643883Y-96154212D01*
X163695913Y-96438132D01*
X163697718Y-96452996D01*
X163715374Y-96744862D01*
X163715600Y-96752350D01*
X163715600Y-113254849D01*
X163715374Y-113262337D01*
X163697718Y-113554203D01*
X163695913Y-113569067D01*
X163643883Y-113852987D01*
X163640299Y-113867525D01*
X163554431Y-114143086D01*
X163549122Y-114157087D01*
X163430656Y-114420307D01*
X163423697Y-114433566D01*
X163274373Y-114680580D01*
X163265867Y-114692903D01*
X163087853Y-114920120D01*
X163077923Y-114931328D01*
X162873828Y-115135423D01*
X162862620Y-115145353D01*
X162635403Y-115323367D01*
X162623080Y-115331873D01*
X162376066Y-115481197D01*
X162362807Y-115488156D01*
X162099587Y-115606622D01*
X162085586Y-115611931D01*
X161810023Y-115697800D01*
X161795484Y-115701384D01*
X161568011Y-115743069D01*
X161545944Y-115745100D01*
X158264121Y-115752627D01*
X158197037Y-115733096D01*
X158151161Y-115680397D01*
X158141059Y-115611262D01*
X158169938Y-115547639D01*
X158176142Y-115540960D01*
X158610489Y-115106614D01*
X158669798Y-115003887D01*
X158669799Y-115003886D01*
X158700500Y-114889309D01*
X158700500Y-113140502D01*
X159700600Y-113140502D01*
X159700600Y-113376697D01*
X159737546Y-113609968D01*
X159810533Y-113834596D01*
X159879495Y-113969940D01*
X159917757Y-114045033D01*
X160056583Y-114236110D01*
X160223590Y-114403117D01*
X160414667Y-114541943D01*
X160512978Y-114592035D01*
X160625103Y-114649166D01*
X160625105Y-114649166D01*
X160625108Y-114649168D01*
X160745512Y-114688289D01*
X160849731Y-114722153D01*
X161083003Y-114759100D01*
X161083008Y-114759100D01*
X161319197Y-114759100D01*
X161552468Y-114722153D01*
X161599070Y-114707011D01*
X161777092Y-114649168D01*
X161987533Y-114541943D01*
X162178610Y-114403117D01*
X162345617Y-114236110D01*
X162484443Y-114045033D01*
X162591668Y-113834592D01*
X162664653Y-113609968D01*
X162671683Y-113565582D01*
X162701600Y-113376697D01*
X162701600Y-113140502D01*
X162664653Y-112907231D01*
X162591666Y-112682603D01*
X162484442Y-112472166D01*
X162462995Y-112442647D01*
X162345617Y-112281090D01*
X162178610Y-112114083D01*
X161987533Y-111975257D01*
X161974788Y-111968763D01*
X161777096Y-111868033D01*
X161552468Y-111795046D01*
X161319197Y-111758100D01*
X161319192Y-111758100D01*
X161083008Y-111758100D01*
X161083003Y-111758100D01*
X160849731Y-111795046D01*
X160625103Y-111868033D01*
X160414666Y-111975257D01*
X160318632Y-112045031D01*
X160223590Y-112114083D01*
X160223588Y-112114085D01*
X160223587Y-112114085D01*
X160056585Y-112281087D01*
X160056585Y-112281088D01*
X160056583Y-112281090D01*
X160025143Y-112324363D01*
X159917757Y-112472166D01*
X159810533Y-112682603D01*
X159737546Y-112907231D01*
X159700600Y-113140502D01*
X158700500Y-113140502D01*
X158700500Y-111597245D01*
X158703779Y-111574528D01*
X158702647Y-111574316D01*
X158822879Y-110933070D01*
X158830195Y-110908466D01*
X158835044Y-110896762D01*
X158847230Y-110804186D01*
X158848295Y-110797516D01*
X158849387Y-110791696D01*
X158849388Y-110791691D01*
X158852006Y-110773058D01*
X158852206Y-110770931D01*
X158852755Y-110763726D01*
X158852754Y-110763723D01*
X158852767Y-110763562D01*
X158853467Y-110756812D01*
X158855682Y-110740000D01*
X158835044Y-110583238D01*
X158774536Y-110437159D01*
X158678282Y-110311718D01*
X158552841Y-110215464D01*
X158406762Y-110154956D01*
X158406760Y-110154955D01*
X158250001Y-110134318D01*
X158249999Y-110134318D01*
X158093239Y-110154955D01*
X158093237Y-110154956D01*
X157947160Y-110215463D01*
X157821718Y-110311718D01*
X157725463Y-110437160D01*
X157664956Y-110583237D01*
X157664955Y-110583239D01*
X157644318Y-110739998D01*
X157644318Y-110740003D01*
X157649500Y-110779369D01*
X157649879Y-110785647D01*
X157650081Y-110785630D01*
X157650611Y-110791696D01*
X157651711Y-110797565D01*
X157652771Y-110804215D01*
X157664956Y-110896762D01*
X157669805Y-110908470D01*
X157677118Y-110933066D01*
X157677119Y-110933070D01*
X157774415Y-111451982D01*
X157797088Y-111572901D01*
X157796383Y-111573033D01*
X157799500Y-111596834D01*
X157799500Y-114592035D01*
X157779815Y-114659074D01*
X157763181Y-114679716D01*
X157699716Y-114743181D01*
X157638393Y-114776666D01*
X157612035Y-114779500D01*
X146815185Y-114779500D01*
X146748146Y-114759815D01*
X146702391Y-114707011D01*
X146692447Y-114637853D01*
X146699258Y-114611490D01*
X146706644Y-114592035D01*
X147040920Y-113711515D01*
X147040923Y-113711494D01*
X147041582Y-113709104D01*
X147050141Y-113686721D01*
X147052740Y-113681503D01*
X147111835Y-113473803D01*
X147149111Y-113414716D01*
X147212421Y-113385158D01*
X147281661Y-113394520D01*
X147334847Y-113439829D01*
X147350365Y-113473809D01*
X147409457Y-113681498D01*
X147409460Y-113681504D01*
X147505752Y-113874885D01*
X147505757Y-113874893D01*
X147577534Y-113969940D01*
X147635947Y-114047291D01*
X147795599Y-114192834D01*
X147795601Y-114192835D01*
X147795602Y-114192836D01*
X147813526Y-114203934D01*
X147979277Y-114306562D01*
X148180724Y-114384604D01*
X148393082Y-114424300D01*
X148393085Y-114424300D01*
X148609115Y-114424300D01*
X148609118Y-114424300D01*
X148821476Y-114384604D01*
X149022923Y-114306562D01*
X149206601Y-114192834D01*
X149366253Y-114047291D01*
X149496444Y-113874891D01*
X149592740Y-113681503D01*
X149651834Y-113473806D01*
X149689113Y-113414716D01*
X149752422Y-113385158D01*
X149821662Y-113394520D01*
X149874848Y-113439829D01*
X149890364Y-113473803D01*
X149938323Y-113642361D01*
X149949461Y-113681506D01*
X150045752Y-113874885D01*
X150045757Y-113874893D01*
X150117534Y-113969940D01*
X150175947Y-114047291D01*
X150335599Y-114192834D01*
X150335601Y-114192835D01*
X150335602Y-114192836D01*
X150353526Y-114203934D01*
X150519277Y-114306562D01*
X150720724Y-114384604D01*
X150933082Y-114424300D01*
X150933085Y-114424300D01*
X151149115Y-114424300D01*
X151149118Y-114424300D01*
X151361476Y-114384604D01*
X151562923Y-114306562D01*
X151746601Y-114192834D01*
X151906253Y-114047291D01*
X152036444Y-113874891D01*
X152132740Y-113681503D01*
X152166246Y-113563739D01*
X152203524Y-113504648D01*
X152266834Y-113475090D01*
X152336073Y-113484452D01*
X152389260Y-113529761D01*
X152405287Y-113565582D01*
X152434820Y-113675803D01*
X152434824Y-113675812D01*
X152524684Y-113868518D01*
X152635765Y-114027157D01*
X153150370Y-113512552D01*
X153181001Y-113565607D01*
X153274093Y-113658699D01*
X153327146Y-113689329D01*
X152812541Y-114203933D01*
X152971181Y-114315015D01*
X153163887Y-114404875D01*
X153163896Y-114404879D01*
X153369271Y-114459908D01*
X153369282Y-114459910D01*
X153581098Y-114478442D01*
X153581102Y-114478442D01*
X153792917Y-114459910D01*
X153792928Y-114459908D01*
X153998303Y-114404879D01*
X153998312Y-114404875D01*
X154191020Y-114315014D01*
X154191024Y-114315012D01*
X154349657Y-114203934D01*
X153835052Y-113689329D01*
X153888107Y-113658699D01*
X153981199Y-113565607D01*
X154011829Y-113512552D01*
X154526434Y-114027157D01*
X154637512Y-113868524D01*
X154637514Y-113868520D01*
X154719018Y-113693736D01*
X154765190Y-113641297D01*
X154832384Y-113622145D01*
X154899265Y-113642361D01*
X154944600Y-113695526D01*
X154955400Y-113746141D01*
X154955400Y-114243552D01*
X154967031Y-114302029D01*
X154967032Y-114302030D01*
X155011347Y-114368352D01*
X155077669Y-114412667D01*
X155077670Y-114412668D01*
X155136147Y-114424299D01*
X155136150Y-114424300D01*
X155136152Y-114424300D01*
X157106050Y-114424300D01*
X157106051Y-114424299D01*
X157120868Y-114421352D01*
X157164529Y-114412668D01*
X157164529Y-114412667D01*
X157164531Y-114412667D01*
X157230852Y-114368352D01*
X157275167Y-114302031D01*
X157275167Y-114302029D01*
X157275168Y-114302029D01*
X157286799Y-114243552D01*
X157286800Y-114243550D01*
X157286800Y-112273649D01*
X157286799Y-112273647D01*
X157275168Y-112215170D01*
X157275167Y-112215169D01*
X157230852Y-112148847D01*
X157164530Y-112104532D01*
X157164529Y-112104531D01*
X157106052Y-112092900D01*
X157106048Y-112092900D01*
X155136152Y-112092900D01*
X155136147Y-112092900D01*
X155077670Y-112104531D01*
X155077669Y-112104532D01*
X155011347Y-112148847D01*
X154967032Y-112215169D01*
X154967031Y-112215170D01*
X154955400Y-112273647D01*
X154955400Y-112771058D01*
X154935715Y-112838097D01*
X154882911Y-112883852D01*
X154813753Y-112893796D01*
X154750197Y-112864771D01*
X154719018Y-112823463D01*
X154637515Y-112648681D01*
X154526433Y-112490041D01*
X154011829Y-113004646D01*
X153981199Y-112951593D01*
X153888107Y-112858501D01*
X153835053Y-112827870D01*
X154349657Y-112313265D01*
X154191018Y-112202184D01*
X153998312Y-112112324D01*
X153998303Y-112112320D01*
X153792928Y-112057291D01*
X153792917Y-112057289D01*
X153581102Y-112038758D01*
X153581098Y-112038758D01*
X153369282Y-112057289D01*
X153369271Y-112057291D01*
X153163896Y-112112320D01*
X153163887Y-112112324D01*
X152971181Y-112202184D01*
X152812541Y-112313265D01*
X153327146Y-112827870D01*
X153274093Y-112858501D01*
X153181001Y-112951593D01*
X153150370Y-113004646D01*
X152635765Y-112490041D01*
X152524684Y-112648681D01*
X152434824Y-112841387D01*
X152434821Y-112841393D01*
X152405287Y-112951618D01*
X152368922Y-113011278D01*
X152306075Y-113041807D01*
X152236699Y-113033512D01*
X152182821Y-112989027D01*
X152166247Y-112953462D01*
X152132740Y-112835697D01*
X152039617Y-112648681D01*
X152036447Y-112642314D01*
X152036442Y-112642306D01*
X151906253Y-112469909D01*
X151871172Y-112437928D01*
X151746601Y-112324366D01*
X151746598Y-112324364D01*
X151746597Y-112324363D01*
X151562926Y-112210640D01*
X151562923Y-112210638D01*
X151541101Y-112202184D01*
X151361476Y-112132596D01*
X151149118Y-112092900D01*
X150933082Y-112092900D01*
X150720724Y-112132596D01*
X150720721Y-112132596D01*
X150720721Y-112132597D01*
X150519276Y-112210638D01*
X150519273Y-112210640D01*
X150335602Y-112324363D01*
X150175946Y-112469909D01*
X150045757Y-112642306D01*
X150045752Y-112642314D01*
X149949460Y-112835695D01*
X149949457Y-112835701D01*
X149890366Y-113043390D01*
X149853087Y-113102483D01*
X149789778Y-113132041D01*
X149720538Y-113122679D01*
X149667352Y-113077370D01*
X149651834Y-113043390D01*
X149592742Y-112835701D01*
X149592739Y-112835695D01*
X149496447Y-112642314D01*
X149496442Y-112642306D01*
X149366253Y-112469909D01*
X149331172Y-112437928D01*
X149206601Y-112324366D01*
X149206598Y-112324364D01*
X149206597Y-112324363D01*
X149022926Y-112210640D01*
X149022923Y-112210638D01*
X149001101Y-112202184D01*
X148821476Y-112132596D01*
X148609118Y-112092900D01*
X148393082Y-112092900D01*
X148180724Y-112132596D01*
X148180721Y-112132596D01*
X148180721Y-112132597D01*
X147979276Y-112210638D01*
X147979273Y-112210640D01*
X147795602Y-112324363D01*
X147635946Y-112469909D01*
X147505757Y-112642306D01*
X147505752Y-112642314D01*
X147409460Y-112835695D01*
X147409457Y-112835701D01*
X147350366Y-113043390D01*
X147313087Y-113102483D01*
X147249778Y-113132041D01*
X147180538Y-113122679D01*
X147127352Y-113077370D01*
X147111834Y-113043390D01*
X147052742Y-112835701D01*
X147052739Y-112835695D01*
X146956447Y-112642314D01*
X146956442Y-112642306D01*
X146826253Y-112469909D01*
X146791172Y-112437928D01*
X146666601Y-112324366D01*
X146666598Y-112324364D01*
X146666597Y-112324363D01*
X146482926Y-112210640D01*
X146482923Y-112210638D01*
X146461101Y-112202184D01*
X146281476Y-112132596D01*
X146069118Y-112092900D01*
X145853082Y-112092900D01*
X145640724Y-112132596D01*
X145640721Y-112132596D01*
X145640721Y-112132597D01*
X145439276Y-112210638D01*
X145439273Y-112210640D01*
X145255602Y-112324363D01*
X145095946Y-112469909D01*
X144965757Y-112642306D01*
X144965752Y-112642314D01*
X144869460Y-112835695D01*
X144869457Y-112835701D01*
X144810366Y-113043390D01*
X144773087Y-113102483D01*
X144709778Y-113132041D01*
X144640538Y-113122679D01*
X144587352Y-113077370D01*
X144571834Y-113043390D01*
X144512742Y-112835701D01*
X144512739Y-112835695D01*
X144416447Y-112642314D01*
X144416442Y-112642306D01*
X144286253Y-112469909D01*
X144274902Y-112459561D01*
X144260202Y-112442426D01*
X144259933Y-112442647D01*
X144030741Y-112162002D01*
X144030739Y-112162000D01*
X144030735Y-112161995D01*
X143971612Y-112112477D01*
X143971607Y-112112474D01*
X143971604Y-112112472D01*
X143964086Y-112108281D01*
X143964078Y-112108278D01*
X143915628Y-112092239D01*
X143907174Y-112089095D01*
X143906053Y-112088631D01*
X143906024Y-112088619D01*
X143871272Y-112074224D01*
X143815874Y-112051277D01*
X143787844Y-112035094D01*
X143763736Y-112016595D01*
X143731229Y-111991651D01*
X143708342Y-111968763D01*
X143664906Y-111912157D01*
X143648720Y-111884122D01*
X143621412Y-111818194D01*
X143613034Y-111786925D01*
X143599687Y-111685535D01*
X143599686Y-111685531D01*
X143599685Y-111685523D01*
X143584587Y-111630837D01*
X143582049Y-111624963D01*
X143552572Y-111576485D01*
X143545910Y-111568327D01*
X143428458Y-111424507D01*
X143401299Y-111360131D01*
X143400500Y-111346073D01*
X143400500Y-105875500D01*
X150614867Y-105875500D01*
X150633302Y-106003722D01*
X150633304Y-106003728D01*
X150633728Y-106004657D01*
X150640595Y-106027389D01*
X150641277Y-106027211D01*
X150740449Y-106405602D01*
X150744500Y-106437039D01*
X150744500Y-106528460D01*
X150740449Y-106559896D01*
X150642821Y-106932395D01*
X150642821Y-106932396D01*
X150641553Y-106937235D01*
X150641140Y-106937126D01*
X150633801Y-106960683D01*
X150633302Y-106961773D01*
X150614867Y-107090000D01*
X150633302Y-107218225D01*
X150687117Y-107336061D01*
X150687118Y-107336063D01*
X150771951Y-107433967D01*
X150880931Y-107504004D01*
X151005225Y-107540499D01*
X151005227Y-107540500D01*
X151005228Y-107540500D01*
X151134773Y-107540500D01*
X151134773Y-107540499D01*
X151259069Y-107504004D01*
X151368049Y-107433967D01*
X151452882Y-107336063D01*
X151506697Y-107218226D01*
X151525133Y-107090000D01*
X151506697Y-106961774D01*
X151506272Y-106960844D01*
X151499408Y-106938112D01*
X151498723Y-106938292D01*
X151497177Y-106932395D01*
X151399550Y-106559897D01*
X151395500Y-106528461D01*
X151395500Y-106437039D01*
X151399551Y-106405602D01*
X151498447Y-106028261D01*
X151498863Y-106028370D01*
X151506204Y-106004805D01*
X151506697Y-106003726D01*
X151525133Y-105875500D01*
X151506697Y-105747274D01*
X151452882Y-105629437D01*
X151368049Y-105531533D01*
X151259069Y-105461496D01*
X151259065Y-105461494D01*
X151259064Y-105461494D01*
X151134774Y-105425000D01*
X151134772Y-105425000D01*
X151005228Y-105425000D01*
X151005226Y-105425000D01*
X150880935Y-105461494D01*
X150880932Y-105461495D01*
X150880931Y-105461496D01*
X150829677Y-105494434D01*
X150771950Y-105531533D01*
X150687118Y-105629437D01*
X150687117Y-105629438D01*
X150633302Y-105747274D01*
X150614867Y-105875500D01*
X143400500Y-105875500D01*
X143400500Y-100474500D01*
X143420185Y-100407461D01*
X143472989Y-100361706D01*
X143524500Y-100350500D01*
X147638773Y-100350500D01*
X147638773Y-100350499D01*
X147763069Y-100314004D01*
X147872049Y-100243967D01*
X147956882Y-100146063D01*
X148010697Y-100028226D01*
X148029133Y-99900000D01*
X148010697Y-99771774D01*
X147956882Y-99653937D01*
X147872049Y-99556033D01*
X147763069Y-99485996D01*
X147763065Y-99485994D01*
X147763064Y-99485994D01*
X147638774Y-99449500D01*
X147638772Y-99449500D01*
X147534309Y-99449500D01*
X144189274Y-99449500D01*
X144122235Y-99429815D01*
X144076480Y-99377011D01*
X144066536Y-99307853D01*
X144066895Y-99305515D01*
X144095489Y-99130425D01*
X144098724Y-99110610D01*
X144103254Y-99094702D01*
X144102939Y-99094618D01*
X144105042Y-99086769D01*
X144105042Y-99086765D01*
X144105044Y-99086762D01*
X144114883Y-99012016D01*
X144115418Y-99008389D01*
X144120599Y-98976673D01*
X144122592Y-98960425D01*
X144122745Y-98958568D01*
X144123086Y-98953727D01*
X144123085Y-98953726D01*
X144123428Y-98948866D01*
X144124184Y-98941373D01*
X144125682Y-98930000D01*
X144121080Y-98895049D01*
X144120622Y-98886647D01*
X144120420Y-98886663D01*
X144119953Y-98880591D01*
X144119954Y-98880582D01*
X144117359Y-98865885D01*
X144116538Y-98860548D01*
X144109255Y-98805228D01*
X144105044Y-98773238D01*
X144103204Y-98768797D01*
X144095653Y-98742904D01*
X144061695Y-98550508D01*
X144061430Y-98508978D01*
X144098725Y-98280608D01*
X144103254Y-98264702D01*
X144102939Y-98264618D01*
X144105042Y-98256769D01*
X144105042Y-98256765D01*
X144105044Y-98256762D01*
X144114883Y-98182016D01*
X144115418Y-98178389D01*
X144120599Y-98146673D01*
X144122592Y-98130425D01*
X144122745Y-98128568D01*
X144123086Y-98123727D01*
X144123085Y-98123726D01*
X144123428Y-98118866D01*
X144124184Y-98111373D01*
X144125682Y-98099999D01*
X144105044Y-97943239D01*
X144105044Y-97943238D01*
X144102616Y-97937376D01*
X144949100Y-97937376D01*
X144949100Y-98805228D01*
X144963603Y-98878140D01*
X144963605Y-98878144D01*
X145018860Y-98960839D01*
X145101555Y-99016094D01*
X145101559Y-99016096D01*
X145174471Y-99030599D01*
X145174474Y-99030600D01*
X146747726Y-99030600D01*
X146747728Y-99030599D01*
X146820640Y-99016096D01*
X146820644Y-99016094D01*
X146903339Y-98960839D01*
X146958594Y-98878144D01*
X146958596Y-98878140D01*
X146973099Y-98805228D01*
X146973100Y-98805226D01*
X146973100Y-97937377D01*
X146973099Y-97937376D01*
X150029100Y-97937376D01*
X150029100Y-98805228D01*
X150043603Y-98878140D01*
X150043605Y-98878144D01*
X150098860Y-98960839D01*
X150181555Y-99016094D01*
X150181559Y-99016096D01*
X150254471Y-99030599D01*
X150254474Y-99030600D01*
X151827726Y-99030600D01*
X151827728Y-99030599D01*
X151900640Y-99016096D01*
X151900644Y-99016094D01*
X151983339Y-98960839D01*
X152038594Y-98878144D01*
X152038596Y-98878140D01*
X152053099Y-98805228D01*
X152053100Y-98805226D01*
X152053100Y-97937377D01*
X152053099Y-97937376D01*
X155109100Y-97937376D01*
X155109100Y-98805228D01*
X155123603Y-98878140D01*
X155123605Y-98878144D01*
X155178860Y-98960839D01*
X155261555Y-99016094D01*
X155261559Y-99016096D01*
X155334471Y-99030599D01*
X155334474Y-99030600D01*
X156907726Y-99030600D01*
X156907728Y-99030599D01*
X156980640Y-99016096D01*
X156980644Y-99016094D01*
X157063339Y-98960839D01*
X157118594Y-98878144D01*
X157118596Y-98878140D01*
X157133099Y-98805228D01*
X157133100Y-98805226D01*
X157133100Y-97937377D01*
X157133099Y-97937376D01*
X160189100Y-97937376D01*
X160189100Y-98805228D01*
X160203603Y-98878140D01*
X160203605Y-98878144D01*
X160258860Y-98960839D01*
X160341555Y-99016094D01*
X160341559Y-99016096D01*
X160414471Y-99030599D01*
X160414474Y-99030600D01*
X161987726Y-99030600D01*
X161987728Y-99030599D01*
X162060640Y-99016096D01*
X162060644Y-99016094D01*
X162143339Y-98960839D01*
X162198594Y-98878144D01*
X162198596Y-98878140D01*
X162213099Y-98805228D01*
X162213100Y-98805226D01*
X162213100Y-97937377D01*
X161201100Y-96925377D01*
X160189100Y-97937376D01*
X157133099Y-97937376D01*
X156121100Y-96925377D01*
X155109100Y-97937376D01*
X152053099Y-97937376D01*
X151041100Y-96925377D01*
X150029100Y-97937376D01*
X146973099Y-97937376D01*
X145961100Y-96925377D01*
X144949100Y-97937376D01*
X144102616Y-97937376D01*
X144044536Y-97797159D01*
X143948282Y-97671718D01*
X143833735Y-97583823D01*
X144949100Y-97583823D01*
X145784323Y-96748600D01*
X145784323Y-96748599D01*
X146137877Y-96748599D01*
X146137877Y-96748600D01*
X146973099Y-97583823D01*
X150029100Y-97583823D01*
X150864323Y-96748600D01*
X150864323Y-96748599D01*
X151217877Y-96748599D01*
X151217877Y-96748600D01*
X152053099Y-97583823D01*
X155109100Y-97583823D01*
X155944323Y-96748600D01*
X155944323Y-96748599D01*
X156297877Y-96748599D01*
X156297877Y-96748600D01*
X157133099Y-97583823D01*
X160189100Y-97583823D01*
X161024323Y-96748600D01*
X161024323Y-96748599D01*
X161377877Y-96748599D01*
X161377877Y-96748600D01*
X162213099Y-97583823D01*
X162213100Y-97583822D01*
X162213100Y-95913377D01*
X162213099Y-95913376D01*
X161377877Y-96748599D01*
X161024323Y-96748599D01*
X160189100Y-95913376D01*
X160189100Y-97583823D01*
X157133099Y-97583823D01*
X157133100Y-97583822D01*
X157133100Y-95913377D01*
X157133099Y-95913376D01*
X156297877Y-96748599D01*
X155944323Y-96748599D01*
X155109100Y-95913376D01*
X155109100Y-97583823D01*
X152053099Y-97583823D01*
X152053100Y-97583822D01*
X152053100Y-95913377D01*
X152053099Y-95913376D01*
X151217877Y-96748599D01*
X150864323Y-96748599D01*
X150029100Y-95913376D01*
X150029100Y-97583823D01*
X146973099Y-97583823D01*
X146973100Y-97583822D01*
X146973100Y-95913377D01*
X146973099Y-95913376D01*
X146137877Y-96748599D01*
X145784323Y-96748599D01*
X144949100Y-95913376D01*
X144949100Y-97583823D01*
X143833735Y-97583823D01*
X143822841Y-97575464D01*
X143676762Y-97514956D01*
X143676760Y-97514955D01*
X143520001Y-97494318D01*
X143519999Y-97494318D01*
X143363239Y-97514955D01*
X143363237Y-97514956D01*
X143217160Y-97575463D01*
X143091718Y-97671718D01*
X142995463Y-97797160D01*
X142934956Y-97943237D01*
X142934955Y-97943239D01*
X142914318Y-98099998D01*
X142914318Y-98100001D01*
X142934955Y-98256760D01*
X142934957Y-98256765D01*
X142943619Y-98277677D01*
X142949531Y-98300426D01*
X142950401Y-98300238D01*
X142951691Y-98306185D01*
X142951692Y-98306190D01*
X142976073Y-98418521D01*
X142991052Y-98487535D01*
X142991117Y-98539835D01*
X142950577Y-98728888D01*
X142950002Y-98728764D01*
X142943626Y-98752302D01*
X142934958Y-98773230D01*
X142934955Y-98773239D01*
X142914318Y-98929998D01*
X142914318Y-98930001D01*
X142934955Y-99086760D01*
X142934957Y-99086765D01*
X142943619Y-99107677D01*
X142949531Y-99130425D01*
X142950400Y-99130237D01*
X143007136Y-99391634D01*
X143002120Y-99461324D01*
X142960222Y-99517238D01*
X142947960Y-99525322D01*
X142923389Y-99539508D01*
X142923384Y-99539512D01*
X142589513Y-99873383D01*
X142589509Y-99873389D01*
X142530201Y-99976112D01*
X142530200Y-99976117D01*
X142499500Y-100090691D01*
X142499500Y-111418549D01*
X142496127Y-111447276D01*
X142495006Y-111451982D01*
X142285954Y-112984067D01*
X142282360Y-113001233D01*
X142276912Y-113020379D01*
X142270367Y-113043387D01*
X142233090Y-113102481D01*
X142169782Y-113132041D01*
X142100542Y-113122681D01*
X142047354Y-113077373D01*
X142031834Y-113043390D01*
X141972742Y-112835701D01*
X141972739Y-112835695D01*
X141876447Y-112642314D01*
X141876442Y-112642306D01*
X141746253Y-112469909D01*
X141711172Y-112437928D01*
X141586601Y-112324366D01*
X141586598Y-112324364D01*
X141586597Y-112324363D01*
X141402926Y-112210640D01*
X141402923Y-112210638D01*
X141381101Y-112202184D01*
X141201476Y-112132596D01*
X140989118Y-112092900D01*
X140773082Y-112092900D01*
X140560724Y-112132596D01*
X140560721Y-112132596D01*
X140560721Y-112132597D01*
X140359276Y-112210638D01*
X140359273Y-112210640D01*
X140175602Y-112324363D01*
X140015946Y-112469909D01*
X139885757Y-112642306D01*
X139885752Y-112642314D01*
X139789460Y-112835695D01*
X139789457Y-112835701D01*
X139730339Y-113043483D01*
X139730338Y-113043486D01*
X139710406Y-113258599D01*
X139710406Y-113258600D01*
X139730338Y-113473713D01*
X139730339Y-113473716D01*
X139789457Y-113681498D01*
X139789460Y-113681504D01*
X139885752Y-113874885D01*
X139885757Y-113874893D01*
X139957534Y-113969940D01*
X140015947Y-114047291D01*
X140175599Y-114192834D01*
X140175601Y-114192835D01*
X140175602Y-114192836D01*
X140193526Y-114203934D01*
X140359277Y-114306562D01*
X140560724Y-114384604D01*
X140773082Y-114424300D01*
X140773085Y-114424300D01*
X140989115Y-114424300D01*
X140989118Y-114424300D01*
X141201476Y-114384604D01*
X141402923Y-114306562D01*
X141586601Y-114192834D01*
X141746253Y-114047291D01*
X141876444Y-113874891D01*
X141972740Y-113681503D01*
X142031834Y-113473806D01*
X142069113Y-113414716D01*
X142132422Y-113385158D01*
X142201662Y-113394520D01*
X142254848Y-113439829D01*
X142270364Y-113473803D01*
X142318323Y-113642361D01*
X142329461Y-113681506D01*
X142425752Y-113874885D01*
X142425757Y-113874893D01*
X142497534Y-113969940D01*
X142555947Y-114047291D01*
X142715599Y-114192834D01*
X142715601Y-114192835D01*
X142715602Y-114192836D01*
X142733526Y-114203934D01*
X142899277Y-114306562D01*
X143100724Y-114384604D01*
X143313082Y-114424300D01*
X143313085Y-114424300D01*
X143529115Y-114424300D01*
X143529118Y-114424300D01*
X143741476Y-114384604D01*
X143942923Y-114306562D01*
X144126601Y-114192834D01*
X144286253Y-114047291D01*
X144416444Y-113874891D01*
X144512740Y-113681503D01*
X144571834Y-113473806D01*
X144609113Y-113414716D01*
X144672422Y-113385158D01*
X144741662Y-113394520D01*
X144794848Y-113439829D01*
X144810364Y-113473803D01*
X144849107Y-113609968D01*
X144869460Y-113681504D01*
X144890034Y-113722822D01*
X144896627Y-113738751D01*
X144897522Y-113741428D01*
X144897526Y-113741436D01*
X144909594Y-113762557D01*
X144912929Y-113768801D01*
X144965752Y-113874885D01*
X144965757Y-113874893D01*
X144993939Y-113912211D01*
X145002650Y-113925421D01*
X145331829Y-114501536D01*
X145441171Y-114692903D01*
X145494265Y-114785825D01*
X145510600Y-114847342D01*
X145510600Y-114930409D01*
X145517087Y-114954621D01*
X145534812Y-115020772D01*
X145541300Y-115044985D01*
X145541300Y-115044986D01*
X145541301Y-115044987D01*
X145600611Y-115147714D01*
X145600613Y-115147716D01*
X145838888Y-115385991D01*
X145846780Y-115394667D01*
X145850166Y-115398764D01*
X145855576Y-115403788D01*
X145862705Y-115409808D01*
X146014316Y-115561419D01*
X146047801Y-115622742D01*
X146042817Y-115692434D01*
X146000945Y-115748367D01*
X145935481Y-115772784D01*
X145926635Y-115773100D01*
X135804851Y-115773100D01*
X135797364Y-115772874D01*
X135505497Y-115755218D01*
X135490632Y-115753413D01*
X135206712Y-115701383D01*
X135192174Y-115697799D01*
X134916613Y-115611931D01*
X134902612Y-115606622D01*
X134639392Y-115488156D01*
X134626133Y-115481197D01*
X134463216Y-115382711D01*
X134379116Y-115331871D01*
X134366796Y-115323367D01*
X134139579Y-115145353D01*
X134128371Y-115135423D01*
X133924276Y-114931328D01*
X133914346Y-114920120D01*
X133890206Y-114889308D01*
X133736328Y-114692897D01*
X133727830Y-114680586D01*
X133578501Y-114433565D01*
X133571543Y-114420307D01*
X133524154Y-114315014D01*
X133453075Y-114157082D01*
X133447768Y-114143086D01*
X133361900Y-113867525D01*
X133358316Y-113852987D01*
X133306286Y-113569067D01*
X133304481Y-113554202D01*
X133301483Y-113504648D01*
X133286826Y-113262336D01*
X133286600Y-113254849D01*
X133286600Y-113140502D01*
X134300600Y-113140502D01*
X134300600Y-113376697D01*
X134337546Y-113609968D01*
X134410533Y-113834596D01*
X134479495Y-113969940D01*
X134517757Y-114045033D01*
X134656583Y-114236110D01*
X134823590Y-114403117D01*
X135014667Y-114541943D01*
X135112978Y-114592035D01*
X135225103Y-114649166D01*
X135225105Y-114649166D01*
X135225108Y-114649168D01*
X135345512Y-114688289D01*
X135449731Y-114722153D01*
X135683003Y-114759100D01*
X135683008Y-114759100D01*
X135919197Y-114759100D01*
X136152468Y-114722153D01*
X136199070Y-114707011D01*
X136377092Y-114649168D01*
X136587533Y-114541943D01*
X136778610Y-114403117D01*
X136945617Y-114236110D01*
X137084443Y-114045033D01*
X137191668Y-113834592D01*
X137264653Y-113609968D01*
X137271683Y-113565582D01*
X137301600Y-113376697D01*
X137301600Y-113140502D01*
X137264653Y-112907231D01*
X137191666Y-112682603D01*
X137084442Y-112472166D01*
X137062995Y-112442647D01*
X136945617Y-112281090D01*
X136778610Y-112114083D01*
X136587533Y-111975257D01*
X136574788Y-111968763D01*
X136377096Y-111868033D01*
X136152468Y-111795046D01*
X135919197Y-111758100D01*
X135919192Y-111758100D01*
X135683008Y-111758100D01*
X135683003Y-111758100D01*
X135449731Y-111795046D01*
X135225103Y-111868033D01*
X135014666Y-111975257D01*
X134918632Y-112045031D01*
X134823590Y-112114083D01*
X134823588Y-112114085D01*
X134823587Y-112114085D01*
X134656585Y-112281087D01*
X134656585Y-112281088D01*
X134656583Y-112281090D01*
X134625143Y-112324363D01*
X134517757Y-112472166D01*
X134410533Y-112682603D01*
X134337546Y-112907231D01*
X134300600Y-113140502D01*
X133286600Y-113140502D01*
X133286600Y-97937376D01*
X134789100Y-97937376D01*
X134789100Y-98805228D01*
X134803603Y-98878140D01*
X134803605Y-98878144D01*
X134858860Y-98960839D01*
X134941555Y-99016094D01*
X134941559Y-99016096D01*
X135014471Y-99030599D01*
X135014474Y-99030600D01*
X136587726Y-99030600D01*
X136587728Y-99030599D01*
X136660640Y-99016096D01*
X136660644Y-99016094D01*
X136743339Y-98960839D01*
X136798594Y-98878144D01*
X136798596Y-98878140D01*
X136813099Y-98805228D01*
X136813100Y-98805226D01*
X136813100Y-97937377D01*
X136813099Y-97937376D01*
X139869100Y-97937376D01*
X139869100Y-98805228D01*
X139883603Y-98878140D01*
X139883605Y-98878144D01*
X139938860Y-98960839D01*
X140021555Y-99016094D01*
X140021559Y-99016096D01*
X140094471Y-99030599D01*
X140094474Y-99030600D01*
X141667726Y-99030600D01*
X141667728Y-99030599D01*
X141740640Y-99016096D01*
X141740644Y-99016094D01*
X141823339Y-98960839D01*
X141878594Y-98878144D01*
X141878596Y-98878140D01*
X141893099Y-98805228D01*
X141893100Y-98805226D01*
X141893100Y-97937377D01*
X140881100Y-96925377D01*
X139869100Y-97937376D01*
X136813099Y-97937376D01*
X135801100Y-96925377D01*
X134789100Y-97937376D01*
X133286600Y-97937376D01*
X133286600Y-97583823D01*
X134789100Y-97583823D01*
X135624323Y-96748600D01*
X135624323Y-96748599D01*
X135977877Y-96748599D01*
X135977877Y-96748600D01*
X136813099Y-97583823D01*
X139869100Y-97583823D01*
X140704323Y-96748600D01*
X140704323Y-96748599D01*
X141057877Y-96748599D01*
X141057877Y-96748600D01*
X141893099Y-97583823D01*
X141893100Y-97583822D01*
X141893100Y-95913377D01*
X141893099Y-95913376D01*
X141057877Y-96748599D01*
X140704323Y-96748599D01*
X139869100Y-95913376D01*
X139869100Y-97583823D01*
X136813099Y-97583823D01*
X136813100Y-97583822D01*
X136813100Y-95913377D01*
X136813099Y-95913376D01*
X135977877Y-96748599D01*
X135624323Y-96748599D01*
X134789100Y-95913376D01*
X134789100Y-97583823D01*
X133286600Y-97583823D01*
X133286600Y-96752350D01*
X133286826Y-96744863D01*
X133304481Y-96452997D01*
X133306286Y-96438132D01*
X133358316Y-96154212D01*
X133361900Y-96139674D01*
X133447771Y-95864103D01*
X133453073Y-95850122D01*
X133571546Y-95586885D01*
X133578497Y-95573640D01*
X133727835Y-95326605D01*
X133736322Y-95314309D01*
X133914353Y-95087070D01*
X133924268Y-95075879D01*
X134128379Y-94871768D01*
X134139570Y-94861853D01*
X134366809Y-94683822D01*
X134379105Y-94675335D01*
X134608281Y-94536794D01*
X134675834Y-94518959D01*
X134742308Y-94540477D01*
X134786595Y-94594517D01*
X134794636Y-94663923D01*
X134794047Y-94667100D01*
X134789100Y-94691973D01*
X134789100Y-95559823D01*
X135801100Y-96571823D01*
X136813099Y-95559823D01*
X136813100Y-95559822D01*
X136813100Y-94691973D01*
X136813099Y-94691971D01*
X136798596Y-94619059D01*
X136798594Y-94619055D01*
X136743339Y-94536360D01*
X136660644Y-94481105D01*
X136660640Y-94481103D01*
X136653671Y-94479717D01*
X136591760Y-94447332D01*
X136557186Y-94386617D01*
X136560925Y-94316847D01*
X136601792Y-94260175D01*
X136666810Y-94234594D01*
X136677862Y-94234100D01*
X140004338Y-94234100D01*
X140071377Y-94253785D01*
G37*
%TD.AperFunction*%
%TD*%
%TA.AperFunction,Conductor*%
%TO.N,CLK1*%
G36*
X143202722Y-111473075D02*
G01*
X143203511Y-111473947D01*
X143393405Y-111706471D01*
X143395943Y-111712345D01*
X143414955Y-111856759D01*
X143414958Y-111856768D01*
X143475459Y-112002832D01*
X143475463Y-112002838D01*
X143475464Y-112002841D01*
X143571718Y-112128282D01*
X143697159Y-112224536D01*
X143697163Y-112224537D01*
X143697167Y-112224540D01*
X143792631Y-112264082D01*
X143843238Y-112285044D01*
X143864034Y-112287781D01*
X143871568Y-112291980D01*
X144096912Y-112567913D01*
X144099491Y-112576489D01*
X144096129Y-112583581D01*
X143424533Y-113256161D01*
X143416263Y-113259594D01*
X143416242Y-113259594D01*
X142469291Y-113258613D01*
X142461021Y-113255178D01*
X142457603Y-113246901D01*
X142457709Y-113245338D01*
X142698619Y-111479765D01*
X142703133Y-111472032D01*
X142710212Y-111469648D01*
X143194449Y-111469648D01*
X143202722Y-111473075D01*
G37*
%TD.AperFunction*%
%TD*%
%TA.AperFunction,Conductor*%
%TO.N,CLK1*%
G36*
X143906269Y-98929965D02*
G01*
X143914533Y-98933413D01*
X143917939Y-98941694D01*
X143917786Y-98943551D01*
X143791603Y-99716208D01*
X143786888Y-99723820D01*
X143780056Y-99726022D01*
X143299433Y-99726022D01*
X143291160Y-99722595D01*
X143287999Y-99716804D01*
X143152516Y-99092601D01*
X143154110Y-99083789D01*
X143159446Y-99079321D01*
X143517829Y-98929904D01*
X143522350Y-98929005D01*
X143906269Y-98929965D01*
G37*
%TD.AperFunction*%
%TD*%
%TA.AperFunction,Conductor*%
%TO.N,CLK1*%
G36*
X143769748Y-98097974D02*
G01*
X143774470Y-98105461D01*
X143917582Y-98916300D01*
X143915645Y-98925043D01*
X143908094Y-98929856D01*
X143906089Y-98930034D01*
X143522519Y-98930980D01*
X143517990Y-98930080D01*
X143159427Y-98780668D01*
X143153108Y-98774322D01*
X143152487Y-98767417D01*
X143277592Y-98184026D01*
X143282676Y-98176657D01*
X143287103Y-98174941D01*
X143761025Y-98095954D01*
X143769748Y-98097974D01*
G37*
%TD.AperFunction*%
%TD*%
%TA.AperFunction,Conductor*%
%TO.N,CLK1*%
G36*
X143906269Y-98099965D02*
G01*
X143914533Y-98103413D01*
X143917939Y-98111694D01*
X143917786Y-98113551D01*
X143791603Y-98886208D01*
X143786888Y-98893820D01*
X143780056Y-98896022D01*
X143299433Y-98896022D01*
X143291160Y-98892595D01*
X143287999Y-98886804D01*
X143152516Y-98262601D01*
X143154110Y-98253789D01*
X143159446Y-98249321D01*
X143517829Y-98099904D01*
X143522350Y-98099005D01*
X143906269Y-98099965D01*
G37*
%TD.AperFunction*%
%TD*%
%TA.AperFunction,Conductor*%
%TO.N,CLK2*%
G36*
X158635939Y-110739964D02*
G01*
X158644202Y-110743412D01*
X158647608Y-110751693D01*
X158647408Y-110753820D01*
X158501790Y-111530456D01*
X158496897Y-111537956D01*
X158490290Y-111540000D01*
X158009710Y-111540000D01*
X158001437Y-111536573D01*
X157998210Y-111530456D01*
X157852591Y-110753820D01*
X157854435Y-110745057D01*
X157861935Y-110740164D01*
X157864052Y-110739964D01*
X158250000Y-110739000D01*
X158635939Y-110739964D01*
G37*
%TD.AperFunction*%
%TD*%
%TA.AperFunction,Conductor*%
%TO.N,CLK2*%
G36*
X146468514Y-113468599D02*
G01*
X146842343Y-113623618D01*
X146848672Y-113629953D01*
X146848799Y-113638579D01*
X146363555Y-114916766D01*
X146360890Y-114920886D01*
X146019944Y-115261832D01*
X146011671Y-115265259D01*
X146003398Y-115261832D01*
X146001512Y-115259363D01*
X145075953Y-113639485D01*
X145074824Y-113630602D01*
X145080308Y-113623522D01*
X145081612Y-113622881D01*
X145955909Y-113259754D01*
X145964862Y-113259746D01*
X146468514Y-113468599D01*
G37*
%TD.AperFunction*%
%TD*%
%TA.AperFunction,Conductor*%
%TO.N,+3.3V*%
G36*
X151291591Y-105967245D02*
G01*
X151297900Y-105973601D01*
X151298392Y-105981004D01*
X151197289Y-106366766D01*
X151191876Y-106373900D01*
X151185971Y-106375500D01*
X150954029Y-106375500D01*
X150945756Y-106372073D01*
X150942711Y-106366766D01*
X150841607Y-105981004D01*
X150842825Y-105972133D01*
X150848406Y-105967246D01*
X151065484Y-105876389D01*
X151074437Y-105876357D01*
X151291591Y-105967245D01*
G37*
%TD.AperFunction*%
%TD*%
%TA.AperFunction,Conductor*%
%TO.N,+3.3V*%
G36*
X151194244Y-106593427D02*
G01*
X151197289Y-106598734D01*
X151298392Y-106984495D01*
X151297174Y-106993366D01*
X151291591Y-106998254D01*
X151074517Y-107089109D01*
X151065563Y-107089142D01*
X151065483Y-107089109D01*
X150848408Y-106998254D01*
X150842099Y-106991898D01*
X150841607Y-106984495D01*
X150942711Y-106598734D01*
X150948124Y-106591600D01*
X150954029Y-106590000D01*
X151185971Y-106590000D01*
X151194244Y-106593427D01*
G37*
%TD.AperFunction*%
%TD*%
M02*
