%TF.GenerationSoftware,KiCad,Pcbnew,8.99.0-unknown-7774a43762~178~ubuntu22.04.1*%
%TF.CreationDate,2024-05-27T17:10:49+05:30*%
%TF.ProjectId,Adafruit Si5351A,41646166-7275-4697-9420-536935333531,rev?*%
%TF.SameCoordinates,Original*%
%TF.FileFunction,Legend,Top*%
%TF.FilePolarity,Positive*%
%FSLAX46Y46*%
G04 Gerber Fmt 4.6, Leading zero omitted, Abs format (unit mm)*
G04 Created by KiCad (PCBNEW 8.99.0-unknown-7774a43762~178~ubuntu22.04.1) date 2024-05-27 17:10:49*
%MOMM*%
%LPD*%
G01*
G04 APERTURE LIST*
G04 Aperture macros list*
%AMRoundRect*
0 Rectangle with rounded corners*
0 $1 Rounding radius*
0 $2 $3 $4 $5 $6 $7 $8 $9 X,Y pos of 4 corners*
0 Add a 4 corners polygon primitive as box body*
4,1,4,$2,$3,$4,$5,$6,$7,$8,$9,$2,$3,0*
0 Add four circle primitives for the rounded corners*
1,1,$1+$1,$2,$3*
1,1,$1+$1,$4,$5*
1,1,$1+$1,$6,$7*
1,1,$1+$1,$8,$9*
0 Add four rect primitives between the rounded corners*
20,1,$1+$1,$2,$3,$4,$5,0*
20,1,$1+$1,$4,$5,$6,$7,0*
20,1,$1+$1,$6,$7,$8,$9,0*
20,1,$1+$1,$8,$9,$2,$3,0*%
G04 Aperture macros list end*
%ADD10C,0.203200*%
%ADD11C,0.152400*%
%ADD12C,0.150000*%
%ADD13C,0.120000*%
%ADD14C,0.250000*%
%ADD15C,0.300000*%
%ADD16RoundRect,0.050800X-0.762000X-2.032000X0.762000X-2.032000X0.762000X2.032000X-0.762000X2.032000X0*%
%ADD17RoundRect,0.050800X-0.635000X-2.032000X0.635000X-2.032000X0.635000X2.032000X-0.635000X2.032000X0*%
%ADD18RoundRect,0.250000X0.450000X-0.350000X0.450000X0.350000X-0.450000X0.350000X-0.450000X-0.350000X0*%
%ADD19RoundRect,0.250000X-0.450000X0.350000X-0.450000X-0.350000X0.450000X-0.350000X0.450000X0.350000X0*%
%ADD20C,2.000000*%
%ADD21RoundRect,0.250000X-0.350000X-0.450000X0.350000X-0.450000X0.350000X0.450000X-0.350000X0.450000X0*%
%ADD22C,2.500000*%
%ADD23RoundRect,0.250000X0.350000X0.450000X-0.350000X0.450000X-0.350000X-0.450000X0.350000X-0.450000X0*%
%ADD24RoundRect,0.050800X-0.965200X0.965200X-0.965200X-0.965200X0.965200X-0.965200X0.965200X0.965200X0*%
%ADD25C,2.032000*%
%ADD26RoundRect,0.250000X-0.337500X-0.475000X0.337500X-0.475000X0.337500X0.475000X-0.337500X0.475000X0*%
%ADD27R,1.000000X0.800000*%
%ADD28RoundRect,0.250000X-0.250000X-0.475000X0.250000X-0.475000X0.250000X0.475000X-0.250000X0.475000X0*%
%ADD29R,1.400000X0.300000*%
G04 APERTURE END LIST*
D10*
X148920200Y-100076355D02*
X148310600Y-100076355D01*
X148615400Y-100076355D02*
X148615400Y-99009555D01*
X148615400Y-99009555D02*
X148513800Y-99161955D01*
X148513800Y-99161955D02*
X148412200Y-99263555D01*
X148412200Y-99263555D02*
X148310600Y-99314355D01*
D11*
X153816180Y-114729117D02*
X153733933Y-114687993D01*
X153733933Y-114687993D02*
X153610561Y-114687993D01*
X153610561Y-114687993D02*
X153487190Y-114729117D01*
X153487190Y-114729117D02*
X153404942Y-114811365D01*
X153404942Y-114811365D02*
X153363819Y-114893612D01*
X153363819Y-114893612D02*
X153322695Y-115058108D01*
X153322695Y-115058108D02*
X153322695Y-115181479D01*
X153322695Y-115181479D02*
X153363819Y-115345974D01*
X153363819Y-115345974D02*
X153404942Y-115428222D01*
X153404942Y-115428222D02*
X153487190Y-115510470D01*
X153487190Y-115510470D02*
X153610561Y-115551593D01*
X153610561Y-115551593D02*
X153692809Y-115551593D01*
X153692809Y-115551593D02*
X153816180Y-115510470D01*
X153816180Y-115510470D02*
X153857304Y-115469346D01*
X153857304Y-115469346D02*
X153857304Y-115181479D01*
X153857304Y-115181479D02*
X153692809Y-115181479D01*
X140827276Y-111110193D02*
X140909523Y-111110193D01*
X140909523Y-111110193D02*
X140991771Y-111151317D01*
X140991771Y-111151317D02*
X141032895Y-111192441D01*
X141032895Y-111192441D02*
X141074019Y-111274689D01*
X141074019Y-111274689D02*
X141115142Y-111439184D01*
X141115142Y-111439184D02*
X141115142Y-111644803D01*
X141115142Y-111644803D02*
X141074019Y-111809298D01*
X141074019Y-111809298D02*
X141032895Y-111891546D01*
X141032895Y-111891546D02*
X140991771Y-111932670D01*
X140991771Y-111932670D02*
X140909523Y-111973793D01*
X140909523Y-111973793D02*
X140827276Y-111973793D01*
X140827276Y-111973793D02*
X140745028Y-111932670D01*
X140745028Y-111932670D02*
X140703904Y-111891546D01*
X140703904Y-111891546D02*
X140662781Y-111809298D01*
X140662781Y-111809298D02*
X140621657Y-111644803D01*
X140621657Y-111644803D02*
X140621657Y-111439184D01*
X140621657Y-111439184D02*
X140662781Y-111274689D01*
X140662781Y-111274689D02*
X140703904Y-111192441D01*
X140703904Y-111192441D02*
X140745028Y-111151317D01*
X140745028Y-111151317D02*
X140827276Y-111110193D01*
X147421905Y-115550470D02*
X147545276Y-115591593D01*
X147545276Y-115591593D02*
X147750895Y-115591593D01*
X147750895Y-115591593D02*
X147833143Y-115550470D01*
X147833143Y-115550470D02*
X147874267Y-115509346D01*
X147874267Y-115509346D02*
X147915390Y-115427098D01*
X147915390Y-115427098D02*
X147915390Y-115344850D01*
X147915390Y-115344850D02*
X147874267Y-115262603D01*
X147874267Y-115262603D02*
X147833143Y-115221479D01*
X147833143Y-115221479D02*
X147750895Y-115180355D01*
X147750895Y-115180355D02*
X147586400Y-115139231D01*
X147586400Y-115139231D02*
X147504152Y-115098108D01*
X147504152Y-115098108D02*
X147463029Y-115056984D01*
X147463029Y-115056984D02*
X147421905Y-114974736D01*
X147421905Y-114974736D02*
X147421905Y-114892489D01*
X147421905Y-114892489D02*
X147463029Y-114810241D01*
X147463029Y-114810241D02*
X147504152Y-114769117D01*
X147504152Y-114769117D02*
X147586400Y-114727993D01*
X147586400Y-114727993D02*
X147792019Y-114727993D01*
X147792019Y-114727993D02*
X147915390Y-114769117D01*
X148778990Y-115509346D02*
X148737866Y-115550470D01*
X148737866Y-115550470D02*
X148614495Y-115591593D01*
X148614495Y-115591593D02*
X148532247Y-115591593D01*
X148532247Y-115591593D02*
X148408876Y-115550470D01*
X148408876Y-115550470D02*
X148326628Y-115468222D01*
X148326628Y-115468222D02*
X148285505Y-115385974D01*
X148285505Y-115385974D02*
X148244381Y-115221479D01*
X148244381Y-115221479D02*
X148244381Y-115098108D01*
X148244381Y-115098108D02*
X148285505Y-114933612D01*
X148285505Y-114933612D02*
X148326628Y-114851365D01*
X148326628Y-114851365D02*
X148408876Y-114769117D01*
X148408876Y-114769117D02*
X148532247Y-114727993D01*
X148532247Y-114727993D02*
X148614495Y-114727993D01*
X148614495Y-114727993D02*
X148737866Y-114769117D01*
X148737866Y-114769117D02*
X148778990Y-114810241D01*
X149560343Y-115591593D02*
X149149105Y-115591593D01*
X149149105Y-115591593D02*
X149149105Y-114727993D01*
X145693257Y-114770241D02*
X145734381Y-114729117D01*
X145734381Y-114729117D02*
X145816628Y-114687993D01*
X145816628Y-114687993D02*
X146022247Y-114687993D01*
X146022247Y-114687993D02*
X146104495Y-114729117D01*
X146104495Y-114729117D02*
X146145619Y-114770241D01*
X146145619Y-114770241D02*
X146186742Y-114852489D01*
X146186742Y-114852489D02*
X146186742Y-114934736D01*
X146186742Y-114934736D02*
X146145619Y-115058108D01*
X146145619Y-115058108D02*
X145652133Y-115551593D01*
X145652133Y-115551593D02*
X146186742Y-115551593D01*
X150341343Y-115520470D02*
X150464714Y-115561593D01*
X150464714Y-115561593D02*
X150670333Y-115561593D01*
X150670333Y-115561593D02*
X150752581Y-115520470D01*
X150752581Y-115520470D02*
X150793705Y-115479346D01*
X150793705Y-115479346D02*
X150834828Y-115397098D01*
X150834828Y-115397098D02*
X150834828Y-115314850D01*
X150834828Y-115314850D02*
X150793705Y-115232603D01*
X150793705Y-115232603D02*
X150752581Y-115191479D01*
X150752581Y-115191479D02*
X150670333Y-115150355D01*
X150670333Y-115150355D02*
X150505838Y-115109231D01*
X150505838Y-115109231D02*
X150423590Y-115068108D01*
X150423590Y-115068108D02*
X150382467Y-115026984D01*
X150382467Y-115026984D02*
X150341343Y-114944736D01*
X150341343Y-114944736D02*
X150341343Y-114862489D01*
X150341343Y-114862489D02*
X150382467Y-114780241D01*
X150382467Y-114780241D02*
X150423590Y-114739117D01*
X150423590Y-114739117D02*
X150505838Y-114697993D01*
X150505838Y-114697993D02*
X150711457Y-114697993D01*
X150711457Y-114697993D02*
X150834828Y-114739117D01*
X151204943Y-115561593D02*
X151204943Y-114697993D01*
X151204943Y-114697993D02*
X151410562Y-114697993D01*
X151410562Y-114697993D02*
X151533933Y-114739117D01*
X151533933Y-114739117D02*
X151616181Y-114821365D01*
X151616181Y-114821365D02*
X151657304Y-114903612D01*
X151657304Y-114903612D02*
X151698428Y-115068108D01*
X151698428Y-115068108D02*
X151698428Y-115191479D01*
X151698428Y-115191479D02*
X151657304Y-115355974D01*
X151657304Y-115355974D02*
X151616181Y-115438222D01*
X151616181Y-115438222D02*
X151533933Y-115520470D01*
X151533933Y-115520470D02*
X151410562Y-115561593D01*
X151410562Y-115561593D02*
X151204943Y-115561593D01*
X152027419Y-115314850D02*
X152438657Y-115314850D01*
X151945171Y-115561593D02*
X152233038Y-114697993D01*
X152233038Y-114697993D02*
X152520904Y-115561593D01*
X143446742Y-111991593D02*
X142953257Y-111991593D01*
X143200000Y-111991593D02*
X143200000Y-111127993D01*
X143200000Y-111127993D02*
X143117752Y-111251365D01*
X143117752Y-111251365D02*
X143035504Y-111333612D01*
X143035504Y-111333612D02*
X142953257Y-111374736D01*
X154955162Y-114657993D02*
X155489771Y-114657993D01*
X155489771Y-114657993D02*
X155201905Y-114986984D01*
X155201905Y-114986984D02*
X155325276Y-114986984D01*
X155325276Y-114986984D02*
X155407524Y-115028108D01*
X155407524Y-115028108D02*
X155448648Y-115069231D01*
X155448648Y-115069231D02*
X155489771Y-115151479D01*
X155489771Y-115151479D02*
X155489771Y-115357098D01*
X155489771Y-115357098D02*
X155448648Y-115439346D01*
X155448648Y-115439346D02*
X155407524Y-115480470D01*
X155407524Y-115480470D02*
X155325276Y-115521593D01*
X155325276Y-115521593D02*
X155078533Y-115521593D01*
X155078533Y-115521593D02*
X154996286Y-115480470D01*
X154996286Y-115480470D02*
X154955162Y-115439346D01*
X155859886Y-115439346D02*
X155901009Y-115480470D01*
X155901009Y-115480470D02*
X155859886Y-115521593D01*
X155859886Y-115521593D02*
X155818762Y-115480470D01*
X155818762Y-115480470D02*
X155859886Y-115439346D01*
X155859886Y-115439346D02*
X155859886Y-115521593D01*
X156188876Y-114657993D02*
X156723485Y-114657993D01*
X156723485Y-114657993D02*
X156435619Y-114986984D01*
X156435619Y-114986984D02*
X156558990Y-114986984D01*
X156558990Y-114986984D02*
X156641238Y-115028108D01*
X156641238Y-115028108D02*
X156682362Y-115069231D01*
X156682362Y-115069231D02*
X156723485Y-115151479D01*
X156723485Y-115151479D02*
X156723485Y-115357098D01*
X156723485Y-115357098D02*
X156682362Y-115439346D01*
X156682362Y-115439346D02*
X156641238Y-115480470D01*
X156641238Y-115480470D02*
X156558990Y-115521593D01*
X156558990Y-115521593D02*
X156312247Y-115521593D01*
X156312247Y-115521593D02*
X156230000Y-115480470D01*
X156230000Y-115480470D02*
X156188876Y-115439346D01*
X156970228Y-114657993D02*
X157258095Y-115521593D01*
X157258095Y-115521593D02*
X157545961Y-114657993D01*
D10*
X158292800Y-99187355D02*
X158343600Y-99136555D01*
X158343600Y-99136555D02*
X158445200Y-99085755D01*
X158445200Y-99085755D02*
X158699200Y-99085755D01*
X158699200Y-99085755D02*
X158800800Y-99136555D01*
X158800800Y-99136555D02*
X158851600Y-99187355D01*
X158851600Y-99187355D02*
X158902400Y-99288955D01*
X158902400Y-99288955D02*
X158902400Y-99390555D01*
X158902400Y-99390555D02*
X158851600Y-99542955D01*
X158851600Y-99542955D02*
X158242000Y-100152555D01*
X158242000Y-100152555D02*
X158902400Y-100152555D01*
X138249200Y-99296155D02*
X138350800Y-99296155D01*
X138350800Y-99296155D02*
X138452400Y-99346955D01*
X138452400Y-99346955D02*
X138503200Y-99397755D01*
X138503200Y-99397755D02*
X138554000Y-99499355D01*
X138554000Y-99499355D02*
X138604800Y-99702555D01*
X138604800Y-99702555D02*
X138604800Y-99956555D01*
X138604800Y-99956555D02*
X138554000Y-100159755D01*
X138554000Y-100159755D02*
X138503200Y-100261355D01*
X138503200Y-100261355D02*
X138452400Y-100312155D01*
X138452400Y-100312155D02*
X138350800Y-100362955D01*
X138350800Y-100362955D02*
X138249200Y-100362955D01*
X138249200Y-100362955D02*
X138147600Y-100312155D01*
X138147600Y-100312155D02*
X138096800Y-100261355D01*
X138096800Y-100261355D02*
X138046000Y-100159755D01*
X138046000Y-100159755D02*
X137995200Y-99956555D01*
X137995200Y-99956555D02*
X137995200Y-99702555D01*
X137995200Y-99702555D02*
X138046000Y-99499355D01*
X138046000Y-99499355D02*
X138096800Y-99397755D01*
X138096800Y-99397755D02*
X138147600Y-99346955D01*
X138147600Y-99346955D02*
X138249200Y-99296155D01*
D12*
X160644819Y-109226666D02*
X160168628Y-109559999D01*
X160644819Y-109798094D02*
X159644819Y-109798094D01*
X159644819Y-109798094D02*
X159644819Y-109417142D01*
X159644819Y-109417142D02*
X159692438Y-109321904D01*
X159692438Y-109321904D02*
X159740057Y-109274285D01*
X159740057Y-109274285D02*
X159835295Y-109226666D01*
X159835295Y-109226666D02*
X159978152Y-109226666D01*
X159978152Y-109226666D02*
X160073390Y-109274285D01*
X160073390Y-109274285D02*
X160121009Y-109321904D01*
X160121009Y-109321904D02*
X160168628Y-109417142D01*
X160168628Y-109417142D02*
X160168628Y-109798094D01*
X159644819Y-108321904D02*
X159644819Y-108798094D01*
X159644819Y-108798094D02*
X160121009Y-108845713D01*
X160121009Y-108845713D02*
X160073390Y-108798094D01*
X160073390Y-108798094D02*
X160025771Y-108702856D01*
X160025771Y-108702856D02*
X160025771Y-108464761D01*
X160025771Y-108464761D02*
X160073390Y-108369523D01*
X160073390Y-108369523D02*
X160121009Y-108321904D01*
X160121009Y-108321904D02*
X160216247Y-108274285D01*
X160216247Y-108274285D02*
X160454342Y-108274285D01*
X160454342Y-108274285D02*
X160549580Y-108321904D01*
X160549580Y-108321904D02*
X160597200Y-108369523D01*
X160597200Y-108369523D02*
X160644819Y-108464761D01*
X160644819Y-108464761D02*
X160644819Y-108702856D01*
X160644819Y-108702856D02*
X160597200Y-108798094D01*
X160597200Y-108798094D02*
X160549580Y-108845713D01*
X143513333Y-100454819D02*
X143180000Y-99978628D01*
X142941905Y-100454819D02*
X142941905Y-99454819D01*
X142941905Y-99454819D02*
X143322857Y-99454819D01*
X143322857Y-99454819D02*
X143418095Y-99502438D01*
X143418095Y-99502438D02*
X143465714Y-99550057D01*
X143465714Y-99550057D02*
X143513333Y-99645295D01*
X143513333Y-99645295D02*
X143513333Y-99788152D01*
X143513333Y-99788152D02*
X143465714Y-99883390D01*
X143465714Y-99883390D02*
X143418095Y-99931009D01*
X143418095Y-99931009D02*
X143322857Y-99978628D01*
X143322857Y-99978628D02*
X142941905Y-99978628D01*
X143894286Y-99550057D02*
X143941905Y-99502438D01*
X143941905Y-99502438D02*
X144037143Y-99454819D01*
X144037143Y-99454819D02*
X144275238Y-99454819D01*
X144275238Y-99454819D02*
X144370476Y-99502438D01*
X144370476Y-99502438D02*
X144418095Y-99550057D01*
X144418095Y-99550057D02*
X144465714Y-99645295D01*
X144465714Y-99645295D02*
X144465714Y-99740533D01*
X144465714Y-99740533D02*
X144418095Y-99883390D01*
X144418095Y-99883390D02*
X143846667Y-100454819D01*
X143846667Y-100454819D02*
X144465714Y-100454819D01*
X137033333Y-103004819D02*
X136700000Y-102528628D01*
X136461905Y-103004819D02*
X136461905Y-102004819D01*
X136461905Y-102004819D02*
X136842857Y-102004819D01*
X136842857Y-102004819D02*
X136938095Y-102052438D01*
X136938095Y-102052438D02*
X136985714Y-102100057D01*
X136985714Y-102100057D02*
X137033333Y-102195295D01*
X137033333Y-102195295D02*
X137033333Y-102338152D01*
X137033333Y-102338152D02*
X136985714Y-102433390D01*
X136985714Y-102433390D02*
X136938095Y-102481009D01*
X136938095Y-102481009D02*
X136842857Y-102528628D01*
X136842857Y-102528628D02*
X136461905Y-102528628D01*
X137985714Y-103004819D02*
X137414286Y-103004819D01*
X137700000Y-103004819D02*
X137700000Y-102004819D01*
X137700000Y-102004819D02*
X137604762Y-102147676D01*
X137604762Y-102147676D02*
X137509524Y-102242914D01*
X137509524Y-102242914D02*
X137414286Y-102290533D01*
X151691667Y-109916295D02*
X151425000Y-109535342D01*
X151234524Y-109916295D02*
X151234524Y-109116295D01*
X151234524Y-109116295D02*
X151539286Y-109116295D01*
X151539286Y-109116295D02*
X151615476Y-109154390D01*
X151615476Y-109154390D02*
X151653571Y-109192485D01*
X151653571Y-109192485D02*
X151691667Y-109268676D01*
X151691667Y-109268676D02*
X151691667Y-109382961D01*
X151691667Y-109382961D02*
X151653571Y-109459152D01*
X151653571Y-109459152D02*
X151615476Y-109497247D01*
X151615476Y-109497247D02*
X151539286Y-109535342D01*
X151539286Y-109535342D02*
X151234524Y-109535342D01*
X152377381Y-109382961D02*
X152377381Y-109916295D01*
X152186905Y-109078200D02*
X151996428Y-109649628D01*
X151996428Y-109649628D02*
X152491667Y-109649628D01*
X147313667Y-109810895D02*
X147047000Y-109429942D01*
X146856524Y-109810895D02*
X146856524Y-109010895D01*
X146856524Y-109010895D02*
X147161286Y-109010895D01*
X147161286Y-109010895D02*
X147237476Y-109048990D01*
X147237476Y-109048990D02*
X147275571Y-109087085D01*
X147275571Y-109087085D02*
X147313667Y-109163276D01*
X147313667Y-109163276D02*
X147313667Y-109277561D01*
X147313667Y-109277561D02*
X147275571Y-109353752D01*
X147275571Y-109353752D02*
X147237476Y-109391847D01*
X147237476Y-109391847D02*
X147161286Y-109429942D01*
X147161286Y-109429942D02*
X146856524Y-109429942D01*
X147580333Y-109010895D02*
X148075571Y-109010895D01*
X148075571Y-109010895D02*
X147808905Y-109315657D01*
X147808905Y-109315657D02*
X147923190Y-109315657D01*
X147923190Y-109315657D02*
X147999381Y-109353752D01*
X147999381Y-109353752D02*
X148037476Y-109391847D01*
X148037476Y-109391847D02*
X148075571Y-109468038D01*
X148075571Y-109468038D02*
X148075571Y-109658514D01*
X148075571Y-109658514D02*
X148037476Y-109734704D01*
X148037476Y-109734704D02*
X147999381Y-109772800D01*
X147999381Y-109772800D02*
X147923190Y-109810895D01*
X147923190Y-109810895D02*
X147694619Y-109810895D01*
X147694619Y-109810895D02*
X147618428Y-109772800D01*
X147618428Y-109772800D02*
X147580333Y-109734704D01*
X157303333Y-109889580D02*
X157255714Y-109937200D01*
X157255714Y-109937200D02*
X157112857Y-109984819D01*
X157112857Y-109984819D02*
X157017619Y-109984819D01*
X157017619Y-109984819D02*
X156874762Y-109937200D01*
X156874762Y-109937200D02*
X156779524Y-109841961D01*
X156779524Y-109841961D02*
X156731905Y-109746723D01*
X156731905Y-109746723D02*
X156684286Y-109556247D01*
X156684286Y-109556247D02*
X156684286Y-109413390D01*
X156684286Y-109413390D02*
X156731905Y-109222914D01*
X156731905Y-109222914D02*
X156779524Y-109127676D01*
X156779524Y-109127676D02*
X156874762Y-109032438D01*
X156874762Y-109032438D02*
X157017619Y-108984819D01*
X157017619Y-108984819D02*
X157112857Y-108984819D01*
X157112857Y-108984819D02*
X157255714Y-109032438D01*
X157255714Y-109032438D02*
X157303333Y-109080057D01*
X158255714Y-109984819D02*
X157684286Y-109984819D01*
X157970000Y-109984819D02*
X157970000Y-108984819D01*
X157970000Y-108984819D02*
X157874762Y-109127676D01*
X157874762Y-109127676D02*
X157779524Y-109222914D01*
X157779524Y-109222914D02*
X157684286Y-109270533D01*
X148525333Y-107419580D02*
X148477714Y-107467200D01*
X148477714Y-107467200D02*
X148334857Y-107514819D01*
X148334857Y-107514819D02*
X148239619Y-107514819D01*
X148239619Y-107514819D02*
X148096762Y-107467200D01*
X148096762Y-107467200D02*
X148001524Y-107371961D01*
X148001524Y-107371961D02*
X147953905Y-107276723D01*
X147953905Y-107276723D02*
X147906286Y-107086247D01*
X147906286Y-107086247D02*
X147906286Y-106943390D01*
X147906286Y-106943390D02*
X147953905Y-106752914D01*
X147953905Y-106752914D02*
X148001524Y-106657676D01*
X148001524Y-106657676D02*
X148096762Y-106562438D01*
X148096762Y-106562438D02*
X148239619Y-106514819D01*
X148239619Y-106514819D02*
X148334857Y-106514819D01*
X148334857Y-106514819D02*
X148477714Y-106562438D01*
X148477714Y-106562438D02*
X148525333Y-106610057D01*
X148906286Y-106610057D02*
X148953905Y-106562438D01*
X148953905Y-106562438D02*
X149049143Y-106514819D01*
X149049143Y-106514819D02*
X149287238Y-106514819D01*
X149287238Y-106514819D02*
X149382476Y-106562438D01*
X149382476Y-106562438D02*
X149430095Y-106610057D01*
X149430095Y-106610057D02*
X149477714Y-106705295D01*
X149477714Y-106705295D02*
X149477714Y-106800533D01*
X149477714Y-106800533D02*
X149430095Y-106943390D01*
X149430095Y-106943390D02*
X148858667Y-107514819D01*
X148858667Y-107514819D02*
X149477714Y-107514819D01*
X154101895Y-103544019D02*
X154101895Y-104353542D01*
X154101895Y-104353542D02*
X154149514Y-104448780D01*
X154149514Y-104448780D02*
X154197133Y-104496400D01*
X154197133Y-104496400D02*
X154292371Y-104544019D01*
X154292371Y-104544019D02*
X154482847Y-104544019D01*
X154482847Y-104544019D02*
X154578085Y-104496400D01*
X154578085Y-104496400D02*
X154625704Y-104448780D01*
X154625704Y-104448780D02*
X154673323Y-104353542D01*
X154673323Y-104353542D02*
X154673323Y-103544019D01*
X155673323Y-104544019D02*
X155101895Y-104544019D01*
X155387609Y-104544019D02*
X155387609Y-103544019D01*
X155387609Y-103544019D02*
X155292371Y-103686876D01*
X155292371Y-103686876D02*
X155197133Y-103782114D01*
X155197133Y-103782114D02*
X155101895Y-103829733D01*
D13*
%TO.C,R5*%
X160875000Y-108797064D02*
X160875000Y-108342936D01*
X162345000Y-108797064D02*
X162345000Y-108342936D01*
%TO.C,R2*%
X142765000Y-96892936D02*
X142765000Y-97347064D01*
X144235000Y-96892936D02*
X144235000Y-97347064D01*
%TO.C,R1*%
X137932936Y-103255000D02*
X138387064Y-103255000D01*
X137932936Y-104725000D02*
X138387064Y-104725000D01*
%TO.C,R4*%
X151597936Y-110115000D02*
X152052064Y-110115000D01*
X151597936Y-111585000D02*
X152052064Y-111585000D01*
%TO.C,R3*%
X147658064Y-110136000D02*
X147203936Y-110136000D01*
X147658064Y-111606000D02*
X147203936Y-111606000D01*
%TO.C,C1*%
X155718748Y-110115000D02*
X156241252Y-110115000D01*
X155718748Y-111585000D02*
X156241252Y-111585000D01*
D14*
%TO.C,Y1*%
X143670000Y-108437500D02*
X143670000Y-105237500D01*
X146470000Y-108437500D02*
X146470000Y-105237500D01*
D15*
X147120001Y-108237500D02*
X147120001Y-108237500D01*
X147120001Y-108237500D01*
X147120001Y-108237500D01*
X147120001Y-108237500D01*
X147120001Y-108237500D01*
X147120001Y-108237501D01*
X147120001Y-108237501D01*
X147120001Y-108237501D01*
X147120001Y-108237501D01*
X147120001Y-108237501D01*
X147120001Y-108237501D01*
X147120001Y-108237501D01*
X147120000Y-108237501D01*
X147120000Y-108237501D01*
X147120000Y-108237501D01*
X147120000Y-108237501D01*
X147120000Y-108237501D01*
X147120000Y-108237501D01*
X147120000Y-108237501D01*
X147120000Y-108237501D01*
X147120000Y-108237501D01*
X147120000Y-108237501D01*
X147120000Y-108237501D01*
X147120000Y-108237501D01*
X147119999Y-108237501D01*
X147119999Y-108237501D01*
X147119999Y-108237501D01*
X147119999Y-108237501D01*
X147119999Y-108237501D01*
X147119999Y-108237501D01*
X147119999Y-108237500D01*
X147119999Y-108237500D01*
X147119999Y-108237500D01*
X147119999Y-108237500D01*
X147119999Y-108237500D01*
X147119999Y-108237500D01*
X147119999Y-108237500D02*
X147119999Y-108237500D01*
X147119999Y-108237500D01*
X147119999Y-108237500D01*
X147119999Y-108237500D01*
X147119999Y-108237500D01*
X147119999Y-108237500D01*
X147119999Y-108237499D01*
X147119999Y-108237499D01*
X147119999Y-108237499D01*
X147119999Y-108237499D01*
X147119999Y-108237499D01*
X147120000Y-108237499D01*
X147120000Y-108237499D01*
X147120000Y-108237499D01*
X147120000Y-108237499D01*
X147120000Y-108237499D01*
X147120000Y-108237499D01*
X147120000Y-108237499D01*
X147120000Y-108237499D01*
X147120000Y-108237499D01*
X147120000Y-108237499D01*
X147120000Y-108237499D01*
X147120000Y-108237499D01*
X147120001Y-108237499D01*
X147120001Y-108237499D01*
X147120001Y-108237499D01*
X147120001Y-108237499D01*
X147120001Y-108237499D01*
X147120001Y-108237499D01*
X147120001Y-108237500D01*
X147120001Y-108237500D01*
X147120001Y-108237500D01*
X147120001Y-108237500D01*
X147120001Y-108237500D01*
X147120001Y-108237500D01*
X147120001Y-108237500D01*
D13*
%TO.C,C2*%
X148518748Y-104595000D02*
X149041252Y-104595000D01*
X148518748Y-106065000D02*
X149041252Y-106065000D01*
D12*
%TO.C,U1*%
X153205000Y-105275000D02*
X153205000Y-105500000D01*
X153205000Y-105275000D02*
X156555000Y-105275000D01*
X153205000Y-105500000D02*
X151980000Y-105500000D01*
X153205000Y-108625000D02*
X153205000Y-108325000D01*
X153205000Y-108625000D02*
X156555000Y-108625000D01*
X156555000Y-105275000D02*
X156555000Y-105575000D01*
X156555000Y-108625000D02*
X156555000Y-108325000D01*
%TD*%
%LPC*%
D16*
%TO.C,X3*%
X156121100Y-96748600D03*
X161201100Y-96748600D03*
D17*
X158661100Y-96748600D03*
%TD*%
D18*
%TO.C,R5*%
X161610000Y-109570000D03*
X161610000Y-107570000D03*
%TD*%
D19*
%TO.C,R2*%
X143500000Y-96120000D03*
X143500000Y-98120000D03*
%TD*%
D20*
%TO.C,FID2*%
X138810000Y-109990000D03*
%TD*%
D21*
%TO.C,R1*%
X137160000Y-103990000D03*
X139160000Y-103990000D03*
%TD*%
%TO.C,R4*%
X150825000Y-110850000D03*
X152825000Y-110850000D03*
%TD*%
D22*
%TO.C,H2*%
X161201100Y-113258600D03*
%TD*%
%TO.C,H1*%
X135801100Y-113258600D03*
%TD*%
D16*
%TO.C,X2*%
X145961100Y-96748600D03*
X151041100Y-96748600D03*
D17*
X148501100Y-96748600D03*
%TD*%
D23*
%TO.C,R3*%
X148431000Y-110871000D03*
X146431000Y-110871000D03*
%TD*%
D24*
%TO.C,JP1*%
X156121100Y-113258600D03*
D25*
X153581100Y-113258600D03*
X151041100Y-113258600D03*
X148501100Y-113258600D03*
X145961100Y-113258600D03*
X143421100Y-113258600D03*
X140881100Y-113258600D03*
%TD*%
D26*
%TO.C,C1*%
X154942500Y-110850000D03*
X157017500Y-110850000D03*
%TD*%
D27*
%TO.C,Y1*%
X145770000Y-108347500D03*
X145770000Y-105327500D03*
X144370000Y-105327500D03*
X144370000Y-108347500D03*
%TD*%
D16*
%TO.C,X1*%
X135801100Y-96748600D03*
X140881100Y-96748600D03*
D17*
X138341100Y-96748600D03*
%TD*%
D28*
%TO.C,C2*%
X147830000Y-105330000D03*
X149730000Y-105330000D03*
%TD*%
D20*
%TO.C,FID1*%
X162320000Y-100710000D03*
%TD*%
D29*
%TO.C,U1*%
X152680000Y-105950000D03*
X152680000Y-106450000D03*
X152680000Y-106950000D03*
X152680000Y-107450000D03*
X152680000Y-107950000D03*
X157080000Y-107950000D03*
X157080000Y-107450000D03*
X157080000Y-106950000D03*
X157080000Y-106450000D03*
X157080000Y-105950000D03*
%TD*%
%LPD*%
M02*
