M48
; DRILL file {KiCad 9.0.7-9.0.7~ubuntu25.04.1} date 2026-02-21T14:51:13+0530
; FORMAT={-:-/ absolute / inch / decimal}
; #@! TF.CreationDate,2026-02-21T14:51:13+05:30
; #@! TF.GenerationSoftware,Kicad,Pcbnew,9.0.7-9.0.7~ubuntu25.04.1
; #@! TF.FileFunction,Plated,1,2,PTH
FMAT,2
INCH
; #@! TA.AperFunction,Plated,PTH,ViaDrill
T1C0.0118
; #@! TA.AperFunction,Plated,PTH,ViaDrill
T2C0.0155
; #@! TA.AperFunction,Plated,PTH,ViaDrill
T3C0.0157
; #@! TA.AperFunction,Plated,PTH,ComponentDrill
T4C0.0394
%
G90
G05
T1
X5.3976Y-3.9331
X5.407Y-3.96
X5.415Y-3.985
X5.432Y-4.004
X5.45Y-4.025
X5.477Y-4.035
X5.485Y-3.93
X5.5Y-3.95
X5.5043Y-4.0362
X5.51Y-4.505
X5.585Y-4.505
X5.599Y-3.936
X5.61Y-4.505
X5.613Y-3.917
X5.6492Y-3.774
X5.685Y-4.51
X5.71Y-4.51
X5.795Y-4.415
X5.795Y-4.505
X5.81Y-3.9331
X5.885Y-4.505
X5.91Y-4.505
X5.9433Y-3.9669
X5.9476Y-4.1683
X5.9476Y-4.2161
X5.995Y-4.415
X5.995Y-4.5
X5.9984Y-3.9012
X6.015Y-4.1264
X6.0161Y-3.9209
X6.0232Y-3.8933
X6.0319Y-3.9394
X6.0382Y-4.1264
X6.0409Y-3.9122
X6.0433Y-3.7441
X6.0433Y-3.7835
X6.0433Y-3.8346
X6.0433Y-3.8701
X6.0472Y-3.9567
X6.061Y-3.8906
X6.0614Y-3.9323
X6.0642Y-4.126
X6.0685Y-3.965
X6.0772Y-4.0484
X6.0803Y-4.298
X6.0811Y-3.9106
X6.0811Y-4.2496
X6.0812Y-4.2737
X6.0835Y-4.2236
X6.0858Y-3.9386
X6.09Y-4.413
X6.0917Y-3.9646
X6.0921Y-3.887
X6.0953Y-4.1264
X6.1024Y-4.2402
X6.1091Y-3.9386
X6.11Y-4.2
X6.1106Y-4.1768
X6.1114Y-3.9146
X6.1142Y-3.965
X6.1209Y-4.0492
X6.122Y-4.2244
X6.1264Y-4.1268
X6.13Y-4.29
X6.13Y-4.312
X6.1307Y-3.939
X6.1346Y-4.1807
X6.135Y-4.205
X6.1374Y-3.965
X6.1417Y-3.9146
X6.152Y-4.291
X6.152Y-4.315
X6.1591Y-3.9654
X6.1602Y-3.9374
X6.1606Y-4.0512
X6.1677Y-3.9138
X6.1846Y-3.9654
X6.185Y-4.07
X6.19Y-3.94
X6.1957Y-3.9157
X6.2028Y-4.0878
X6.2055Y-3.9791
X6.2114Y-3.9567
X6.2205Y-4.1067
X6.2217Y-3.9961
X6.2299Y-3.9752
X6.2346Y-4.1303
X6.2378Y-4.0118
X6.2382Y-4.1563
X6.2484Y-3.9925
X6.315Y-3.94
X6.3161Y-4.1031
X6.335Y-3.92
X6.36Y-3.91
X6.39Y-3.905
X6.4055Y-4.0394
X6.4252Y-3.7874
X6.4331Y-3.811
X6.4331Y-3.8346
X6.4331Y-3.8583
T2
X5.6496Y-3.8064
X5.6496Y-3.8424
X5.6506Y-3.8809
X6.0136Y-3.7594
X6.015Y-3.8602
X6.0736Y-3.7594
X6.0745Y-3.809
X6.0748Y-3.8591
X6.4065Y-3.765
X6.4065Y-3.809
X6.4065Y-3.845
X6.4075Y-3.8835
T3
X5.2681Y-4.4618
X5.2744Y-4.4213
X5.2764Y-4.2846
X5.2764Y-4.328
X5.2768Y-4.1516
X5.2768Y-4.2378
X5.2776Y-4.0681
X5.2776Y-4.1114
X5.2776Y-4.1976
X5.278Y-3.8965
X5.278Y-4.0213
X5.2787Y-3.813
X5.2787Y-3.8563
X5.2787Y-3.9378
X5.2787Y-3.9811
X5.2791Y-3.7752
X5.2801Y-4.503
X5.3055Y-4.3933
X5.313Y-4.5323
X5.3287Y-4.2846
X5.3287Y-4.328
X5.3291Y-4.1516
X5.3291Y-4.2378
X5.3299Y-4.0681
X5.3299Y-4.1114
X5.3299Y-4.1976
X5.3303Y-4.0213
X5.3311Y-3.9378
X5.3311Y-3.9811
X5.3504Y-4.3819
X5.3618Y-4.5386
X5.3811Y-4.2839
X5.3811Y-4.3272
X5.3815Y-4.1508
X5.3815Y-4.237
X5.3823Y-4.1969
X5.3835Y-3.9803
X5.3917Y-4.3913
X5.4051Y-4.515
X5.4189Y-4.4232
X5.4236Y-4.276
X5.4272Y-4.4724
X5.4366Y-4.2378
X5.4374Y-4.1543
X5.4374Y-4.1976
X5.4492Y-4.5319
X5.46Y-4.4
X5.463Y-4.2638
X5.475Y-4.505
X5.4811Y-4.4685
X5.485Y-4.43
X5.4886Y-4.2378
X5.4894Y-4.1543
X5.4894Y-4.1976
X5.5Y-4.39
X5.5Y-4.535
X5.5028Y-4.2748
X5.5307Y-3.9146
X5.5307Y-3.9488
X5.5433Y-4.5354
X5.5709Y-3.9488
X5.5713Y-3.9146
X5.5827Y-4.5354
X5.592Y-4.1358
X5.592Y-4.22
X5.592Y-4.3055
X5.592Y-4.352
X5.592Y-4.396
X5.5929Y-4.0953
X5.593Y-4.264
X5.5933Y-4.0512
X5.594Y-4.179
X5.622Y-4.5354
X5.6575Y-4.5354
X5.6693Y-4.3976
X5.6862Y-4.0571
X5.6929Y-4.5354
X5.7087Y-4.3071
X5.7087Y-4.3976
X5.7299Y-4.0567
X5.7559Y-4.3071
X5.8059Y-4.0453
X5.8459Y-4.2567
X5.8902Y-4.2547
X6.148Y-3.7504
X6.1496Y-3.7996
X6.15Y-3.8555
X6.2303Y-4.3598
X6.2311Y-4.2305
X6.265Y-4.025
X6.2673Y-4.4669
X6.275Y-4.42
X6.283Y-4.51
X6.29Y-4.05
X6.2967Y-4.2789
X6.2967Y-4.3313
X6.3071Y-4.2283
X6.3106Y-4.3874
X6.315Y-4.075
X6.3185Y-4.5354
X6.3435Y-4.2793
X6.3435Y-4.3317
X6.3469Y-3.7476
X6.3484Y-3.7969
X6.3488Y-3.8528
X6.364Y-4.378
X6.3697Y-4.5354
X6.3868Y-4.2793
X6.3868Y-4.3317
X6.408Y-4.405
X6.4087Y-4.5063
X6.426Y-4.4555
X6.4283Y-4.0591
X6.4283Y-4.1358
X6.4287Y-4.0945
T4
X5.5465Y-4.459
X5.6465Y-4.459
X5.7465Y-4.459
X5.8465Y-4.459
X5.9465Y-4.459
X6.0465Y-4.459
X6.1465Y-4.459
M30
