%TF.GenerationSoftware,KiCad,Pcbnew,9.0.7-9.0.7~ubuntu25.04.1*%
%TF.CreationDate,2026-02-21T14:51:13+05:30*%
%TF.ProjectId,Adafruit Si5351A,41646166-7275-4697-9420-536935333531,rev?*%
%TF.SameCoordinates,Original*%
%TF.FileFunction,Copper,L1,Top*%
%TF.FilePolarity,Positive*%
%FSLAX46Y46*%
G04 Gerber Fmt 4.6, Leading zero omitted, Abs format (unit mm)*
G04 Created by KiCad (PCBNEW 9.0.7-9.0.7~ubuntu25.04.1) date 2026-02-21 14:51:13*
%MOMM*%
%LPD*%
G01*
G04 APERTURE LIST*
G04 Aperture macros list*
%AMRoundRect*
0 Rectangle with rounded corners*
0 $1 Rounding radius*
0 $2 $3 $4 $5 $6 $7 $8 $9 X,Y pos of 4 corners*
0 Add a 4 corners polygon primitive as box body*
4,1,4,$2,$3,$4,$5,$6,$7,$8,$9,$2,$3,0*
0 Add four circle primitives for the rounded corners*
1,1,$1+$1,$2,$3*
1,1,$1+$1,$4,$5*
1,1,$1+$1,$6,$7*
1,1,$1+$1,$8,$9*
0 Add four rect primitives between the rounded corners*
20,1,$1+$1,$2,$3,$4,$5,0*
20,1,$1+$1,$4,$5,$6,$7,0*
20,1,$1+$1,$6,$7,$8,$9,0*
20,1,$1+$1,$8,$9,$2,$3,0*%
G04 Aperture macros list end*
%TA.AperFunction,SMDPad,CuDef*%
%ADD10RoundRect,0.225000X-0.225000X-0.250000X0.225000X-0.250000X0.225000X0.250000X-0.225000X0.250000X0*%
%TD*%
%TA.AperFunction,SMDPad,CuDef*%
%ADD11R,1.524000X4.064000*%
%TD*%
%TA.AperFunction,SMDPad,CuDef*%
%ADD12R,1.270000X4.064000*%
%TD*%
%TA.AperFunction,SMDPad,CuDef*%
%ADD13RoundRect,0.250000X-0.350000X-0.450000X0.350000X-0.450000X0.350000X0.450000X-0.350000X0.450000X0*%
%TD*%
%TA.AperFunction,SMDPad,CuDef*%
%ADD14RoundRect,0.250000X0.350000X0.450000X-0.350000X0.450000X-0.350000X-0.450000X0.350000X-0.450000X0*%
%TD*%
%TA.AperFunction,ComponentPad*%
%ADD15R,1.930400X1.930400*%
%TD*%
%TA.AperFunction,ComponentPad*%
%ADD16C,1.930400*%
%TD*%
%TA.AperFunction,SMDPad,CuDef*%
%ADD17RoundRect,0.225000X0.250000X-0.225000X0.250000X0.225000X-0.250000X0.225000X-0.250000X-0.225000X0*%
%TD*%
%TA.AperFunction,SMDPad,CuDef*%
%ADD18R,1.000000X0.800000*%
%TD*%
%TA.AperFunction,SMDPad,CuDef*%
%ADD19R,1.400000X0.300000*%
%TD*%
%TA.AperFunction,ViaPad*%
%ADD20C,0.800000*%
%TD*%
%TA.AperFunction,ViaPad*%
%ADD21C,0.500000*%
%TD*%
%TA.AperFunction,ViaPad*%
%ADD22C,0.800100*%
%TD*%
%TA.AperFunction,Conductor*%
%ADD23C,0.254000*%
%TD*%
%TA.AperFunction,Conductor*%
%ADD24C,0.250000*%
%TD*%
%TA.AperFunction,Conductor*%
%ADD25C,0.500000*%
%TD*%
%TA.AperFunction,Conductor*%
%ADD26C,1.000000*%
%TD*%
%TA.AperFunction,Conductor*%
%ADD27C,0.200000*%
%TD*%
G04 APERTURE END LIST*
D10*
%TO.P,C3,1*%
%TO.N,+3.3V*%
X160200000Y-107400000D03*
%TO.P,C3,2*%
%TO.N,GND*%
X161750000Y-107400000D03*
%TD*%
D11*
%TO.P,X3,GND@1,GND4*%
%TO.N,GND*%
X156121100Y-96748600D03*
%TO.P,X3,GND@2,GND3*%
X161201100Y-96748600D03*
D12*
%TO.P,X3,P,ANT*%
%TO.N,CLK2*%
X158661100Y-96748600D03*
%TD*%
D13*
%TO.P,R4,1*%
%TO.N,/SDA_3V*%
X150825000Y-110850000D03*
%TO.P,R4,2*%
%TO.N,+3.3V*%
X152825000Y-110850000D03*
%TD*%
D11*
%TO.P,X2,GND@1,GND4*%
%TO.N,GND*%
X145961100Y-96748600D03*
%TO.P,X2,GND@2,GND3*%
X151041100Y-96748600D03*
D12*
%TO.P,X2,P,ANT*%
%TO.N,CLK1*%
X148501100Y-96748600D03*
%TD*%
D14*
%TO.P,R3,1*%
%TO.N,/SCL_3V*%
X148431000Y-110871000D03*
%TO.P,R3,2*%
%TO.N,+3.3V*%
X146431000Y-110871000D03*
%TD*%
D15*
%TO.P,JP1,1,1*%
%TO.N,+3.3V*%
X156121100Y-113258600D03*
D16*
%TO.P,JP1,2,2*%
%TO.N,GND*%
X153581100Y-113258600D03*
%TO.P,JP1,3,3*%
%TO.N,/SDA_3V*%
X151041100Y-113258600D03*
%TO.P,JP1,4,4*%
%TO.N,/SCL_3V*%
X148501100Y-113258600D03*
%TO.P,JP1,5,5*%
%TO.N,CLK2*%
X145961100Y-113258600D03*
%TO.P,JP1,6,6*%
%TO.N,CLK1*%
X143421100Y-113258600D03*
%TO.P,JP1,7,7*%
%TO.N,CLK0*%
X140881100Y-113258600D03*
%TD*%
D10*
%TO.P,C1,1*%
%TO.N,+3.3V*%
X155205000Y-110850000D03*
%TO.P,C1,2*%
%TO.N,GND*%
X156755000Y-110850000D03*
%TD*%
D17*
%TO.P,C5,1*%
%TO.N,+3.3V*%
X149525000Y-103900000D03*
%TO.P,C5,2*%
%TO.N,GND*%
X149525000Y-102350000D03*
%TD*%
D18*
%TO.P,Y1,1,OE*%
%TO.N,GND*%
X145770000Y-108347500D03*
%TO.P,Y1,2,GND*%
X145770000Y-105327500D03*
%TO.P,Y1,3,OUT*%
%TO.N,Net-(Y1-OUT)*%
X144370000Y-105327500D03*
%TO.P,Y1,4,VDD*%
%TO.N,+3.3V*%
X144370000Y-108347500D03*
%TD*%
D17*
%TO.P,C4,1*%
%TO.N,+3.3V*%
X151050000Y-104375000D03*
%TO.P,C4,2*%
%TO.N,GND*%
X151050000Y-102825000D03*
%TD*%
D11*
%TO.P,X1,GND@1,GND4*%
%TO.N,GND*%
X135801100Y-96748600D03*
%TO.P,X1,GND@2,GND3*%
X140881100Y-96748600D03*
D12*
%TO.P,X1,P,ANT*%
%TO.N,CLK0*%
X138341100Y-96748600D03*
%TD*%
D10*
%TO.P,C2,1*%
%TO.N,Net-(Y1-OUT)*%
X148005000Y-105330000D03*
%TO.P,C2,2*%
%TO.N,Net-(U1-XA)*%
X149555000Y-105330000D03*
%TD*%
D19*
%TO.P,U1,1,VDD*%
%TO.N,+3.3V*%
X152680000Y-105950000D03*
%TO.P,U1,2,XA*%
%TO.N,Net-(U1-XA)*%
X152680000Y-106450000D03*
%TO.P,U1,3,XB*%
%TO.N,unconnected-(U1-XB-Pad3)*%
X152680000Y-106950000D03*
%TO.P,U1,4,SCL*%
%TO.N,/SCL_3V*%
X152680000Y-107450000D03*
%TO.P,U1,5,SDA*%
%TO.N,/SDA_3V*%
X152680000Y-107950000D03*
%TO.P,U1,6,CLK2*%
%TO.N,CLK2*%
X157080000Y-107950000D03*
%TO.P,U1,7,VDDO*%
%TO.N,+3.3V*%
X157080000Y-107450000D03*
%TO.P,U1,8,GND*%
%TO.N,GND*%
X157080000Y-106950000D03*
%TO.P,U1,9,CLK1*%
%TO.N,CLK1*%
X157080000Y-106450000D03*
%TO.P,U1,10,CLK0*%
%TO.N,CLK0*%
X157080000Y-105950000D03*
%TD*%
D20*
%TO.N,GND*%
X162225000Y-108695000D03*
X159935000Y-110015000D03*
X162225000Y-110025000D03*
X159935000Y-108685000D03*
X161125000Y-108695000D03*
X161125000Y-110025000D03*
X143700000Y-115200000D03*
D21*
X163400000Y-98000000D03*
D20*
X145000000Y-109400000D03*
D21*
X143490000Y-95860000D03*
D20*
X136680000Y-109910000D03*
X160290000Y-111440000D03*
D21*
X158450000Y-105570000D03*
D20*
X134114168Y-114376541D03*
X161260000Y-97860000D03*
X134050000Y-103330000D03*
D21*
X162306000Y-99187000D03*
D20*
X142060000Y-104020000D03*
D21*
X157620000Y-101070000D03*
X155300000Y-100710000D03*
X163400000Y-96800000D03*
D20*
X138110000Y-106620000D03*
D21*
X141859000Y-114427000D03*
X154140000Y-100710000D03*
X158710000Y-101410000D03*
X139115800Y-102489000D03*
X156000000Y-99430000D03*
X147193000Y-114427000D03*
X138430000Y-102235000D03*
X153500000Y-97400000D03*
X160909000Y-99568000D03*
X160401000Y-100076000D03*
D22*
X143500100Y-97598000D03*
D21*
X153600000Y-100500000D03*
D20*
X145540000Y-103040000D03*
X156160000Y-95260000D03*
D21*
X156470000Y-100010000D03*
D20*
X137760000Y-108610000D03*
D21*
X163200000Y-96200000D03*
D20*
X161210000Y-95190000D03*
D21*
X155000000Y-107700000D03*
X155829000Y-106807000D03*
X154461786Y-108552562D03*
D20*
X136690000Y-107620000D03*
D21*
X155702000Y-109524800D03*
X150114000Y-114427000D03*
D20*
X142087600Y-106146600D03*
X142036800Y-110540800D03*
X134950000Y-115120000D03*
D22*
X154293100Y-96748600D03*
D20*
X149610000Y-108070000D03*
D21*
X153500000Y-96100000D03*
X137541000Y-101219000D03*
D20*
X142070000Y-102900000D03*
X144430000Y-103050000D03*
X135380000Y-106620000D03*
D21*
X161544000Y-99314000D03*
D20*
X142036800Y-105050000D03*
D21*
X152273000Y-112141000D03*
X144399000Y-114554000D03*
D20*
X160401000Y-103505000D03*
X135350000Y-108830000D03*
D22*
X154270000Y-95490000D03*
D20*
X134080000Y-96850000D03*
X147470000Y-102750000D03*
X142036800Y-107188000D03*
X144000000Y-111700000D03*
X138110000Y-105520000D03*
X135380000Y-103330000D03*
X139319000Y-112522000D03*
D22*
X143500100Y-96683600D03*
D20*
X159131000Y-102235000D03*
D21*
X153370000Y-104810000D03*
D20*
X135390000Y-102140000D03*
D21*
X154740000Y-98730000D03*
D20*
X134050000Y-104430000D03*
X135410000Y-101120000D03*
D21*
X154730000Y-100700000D03*
X158440000Y-101900000D03*
X154440000Y-109170000D03*
D20*
X136950000Y-111540000D03*
D21*
X158000000Y-104310000D03*
D20*
X156200000Y-96510000D03*
X139065000Y-114427000D03*
D21*
X158240000Y-100970000D03*
D20*
X145000000Y-111700000D03*
X141500000Y-100300000D03*
X138090000Y-107640000D03*
D21*
X154030000Y-104800000D03*
X155230000Y-99430000D03*
D20*
X134020000Y-108830000D03*
D21*
X152780000Y-104810000D03*
X155170000Y-100040000D03*
D22*
X152780000Y-98050000D03*
D21*
X156480000Y-102900000D03*
X160430000Y-104220000D03*
D20*
X142800000Y-115200000D03*
X159588200Y-114554000D03*
D21*
X155194000Y-106680000D03*
D20*
X134030000Y-107640000D03*
D21*
X154520000Y-107280000D03*
D20*
X156210000Y-97930000D03*
X161790000Y-115200000D03*
D21*
X158360000Y-104910000D03*
D20*
X140480000Y-99430000D03*
X133810000Y-113330000D03*
X134080000Y-101120000D03*
D21*
X139700000Y-100330000D03*
X139810000Y-102520000D03*
X142214600Y-99974400D03*
X153950000Y-98820000D03*
D20*
X135900000Y-111300000D03*
X133970000Y-112300000D03*
X134060000Y-102140000D03*
D21*
X157226000Y-100076000D03*
X156660000Y-99410000D03*
D20*
X134080000Y-97950000D03*
X161250000Y-96440000D03*
X163280000Y-105050000D03*
X136690000Y-105430000D03*
D21*
X150960000Y-100760000D03*
X157090000Y-100720000D03*
X153210000Y-100060000D03*
D22*
X162725100Y-97663000D03*
D20*
X160490000Y-115200000D03*
D21*
X139954000Y-114427000D03*
D20*
X159190000Y-113460000D03*
D21*
X153960000Y-99880000D03*
D20*
X159385000Y-112268000D03*
X139430000Y-106620000D03*
D21*
X142570200Y-99491800D03*
D20*
X139410000Y-107640000D03*
X146200000Y-109400000D03*
X138684000Y-111760000D03*
D21*
X139319000Y-99822000D03*
D22*
X154300000Y-98020000D03*
D21*
X157099000Y-103378000D03*
D20*
X134050000Y-106620000D03*
D21*
X155820000Y-106190000D03*
D20*
X140480000Y-100300000D03*
D22*
X162725100Y-95631000D03*
D21*
X158030000Y-101500000D03*
X155702000Y-108966000D03*
D20*
X134060000Y-98970000D03*
X142036800Y-111658400D03*
D21*
X137972800Y-101701600D03*
X157370000Y-99460000D03*
D20*
X163280000Y-103100000D03*
X134090000Y-95890000D03*
X136710000Y-106600000D03*
D21*
X155470000Y-102850000D03*
D20*
X162763200Y-111887000D03*
D22*
X152746000Y-95490000D03*
D20*
X139430000Y-105520000D03*
X163290000Y-104000000D03*
X134030000Y-105450000D03*
D22*
X143525000Y-98575000D03*
D20*
X161645600Y-111201200D03*
D21*
X152810000Y-99590000D03*
X154460000Y-99330000D03*
X155500000Y-107300000D03*
D20*
X159766000Y-102870000D03*
D21*
X155210000Y-106090000D03*
X153500000Y-95100000D03*
D20*
X137290000Y-114680000D03*
D21*
X147193000Y-112141000D03*
X153440000Y-99370000D03*
X137337800Y-100584000D03*
D20*
X135380000Y-104430000D03*
D21*
X142494000Y-114427000D03*
X157770000Y-100500000D03*
X163400000Y-97400000D03*
X145034000Y-114554000D03*
X155610000Y-104820000D03*
X156440000Y-100720000D03*
D20*
X139770000Y-108580000D03*
X135360000Y-107640000D03*
X135410000Y-100020000D03*
D22*
X162750000Y-98640000D03*
D21*
X154460000Y-107940000D03*
D20*
X136190000Y-115280000D03*
X141510000Y-99430000D03*
D22*
X162725100Y-96748600D03*
D20*
X144600000Y-115200000D03*
X134020000Y-109930000D03*
D21*
X152990000Y-98890000D03*
D20*
X141800000Y-115200000D03*
X136680000Y-108810000D03*
X140800000Y-115200000D03*
D21*
X149479000Y-114427000D03*
D20*
X148485000Y-108120000D03*
X142036800Y-109360000D03*
X162780000Y-114460000D03*
X139220000Y-113500000D03*
X136740000Y-101100000D03*
X137640000Y-112350000D03*
D21*
X152273000Y-114300000D03*
X156260800Y-108991400D03*
X155720000Y-100050000D03*
X153500000Y-98300000D03*
D20*
X139700000Y-115189000D03*
X135350000Y-109930000D03*
D21*
X154580000Y-100040000D03*
D20*
X163220000Y-113170000D03*
X134080000Y-100020000D03*
X137850000Y-113600000D03*
X139700000Y-111506000D03*
X135360000Y-105450000D03*
D21*
X154820000Y-104810000D03*
X157550000Y-103830000D03*
X154686000Y-112090200D03*
X162700000Y-102600000D03*
X137100000Y-99900000D03*
X156260800Y-109601000D03*
D20*
X134760000Y-111590000D03*
X138760000Y-108300000D03*
D21*
X152360000Y-99090000D03*
X154360000Y-102830000D03*
X155890000Y-100710000D03*
D20*
X138410000Y-115110000D03*
X142062200Y-108305600D03*
D21*
%TO.N,CLK1*%
X147574000Y-99900000D03*
D20*
%TO.N,CLK2*%
X158250000Y-110740000D03*
%TO.N,+3.3V*%
X160200000Y-107400000D03*
D21*
X151070000Y-105875500D03*
D20*
X158270491Y-107454427D03*
D21*
X151070000Y-107090000D03*
%TD*%
D23*
%TO.N,Net-(U1-XA)*%
X149750000Y-105925000D02*
X149750000Y-105525000D01*
D24*
X152680000Y-106450000D02*
X150689214Y-106450000D01*
D23*
X149750000Y-105925000D02*
X149982107Y-106157107D01*
D24*
X150689214Y-106450000D02*
G75*
G02*
X149982100Y-106157114I-14J1000000D01*
G01*
D25*
%TO.N,GND*%
X149525000Y-102350000D02*
X150575000Y-102350000D01*
X145790000Y-109400000D02*
X145770000Y-109380000D01*
X145770000Y-109380000D02*
X145770000Y-108347500D01*
D24*
X146020000Y-105687500D02*
X146020000Y-108097500D01*
X155850000Y-106950000D02*
X155500000Y-107300000D01*
D25*
X147470000Y-102750000D02*
X147470000Y-102505000D01*
X150575000Y-102350000D02*
X151050000Y-102825000D01*
X147470000Y-102505000D02*
X147474000Y-102501000D01*
X145790000Y-109400000D02*
X145000000Y-109400000D01*
D24*
X157080000Y-106950000D02*
X155850000Y-106950000D01*
X157080000Y-106950000D02*
X155972000Y-106950000D01*
D25*
X146200000Y-109400000D02*
X145790000Y-109400000D01*
X147474000Y-102501000D02*
X149374000Y-102501000D01*
D24*
X155972000Y-106950000D02*
X155829000Y-106807000D01*
%TO.N,/SDA_3V*%
X150825000Y-110850000D02*
X152387107Y-109287893D01*
D25*
X150825000Y-110850000D02*
X150825000Y-113042500D01*
D24*
X152680000Y-107950000D02*
X152680000Y-108580786D01*
X152387107Y-109287893D02*
G75*
G03*
X152679990Y-108580786I-707107J707093D01*
G01*
%TO.N,/SCL_3V*%
X151655000Y-108710786D02*
X151655000Y-107535000D01*
X151740000Y-107450000D02*
X152680000Y-107450000D01*
X148431000Y-110509000D02*
X149057107Y-109882893D01*
X151655000Y-107535000D02*
X151740000Y-107450000D01*
X151190000Y-109590000D02*
X151362107Y-109417893D01*
D25*
X148501100Y-113258600D02*
X148501100Y-110959900D01*
D24*
X149764214Y-109590000D02*
X151190000Y-109590000D01*
X149057107Y-109882893D02*
G75*
G02*
X149764214Y-109590010I707093J-707107D01*
G01*
X151655000Y-108710786D02*
G75*
G02*
X151362114Y-109417900I-1000000J-14D01*
G01*
D26*
%TO.N,CLK0*%
X143764000Y-101550000D02*
X142621000Y-101550000D01*
D27*
X150960786Y-101375000D02*
X148375000Y-101375000D01*
D26*
X138341100Y-96748600D02*
X138341100Y-100626735D01*
X138341100Y-100626735D02*
X139264365Y-101550000D01*
X140881100Y-113258600D02*
X140881100Y-101631100D01*
D27*
X157230000Y-105891999D02*
X157230000Y-105674214D01*
D26*
X142621000Y-101550000D02*
X140800000Y-101550000D01*
X140881100Y-101631100D02*
X140800000Y-101550000D01*
D27*
X151667893Y-101667893D02*
X153657107Y-103657107D01*
D26*
X143764000Y-101550000D02*
X148200000Y-101550000D01*
X139264365Y-101550000D02*
X142621000Y-101550000D01*
D27*
X148375000Y-101375000D02*
X148200000Y-101550000D01*
X156937107Y-104967107D02*
X156212893Y-104242893D01*
D26*
X139264365Y-101550000D02*
X143764000Y-101550000D01*
D27*
X155505786Y-103950000D02*
X154364214Y-103950000D01*
X153657107Y-103657107D02*
G75*
G03*
X154364214Y-103949990I707093J707107D01*
G01*
X157230000Y-105674214D02*
G75*
G03*
X156937114Y-104967100I-1000000J14D01*
G01*
X150960786Y-101375000D02*
G75*
G02*
X151667900Y-101667886I14J-1000000D01*
G01*
X156212893Y-104242893D02*
G75*
G03*
X155505786Y-103950010I-707093J-707107D01*
G01*
D25*
%TO.N,CLK1*%
X147590000Y-99884000D02*
X148610000Y-99884000D01*
D26*
X148501100Y-99641100D02*
X148501100Y-96748600D01*
X156862002Y-101700000D02*
X153440000Y-101700000D01*
X147824000Y-99650000D02*
X147574000Y-99900000D01*
X153440000Y-101700000D02*
X151390000Y-99650000D01*
D27*
X158355786Y-106442000D02*
X157220000Y-106442000D01*
D25*
X148610000Y-99884000D02*
X148844000Y-99650000D01*
D26*
X148844000Y-99650000D02*
X148510000Y-99650000D01*
D24*
X148260000Y-99900000D02*
X148510000Y-99650000D01*
X148425000Y-99735000D02*
X148510000Y-99650000D01*
D27*
X159062893Y-106149107D02*
X159187107Y-106024893D01*
D26*
X151390000Y-99650000D02*
X150020000Y-99650000D01*
X150020000Y-99650000D02*
X147824000Y-99650000D01*
X148510000Y-99650000D02*
X148501100Y-99641100D01*
X150020000Y-99650000D02*
X148844000Y-99650000D01*
D25*
X147574000Y-99900000D02*
X147590000Y-99884000D01*
D26*
X159480000Y-104317998D02*
X156862002Y-101700000D01*
D27*
X159480000Y-105317786D02*
X159480000Y-104317998D01*
X159480000Y-105317786D02*
G75*
G02*
X159187114Y-106024900I-1000000J-14D01*
G01*
X159062893Y-106149107D02*
G75*
G02*
X158355786Y-106441990I-707093J707107D01*
G01*
%TO.N,CLK2*%
X157230000Y-108800000D02*
X157230000Y-108000000D01*
D25*
X161197107Y-104662893D02*
X160090000Y-105770000D01*
D24*
X158996491Y-107277723D02*
X158996491Y-107933936D01*
D27*
X157230000Y-108800000D02*
X158250000Y-109820000D01*
D25*
X158661100Y-99971100D02*
X161197107Y-102507107D01*
D24*
X158750000Y-108180427D02*
X157310427Y-108180427D01*
X157310427Y-108180427D02*
X157080000Y-107950000D01*
D25*
X158250000Y-110740000D02*
X158250000Y-109820000D01*
X161490000Y-103214214D02*
X161490000Y-103955786D01*
D24*
X160090000Y-105770000D02*
X159289384Y-106570616D01*
X158996491Y-107933936D02*
X158750000Y-108180427D01*
D25*
X158661100Y-96748600D02*
X158661100Y-99971100D01*
D24*
X159289384Y-106570616D02*
G75*
G03*
X158996510Y-107277723I707116J-707084D01*
G01*
D25*
X161490000Y-103955786D02*
G75*
G02*
X161197114Y-104662900I-1000000J-14D01*
G01*
X161490000Y-103214214D02*
G75*
G03*
X161197114Y-102507100I-1000000J14D01*
G01*
D27*
%TO.N,+3.3V*%
X151144500Y-105950000D02*
X151070000Y-105875500D01*
D25*
X156121100Y-112028600D02*
X154942500Y-110850000D01*
D24*
X151070000Y-107090000D02*
X151070000Y-108625000D01*
X144399000Y-110871000D02*
X146431000Y-110871000D01*
D27*
X150000000Y-104375000D02*
X149525000Y-103900000D01*
X151050000Y-104375000D02*
X150000000Y-104375000D01*
X157080000Y-107450000D02*
X158266064Y-107450000D01*
X153830000Y-106175000D02*
X153830000Y-110750000D01*
D24*
X151070000Y-108625000D02*
X150907893Y-108787107D01*
X144120000Y-110592000D02*
X144399000Y-110871000D01*
D27*
X151070000Y-105875500D02*
X151070000Y-104395000D01*
D25*
X154832750Y-110871000D02*
X153015250Y-110871000D01*
D27*
X152680000Y-105950000D02*
X151144500Y-105950000D01*
D24*
X147320000Y-109974214D02*
X147320000Y-109982000D01*
D27*
X152680000Y-105950000D02*
X153605000Y-105950000D01*
X153605000Y-105950000D02*
X153830000Y-106175000D01*
D24*
X147320000Y-109982000D02*
X146431000Y-110871000D01*
X147921321Y-109372893D02*
X147320000Y-109974214D01*
D25*
X156121100Y-113258600D02*
X156121100Y-112028600D01*
D24*
X144120000Y-107987500D02*
X144120000Y-110592000D01*
D27*
X155837107Y-107742893D02*
X155320393Y-108259607D01*
X155027500Y-108966714D02*
X155027500Y-110850000D01*
D24*
X150200786Y-109080000D02*
X148628428Y-109080000D01*
X150907893Y-108787107D02*
G75*
G02*
X150200786Y-109079990I-707093J707107D01*
G01*
D27*
X156544214Y-107450000D02*
G75*
G03*
X155837100Y-107742886I-14J-1000000D01*
G01*
D24*
X147921321Y-109372893D02*
G75*
G02*
X148628428Y-109080019I707079J-707107D01*
G01*
D27*
X155320393Y-108259607D02*
G75*
G03*
X155027510Y-108966714I707107J-707093D01*
G01*
D25*
%TO.N,Net-(Y1-OUT)*%
X144410000Y-104350000D02*
X146947918Y-104350000D01*
X144370000Y-104390000D02*
X144410000Y-104350000D01*
X144370000Y-105327500D02*
X144370000Y-104390000D01*
X147830000Y-105232082D02*
X146947918Y-104350000D01*
%TD*%
%TA.AperFunction,Conductor*%
%TO.N,GND*%
G36*
X160221860Y-94364263D02*
G01*
X160267685Y-94417007D01*
X160277719Y-94486152D01*
X160258061Y-94537556D01*
X160203604Y-94619056D01*
X160203603Y-94619059D01*
X160189100Y-94691971D01*
X160189100Y-95559824D01*
X161201100Y-96571824D01*
X162213099Y-95559824D01*
X162213100Y-95559823D01*
X162213100Y-94691975D01*
X162212715Y-94688068D01*
X162213100Y-94686037D01*
X162213100Y-94685884D01*
X162213129Y-94685884D01*
X162215216Y-94674873D01*
X162212941Y-94661638D01*
X162221597Y-94641216D01*
X162225730Y-94619421D01*
X162234969Y-94609672D01*
X162240210Y-94597309D01*
X162258534Y-94584808D01*
X162273793Y-94568709D01*
X162286834Y-94565503D01*
X162297929Y-94557935D01*
X162320101Y-94557326D01*
X162341643Y-94552031D01*
X162355878Y-94556343D01*
X162367772Y-94556017D01*
X162400264Y-94569789D01*
X162608884Y-94695905D01*
X162621196Y-94704403D01*
X162761048Y-94813970D01*
X162846042Y-94880558D01*
X162857250Y-94890488D01*
X163059211Y-95092449D01*
X163069141Y-95103657D01*
X163245292Y-95328498D01*
X163253798Y-95340821D01*
X163401562Y-95585252D01*
X163408521Y-95598511D01*
X163525747Y-95858977D01*
X163531056Y-95872978D01*
X163616026Y-96145657D01*
X163619610Y-96160195D01*
X163671096Y-96441145D01*
X163672901Y-96456010D01*
X163690374Y-96744863D01*
X163690600Y-96752350D01*
X163690600Y-113254849D01*
X163690374Y-113262336D01*
X163672901Y-113551189D01*
X163671096Y-113566054D01*
X163619610Y-113847004D01*
X163616026Y-113861542D01*
X163531056Y-114134221D01*
X163525747Y-114148222D01*
X163408521Y-114408688D01*
X163401562Y-114421947D01*
X163253798Y-114666378D01*
X163245292Y-114678701D01*
X163069141Y-114903542D01*
X163059211Y-114914750D01*
X162857250Y-115116711D01*
X162846042Y-115126641D01*
X162621201Y-115302792D01*
X162608878Y-115311298D01*
X162364447Y-115459062D01*
X162351188Y-115466021D01*
X162090722Y-115583247D01*
X162076721Y-115588556D01*
X161804042Y-115673526D01*
X161789504Y-115677110D01*
X161508554Y-115728596D01*
X161493689Y-115730401D01*
X161204836Y-115747874D01*
X161197349Y-115748100D01*
X135804851Y-115748100D01*
X135797364Y-115747874D01*
X135508510Y-115730401D01*
X135493645Y-115728596D01*
X135212695Y-115677110D01*
X135198157Y-115673526D01*
X134925478Y-115588556D01*
X134911477Y-115583247D01*
X134651011Y-115466021D01*
X134637752Y-115459062D01*
X134393321Y-115311298D01*
X134380998Y-115302792D01*
X134156157Y-115126641D01*
X134144949Y-115116711D01*
X133942988Y-114914750D01*
X133933058Y-114903542D01*
X133756903Y-114678696D01*
X133748405Y-114666384D01*
X133600634Y-114421941D01*
X133593681Y-114408695D01*
X133476450Y-114148217D01*
X133471143Y-114134221D01*
X133452142Y-114073246D01*
X133386172Y-113861541D01*
X133382589Y-113847004D01*
X133331103Y-113566054D01*
X133329298Y-113551189D01*
X133318097Y-113366018D01*
X133311826Y-113262336D01*
X133311600Y-113254849D01*
X133311600Y-113160177D01*
X134550600Y-113160177D01*
X134550600Y-113357022D01*
X134581390Y-113551426D01*
X134642217Y-113738629D01*
X134704845Y-113861542D01*
X134731576Y-113914005D01*
X134847272Y-114073246D01*
X134986454Y-114212428D01*
X135145695Y-114328124D01*
X135224647Y-114368352D01*
X135321070Y-114417482D01*
X135321072Y-114417482D01*
X135321075Y-114417484D01*
X135402307Y-114443878D01*
X135508273Y-114478309D01*
X135702678Y-114509100D01*
X135702683Y-114509100D01*
X135899522Y-114509100D01*
X136093926Y-114478309D01*
X136107803Y-114473800D01*
X136281125Y-114417484D01*
X136456505Y-114328124D01*
X136615746Y-114212428D01*
X136754928Y-114073246D01*
X136870624Y-113914005D01*
X136959984Y-113738625D01*
X137020809Y-113551426D01*
X137023954Y-113531569D01*
X137051600Y-113357022D01*
X137051600Y-113160177D01*
X137020809Y-112965773D01*
X136970561Y-112811128D01*
X136959984Y-112778575D01*
X136959982Y-112778572D01*
X136959982Y-112778570D01*
X136895553Y-112652121D01*
X136870624Y-112603195D01*
X136754928Y-112443954D01*
X136615746Y-112304772D01*
X136456505Y-112189076D01*
X136435362Y-112178303D01*
X136281129Y-112099717D01*
X136093926Y-112038890D01*
X135899522Y-112008100D01*
X135899517Y-112008100D01*
X135702683Y-112008100D01*
X135702678Y-112008100D01*
X135508273Y-112038890D01*
X135321070Y-112099717D01*
X135145694Y-112189076D01*
X135077786Y-112238415D01*
X134986454Y-112304772D01*
X134986452Y-112304774D01*
X134986451Y-112304774D01*
X134847274Y-112443951D01*
X134847274Y-112443952D01*
X134847272Y-112443954D01*
X134813092Y-112490999D01*
X134731576Y-112603194D01*
X134642217Y-112778570D01*
X134581390Y-112965773D01*
X134550600Y-113160177D01*
X133311600Y-113160177D01*
X133311600Y-97937375D01*
X134789100Y-97937375D01*
X134789100Y-98805228D01*
X134803603Y-98878140D01*
X134803605Y-98878144D01*
X134858860Y-98960839D01*
X134941555Y-99016094D01*
X134941559Y-99016096D01*
X135014471Y-99030599D01*
X135014474Y-99030600D01*
X136587726Y-99030600D01*
X136587728Y-99030599D01*
X136660640Y-99016096D01*
X136660644Y-99016094D01*
X136743339Y-98960839D01*
X136798594Y-98878144D01*
X136798596Y-98878140D01*
X136813099Y-98805228D01*
X136813100Y-98805226D01*
X136813100Y-97937376D01*
X135801100Y-96925376D01*
X134789100Y-97937375D01*
X133311600Y-97937375D01*
X133311600Y-97583824D01*
X134789100Y-97583824D01*
X135624324Y-96748600D01*
X135624324Y-96748599D01*
X135977876Y-96748599D01*
X135977876Y-96748600D01*
X136813099Y-97583824D01*
X136813100Y-97583823D01*
X136813100Y-95913376D01*
X136813099Y-95913375D01*
X135977876Y-96748599D01*
X135624324Y-96748599D01*
X134789100Y-95913375D01*
X134789100Y-97583824D01*
X133311600Y-97583824D01*
X133311600Y-96752350D01*
X133311826Y-96744863D01*
X133329298Y-96456010D01*
X133331103Y-96441145D01*
X133382589Y-96160195D01*
X133386173Y-96145657D01*
X133458555Y-95913375D01*
X133471146Y-95872968D01*
X133476453Y-95858976D01*
X133593685Y-95598497D01*
X133600630Y-95585265D01*
X133748410Y-95340807D01*
X133756897Y-95328511D01*
X133933065Y-95103648D01*
X133942980Y-95092457D01*
X134144957Y-94890480D01*
X134156148Y-94880565D01*
X134381011Y-94704397D01*
X134393307Y-94695910D01*
X134601935Y-94569790D01*
X134669487Y-94551955D01*
X134735960Y-94573473D01*
X134780248Y-94627513D01*
X134789486Y-94688055D01*
X134789100Y-94691976D01*
X134789100Y-95559824D01*
X135801100Y-96571824D01*
X136813099Y-95559824D01*
X136813100Y-95559823D01*
X136813100Y-94691973D01*
X136813099Y-94691971D01*
X136798596Y-94619059D01*
X136798595Y-94619055D01*
X136764566Y-94568128D01*
X136743688Y-94501451D01*
X136762172Y-94434071D01*
X136814151Y-94387380D01*
X136867502Y-94375237D01*
X137461424Y-94374457D01*
X137528487Y-94394054D01*
X137574312Y-94446797D01*
X137584346Y-94515943D01*
X137564687Y-94567347D01*
X137517233Y-94638366D01*
X137517231Y-94638370D01*
X137505600Y-94696847D01*
X137505600Y-98735353D01*
X137503713Y-98756905D01*
X137501735Y-98768106D01*
X137501460Y-98774030D01*
X137505729Y-98826333D01*
X137637889Y-99447973D01*
X137640600Y-99473755D01*
X137640600Y-100557741D01*
X137640600Y-100695729D01*
X137640600Y-100695731D01*
X137640599Y-100695731D01*
X137667518Y-100831057D01*
X137667521Y-100831067D01*
X137720322Y-100958542D01*
X137796987Y-101073280D01*
X138817819Y-102094112D01*
X138932557Y-102170777D01*
X139059998Y-102223564D01*
X139060037Y-102223580D01*
X139060041Y-102223580D01*
X139060042Y-102223581D01*
X139195368Y-102250500D01*
X139195371Y-102250500D01*
X139195372Y-102250500D01*
X140056600Y-102250500D01*
X140123639Y-102270185D01*
X140169394Y-102322989D01*
X140180600Y-102374500D01*
X140180600Y-111285451D01*
X140176635Y-111316557D01*
X139739688Y-113002651D01*
X139738610Y-113006809D01*
X139737184Y-113012663D01*
X139737049Y-113013252D01*
X139737048Y-113013262D01*
X139736907Y-113023013D01*
X139735394Y-113040610D01*
X139715400Y-113166856D01*
X139715400Y-113350348D01*
X139744102Y-113531569D01*
X139773200Y-113621121D01*
X139800803Y-113706074D01*
X139884104Y-113869560D01*
X139991954Y-114018003D01*
X140121697Y-114147746D01*
X140270140Y-114255596D01*
X140433626Y-114338897D01*
X140566134Y-114381951D01*
X140608130Y-114395597D01*
X140789352Y-114424300D01*
X140789357Y-114424300D01*
X140972848Y-114424300D01*
X141154069Y-114395597D01*
X141187397Y-114384768D01*
X141328574Y-114338897D01*
X141492060Y-114255596D01*
X141640503Y-114147746D01*
X141770246Y-114018003D01*
X141878096Y-113869560D01*
X141961397Y-113706074D01*
X142018097Y-113531569D01*
X142028627Y-113465086D01*
X142058556Y-113401951D01*
X142117868Y-113365020D01*
X142187730Y-113366018D01*
X142245963Y-113404628D01*
X142273573Y-113465086D01*
X142284103Y-113531569D01*
X142340803Y-113706074D01*
X142424104Y-113869560D01*
X142531954Y-114018003D01*
X142661697Y-114147746D01*
X142810140Y-114255596D01*
X142973626Y-114338897D01*
X143106134Y-114381951D01*
X143148130Y-114395597D01*
X143329352Y-114424300D01*
X143329357Y-114424300D01*
X143512848Y-114424300D01*
X143694069Y-114395597D01*
X143727397Y-114384768D01*
X143868574Y-114338897D01*
X144032060Y-114255596D01*
X144180503Y-114147746D01*
X144310246Y-114018003D01*
X144418096Y-113869560D01*
X144501397Y-113706074D01*
X144558097Y-113531569D01*
X144568627Y-113465086D01*
X144598556Y-113401951D01*
X144657868Y-113365020D01*
X144727730Y-113366018D01*
X144785963Y-113404628D01*
X144813573Y-113465086D01*
X144824103Y-113531569D01*
X144880803Y-113706074D01*
X144964104Y-113869560D01*
X145071954Y-114018003D01*
X145201697Y-114147746D01*
X145350140Y-114255596D01*
X145513626Y-114338897D01*
X145646134Y-114381951D01*
X145688130Y-114395597D01*
X145869352Y-114424300D01*
X145869357Y-114424300D01*
X146052848Y-114424300D01*
X146234069Y-114395597D01*
X146267397Y-114384768D01*
X146408574Y-114338897D01*
X146572060Y-114255596D01*
X146720503Y-114147746D01*
X146850246Y-114018003D01*
X146958096Y-113869560D01*
X147041397Y-113706074D01*
X147098097Y-113531569D01*
X147108627Y-113465086D01*
X147138556Y-113401951D01*
X147197868Y-113365020D01*
X147267730Y-113366018D01*
X147325963Y-113404628D01*
X147353573Y-113465086D01*
X147364103Y-113531569D01*
X147420803Y-113706074D01*
X147504104Y-113869560D01*
X147611954Y-114018003D01*
X147741697Y-114147746D01*
X147890140Y-114255596D01*
X148053626Y-114338897D01*
X148186134Y-114381951D01*
X148228130Y-114395597D01*
X148409352Y-114424300D01*
X148409357Y-114424300D01*
X148592848Y-114424300D01*
X148774069Y-114395597D01*
X148807397Y-114384768D01*
X148948574Y-114338897D01*
X149112060Y-114255596D01*
X149260503Y-114147746D01*
X149390246Y-114018003D01*
X149498096Y-113869560D01*
X149581397Y-113706074D01*
X149638097Y-113531569D01*
X149648627Y-113465086D01*
X149678556Y-113401951D01*
X149737868Y-113365020D01*
X149807730Y-113366018D01*
X149865963Y-113404628D01*
X149893573Y-113465086D01*
X149904103Y-113531569D01*
X149960803Y-113706074D01*
X150044104Y-113869560D01*
X150151954Y-114018003D01*
X150281697Y-114147746D01*
X150430140Y-114255596D01*
X150593626Y-114338897D01*
X150726134Y-114381951D01*
X150768130Y-114395597D01*
X150949352Y-114424300D01*
X150949357Y-114424300D01*
X151132848Y-114424300D01*
X151314069Y-114395597D01*
X151347397Y-114384768D01*
X151488574Y-114338897D01*
X151652060Y-114255596D01*
X151800503Y-114147746D01*
X151930246Y-114018003D01*
X152038096Y-113869560D01*
X152121397Y-113706074D01*
X152167145Y-113565274D01*
X152206582Y-113507599D01*
X152270941Y-113480401D01*
X152339787Y-113492316D01*
X152391263Y-113539560D01*
X152403007Y-113565274D01*
X152454931Y-113725079D01*
X152541768Y-113895505D01*
X152541774Y-113895514D01*
X152636721Y-114026199D01*
X152636723Y-114026200D01*
X153150370Y-113512553D01*
X153181001Y-113565607D01*
X153274093Y-113658699D01*
X153327145Y-113689329D01*
X152813498Y-114202975D01*
X152944191Y-114297929D01*
X152944194Y-114297931D01*
X153114620Y-114384768D01*
X153296539Y-114443878D01*
X153485457Y-114473800D01*
X153676743Y-114473800D01*
X153865660Y-114443878D01*
X154047579Y-114384768D01*
X154218004Y-114297932D01*
X154348699Y-114202975D01*
X154348700Y-114202975D01*
X153835053Y-113689329D01*
X153888107Y-113658699D01*
X153981199Y-113565607D01*
X154011829Y-113512554D01*
X154525475Y-114026200D01*
X154525475Y-114026199D01*
X154620432Y-113895504D01*
X154707269Y-113725076D01*
X154713469Y-113705996D01*
X154752906Y-113648320D01*
X154817264Y-113621121D01*
X154886111Y-113633035D01*
X154937587Y-113680279D01*
X154955400Y-113744313D01*
X154955400Y-114243552D01*
X154967031Y-114302029D01*
X154967032Y-114302030D01*
X155011347Y-114368352D01*
X155077669Y-114412667D01*
X155077670Y-114412668D01*
X155136147Y-114424299D01*
X155136150Y-114424300D01*
X155136152Y-114424300D01*
X157106050Y-114424300D01*
X157106051Y-114424299D01*
X157120868Y-114421352D01*
X157164529Y-114412668D01*
X157164529Y-114412667D01*
X157164531Y-114412667D01*
X157230852Y-114368352D01*
X157275167Y-114302031D01*
X157275167Y-114302029D01*
X157275168Y-114302029D01*
X157283852Y-114258368D01*
X157286800Y-114243548D01*
X157286800Y-113160177D01*
X159950600Y-113160177D01*
X159950600Y-113357022D01*
X159981390Y-113551426D01*
X160042217Y-113738629D01*
X160104845Y-113861542D01*
X160131576Y-113914005D01*
X160247272Y-114073246D01*
X160386454Y-114212428D01*
X160545695Y-114328124D01*
X160624647Y-114368352D01*
X160721070Y-114417482D01*
X160721072Y-114417482D01*
X160721075Y-114417484D01*
X160802307Y-114443878D01*
X160908273Y-114478309D01*
X161102678Y-114509100D01*
X161102683Y-114509100D01*
X161299522Y-114509100D01*
X161493926Y-114478309D01*
X161507803Y-114473800D01*
X161681125Y-114417484D01*
X161856505Y-114328124D01*
X162015746Y-114212428D01*
X162154928Y-114073246D01*
X162270624Y-113914005D01*
X162359984Y-113738625D01*
X162420809Y-113551426D01*
X162423954Y-113531569D01*
X162451600Y-113357022D01*
X162451600Y-113160177D01*
X162420809Y-112965773D01*
X162370561Y-112811128D01*
X162359984Y-112778575D01*
X162359982Y-112778572D01*
X162359982Y-112778570D01*
X162295553Y-112652121D01*
X162270624Y-112603195D01*
X162154928Y-112443954D01*
X162015746Y-112304772D01*
X161856505Y-112189076D01*
X161835362Y-112178303D01*
X161681129Y-112099717D01*
X161493926Y-112038890D01*
X161299522Y-112008100D01*
X161299517Y-112008100D01*
X161102683Y-112008100D01*
X161102678Y-112008100D01*
X160908273Y-112038890D01*
X160721070Y-112099717D01*
X160545694Y-112189076D01*
X160477786Y-112238415D01*
X160386454Y-112304772D01*
X160386452Y-112304774D01*
X160386451Y-112304774D01*
X160247274Y-112443951D01*
X160247274Y-112443952D01*
X160247272Y-112443954D01*
X160213092Y-112490999D01*
X160131576Y-112603194D01*
X160042217Y-112778570D01*
X159981390Y-112965773D01*
X159950600Y-113160177D01*
X157286800Y-113160177D01*
X157286800Y-112273652D01*
X157286800Y-112273649D01*
X157286799Y-112273647D01*
X157275168Y-112215170D01*
X157275167Y-112215169D01*
X157230852Y-112148847D01*
X157164530Y-112104532D01*
X157164529Y-112104531D01*
X157106052Y-112092900D01*
X157106048Y-112092900D01*
X156980084Y-112092900D01*
X156913045Y-112073215D01*
X156897351Y-112061264D01*
X156596031Y-111791363D01*
X156559228Y-111731972D01*
X156560378Y-111662112D01*
X156594001Y-111611638D01*
X156593681Y-111611318D01*
X156595278Y-111609720D01*
X156599114Y-111603963D01*
X156602527Y-111602471D01*
X156630000Y-111574998D01*
X156630000Y-110125000D01*
X156484566Y-110125000D01*
X156484559Y-110125001D01*
X156427992Y-110131081D01*
X156300018Y-110178813D01*
X156300015Y-110178815D01*
X156190670Y-110260670D01*
X156108815Y-110370015D01*
X156108811Y-110370022D01*
X156072427Y-110467571D01*
X156030556Y-110523505D01*
X155965091Y-110547921D01*
X155896818Y-110533069D01*
X155850518Y-110489026D01*
X155840686Y-110472981D01*
X155839719Y-110466874D01*
X155778528Y-110346780D01*
X155739333Y-110307585D01*
X155731664Y-110295070D01*
X155731495Y-110294447D01*
X155731052Y-110293838D01*
X155730485Y-110293105D01*
X155730346Y-110292869D01*
X155730342Y-110292863D01*
X155359404Y-109876396D01*
X155329514Y-109813242D01*
X155328000Y-109793922D01*
X155328000Y-109014307D01*
X155328001Y-109014304D01*
X155328000Y-108972794D01*
X155328597Y-108960646D01*
X155329596Y-108950499D01*
X155340242Y-108842388D01*
X155344980Y-108818566D01*
X155377700Y-108710699D01*
X155386995Y-108688258D01*
X155440132Y-108588844D01*
X155453622Y-108568653D01*
X155528965Y-108476845D01*
X155537110Y-108467859D01*
X155967820Y-108037149D01*
X156029142Y-108003666D01*
X156098834Y-108008650D01*
X156154767Y-108050522D01*
X156178347Y-108113742D01*
X156178903Y-108113688D01*
X156179109Y-108115786D01*
X156179184Y-108115986D01*
X156179215Y-108116857D01*
X156179500Y-108119752D01*
X156191131Y-108178229D01*
X156191132Y-108178230D01*
X156235447Y-108244552D01*
X156301769Y-108288867D01*
X156301770Y-108288868D01*
X156360247Y-108300499D01*
X156360250Y-108300500D01*
X156360252Y-108300500D01*
X156805500Y-108300500D01*
X156872539Y-108320185D01*
X156918294Y-108372989D01*
X156929500Y-108424500D01*
X156929500Y-108839562D01*
X156938323Y-108872489D01*
X156949979Y-108915990D01*
X156969902Y-108950496D01*
X156969903Y-108950499D01*
X156989537Y-108984507D01*
X156989541Y-108984512D01*
X157639548Y-109634519D01*
X157640948Y-109636446D01*
X157642041Y-109637085D01*
X157662368Y-109665938D01*
X157775268Y-109887678D01*
X157788144Y-109956351D01*
X157786377Y-109968169D01*
X157685349Y-110475239D01*
X157652944Y-110537140D01*
X157592218Y-110571695D01*
X157522449Y-110567934D01*
X157465790Y-110527050D01*
X157447557Y-110494344D01*
X157401185Y-110370016D01*
X157401184Y-110370015D01*
X157319329Y-110260670D01*
X157209984Y-110178815D01*
X157209983Y-110178814D01*
X157082010Y-110131083D01*
X157025428Y-110125000D01*
X156880000Y-110125000D01*
X156880000Y-111574999D01*
X157025433Y-111574999D01*
X157025439Y-111574998D01*
X157082007Y-111568918D01*
X157209981Y-111521186D01*
X157209984Y-111521184D01*
X157319329Y-111439329D01*
X157401184Y-111329984D01*
X157401185Y-111329983D01*
X157448916Y-111202010D01*
X157454999Y-111145428D01*
X157454999Y-111026794D01*
X157474683Y-110959754D01*
X157527487Y-110913999D01*
X157596645Y-110904055D01*
X157660201Y-110933079D01*
X157686386Y-110964793D01*
X157769477Y-111108712D01*
X157769479Y-111108715D01*
X157769480Y-111108716D01*
X157881284Y-111220520D01*
X157881286Y-111220521D01*
X157881290Y-111220524D01*
X157993749Y-111285451D01*
X158018216Y-111299577D01*
X158170943Y-111340500D01*
X158170945Y-111340500D01*
X158329055Y-111340500D01*
X158329057Y-111340500D01*
X158481784Y-111299577D01*
X158618716Y-111220520D01*
X158730520Y-111108716D01*
X158809577Y-110971784D01*
X158850500Y-110819057D01*
X158850500Y-110660943D01*
X158845796Y-110643391D01*
X158842240Y-110616413D01*
X158842170Y-110616421D01*
X158841955Y-110614246D01*
X158841571Y-110611332D01*
X158841571Y-110610358D01*
X158703415Y-109916945D01*
X158703414Y-109916943D01*
X158702890Y-109914311D01*
X158700500Y-109890081D01*
X158700500Y-109760693D01*
X158700500Y-109760691D01*
X158669799Y-109646114D01*
X158610489Y-109543387D01*
X158526613Y-109459511D01*
X158497311Y-109442593D01*
X158482576Y-109432609D01*
X158470451Y-109423056D01*
X158470439Y-109423048D01*
X158095941Y-109232371D01*
X158064522Y-109209551D01*
X157572579Y-108717608D01*
X157539094Y-108656285D01*
X157544078Y-108586593D01*
X157585950Y-108530660D01*
X157651414Y-108506243D01*
X157660260Y-108505927D01*
X158792851Y-108505927D01*
X158792853Y-108505927D01*
X158875639Y-108483745D01*
X158949862Y-108440892D01*
X159256956Y-108133798D01*
X159299809Y-108059575D01*
X159321991Y-107976789D01*
X159321991Y-107891083D01*
X159321991Y-107817262D01*
X159341676Y-107750223D01*
X159394480Y-107704468D01*
X159463638Y-107694524D01*
X159527194Y-107723549D01*
X159563920Y-107778939D01*
X159565278Y-107783119D01*
X159565280Y-107783124D01*
X159565281Y-107783126D01*
X159614633Y-107879984D01*
X159626473Y-107903221D01*
X159626476Y-107903225D01*
X159721774Y-107998523D01*
X159721778Y-107998526D01*
X159721780Y-107998528D01*
X159841874Y-108059719D01*
X159841876Y-108059719D01*
X159841878Y-108059720D01*
X159941507Y-108075500D01*
X159941512Y-108075500D01*
X160458493Y-108075500D01*
X160558121Y-108059720D01*
X160558121Y-108059719D01*
X160558126Y-108059719D01*
X160678220Y-107998528D01*
X160773528Y-107903220D01*
X160834719Y-107783126D01*
X160834719Y-107783123D01*
X160839149Y-107774430D01*
X160841423Y-107775588D01*
X160872742Y-107729777D01*
X160937098Y-107702572D01*
X161005946Y-107714479D01*
X161057427Y-107761718D01*
X161067428Y-107782428D01*
X161103814Y-107879982D01*
X161103815Y-107879984D01*
X161185670Y-107989329D01*
X161295015Y-108071184D01*
X161295016Y-108071185D01*
X161422991Y-108118917D01*
X161422994Y-108118918D01*
X161479555Y-108124999D01*
X161624999Y-108124999D01*
X161875000Y-108124999D01*
X162020433Y-108124999D01*
X162020439Y-108124998D01*
X162077007Y-108118918D01*
X162204981Y-108071186D01*
X162204984Y-108071184D01*
X162314329Y-107989329D01*
X162396184Y-107879984D01*
X162396185Y-107879983D01*
X162443916Y-107752010D01*
X162449999Y-107695428D01*
X162450000Y-107695427D01*
X162450000Y-107525000D01*
X161875000Y-107525000D01*
X161875000Y-108124999D01*
X161624999Y-108124999D01*
X161625000Y-108124998D01*
X161625000Y-107275000D01*
X161875000Y-107275000D01*
X162449999Y-107275000D01*
X162449999Y-107104566D01*
X162449998Y-107104560D01*
X162443918Y-107047992D01*
X162396186Y-106920018D01*
X162396184Y-106920015D01*
X162314329Y-106810670D01*
X162204984Y-106728815D01*
X162204983Y-106728814D01*
X162077010Y-106681083D01*
X162020428Y-106675000D01*
X161875000Y-106675000D01*
X161875000Y-107275000D01*
X161625000Y-107275000D01*
X161625000Y-106675000D01*
X161479566Y-106675000D01*
X161479559Y-106675001D01*
X161422992Y-106681081D01*
X161295018Y-106728813D01*
X161295015Y-106728815D01*
X161185670Y-106810670D01*
X161103815Y-106920015D01*
X161103811Y-106920022D01*
X161067427Y-107017571D01*
X161025556Y-107073505D01*
X160960091Y-107097921D01*
X160891818Y-107083069D01*
X160842413Y-107033663D01*
X160837693Y-107022714D01*
X160834719Y-107016878D01*
X160834719Y-107016874D01*
X160773528Y-106896780D01*
X160773526Y-106896778D01*
X160773523Y-106896774D01*
X160678225Y-106801476D01*
X160678221Y-106801473D01*
X160678220Y-106801472D01*
X160558126Y-106740281D01*
X160558124Y-106740280D01*
X160558121Y-106740279D01*
X160458493Y-106724500D01*
X160458488Y-106724500D01*
X159941512Y-106724500D01*
X159941510Y-106724500D01*
X159907703Y-106729854D01*
X159876423Y-106725811D01*
X159844973Y-106723562D01*
X159842041Y-106721367D01*
X159838410Y-106720898D01*
X159814280Y-106700585D01*
X159789040Y-106681690D01*
X159787760Y-106678260D01*
X159784958Y-106675901D01*
X159775641Y-106645767D01*
X159764623Y-106616226D01*
X159765401Y-106612647D01*
X159764320Y-106609149D01*
X159772771Y-106578769D01*
X159779475Y-106547953D01*
X159782449Y-106543979D01*
X159783046Y-106541835D01*
X159800622Y-106519703D01*
X159926062Y-106394263D01*
X159951862Y-106374490D01*
X160320631Y-106162175D01*
X160320639Y-106162169D01*
X160320655Y-106162161D01*
X160326177Y-106158864D01*
X160326204Y-106158848D01*
X160326828Y-106158462D01*
X160328956Y-106156414D01*
X160352915Y-106138397D01*
X160366614Y-106130489D01*
X161479336Y-105017767D01*
X161479371Y-105017747D01*
X161515669Y-104981448D01*
X161582893Y-104914222D01*
X161698643Y-104763370D01*
X161793712Y-104598701D01*
X161866475Y-104423031D01*
X161915685Y-104239367D01*
X161916603Y-104232399D01*
X161931858Y-104116506D01*
X161940501Y-104050851D01*
X161940500Y-103955780D01*
X161940500Y-103930201D01*
X161940500Y-103154905D01*
X161940500Y-103146330D01*
X161940490Y-103146190D01*
X161940490Y-103139907D01*
X161940491Y-103119150D01*
X161929094Y-103032571D01*
X161915676Y-102930639D01*
X161915675Y-102930636D01*
X161912748Y-102919713D01*
X161888807Y-102830358D01*
X161866467Y-102746977D01*
X161847009Y-102700000D01*
X161793703Y-102571303D01*
X161698635Y-102406635D01*
X161582886Y-102255785D01*
X161573380Y-102246279D01*
X161561930Y-102234828D01*
X161561930Y-102234827D01*
X161515660Y-102188557D01*
X161469406Y-102142301D01*
X161469383Y-102142280D01*
X159147919Y-99820816D01*
X159133215Y-99793888D01*
X159116623Y-99768070D01*
X159115731Y-99761869D01*
X159114434Y-99759493D01*
X159111600Y-99733135D01*
X159111600Y-99515932D01*
X159129567Y-99451644D01*
X159469078Y-98891670D01*
X159469087Y-98891655D01*
X159472441Y-98885916D01*
X159472799Y-98885280D01*
X159477586Y-98869875D01*
X159484967Y-98858831D01*
X159491982Y-98823560D01*
X159498388Y-98802953D01*
X159499193Y-98794035D01*
X159497300Y-98776313D01*
X159496600Y-98763149D01*
X159496600Y-97937375D01*
X160189100Y-97937375D01*
X160189100Y-98805228D01*
X160203603Y-98878140D01*
X160203605Y-98878144D01*
X160258860Y-98960839D01*
X160341555Y-99016094D01*
X160341559Y-99016096D01*
X160414471Y-99030599D01*
X160414474Y-99030600D01*
X161987726Y-99030600D01*
X161987728Y-99030599D01*
X162060640Y-99016096D01*
X162060644Y-99016094D01*
X162143339Y-98960839D01*
X162198594Y-98878144D01*
X162198596Y-98878140D01*
X162213099Y-98805228D01*
X162213100Y-98805226D01*
X162213100Y-97937376D01*
X161201100Y-96925376D01*
X160189100Y-97937375D01*
X159496600Y-97937375D01*
X159496600Y-97583824D01*
X160189100Y-97583824D01*
X161024324Y-96748600D01*
X161024324Y-96748599D01*
X161377876Y-96748599D01*
X161377876Y-96748600D01*
X162213099Y-97583824D01*
X162213100Y-97583823D01*
X162213100Y-95913376D01*
X162213099Y-95913375D01*
X161377876Y-96748599D01*
X161024324Y-96748599D01*
X160189100Y-95913375D01*
X160189100Y-97583824D01*
X159496600Y-97583824D01*
X159496600Y-94696849D01*
X159496599Y-94696847D01*
X159484968Y-94638370D01*
X159484967Y-94638369D01*
X159440651Y-94572046D01*
X159432017Y-94563412D01*
X159432993Y-94562435D01*
X159396694Y-94519000D01*
X159387988Y-94449675D01*
X159418144Y-94386648D01*
X159477588Y-94349930D01*
X159510219Y-94345513D01*
X160154798Y-94344666D01*
X160221860Y-94364263D01*
G37*
%TD.AperFunction*%
%TA.AperFunction,Conductor*%
G36*
X148741166Y-102118068D02*
G01*
X148787856Y-102170046D01*
X148800000Y-102223564D01*
X148800000Y-102225000D01*
X149401000Y-102225000D01*
X149409685Y-102227550D01*
X149418647Y-102226262D01*
X149442687Y-102237240D01*
X149468039Y-102244685D01*
X149473966Y-102251525D01*
X149482203Y-102255287D01*
X149496492Y-102277521D01*
X149513794Y-102297489D01*
X149516081Y-102308003D01*
X149519977Y-102314065D01*
X149525000Y-102349000D01*
X149525000Y-102351000D01*
X149505315Y-102418039D01*
X149452511Y-102463794D01*
X149401000Y-102475000D01*
X148800001Y-102475000D01*
X148800001Y-102620439D01*
X148806081Y-102677007D01*
X148853813Y-102804981D01*
X148853815Y-102804984D01*
X148935670Y-102914329D01*
X149045015Y-102996184D01*
X149045018Y-102996186D01*
X149142570Y-103032571D01*
X149198504Y-103074442D01*
X149222921Y-103139907D01*
X149208069Y-103208180D01*
X149158664Y-103257585D01*
X149147717Y-103262304D01*
X149021778Y-103326473D01*
X149021774Y-103326476D01*
X148926476Y-103421774D01*
X148926473Y-103421778D01*
X148926472Y-103421780D01*
X148872395Y-103527913D01*
X148865279Y-103541878D01*
X148849500Y-103641506D01*
X148849500Y-104158493D01*
X148865279Y-104258121D01*
X148865280Y-104258124D01*
X148865281Y-104258126D01*
X148921460Y-104368383D01*
X148926473Y-104378221D01*
X148926476Y-104378225D01*
X149021774Y-104473523D01*
X149021780Y-104473528D01*
X149085565Y-104506028D01*
X149136359Y-104553999D01*
X149153155Y-104621820D01*
X149130618Y-104687955D01*
X149085569Y-104726993D01*
X149076783Y-104731470D01*
X149076774Y-104731476D01*
X148981476Y-104826774D01*
X148981473Y-104826778D01*
X148920279Y-104946878D01*
X148904500Y-105046506D01*
X148904500Y-105613493D01*
X148920279Y-105713121D01*
X148920280Y-105713124D01*
X148920281Y-105713126D01*
X148981472Y-105833220D01*
X148981473Y-105833221D01*
X148981476Y-105833225D01*
X149076774Y-105928523D01*
X149076776Y-105928524D01*
X149076780Y-105928528D01*
X149196874Y-105989719D01*
X149196875Y-105989719D01*
X149205569Y-105994149D01*
X149205030Y-105995205D01*
X149226170Y-106006147D01*
X149761271Y-106405537D01*
X149761279Y-106405541D01*
X149765476Y-106408179D01*
X149765281Y-106408488D01*
X149776003Y-106415325D01*
X149786669Y-106423509D01*
X149798858Y-106434197D01*
X149813372Y-106448711D01*
X149951224Y-106554486D01*
X150051965Y-106612647D01*
X150101696Y-106641359D01*
X150101698Y-106641360D01*
X150101702Y-106641362D01*
X150262233Y-106707854D01*
X150430070Y-106752824D01*
X150544779Y-106767923D01*
X150608672Y-106796187D01*
X150647145Y-106854511D01*
X150648367Y-106922954D01*
X150619500Y-107030691D01*
X150619500Y-107149309D01*
X150624940Y-107169615D01*
X150628888Y-107193438D01*
X150629315Y-107199835D01*
X150629609Y-107204230D01*
X150740236Y-107615109D01*
X150744500Y-107647347D01*
X150744500Y-108438811D01*
X150735854Y-108468253D01*
X150729331Y-108498240D01*
X150725577Y-108503254D01*
X150724815Y-108505850D01*
X150708184Y-108526488D01*
X150682041Y-108552632D01*
X150673025Y-108560803D01*
X150584963Y-108633072D01*
X150564751Y-108646577D01*
X150469676Y-108697394D01*
X150447218Y-108706696D01*
X150344064Y-108737986D01*
X150320223Y-108742728D01*
X150233995Y-108751220D01*
X150206748Y-108753903D01*
X150194602Y-108754500D01*
X148577603Y-108754500D01*
X148577314Y-108754518D01*
X148541566Y-108754518D01*
X148541565Y-108754518D01*
X148541560Y-108754518D01*
X148369291Y-108777193D01*
X148201455Y-108822159D01*
X148201452Y-108822159D01*
X148201446Y-108822162D01*
X148040935Y-108888644D01*
X148040932Y-108888645D01*
X147890441Y-108975526D01*
X147752600Y-109081290D01*
X147725091Y-109108798D01*
X147725036Y-109108850D01*
X147250834Y-109583051D01*
X147205940Y-109611754D01*
X146250850Y-109962884D01*
X146208063Y-109970500D01*
X146026730Y-109970500D01*
X145996300Y-109973353D01*
X145996298Y-109973353D01*
X145868119Y-110018206D01*
X145868118Y-110018207D01*
X145758852Y-110098847D01*
X145758849Y-110098850D01*
X145753216Y-110106483D01*
X145726224Y-110133242D01*
X145190017Y-110521900D01*
X145124184Y-110545306D01*
X145117244Y-110545500D01*
X144585189Y-110545500D01*
X144555743Y-110536853D01*
X144525759Y-110530330D01*
X144520746Y-110526577D01*
X144518150Y-110525815D01*
X144497505Y-110509178D01*
X144481816Y-110493488D01*
X144448333Y-110432164D01*
X144445500Y-110405810D01*
X144445500Y-109293226D01*
X144465185Y-109226187D01*
X144483863Y-109203548D01*
X144715528Y-108982322D01*
X144777606Y-108950259D01*
X144801165Y-108948000D01*
X144889750Y-108948000D01*
X144889751Y-108947999D01*
X144918989Y-108942183D01*
X144948227Y-108936368D01*
X144948227Y-108936367D01*
X144948231Y-108936367D01*
X144956559Y-108930801D01*
X145023233Y-108909923D01*
X145090614Y-108928405D01*
X145094342Y-108930801D01*
X145172455Y-108982994D01*
X145172459Y-108982996D01*
X145245371Y-108997499D01*
X145245374Y-108997500D01*
X145645000Y-108997500D01*
X145645000Y-108924000D01*
X145647550Y-108915314D01*
X145646262Y-108906353D01*
X145657240Y-108882312D01*
X145664685Y-108856961D01*
X145671525Y-108851033D01*
X145675287Y-108842797D01*
X145697521Y-108828507D01*
X145717489Y-108811206D01*
X145728003Y-108808918D01*
X145734065Y-108805023D01*
X145769000Y-108800000D01*
X145771000Y-108800000D01*
X145838039Y-108819685D01*
X145883794Y-108872489D01*
X145895000Y-108924000D01*
X145895000Y-108997500D01*
X146294626Y-108997500D01*
X146294628Y-108997499D01*
X146367540Y-108982996D01*
X146367544Y-108982994D01*
X146450239Y-108927739D01*
X146498770Y-108855109D01*
X146552382Y-108810304D01*
X146601872Y-108800000D01*
X147000000Y-108800000D01*
X147000000Y-107000000D01*
X145200000Y-107000000D01*
X145200000Y-107627320D01*
X145197763Y-107634937D01*
X145199033Y-107642773D01*
X145188059Y-107667982D01*
X145180315Y-107694359D01*
X145173606Y-107701188D01*
X145171148Y-107706837D01*
X145144891Y-107730422D01*
X145094342Y-107764198D01*
X145027665Y-107785076D01*
X144960284Y-107766592D01*
X144956560Y-107764198D01*
X144948230Y-107758632D01*
X144948229Y-107758631D01*
X144889752Y-107747000D01*
X144889748Y-107747000D01*
X144387668Y-107747000D01*
X144325668Y-107730387D01*
X144245640Y-107684183D01*
X144245639Y-107684182D01*
X144245638Y-107684182D01*
X144162853Y-107662000D01*
X144077147Y-107662000D01*
X143994362Y-107684182D01*
X143994359Y-107684183D01*
X143914332Y-107730387D01*
X143856266Y-107745945D01*
X143856312Y-107746403D01*
X143853542Y-107746675D01*
X143852332Y-107747000D01*
X143850247Y-107747000D01*
X143791770Y-107758631D01*
X143791769Y-107758632D01*
X143725447Y-107802947D01*
X143681132Y-107869269D01*
X143681131Y-107869270D01*
X143669500Y-107927747D01*
X143669500Y-107927752D01*
X143669500Y-108724730D01*
X143668512Y-108727771D01*
X143667709Y-108736688D01*
X143669500Y-108753435D01*
X143669500Y-108767250D01*
X143671607Y-108777845D01*
X143673284Y-108788837D01*
X143676233Y-108816404D01*
X143676234Y-108816408D01*
X143676235Y-108816414D01*
X143786200Y-109168303D01*
X143788856Y-109176802D01*
X143794500Y-109213788D01*
X143794500Y-110634852D01*
X143816682Y-110717640D01*
X143838108Y-110754750D01*
X143859535Y-110791862D01*
X144138533Y-111070860D01*
X144138535Y-111070862D01*
X144199138Y-111131465D01*
X144267804Y-111171109D01*
X144273362Y-111174318D01*
X144356148Y-111196501D01*
X144441853Y-111196501D01*
X144441857Y-111196500D01*
X145117247Y-111196500D01*
X145184286Y-111216185D01*
X145190011Y-111220095D01*
X145726220Y-111608752D01*
X145753218Y-111635519D01*
X145758850Y-111643150D01*
X145868118Y-111723793D01*
X145910845Y-111738744D01*
X145996299Y-111768646D01*
X146026730Y-111771500D01*
X146026734Y-111771500D01*
X146835270Y-111771500D01*
X146865699Y-111768646D01*
X146865701Y-111768646D01*
X146929790Y-111746219D01*
X146993882Y-111723793D01*
X147103150Y-111643150D01*
X147183793Y-111533882D01*
X147207736Y-111465457D01*
X147228646Y-111405701D01*
X147228646Y-111405699D01*
X147231500Y-111375269D01*
X147231500Y-111195756D01*
X147240938Y-111148306D01*
X147257336Y-111108716D01*
X147391938Y-110783737D01*
X147435778Y-110729333D01*
X147502072Y-110707267D01*
X147569771Y-110724545D01*
X147617383Y-110775681D01*
X147630500Y-110831188D01*
X147630500Y-111375269D01*
X147633353Y-111405699D01*
X147633353Y-111405701D01*
X147678206Y-111533880D01*
X147678207Y-111533882D01*
X147685071Y-111543182D01*
X147694918Y-111558849D01*
X147808977Y-111774535D01*
X147822915Y-111843000D01*
X147814324Y-111878970D01*
X147503840Y-112647119D01*
X147499361Y-112656946D01*
X147420801Y-112811128D01*
X147364104Y-112985627D01*
X147364102Y-112985634D01*
X147362263Y-112997238D01*
X147361148Y-113004282D01*
X147360176Y-113007769D01*
X147360081Y-113011018D01*
X147358838Y-113018866D01*
X147353572Y-113052113D01*
X147323642Y-113115247D01*
X147264331Y-113152178D01*
X147194468Y-113151180D01*
X147136236Y-113112570D01*
X147108626Y-113052115D01*
X147098097Y-112985631D01*
X147041397Y-112811126D01*
X146958096Y-112647640D01*
X146850246Y-112499197D01*
X146720503Y-112369454D01*
X146572060Y-112261604D01*
X146408574Y-112178303D01*
X146363317Y-112163598D01*
X146234069Y-112121602D01*
X146052848Y-112092900D01*
X146052843Y-112092900D01*
X145869357Y-112092900D01*
X145869352Y-112092900D01*
X145688130Y-112121602D01*
X145513623Y-112178304D01*
X145350139Y-112261604D01*
X145201694Y-112369456D01*
X145071956Y-112499194D01*
X144964104Y-112647639D01*
X144880804Y-112811123D01*
X144824102Y-112985630D01*
X144813573Y-113052113D01*
X144783644Y-113115248D01*
X144724332Y-113152179D01*
X144654470Y-113151181D01*
X144596237Y-113112571D01*
X144568627Y-113052113D01*
X144558097Y-112985630D01*
X144519421Y-112866599D01*
X144501397Y-112811126D01*
X144418096Y-112647640D01*
X144310246Y-112499197D01*
X144180503Y-112369454D01*
X144032060Y-112261604D01*
X143868574Y-112178303D01*
X143823317Y-112163598D01*
X143694069Y-112121602D01*
X143512848Y-112092900D01*
X143512843Y-112092900D01*
X143329357Y-112092900D01*
X143329352Y-112092900D01*
X143148130Y-112121602D01*
X142973623Y-112178304D01*
X142810139Y-112261604D01*
X142661694Y-112369456D01*
X142531956Y-112499194D01*
X142424104Y-112647639D01*
X142340804Y-112811123D01*
X142284103Y-112985629D01*
X142273572Y-113052117D01*
X142266679Y-113066655D01*
X142264618Y-113082612D01*
X142252020Y-113097576D01*
X142243642Y-113115251D01*
X142229984Y-113123754D01*
X142219623Y-113136064D01*
X142200935Y-113141842D01*
X142184330Y-113152182D01*
X142168242Y-113151952D01*
X142152872Y-113156705D01*
X142134028Y-113151463D01*
X142114468Y-113151184D01*
X142101057Y-113142292D01*
X142085558Y-113137981D01*
X142072538Y-113123382D01*
X142056235Y-113112573D01*
X142049243Y-113097264D01*
X142039052Y-113085837D01*
X142028627Y-113052123D01*
X142025752Y-113033971D01*
X142024433Y-113021702D01*
X142023578Y-113006765D01*
X141585565Y-111316558D01*
X141581600Y-111285451D01*
X141581600Y-104907747D01*
X143669500Y-104907747D01*
X143669500Y-105747252D01*
X143681131Y-105805729D01*
X143681132Y-105805730D01*
X143725447Y-105872052D01*
X143791769Y-105916367D01*
X143791770Y-105916368D01*
X143850247Y-105927999D01*
X143850250Y-105928000D01*
X143850252Y-105928000D01*
X144889750Y-105928000D01*
X144889751Y-105927999D01*
X144927976Y-105920396D01*
X144948227Y-105916368D01*
X144948227Y-105916367D01*
X144948231Y-105916367D01*
X144956559Y-105910801D01*
X145023233Y-105889923D01*
X145090614Y-105908405D01*
X145094342Y-105910801D01*
X145172455Y-105962994D01*
X145172459Y-105962996D01*
X145245371Y-105977499D01*
X145245374Y-105977500D01*
X145645000Y-105977500D01*
X145895000Y-105977500D01*
X146294626Y-105977500D01*
X146294628Y-105977499D01*
X146367540Y-105962996D01*
X146367544Y-105962994D01*
X146450239Y-105907739D01*
X146505494Y-105825044D01*
X146505496Y-105825040D01*
X146519999Y-105752128D01*
X146520000Y-105752126D01*
X146520000Y-105452500D01*
X145895000Y-105452500D01*
X145895000Y-105977500D01*
X145645000Y-105977500D01*
X145645000Y-105451500D01*
X145647550Y-105442814D01*
X145646262Y-105433853D01*
X145657240Y-105409812D01*
X145664685Y-105384461D01*
X145671525Y-105378533D01*
X145675287Y-105370297D01*
X145697521Y-105356007D01*
X145717489Y-105338706D01*
X145728003Y-105336418D01*
X145734065Y-105332523D01*
X145769000Y-105327500D01*
X145770000Y-105327500D01*
X145770000Y-105326500D01*
X145789685Y-105259461D01*
X145842489Y-105213706D01*
X145894000Y-105202500D01*
X146520000Y-105202500D01*
X146520000Y-104924500D01*
X146522550Y-104915814D01*
X146521262Y-104906853D01*
X146532240Y-104882812D01*
X146539685Y-104857461D01*
X146546525Y-104851533D01*
X146550287Y-104843297D01*
X146572521Y-104829007D01*
X146592489Y-104811706D01*
X146603003Y-104809418D01*
X146609065Y-104805523D01*
X146644000Y-104800500D01*
X146709953Y-104800500D01*
X146776992Y-104820185D01*
X146797634Y-104836819D01*
X146902712Y-104941897D01*
X146917534Y-104959799D01*
X147336435Y-105575145D01*
X147356405Y-105625525D01*
X147370279Y-105713121D01*
X147370280Y-105713124D01*
X147370281Y-105713126D01*
X147431472Y-105833220D01*
X147431473Y-105833221D01*
X147431476Y-105833225D01*
X147526774Y-105928523D01*
X147526778Y-105928526D01*
X147526780Y-105928528D01*
X147646874Y-105989719D01*
X147646876Y-105989719D01*
X147646878Y-105989720D01*
X147746507Y-106005500D01*
X147746512Y-106005500D01*
X148263493Y-106005500D01*
X148363121Y-105989720D01*
X148363121Y-105989719D01*
X148363126Y-105989719D01*
X148483220Y-105928528D01*
X148578528Y-105833220D01*
X148639719Y-105713126D01*
X148646553Y-105669979D01*
X148655500Y-105613493D01*
X148655500Y-105046506D01*
X148639720Y-104946878D01*
X148639719Y-104946876D01*
X148639719Y-104946874D01*
X148578528Y-104826780D01*
X148578526Y-104826778D01*
X148578523Y-104826774D01*
X148483225Y-104731476D01*
X148483221Y-104731473D01*
X148483220Y-104731472D01*
X148363126Y-104670281D01*
X148363124Y-104670280D01*
X148363121Y-104670279D01*
X148263493Y-104654500D01*
X148263488Y-104654500D01*
X148239084Y-104654500D01*
X148182077Y-104640618D01*
X147563780Y-104320525D01*
X147533110Y-104298089D01*
X147224534Y-103989513D01*
X147224532Y-103989511D01*
X147166109Y-103955780D01*
X147121806Y-103930201D01*
X147109698Y-103926957D01*
X147097591Y-103923713D01*
X147097588Y-103923712D01*
X147059396Y-103913478D01*
X147007227Y-103899500D01*
X144350691Y-103899500D01*
X144281944Y-103917920D01*
X144236112Y-103930201D01*
X144236107Y-103930204D01*
X144133393Y-103989505D01*
X144133385Y-103989511D01*
X144009513Y-104113383D01*
X144009511Y-104113386D01*
X143950200Y-104216113D01*
X143950200Y-104216114D01*
X143945836Y-104232397D01*
X143945837Y-104232398D01*
X143919500Y-104330691D01*
X143919500Y-104454414D01*
X143918455Y-104460175D01*
X143919168Y-104463480D01*
X143911604Y-104497954D01*
X143845256Y-104674878D01*
X143803286Y-104730737D01*
X143798044Y-104734440D01*
X143725447Y-104782948D01*
X143681132Y-104849269D01*
X143681131Y-104849270D01*
X143669500Y-104907747D01*
X141581600Y-104907747D01*
X141581600Y-102374500D01*
X141601285Y-102307461D01*
X141654089Y-102261706D01*
X141705600Y-102250500D01*
X148268995Y-102250500D01*
X148369574Y-102230493D01*
X148404328Y-102223580D01*
X148512401Y-102178815D01*
X148531804Y-102170778D01*
X148531804Y-102170777D01*
X148531811Y-102170775D01*
X148607110Y-102120461D01*
X148673785Y-102099584D01*
X148741166Y-102118068D01*
G37*
%TD.AperFunction*%
%TA.AperFunction,Conductor*%
G36*
X151963981Y-110707339D02*
G01*
X152011492Y-110758568D01*
X152024500Y-110813857D01*
X152024500Y-111354269D01*
X152027353Y-111384699D01*
X152027353Y-111384701D01*
X152070822Y-111508924D01*
X152072207Y-111512882D01*
X152152850Y-111622150D01*
X152262118Y-111702793D01*
X152304845Y-111717744D01*
X152390299Y-111747646D01*
X152420730Y-111750500D01*
X152420734Y-111750500D01*
X153229270Y-111750500D01*
X153259699Y-111747646D01*
X153259701Y-111747646D01*
X153335312Y-111721188D01*
X153387882Y-111702793D01*
X153490218Y-111627265D01*
X153507364Y-111616651D01*
X154057688Y-111335108D01*
X154070778Y-111331953D01*
X154079229Y-111326523D01*
X154114164Y-111321500D01*
X154238261Y-111321500D01*
X154275722Y-111327294D01*
X154826478Y-111501837D01*
X154826373Y-111502165D01*
X154844428Y-111508924D01*
X154846870Y-111509717D01*
X154846874Y-111509719D01*
X154854034Y-111510853D01*
X154915319Y-111539161D01*
X155106305Y-111702793D01*
X155114003Y-111709388D01*
X155152105Y-111767954D01*
X155152495Y-111837823D01*
X155144118Y-111859239D01*
X154976085Y-112193557D01*
X154976077Y-112193577D01*
X154974736Y-112197255D01*
X154974737Y-112197256D01*
X154969625Y-112211288D01*
X154967033Y-112215169D01*
X154965614Y-112222299D01*
X154962365Y-112231220D01*
X154962363Y-112231229D01*
X154959745Y-112238415D01*
X154959739Y-112238437D01*
X154958495Y-112243680D01*
X154958492Y-112243698D01*
X154953271Y-112279582D01*
X154953272Y-112279585D01*
X154953648Y-112281798D01*
X154955400Y-112302568D01*
X154955400Y-112772886D01*
X154935715Y-112839925D01*
X154882911Y-112885680D01*
X154813753Y-112895624D01*
X154750197Y-112866599D01*
X154713469Y-112811205D01*
X154707268Y-112792120D01*
X154620431Y-112621694D01*
X154620429Y-112621691D01*
X154525475Y-112490999D01*
X154525475Y-112490998D01*
X154011828Y-113004645D01*
X153981199Y-112951593D01*
X153888107Y-112858501D01*
X153835053Y-112827870D01*
X154348700Y-112314223D01*
X154348699Y-112314221D01*
X154218014Y-112219274D01*
X154218005Y-112219268D01*
X154047579Y-112132431D01*
X153865660Y-112073321D01*
X153676743Y-112043400D01*
X153485457Y-112043400D01*
X153296539Y-112073321D01*
X153114620Y-112132431D01*
X152944192Y-112219269D01*
X152813499Y-112314222D01*
X152813499Y-112314224D01*
X153327146Y-112827870D01*
X153274093Y-112858501D01*
X153181001Y-112951593D01*
X153150370Y-113004645D01*
X152636724Y-112490999D01*
X152636722Y-112490999D01*
X152541769Y-112621692D01*
X152454931Y-112792120D01*
X152403007Y-112951925D01*
X152363569Y-113009600D01*
X152299210Y-113036798D01*
X152230364Y-113024883D01*
X152178888Y-112977638D01*
X152167145Y-112951924D01*
X152139421Y-112866599D01*
X152121397Y-112811126D01*
X152038096Y-112647640D01*
X152032997Y-112640622D01*
X152024975Y-112628054D01*
X152019191Y-112617665D01*
X152017348Y-112612042D01*
X151530143Y-111747394D01*
X151514383Y-111679327D01*
X151524621Y-111636707D01*
X151590834Y-111485800D01*
X151604390Y-111442368D01*
X151605066Y-111438879D01*
X151609755Y-111421534D01*
X151622646Y-111384699D01*
X151622646Y-111384696D01*
X151622647Y-111384694D01*
X151625500Y-111354269D01*
X151625500Y-111176407D01*
X151635031Y-111128732D01*
X151786031Y-110766182D01*
X151829978Y-110711863D01*
X151896315Y-110689928D01*
X151963981Y-110707339D01*
G37*
%TD.AperFunction*%
%TA.AperFunction,Conductor*%
G36*
X150913196Y-101675501D02*
G01*
X150954701Y-101675500D01*
X150966851Y-101676096D01*
X151085109Y-101687742D01*
X151108935Y-101692481D01*
X151216796Y-101725199D01*
X151239241Y-101734495D01*
X151338648Y-101787628D01*
X151358856Y-101801131D01*
X151450636Y-101876451D01*
X151459653Y-101884624D01*
X151494200Y-101919171D01*
X151527685Y-101980494D01*
X151522701Y-102050186D01*
X151480829Y-102106119D01*
X151415365Y-102130536D01*
X151393266Y-102130142D01*
X151345433Y-102125000D01*
X151175000Y-102125000D01*
X151175000Y-102700000D01*
X151774999Y-102700000D01*
X151774999Y-102554566D01*
X151774998Y-102554562D01*
X151769857Y-102506734D01*
X151782263Y-102437975D01*
X151829874Y-102386838D01*
X151897574Y-102369559D01*
X151963868Y-102391624D01*
X151980828Y-102405799D01*
X153406311Y-103831282D01*
X153406327Y-103831312D01*
X153516988Y-103941971D01*
X153516991Y-103941973D01*
X153516992Y-103941974D01*
X153682602Y-104062295D01*
X153864996Y-104155226D01*
X153864998Y-104155226D01*
X153865001Y-104155228D01*
X153931547Y-104176849D01*
X154059682Y-104218481D01*
X154261866Y-104250501D01*
X154364218Y-104250500D01*
X155458193Y-104250500D01*
X155458196Y-104250501D01*
X155499703Y-104250500D01*
X155511851Y-104251096D01*
X155630109Y-104262742D01*
X155653935Y-104267481D01*
X155761796Y-104300199D01*
X155784241Y-104309495D01*
X155883648Y-104362628D01*
X155903856Y-104376131D01*
X155995636Y-104451451D01*
X156004653Y-104459624D01*
X156720304Y-105175275D01*
X156728476Y-105184291D01*
X156803863Y-105276153D01*
X156817363Y-105296357D01*
X156836694Y-105332523D01*
X156870491Y-105395754D01*
X156879792Y-105418208D01*
X156886252Y-105439504D01*
X156886877Y-105509369D01*
X156849630Y-105568483D01*
X156786337Y-105598075D01*
X156767592Y-105599500D01*
X156360247Y-105599500D01*
X156301770Y-105611131D01*
X156301769Y-105611132D01*
X156235447Y-105655447D01*
X156191132Y-105721769D01*
X156191131Y-105721770D01*
X156179500Y-105780247D01*
X156179500Y-105780252D01*
X156179500Y-106119748D01*
X156181636Y-106130485D01*
X156190651Y-106175810D01*
X156190651Y-106224190D01*
X156179500Y-106280252D01*
X156179500Y-106612465D01*
X156159815Y-106679504D01*
X156158604Y-106681354D01*
X156144504Y-106702456D01*
X156130000Y-106775373D01*
X156130000Y-106825000D01*
X156956000Y-106825000D01*
X156964685Y-106827550D01*
X156973647Y-106826262D01*
X156997687Y-106837240D01*
X157023039Y-106844685D01*
X157028966Y-106851525D01*
X157037203Y-106855287D01*
X157051492Y-106877521D01*
X157068794Y-106897489D01*
X157071081Y-106908003D01*
X157074977Y-106914065D01*
X157080000Y-106949000D01*
X157080000Y-106951000D01*
X157060315Y-107018039D01*
X157007511Y-107063794D01*
X156956000Y-107075000D01*
X156130000Y-107075000D01*
X156130000Y-107127073D01*
X156110315Y-107194112D01*
X156057511Y-107239867D01*
X156046757Y-107244054D01*
X156045005Y-107244780D01*
X155862606Y-107337714D01*
X155862599Y-107337718D01*
X155697000Y-107458031D01*
X155696994Y-107458035D01*
X155656935Y-107498093D01*
X155656936Y-107498094D01*
X155652599Y-107502431D01*
X155652596Y-107502433D01*
X155630029Y-107525000D01*
X155624624Y-107530405D01*
X155590968Y-107564060D01*
X155590967Y-107564061D01*
X155146216Y-108008811D01*
X155146189Y-108008825D01*
X155035528Y-108119488D01*
X154915203Y-108285105D01*
X154822271Y-108467501D01*
X154759019Y-108662180D01*
X154726999Y-108864366D01*
X154727000Y-108927152D01*
X154727000Y-109863314D01*
X154722897Y-109894948D01*
X154637007Y-110220485D01*
X154600871Y-110280284D01*
X154560866Y-110304874D01*
X154298256Y-110403913D01*
X154228583Y-110409151D01*
X154167139Y-110375890D01*
X154133431Y-110314689D01*
X154130500Y-110287890D01*
X154130500Y-106135439D01*
X154129174Y-106130489D01*
X154110021Y-106059011D01*
X154085591Y-106016697D01*
X154070464Y-105990495D01*
X154070458Y-105990487D01*
X154014511Y-105934540D01*
X153789513Y-105709541D01*
X153784096Y-105706414D01*
X153784095Y-105706413D01*
X153720992Y-105669980D01*
X153720993Y-105669980D01*
X153711960Y-105667559D01*
X153644562Y-105649500D01*
X153644560Y-105649500D01*
X153598472Y-105649500D01*
X153559260Y-105643137D01*
X153506424Y-105625525D01*
X153448008Y-105606053D01*
X153394381Y-105595821D01*
X153394379Y-105595820D01*
X153394375Y-105595820D01*
X153388239Y-105595480D01*
X153346869Y-105598704D01*
X153341464Y-105599125D01*
X153331835Y-105599500D01*
X152028161Y-105599500D01*
X152018531Y-105599125D01*
X152010428Y-105598493D01*
X151971765Y-105595481D01*
X151971760Y-105595481D01*
X151971757Y-105595481D01*
X151968686Y-105595651D01*
X151965608Y-105595821D01*
X151911998Y-105606051D01*
X151911992Y-105606052D01*
X151800739Y-105643137D01*
X151797806Y-105643612D01*
X151796462Y-105644477D01*
X151761527Y-105649500D01*
X151645612Y-105649500D01*
X151587748Y-105635171D01*
X151488884Y-105583009D01*
X151438777Y-105534316D01*
X151428828Y-105511690D01*
X151428073Y-105509369D01*
X151388784Y-105388570D01*
X151386770Y-105318732D01*
X151399138Y-105288533D01*
X151679954Y-104798919D01*
X151686235Y-104781406D01*
X151692470Y-104766977D01*
X151694308Y-104763370D01*
X151709719Y-104733126D01*
X151709854Y-104732274D01*
X151725500Y-104633493D01*
X151725500Y-104116506D01*
X151709720Y-104016878D01*
X151709719Y-104016876D01*
X151709719Y-104016874D01*
X151648528Y-103896780D01*
X151648526Y-103896778D01*
X151648523Y-103896774D01*
X151553225Y-103801476D01*
X151553221Y-103801473D01*
X151553220Y-103801472D01*
X151433126Y-103740281D01*
X151433123Y-103740280D01*
X151424430Y-103735851D01*
X151425587Y-103733578D01*
X151379762Y-103702239D01*
X151352569Y-103637878D01*
X151364489Y-103569033D01*
X151411737Y-103517561D01*
X151432429Y-103507571D01*
X151529981Y-103471186D01*
X151529984Y-103471184D01*
X151639329Y-103389329D01*
X151721184Y-103279984D01*
X151721185Y-103279983D01*
X151768916Y-103152010D01*
X151774999Y-103095428D01*
X151775000Y-103095427D01*
X151775000Y-102950000D01*
X151174000Y-102950000D01*
X151165314Y-102947449D01*
X151156353Y-102948738D01*
X151132312Y-102937759D01*
X151106961Y-102930315D01*
X151101033Y-102923474D01*
X151092797Y-102919713D01*
X151078507Y-102897478D01*
X151061206Y-102877511D01*
X151058918Y-102866996D01*
X151055023Y-102860935D01*
X151050000Y-102826000D01*
X151050000Y-102825000D01*
X151049000Y-102825000D01*
X150981961Y-102805315D01*
X150936206Y-102752511D01*
X150925000Y-102701000D01*
X150925000Y-102125000D01*
X150754566Y-102125000D01*
X150754559Y-102125001D01*
X150697992Y-102131081D01*
X150570018Y-102178813D01*
X150570015Y-102178815D01*
X150453571Y-102265985D01*
X150452564Y-102264640D01*
X150400346Y-102293147D01*
X150330654Y-102288156D01*
X150274725Y-102246279D01*
X150250314Y-102180812D01*
X150249999Y-102171978D01*
X150249999Y-102079565D01*
X150249998Y-102079559D01*
X150243918Y-102022992D01*
X150196186Y-101895018D01*
X150196184Y-101895015D01*
X150180311Y-101873811D01*
X150155894Y-101808346D01*
X150170746Y-101740073D01*
X150220151Y-101690668D01*
X150279578Y-101675500D01*
X150913193Y-101675500D01*
X150913196Y-101675501D01*
G37*
%TD.AperFunction*%
%TA.AperFunction,Conductor*%
G36*
X153053255Y-102284663D02*
G01*
X153062717Y-102290391D01*
X153108189Y-102320775D01*
X153235672Y-102373580D01*
X153235676Y-102373580D01*
X153235677Y-102373581D01*
X153371003Y-102400500D01*
X153371006Y-102400500D01*
X153371007Y-102400500D01*
X156520483Y-102400500D01*
X156587522Y-102420185D01*
X156608164Y-102436819D01*
X158880736Y-104709391D01*
X158906425Y-104746841D01*
X159162609Y-105325041D01*
X159165094Y-105340497D01*
X159171067Y-105352167D01*
X159172642Y-105387426D01*
X159167257Y-105442103D01*
X159162515Y-105465942D01*
X159129802Y-105573790D01*
X159120500Y-105596249D01*
X159067374Y-105695643D01*
X159053869Y-105715855D01*
X158978551Y-105807631D01*
X158970379Y-105816647D01*
X158884064Y-105902964D01*
X158854724Y-105932304D01*
X158845707Y-105940477D01*
X158753850Y-106015861D01*
X158733638Y-106029366D01*
X158634245Y-106082491D01*
X158611786Y-106091793D01*
X158503942Y-106124505D01*
X158480102Y-106129247D01*
X158361753Y-106140902D01*
X158349602Y-106141499D01*
X158328102Y-106141499D01*
X158308196Y-106141499D01*
X158308193Y-106141499D01*
X158298198Y-106141500D01*
X158298197Y-106141499D01*
X158298196Y-106141500D01*
X158104500Y-106141500D01*
X158037461Y-106121815D01*
X157991706Y-106069011D01*
X157980500Y-106017500D01*
X157980500Y-105780249D01*
X157980499Y-105780247D01*
X157968868Y-105721770D01*
X157968867Y-105721769D01*
X157924552Y-105655447D01*
X157858230Y-105611132D01*
X157858229Y-105611131D01*
X157799752Y-105599500D01*
X157799748Y-105599500D01*
X157640775Y-105599500D01*
X157573736Y-105579815D01*
X157527981Y-105527011D01*
X157518301Y-105494896D01*
X157518208Y-105494309D01*
X157498471Y-105369684D01*
X157462659Y-105259461D01*
X157435219Y-105175005D01*
X157435217Y-105175002D01*
X157435217Y-105175000D01*
X157342286Y-104992607D01*
X157342283Y-104992604D01*
X157342281Y-104992599D01*
X157221965Y-104826995D01*
X157221963Y-104826993D01*
X157187779Y-104792810D01*
X157177568Y-104782599D01*
X157177567Y-104782596D01*
X157149595Y-104754624D01*
X157149591Y-104754620D01*
X157149590Y-104754618D01*
X157111623Y-104716650D01*
X157111600Y-104716629D01*
X156466082Y-104071111D01*
X156463670Y-104068698D01*
X156463654Y-104068669D01*
X156353011Y-103958028D01*
X156314710Y-103930201D01*
X156187398Y-103837705D01*
X156005004Y-103744774D01*
X156005003Y-103744773D01*
X156004998Y-103744771D01*
X155810319Y-103681519D01*
X155709226Y-103665509D01*
X155608134Y-103649499D01*
X155608133Y-103649499D01*
X155505782Y-103649500D01*
X154421802Y-103649500D01*
X154411806Y-103649499D01*
X154411804Y-103649499D01*
X154391869Y-103649499D01*
X154370296Y-103649499D01*
X154370295Y-103649498D01*
X154358146Y-103648902D01*
X154239898Y-103637258D01*
X154216056Y-103632516D01*
X154108208Y-103599802D01*
X154085754Y-103590502D01*
X153986354Y-103537373D01*
X153966143Y-103523868D01*
X153874362Y-103448547D01*
X153865345Y-103440374D01*
X152906147Y-102481176D01*
X152872662Y-102419853D01*
X152877646Y-102350161D01*
X152919518Y-102294228D01*
X152984982Y-102269811D01*
X153053255Y-102284663D01*
G37*
%TD.AperFunction*%
%TA.AperFunction,Conductor*%
G36*
X157875366Y-94367343D02*
G01*
X157921191Y-94420086D01*
X157931225Y-94489232D01*
X157902284Y-94552826D01*
X157889277Y-94564317D01*
X157881548Y-94572046D01*
X157837232Y-94638369D01*
X157837231Y-94638370D01*
X157825600Y-94696847D01*
X157825600Y-94696852D01*
X157825600Y-98786699D01*
X157824358Y-98807450D01*
X157825717Y-98816301D01*
X157832465Y-98834864D01*
X157835120Y-98848212D01*
X157835121Y-98848216D01*
X157837232Y-98858830D01*
X157837233Y-98858832D01*
X157837568Y-98859333D01*
X157851001Y-98885852D01*
X157853108Y-98891649D01*
X157853115Y-98891662D01*
X158192633Y-99451645D01*
X158210600Y-99515932D01*
X158210600Y-100030409D01*
X158228321Y-100096543D01*
X158228321Y-100096544D01*
X158241299Y-100144985D01*
X158276540Y-100206022D01*
X158300611Y-100247714D01*
X158300613Y-100247716D01*
X160874238Y-102821341D01*
X160882411Y-102830358D01*
X160939139Y-102899483D01*
X160952644Y-102919695D01*
X160991908Y-102993154D01*
X161001210Y-103015613D01*
X161025387Y-103095320D01*
X161030129Y-103119159D01*
X161033365Y-103152010D01*
X161038896Y-103208180D01*
X161038903Y-103208244D01*
X161039500Y-103220398D01*
X161039500Y-103949702D01*
X161038903Y-103961854D01*
X161030140Y-104050839D01*
X161025398Y-104074682D01*
X161001218Y-104154393D01*
X160991916Y-104176849D01*
X160962227Y-104232399D01*
X160952655Y-104250307D01*
X160939148Y-104270521D01*
X160882484Y-104339566D01*
X160874312Y-104348582D01*
X160188181Y-105034714D01*
X160177042Y-105040796D01*
X160168853Y-105050492D01*
X160146960Y-105057222D01*
X160126858Y-105068199D01*
X160114199Y-105067293D01*
X160102068Y-105071023D01*
X160080012Y-105064848D01*
X160057167Y-105063215D01*
X160047006Y-105055609D01*
X160034785Y-105052188D01*
X160019568Y-105035069D01*
X160001233Y-105021344D01*
X159996797Y-105009452D01*
X159988366Y-104999967D01*
X159984819Y-104977338D01*
X159976816Y-104955879D01*
X159979257Y-104941840D01*
X159977549Y-104930940D01*
X159987022Y-104897185D01*
X159987063Y-104896952D01*
X160079638Y-104688013D01*
X160080161Y-104686077D01*
X160082864Y-104679956D01*
X160085092Y-104677317D01*
X160093199Y-104661145D01*
X160100775Y-104649809D01*
X160153580Y-104522326D01*
X160180499Y-104386992D01*
X160180499Y-104249004D01*
X160153580Y-104113669D01*
X160100775Y-103986187D01*
X160024114Y-103871455D01*
X160024112Y-103871452D01*
X157308547Y-101155887D01*
X157193809Y-101079222D01*
X157066334Y-101026421D01*
X157066324Y-101026418D01*
X156930998Y-100999500D01*
X156930996Y-100999500D01*
X156930995Y-100999500D01*
X153781519Y-100999500D01*
X153714480Y-100979815D01*
X153693838Y-100963181D01*
X151915233Y-99184575D01*
X151881748Y-99123252D01*
X151886732Y-99053560D01*
X151928604Y-98997627D01*
X151934024Y-98993792D01*
X151983339Y-98960840D01*
X152038594Y-98878144D01*
X152038596Y-98878140D01*
X152053099Y-98805228D01*
X152053100Y-98805226D01*
X152053100Y-97937376D01*
X152053099Y-97937375D01*
X155109100Y-97937375D01*
X155109100Y-98805228D01*
X155123603Y-98878140D01*
X155123605Y-98878144D01*
X155178860Y-98960839D01*
X155261555Y-99016094D01*
X155261559Y-99016096D01*
X155334471Y-99030599D01*
X155334474Y-99030600D01*
X156907726Y-99030600D01*
X156907728Y-99030599D01*
X156980640Y-99016096D01*
X156980644Y-99016094D01*
X157063339Y-98960839D01*
X157118594Y-98878144D01*
X157118596Y-98878140D01*
X157133099Y-98805228D01*
X157133100Y-98805226D01*
X157133100Y-97937376D01*
X156121100Y-96925376D01*
X155109100Y-97937375D01*
X152053099Y-97937375D01*
X151041100Y-96925376D01*
X150029100Y-97937375D01*
X150029100Y-98805226D01*
X150029697Y-98811289D01*
X150027402Y-98811514D01*
X150022103Y-98870877D01*
X149979251Y-98926063D01*
X149913366Y-98949321D01*
X149906704Y-98949500D01*
X149460950Y-98949500D01*
X149452495Y-98947017D01*
X149443780Y-98948305D01*
X149419487Y-98937325D01*
X149393911Y-98929815D01*
X149388142Y-98923157D01*
X149380112Y-98919528D01*
X149365609Y-98897152D01*
X149348156Y-98877011D01*
X149345903Y-98866750D01*
X149342109Y-98860897D01*
X149339835Y-98839117D01*
X149336951Y-98825981D01*
X149336930Y-98820689D01*
X149340739Y-98774028D01*
X149340463Y-98768107D01*
X149336642Y-98746454D01*
X149336601Y-98735840D01*
X149336632Y-98735730D01*
X149336600Y-98735359D01*
X149336600Y-97583824D01*
X150029100Y-97583824D01*
X150864324Y-96748600D01*
X150864324Y-96748599D01*
X151217876Y-96748599D01*
X151217876Y-96748600D01*
X152053099Y-97583824D01*
X155109100Y-97583824D01*
X155944324Y-96748600D01*
X155944324Y-96748599D01*
X156297876Y-96748599D01*
X156297876Y-96748600D01*
X157133099Y-97583824D01*
X157133100Y-97583823D01*
X157133100Y-95913376D01*
X157133099Y-95913375D01*
X156297876Y-96748599D01*
X155944324Y-96748599D01*
X155109100Y-95913375D01*
X155109100Y-97583824D01*
X152053099Y-97583824D01*
X152053100Y-97583823D01*
X152053100Y-95913376D01*
X152053099Y-95913375D01*
X151217876Y-96748599D01*
X150864324Y-96748599D01*
X150029100Y-95913375D01*
X150029100Y-97583824D01*
X149336600Y-97583824D01*
X149336600Y-94696849D01*
X149336599Y-94696847D01*
X149324968Y-94638370D01*
X149324967Y-94638369D01*
X149280651Y-94572046D01*
X149279115Y-94570510D01*
X149276836Y-94566336D01*
X149273867Y-94561893D01*
X149274264Y-94561627D01*
X149245630Y-94509187D01*
X149250614Y-94439495D01*
X149292486Y-94383562D01*
X149357950Y-94359145D01*
X149366628Y-94358829D01*
X149985875Y-94358016D01*
X150052940Y-94377613D01*
X150098765Y-94430356D01*
X150108799Y-94499502D01*
X150089140Y-94550906D01*
X150043606Y-94619052D01*
X150043603Y-94619059D01*
X150029100Y-94691971D01*
X150029100Y-95559824D01*
X151041100Y-96571824D01*
X152053099Y-95559824D01*
X152053100Y-95559823D01*
X152053100Y-94691973D01*
X152053099Y-94691971D01*
X152038596Y-94619059D01*
X152038594Y-94619055D01*
X151991210Y-94548139D01*
X151970332Y-94481461D01*
X151988817Y-94414081D01*
X152040795Y-94367391D01*
X152094146Y-94355248D01*
X155070336Y-94351341D01*
X155137400Y-94370938D01*
X155183225Y-94423682D01*
X155193259Y-94492827D01*
X155173601Y-94544231D01*
X155123604Y-94619056D01*
X155123603Y-94619059D01*
X155109100Y-94691971D01*
X155109100Y-95559824D01*
X156121100Y-96571824D01*
X157133099Y-95559824D01*
X157133100Y-95559823D01*
X157133100Y-94691973D01*
X157133099Y-94691971D01*
X157118596Y-94619059D01*
X157118594Y-94619055D01*
X157066758Y-94541476D01*
X157045880Y-94474798D01*
X157064365Y-94407418D01*
X157116343Y-94360728D01*
X157169694Y-94348585D01*
X157808305Y-94347747D01*
X157875366Y-94367343D01*
G37*
%TD.AperFunction*%
%TA.AperFunction,Conductor*%
G36*
X147700030Y-94380702D02*
G01*
X147745854Y-94433446D01*
X147755888Y-94502591D01*
X147726946Y-94566185D01*
X147721680Y-94571848D01*
X147677232Y-94638369D01*
X147677231Y-94638370D01*
X147665600Y-94696847D01*
X147665600Y-94696852D01*
X147665600Y-98746210D01*
X147661736Y-98768107D01*
X147661460Y-98774028D01*
X147665729Y-98826331D01*
X147671924Y-98855471D01*
X147672428Y-98865293D01*
X147666505Y-98890099D01*
X147664566Y-98915528D01*
X147658529Y-98923513D01*
X147656204Y-98933253D01*
X147637810Y-98950919D01*
X147622431Y-98971263D01*
X147608293Y-98979269D01*
X147605813Y-98981652D01*
X147603168Y-98982171D01*
X147596045Y-98986206D01*
X147568473Y-98997627D01*
X147492189Y-99029225D01*
X147492188Y-99029226D01*
X147377456Y-99105886D01*
X147377453Y-99105889D01*
X147029888Y-99453453D01*
X147029887Y-99453454D01*
X146953222Y-99568192D01*
X146900421Y-99695667D01*
X146900418Y-99695677D01*
X146873500Y-99831003D01*
X146873500Y-99831006D01*
X146873500Y-99968994D01*
X146873500Y-99968996D01*
X146873499Y-99968996D01*
X146900418Y-100104322D01*
X146900421Y-100104332D01*
X146953222Y-100231807D01*
X147029887Y-100346545D01*
X147127454Y-100444112D01*
X147242192Y-100520777D01*
X147369667Y-100573578D01*
X147369672Y-100573580D01*
X147369676Y-100573580D01*
X147369677Y-100573581D01*
X147505003Y-100600500D01*
X147505006Y-100600500D01*
X147642996Y-100600500D01*
X147734040Y-100582389D01*
X147778328Y-100573580D01*
X147842069Y-100547177D01*
X147905807Y-100520777D01*
X147905808Y-100520776D01*
X147905811Y-100520775D01*
X148020543Y-100444114D01*
X148077839Y-100386817D01*
X148139160Y-100353334D01*
X148165519Y-100350500D01*
X148441007Y-100350500D01*
X148578994Y-100350500D01*
X148775007Y-100350500D01*
X149951007Y-100350500D01*
X151048481Y-100350500D01*
X151115520Y-100370185D01*
X151136162Y-100386819D01*
X151880064Y-101130721D01*
X151913549Y-101192044D01*
X151908565Y-101261736D01*
X151866693Y-101317669D01*
X151801229Y-101342086D01*
X151732956Y-101327234D01*
X151719499Y-101318721D01*
X151642398Y-101262705D01*
X151459998Y-101169771D01*
X151265319Y-101106519D01*
X151092956Y-101079222D01*
X151063134Y-101074499D01*
X151063133Y-101074499D01*
X150960782Y-101074500D01*
X148766518Y-101074500D01*
X148699479Y-101054815D01*
X148678836Y-101038180D01*
X148646545Y-101005888D01*
X148646541Y-101005885D01*
X148531817Y-100929228D01*
X148531804Y-100929221D01*
X148404332Y-100876421D01*
X148404322Y-100876418D01*
X148268995Y-100849500D01*
X148268993Y-100849500D01*
X143832993Y-100849500D01*
X139605884Y-100849500D01*
X139538845Y-100829815D01*
X139518203Y-100813181D01*
X139077919Y-100372897D01*
X139044434Y-100311574D01*
X139041600Y-100285216D01*
X139041600Y-99473755D01*
X139044311Y-99447969D01*
X139113345Y-99123252D01*
X139176470Y-98826331D01*
X139180739Y-98774028D01*
X139180463Y-98768107D01*
X139178486Y-98756907D01*
X139176600Y-98735359D01*
X139176600Y-97937375D01*
X139869100Y-97937375D01*
X139869100Y-98805228D01*
X139883603Y-98878140D01*
X139883605Y-98878144D01*
X139938860Y-98960839D01*
X140021555Y-99016094D01*
X140021559Y-99016096D01*
X140094471Y-99030599D01*
X140094474Y-99030600D01*
X141667726Y-99030600D01*
X141667728Y-99030599D01*
X141740640Y-99016096D01*
X141740644Y-99016094D01*
X141823339Y-98960839D01*
X141878594Y-98878144D01*
X141878596Y-98878140D01*
X141893099Y-98805228D01*
X141893100Y-98805226D01*
X141893100Y-97937376D01*
X141893099Y-97937375D01*
X144949100Y-97937375D01*
X144949100Y-98805228D01*
X144963603Y-98878140D01*
X144963605Y-98878144D01*
X145018860Y-98960839D01*
X145101555Y-99016094D01*
X145101559Y-99016096D01*
X145174471Y-99030599D01*
X145174474Y-99030600D01*
X146747726Y-99030600D01*
X146747728Y-99030599D01*
X146820640Y-99016096D01*
X146820644Y-99016094D01*
X146903339Y-98960839D01*
X146958594Y-98878144D01*
X146958596Y-98878140D01*
X146973099Y-98805228D01*
X146973100Y-98805226D01*
X146973100Y-97937376D01*
X145961100Y-96925376D01*
X144949100Y-97937375D01*
X141893099Y-97937375D01*
X140881100Y-96925376D01*
X139869100Y-97937375D01*
X139176600Y-97937375D01*
X139176600Y-97583824D01*
X139869100Y-97583824D01*
X140704324Y-96748600D01*
X140704324Y-96748599D01*
X141057876Y-96748599D01*
X141057876Y-96748600D01*
X141893099Y-97583824D01*
X144949100Y-97583824D01*
X145784324Y-96748600D01*
X145784324Y-96748599D01*
X146137876Y-96748599D01*
X146137876Y-96748600D01*
X146973099Y-97583824D01*
X146973100Y-97583823D01*
X146973100Y-95913376D01*
X146973099Y-95913375D01*
X146137876Y-96748599D01*
X145784324Y-96748599D01*
X144949100Y-95913375D01*
X144949100Y-97583824D01*
X141893099Y-97583824D01*
X141893100Y-97583823D01*
X141893100Y-95913376D01*
X141893099Y-95913375D01*
X141057876Y-96748599D01*
X140704324Y-96748599D01*
X139869100Y-95913375D01*
X139869100Y-97583824D01*
X139176600Y-97583824D01*
X139176600Y-94696849D01*
X139176599Y-94696847D01*
X139164968Y-94638371D01*
X139152062Y-94619056D01*
X139120652Y-94572048D01*
X139120650Y-94572047D01*
X139115970Y-94565042D01*
X139095092Y-94498364D01*
X139113576Y-94430984D01*
X139165554Y-94384294D01*
X139218906Y-94372150D01*
X139816956Y-94371365D01*
X139884020Y-94390962D01*
X139929845Y-94443706D01*
X139939879Y-94512851D01*
X139920221Y-94564255D01*
X139883604Y-94619056D01*
X139883603Y-94619059D01*
X139869100Y-94691971D01*
X139869100Y-95559824D01*
X140881100Y-96571824D01*
X141893099Y-95559824D01*
X141893100Y-95559823D01*
X141893100Y-94691973D01*
X141893099Y-94691971D01*
X141878596Y-94619059D01*
X141878594Y-94619055D01*
X141840114Y-94561465D01*
X141819236Y-94494788D01*
X141837720Y-94427407D01*
X141889699Y-94380717D01*
X141943050Y-94368574D01*
X144901418Y-94364690D01*
X144968480Y-94384287D01*
X145014305Y-94437030D01*
X145024339Y-94506176D01*
X145004681Y-94557580D01*
X144963604Y-94619056D01*
X144963603Y-94619059D01*
X144949100Y-94691971D01*
X144949100Y-95559824D01*
X145961100Y-96571824D01*
X146973099Y-95559824D01*
X146973100Y-95559823D01*
X146973100Y-94691973D01*
X146973099Y-94691971D01*
X146958596Y-94619059D01*
X146958594Y-94619055D01*
X146915662Y-94554802D01*
X146894784Y-94488124D01*
X146913268Y-94420744D01*
X146965247Y-94374054D01*
X147018598Y-94361911D01*
X147632964Y-94361105D01*
X147700030Y-94380702D01*
G37*
%TD.AperFunction*%
%TD*%
%TA.AperFunction,Conductor*%
%TO.N,Net-(U1-XA)*%
G36*
X150000532Y-105225848D02*
G01*
X150005793Y-105233095D01*
X150006079Y-105234900D01*
X150071482Y-106061924D01*
X150068718Y-106070441D01*
X150068091Y-106071119D01*
X149899461Y-106239749D01*
X149891188Y-106243176D01*
X149884190Y-106240852D01*
X149297689Y-105803097D01*
X149293108Y-105795402D01*
X149294506Y-105787957D01*
X149551787Y-105333717D01*
X149558844Y-105328209D01*
X149559204Y-105328115D01*
X149991690Y-105224444D01*
X150000532Y-105225848D01*
G37*
%TD.AperFunction*%
%TD*%
%TA.AperFunction,Conductor*%
%TO.N,Net-(U1-XA)*%
G36*
X151982172Y-106300464D02*
G01*
X152550455Y-106422065D01*
X152627532Y-106438559D01*
X152634905Y-106443641D01*
X152636525Y-106452448D01*
X152631443Y-106459821D01*
X152627532Y-106461441D01*
X151982176Y-106599534D01*
X151977805Y-106599634D01*
X151839777Y-106576629D01*
X151832179Y-106571888D01*
X151830000Y-106565088D01*
X151830000Y-106334911D01*
X151833427Y-106326638D01*
X151839775Y-106323370D01*
X151977809Y-106300365D01*
X151982172Y-106300464D01*
G37*
%TD.AperFunction*%
%TD*%
%TA.AperFunction,Conductor*%
%TO.N,GND*%
G36*
X155829707Y-106806293D02*
G01*
X155967893Y-107014867D01*
X155668912Y-107307865D01*
X155492135Y-107131088D01*
X155583804Y-106758227D01*
X155829707Y-106806293D01*
G37*
%TD.AperFunction*%
%TD*%
%TA.AperFunction,Conductor*%
%TO.N,GND*%
G36*
X155850222Y-107075000D02*
G01*
X155745196Y-107348773D01*
X155499000Y-107300000D01*
X155361107Y-107092133D01*
X155850222Y-106825000D01*
X155850222Y-107075000D01*
G37*
%TD.AperFunction*%
%TD*%
%TA.AperFunction,Conductor*%
%TO.N,GND*%
G36*
X145792314Y-109150000D02*
G01*
X145792314Y-109650000D01*
X145078036Y-109792314D01*
X144999000Y-109400000D01*
X145078036Y-109007686D01*
X145792314Y-109150000D01*
G37*
%TD.AperFunction*%
%TD*%
%TA.AperFunction,Conductor*%
%TO.N,GND*%
G36*
X156282760Y-106825000D02*
G01*
X156282760Y-107075000D01*
X155780227Y-107052196D01*
X155828000Y-106807000D01*
X155967893Y-106599133D01*
X156282760Y-106825000D01*
G37*
%TD.AperFunction*%
%TD*%
%TA.AperFunction,Conductor*%
%TO.N,GND*%
G36*
X156282760Y-106825000D02*
G01*
X156282760Y-107075000D01*
X155780227Y-107052196D01*
X155828000Y-106807000D01*
X155967893Y-106599133D01*
X156282760Y-106825000D01*
G37*
%TD.AperFunction*%
%TD*%
%TA.AperFunction,Conductor*%
%TO.N,GND*%
G36*
X146201000Y-109400000D02*
G01*
X146121964Y-109792314D01*
X145407686Y-109650000D01*
X145407686Y-109150000D01*
X146121964Y-109007686D01*
X146201000Y-109400000D01*
G37*
%TD.AperFunction*%
%TD*%
%TA.AperFunction,Conductor*%
%TO.N,GND*%
G36*
X148175816Y-102751000D02*
G01*
X147692228Y-103082588D01*
X147469000Y-102750000D01*
X147391964Y-102357686D01*
X148175816Y-102251000D01*
X148175816Y-102751000D01*
G37*
%TD.AperFunction*%
%TD*%
%TA.AperFunction,Conductor*%
%TO.N,/SDA_3V*%
G36*
X151729661Y-109773454D02*
G01*
X151732961Y-109775772D01*
X151898943Y-109941754D01*
X151902370Y-109950027D01*
X151901471Y-109954525D01*
X151429483Y-111087762D01*
X151423138Y-111094082D01*
X151414220Y-111094080D01*
X150830003Y-110853062D01*
X150823662Y-110846739D01*
X150823018Y-110844666D01*
X150678573Y-110159960D01*
X150680218Y-110151160D01*
X150686045Y-110146544D01*
X151720716Y-109773040D01*
X151729661Y-109773454D01*
G37*
%TD.AperFunction*%
%TD*%
%TA.AperFunction,Conductor*%
%TO.N,/SDA_3V*%
G36*
X151076436Y-111361688D02*
G01*
X151078356Y-111364217D01*
X151838314Y-112712923D01*
X151839390Y-112721813D01*
X151834630Y-112728390D01*
X151045137Y-113256897D01*
X151036355Y-113258651D01*
X151036334Y-113258647D01*
X150106829Y-113072775D01*
X150099388Y-113067792D01*
X150097650Y-113059008D01*
X150097852Y-113058162D01*
X150572603Y-111366798D01*
X150578138Y-111359760D01*
X150583868Y-111358261D01*
X151068163Y-111358261D01*
X151076436Y-111361688D01*
G37*
%TD.AperFunction*%
%TD*%
%TA.AperFunction,Conductor*%
%TO.N,/SDA_3V*%
G36*
X150833016Y-110856543D02*
G01*
X151399955Y-111390011D01*
X151403632Y-111398176D01*
X151402651Y-111403233D01*
X151078071Y-112143001D01*
X151071609Y-112149200D01*
X151067357Y-112150000D01*
X150582643Y-112150000D01*
X150574370Y-112146573D01*
X150571929Y-112143001D01*
X150247348Y-111403233D01*
X150247162Y-111394280D01*
X150250042Y-111390013D01*
X150816983Y-110856543D01*
X150825356Y-110853370D01*
X150833016Y-110856543D01*
G37*
%TD.AperFunction*%
%TD*%
%TA.AperFunction,Conductor*%
%TO.N,/SDA_3V*%
G36*
X152688246Y-107957301D02*
G01*
X152825774Y-108095746D01*
X152829173Y-108104030D01*
X152829014Y-108105914D01*
X152806630Y-108240223D01*
X152801890Y-108247821D01*
X152795089Y-108250000D01*
X152564911Y-108250000D01*
X152556638Y-108246573D01*
X152553370Y-108240223D01*
X152530985Y-108105912D01*
X152533005Y-108097191D01*
X152534214Y-108095757D01*
X152671699Y-107957355D01*
X152679961Y-107953902D01*
X152688246Y-107957301D01*
G37*
%TD.AperFunction*%
%TD*%
%TA.AperFunction,Conductor*%
%TO.N,/SCL_3V*%
G36*
X151982172Y-107300464D02*
G01*
X152550455Y-107422065D01*
X152627532Y-107438559D01*
X152634905Y-107443641D01*
X152636525Y-107452448D01*
X152631443Y-107459821D01*
X152627532Y-107461441D01*
X151982176Y-107599534D01*
X151977805Y-107599634D01*
X151839777Y-107576629D01*
X151832179Y-107571888D01*
X151830000Y-107565088D01*
X151830000Y-107334911D01*
X151833427Y-107326638D01*
X151839775Y-107323370D01*
X151977809Y-107300365D01*
X151982172Y-107300464D01*
G37*
%TD.AperFunction*%
%TD*%
%TA.AperFunction,Conductor*%
%TO.N,/SCL_3V*%
G36*
X149064360Y-109719532D02*
G01*
X149194921Y-109914935D01*
X149196769Y-109923137D01*
X149032965Y-111037146D01*
X149028371Y-111044833D01*
X149019687Y-111047020D01*
X149018049Y-111046657D01*
X148435797Y-110873231D01*
X148428846Y-110867585D01*
X148428150Y-110866040D01*
X148177282Y-110180655D01*
X148177656Y-110171710D01*
X148182868Y-110166256D01*
X149049233Y-109715651D01*
X149058154Y-109714875D01*
X149064360Y-109719532D01*
G37*
%TD.AperFunction*%
%TD*%
%TA.AperFunction,Conductor*%
%TO.N,/SCL_3V*%
G36*
X148751483Y-111350173D02*
G01*
X148754057Y-111354062D01*
X149442463Y-113057210D01*
X149442387Y-113066164D01*
X149436000Y-113072441D01*
X149433910Y-113073067D01*
X148503394Y-113259141D01*
X148498806Y-113259141D01*
X147568289Y-113073067D01*
X147560848Y-113068084D01*
X147559110Y-113059300D01*
X147559734Y-113057215D01*
X148248143Y-111354062D01*
X148254420Y-111347675D01*
X148258990Y-111346746D01*
X148743210Y-111346746D01*
X148751483Y-111350173D01*
G37*
%TD.AperFunction*%
%TD*%
%TA.AperFunction,Conductor*%
%TO.N,/SCL_3V*%
G36*
X148439204Y-110877720D02*
G01*
X149006456Y-111411482D01*
X149010133Y-111419647D01*
X149009495Y-111423827D01*
X148753824Y-112163124D01*
X148747882Y-112169823D01*
X148742767Y-112171000D01*
X148258148Y-112171000D01*
X148249875Y-112167573D01*
X148247805Y-112164769D01*
X148218063Y-112108527D01*
X147864490Y-111439917D01*
X147863653Y-111431004D01*
X147866620Y-111426117D01*
X148422976Y-110877905D01*
X148431272Y-110874541D01*
X148439204Y-110877720D01*
G37*
%TD.AperFunction*%
%TD*%
%TA.AperFunction,Conductor*%
%TO.N,CLK0*%
G36*
X138351463Y-96781413D02*
G01*
X138352268Y-96783355D01*
X138975186Y-98777676D01*
X138975462Y-98783597D01*
X138843070Y-99406333D01*
X138837998Y-99413713D01*
X138831626Y-99415600D01*
X137850574Y-99415600D01*
X137842301Y-99412173D01*
X137839130Y-99406333D01*
X137706737Y-98783597D01*
X137707013Y-98777676D01*
X138329932Y-96783355D01*
X138335670Y-96776480D01*
X138344588Y-96775675D01*
X138351463Y-96781413D01*
G37*
%TD.AperFunction*%
%TD*%
%TA.AperFunction,Conductor*%
%TO.N,CLK0*%
G36*
X141380318Y-111350173D02*
G01*
X141383371Y-111355511D01*
X141824649Y-113058317D01*
X141823407Y-113067185D01*
X141816258Y-113072578D01*
X141815617Y-113072725D01*
X140883394Y-113259141D01*
X140878806Y-113259141D01*
X139946582Y-113072725D01*
X139939141Y-113067742D01*
X139937403Y-113058958D01*
X139937541Y-113058353D01*
X140378829Y-111355511D01*
X140384222Y-111348362D01*
X140390155Y-111346746D01*
X141372045Y-111346746D01*
X141380318Y-111350173D01*
G37*
%TD.AperFunction*%
%TD*%
%TA.AperFunction,Conductor*%
%TO.N,CLK0*%
G36*
X157326611Y-105675685D02*
G01*
X157330205Y-105683887D01*
X157330205Y-105683898D01*
X157332316Y-105793216D01*
X157329049Y-105801554D01*
X157326624Y-105803483D01*
X157090136Y-105944947D01*
X157081277Y-105946253D01*
X157074089Y-105940912D01*
X157074044Y-105940836D01*
X156996099Y-105808273D01*
X156994860Y-105799405D01*
X156998396Y-105793614D01*
X157126794Y-105679116D01*
X157134341Y-105676151D01*
X157318270Y-105672426D01*
X157326611Y-105675685D01*
G37*
%TD.AperFunction*%
%TD*%
%TA.AperFunction,Conductor*%
%TO.N,CLK1*%
G36*
X148511463Y-96781413D02*
G01*
X148512268Y-96783355D01*
X149135186Y-98777676D01*
X149135462Y-98783597D01*
X149003070Y-99406333D01*
X148997998Y-99413713D01*
X148991626Y-99415600D01*
X148010574Y-99415600D01*
X148002301Y-99412173D01*
X147999130Y-99406333D01*
X147866737Y-98783597D01*
X147867013Y-98777676D01*
X148489932Y-96783355D01*
X148495670Y-96776480D01*
X148504588Y-96775675D01*
X148511463Y-96781413D01*
G37*
%TD.AperFunction*%
%TD*%
%TA.AperFunction,Conductor*%
%TO.N,CLK1*%
G36*
X157782778Y-106300777D02*
G01*
X157921455Y-106339607D01*
X157928497Y-106345138D01*
X157930000Y-106350874D01*
X157930000Y-106533641D01*
X157926573Y-106541914D01*
X157922094Y-106544709D01*
X157783016Y-106592382D01*
X157776877Y-106592777D01*
X157133772Y-106461205D01*
X157126353Y-106456189D01*
X157124654Y-106447397D01*
X157129670Y-106439978D01*
X157133664Y-106438302D01*
X157777177Y-106300604D01*
X157782778Y-106300777D01*
G37*
%TD.AperFunction*%
%TD*%
%TA.AperFunction,Conductor*%
%TO.N,CLK2*%
G36*
X157089935Y-107955178D02*
G01*
X157089964Y-107955196D01*
X157310535Y-108092347D01*
X157317626Y-108096756D01*
X157322842Y-108104035D01*
X157323135Y-108106134D01*
X157329415Y-108237742D01*
X157326386Y-108246169D01*
X157318286Y-108249987D01*
X157317728Y-108250000D01*
X157135027Y-108250000D01*
X157126754Y-108246573D01*
X157126540Y-108246354D01*
X157126364Y-108246169D01*
X156993829Y-108106505D01*
X156990620Y-108098145D01*
X156992333Y-108092350D01*
X157073851Y-107959053D01*
X157081089Y-107953785D01*
X157089935Y-107955178D01*
G37*
%TD.AperFunction*%
%TD*%
%TA.AperFunction,Conductor*%
%TO.N,CLK2*%
G36*
X158498675Y-109951113D02*
G01*
X158501876Y-109957100D01*
X158640032Y-110650513D01*
X158638288Y-110659296D01*
X158630869Y-110664269D01*
X158252311Y-110740534D01*
X158247689Y-110740534D01*
X157869130Y-110664269D01*
X157861697Y-110659275D01*
X157859967Y-110650514D01*
X157998124Y-109957099D01*
X158003101Y-109949656D01*
X158009598Y-109947686D01*
X158490402Y-109947686D01*
X158498675Y-109951113D01*
G37*
%TD.AperFunction*%
%TD*%
%TA.AperFunction,Conductor*%
%TO.N,CLK2*%
G36*
X158671463Y-96781413D02*
G01*
X158672268Y-96783355D01*
X159294525Y-98775560D01*
X159293720Y-98784478D01*
X159293362Y-98785114D01*
X158914516Y-99409966D01*
X158907296Y-99415264D01*
X158904511Y-99415600D01*
X158417689Y-99415600D01*
X158409416Y-99412173D01*
X158407684Y-99409966D01*
X158028837Y-98785114D01*
X158027478Y-98776263D01*
X158027674Y-98775560D01*
X158649932Y-96783355D01*
X158655670Y-96776480D01*
X158664588Y-96775675D01*
X158671463Y-96781413D01*
G37*
%TD.AperFunction*%
%TD*%
%TA.AperFunction,Conductor*%
%TO.N,+3.3V*%
G36*
X155653116Y-110717788D02*
G01*
X155658648Y-110724308D01*
X155910113Y-111459519D01*
X155909548Y-111468456D01*
X155907316Y-111471578D01*
X155566580Y-111812314D01*
X155558307Y-111815741D01*
X155550695Y-111812926D01*
X155148642Y-111468456D01*
X154987964Y-111330791D01*
X154983912Y-111322807D01*
X154984983Y-111316943D01*
X155202075Y-110854021D01*
X155208689Y-110847988D01*
X155209277Y-110847792D01*
X155644207Y-110716890D01*
X155653116Y-110717788D01*
G37*
%TD.AperFunction*%
%TD*%
%TA.AperFunction,Conductor*%
%TO.N,+3.3V*%
G36*
X151302988Y-107136294D02*
G01*
X151310413Y-107141298D01*
X151312125Y-107150088D01*
X151311957Y-107150802D01*
X151197331Y-107576538D01*
X151191871Y-107583636D01*
X151186033Y-107585196D01*
X150953967Y-107585196D01*
X150945694Y-107581769D01*
X150942669Y-107576538D01*
X150928549Y-107524097D01*
X150828042Y-107150800D01*
X150829200Y-107141922D01*
X150836298Y-107136462D01*
X150836985Y-107136300D01*
X151067675Y-107089472D01*
X151072325Y-107089472D01*
X151302988Y-107136294D01*
G37*
%TD.AperFunction*%
%TD*%
%TA.AperFunction,Conductor*%
%TO.N,+3.3V*%
G36*
X145893375Y-110278745D02*
G01*
X146424840Y-110863128D01*
X146427871Y-110871554D01*
X146424840Y-110878872D01*
X145893375Y-111463254D01*
X145885273Y-111467069D01*
X145877853Y-111464855D01*
X145235834Y-110999503D01*
X145231146Y-110991873D01*
X145231000Y-110990030D01*
X145231000Y-110751969D01*
X145234427Y-110743696D01*
X145235834Y-110742496D01*
X145877855Y-110277143D01*
X145886562Y-110275063D01*
X145893375Y-110278745D01*
G37*
%TD.AperFunction*%
%TD*%
%TA.AperFunction,Conductor*%
%TO.N,+3.3V*%
G36*
X150001485Y-103664869D02*
G01*
X150334171Y-104272374D01*
X150335609Y-104277994D01*
X150335609Y-104461628D01*
X150332182Y-104469901D01*
X150323909Y-104473328D01*
X150322356Y-104473225D01*
X149415229Y-104351771D01*
X149407484Y-104347276D01*
X149405185Y-104338621D01*
X149405486Y-104337128D01*
X149522657Y-103904952D01*
X149528128Y-103897866D01*
X149528518Y-103897652D01*
X149985831Y-103660105D01*
X149994751Y-103659334D01*
X150001485Y-103664869D01*
G37*
%TD.AperFunction*%
%TD*%
%TA.AperFunction,Conductor*%
%TO.N,+3.3V*%
G36*
X150720095Y-103950088D02*
G01*
X150885772Y-104162832D01*
X151045401Y-104367811D01*
X151047781Y-104376444D01*
X151045401Y-104382189D01*
X150720097Y-104799910D01*
X150712310Y-104804332D01*
X150705109Y-104802906D01*
X150130943Y-104478359D01*
X150125427Y-104471305D01*
X150125000Y-104468174D01*
X150125000Y-104281825D01*
X150128427Y-104273552D01*
X150130939Y-104271642D01*
X150705110Y-103947092D01*
X150713997Y-103946005D01*
X150720095Y-103950088D01*
G37*
%TD.AperFunction*%
%TD*%
%TA.AperFunction,Conductor*%
%TO.N,+3.3V*%
G36*
X157783023Y-107301007D02*
G01*
X157922000Y-107347333D01*
X157928765Y-107353201D01*
X157930000Y-107358433D01*
X157930000Y-107541566D01*
X157926573Y-107549839D01*
X157922000Y-107552666D01*
X157783026Y-107598991D01*
X157776878Y-107599332D01*
X157132466Y-107461440D01*
X157125094Y-107456359D01*
X157123474Y-107447552D01*
X157128556Y-107440179D01*
X157132466Y-107438559D01*
X157776881Y-107300667D01*
X157783023Y-107301007D01*
G37*
%TD.AperFunction*%
%TD*%
%TA.AperFunction,Conductor*%
%TO.N,+3.3V*%
G36*
X158188347Y-107067463D02*
G01*
X158194618Y-107073855D01*
X158195236Y-107075918D01*
X158270527Y-107449645D01*
X158268801Y-107458432D01*
X158268772Y-107458476D01*
X158053610Y-107779048D01*
X158046154Y-107784008D01*
X158039404Y-107783332D01*
X157918690Y-107733144D01*
X157913459Y-107728845D01*
X157888504Y-107691496D01*
X157838722Y-107658233D01*
X157794820Y-107649500D01*
X157719839Y-107649500D01*
X157715347Y-107648603D01*
X157485385Y-107552995D01*
X157479062Y-107546655D01*
X157478177Y-107542192D01*
X157478177Y-107357899D01*
X157481604Y-107349626D01*
X157485501Y-107347047D01*
X157722943Y-107251347D01*
X157727317Y-107250500D01*
X157794819Y-107250500D01*
X157794820Y-107250500D01*
X157838722Y-107241767D01*
X157888504Y-107208504D01*
X157908341Y-107178815D01*
X157913688Y-107174468D01*
X158179394Y-107067377D01*
X158188347Y-107067463D01*
G37*
%TD.AperFunction*%
%TD*%
%TA.AperFunction,Conductor*%
%TO.N,+3.3V*%
G36*
X151056951Y-104378765D02*
G01*
X151498159Y-104681207D01*
X151503045Y-104688711D01*
X151501693Y-104696678D01*
X151173372Y-105269121D01*
X151166283Y-105274593D01*
X151163223Y-105275000D01*
X150976400Y-105275000D01*
X150968127Y-105271573D01*
X150966548Y-105269611D01*
X150613159Y-104717956D01*
X150611582Y-104709141D01*
X150615951Y-104702316D01*
X151043279Y-104379083D01*
X151051943Y-104376826D01*
X151056951Y-104378765D01*
G37*
%TD.AperFunction*%
%TD*%
%TA.AperFunction,Conductor*%
%TO.N,+3.3V*%
G36*
X151169775Y-105383731D02*
G01*
X151172628Y-105388385D01*
X151311138Y-105814251D01*
X151310438Y-105823179D01*
X151303631Y-105828996D01*
X151302340Y-105829336D01*
X151072328Y-105876027D01*
X151067672Y-105876027D01*
X150837659Y-105829336D01*
X150830233Y-105824332D01*
X150828521Y-105815542D01*
X150828857Y-105814262D01*
X150967372Y-105388385D01*
X150973189Y-105381578D01*
X150978498Y-105380304D01*
X151161502Y-105380304D01*
X151169775Y-105383731D01*
G37*
%TD.AperFunction*%
%TD*%
%TA.AperFunction,Conductor*%
%TO.N,+3.3V*%
G36*
X154871373Y-110411064D02*
G01*
X154875874Y-110414655D01*
X155200907Y-110843284D01*
X155203175Y-110851946D01*
X155201242Y-110856957D01*
X154898113Y-111300236D01*
X154890614Y-111305131D01*
X154884920Y-111304785D01*
X154313165Y-111123587D01*
X154306314Y-111117821D01*
X154305000Y-111112434D01*
X154305000Y-110629091D01*
X154308427Y-110620818D01*
X154312568Y-110618145D01*
X154862423Y-110410777D01*
X154871373Y-110411064D01*
G37*
%TD.AperFunction*%
%TD*%
%TA.AperFunction,Conductor*%
%TO.N,+3.3V*%
G36*
X153384045Y-110264010D02*
G01*
X154018993Y-110617654D01*
X154024553Y-110624674D01*
X154025000Y-110627876D01*
X154025000Y-111113843D01*
X154021573Y-111122116D01*
X154018629Y-111124259D01*
X153371384Y-111455388D01*
X153362458Y-111456105D01*
X153357293Y-111452725D01*
X152831052Y-110857970D01*
X152828136Y-110849503D01*
X152831267Y-110842227D01*
X153369811Y-110266240D01*
X153377962Y-110262540D01*
X153384045Y-110264010D01*
G37*
%TD.AperFunction*%
%TD*%
%TA.AperFunction,Conductor*%
%TO.N,+3.3V*%
G36*
X152568310Y-105925886D02*
G01*
X152627532Y-105938559D01*
X152634905Y-105943641D01*
X152636525Y-105952448D01*
X152631443Y-105959821D01*
X152627532Y-105961441D01*
X151983121Y-106099332D01*
X151976973Y-106098991D01*
X151838000Y-106052666D01*
X151831235Y-106046798D01*
X151830000Y-106041566D01*
X151830000Y-105858433D01*
X151833427Y-105850160D01*
X151837998Y-105847333D01*
X151976976Y-105801007D01*
X151983117Y-105800667D01*
X152568310Y-105925886D01*
G37*
%TD.AperFunction*%
%TD*%
%TA.AperFunction,Conductor*%
%TO.N,+3.3V*%
G36*
X151218189Y-105672537D02*
G01*
X151548301Y-105846708D01*
X151554018Y-105853598D01*
X151554540Y-105857055D01*
X151554540Y-106040045D01*
X151551113Y-106048318D01*
X151544714Y-106051594D01*
X151129875Y-106118894D01*
X151121159Y-106116836D01*
X151116535Y-106109673D01*
X151069974Y-105880298D01*
X151071685Y-105871509D01*
X151203024Y-105676353D01*
X151210486Y-105671403D01*
X151218189Y-105672537D01*
G37*
%TD.AperFunction*%
%TD*%
%TA.AperFunction,Conductor*%
%TO.N,+3.3V*%
G36*
X153383023Y-105801007D02*
G01*
X153522000Y-105847333D01*
X153528765Y-105853201D01*
X153530000Y-105858433D01*
X153530000Y-106041566D01*
X153526573Y-106049839D01*
X153522000Y-106052666D01*
X153383026Y-106098991D01*
X153376878Y-106099332D01*
X152732466Y-105961440D01*
X152725094Y-105956359D01*
X152723474Y-105947552D01*
X152728556Y-105940179D01*
X152732466Y-105938559D01*
X153376881Y-105800667D01*
X153383023Y-105801007D01*
G37*
%TD.AperFunction*%
%TD*%
%TA.AperFunction,Conductor*%
%TO.N,+3.3V*%
G36*
X147335632Y-109786673D02*
G01*
X147338995Y-109789020D01*
X147504955Y-109954980D01*
X147508382Y-109963253D01*
X147507491Y-109967730D01*
X147035461Y-111107376D01*
X147029130Y-111113708D01*
X147020211Y-111113722D01*
X146436000Y-110874048D01*
X146429648Y-110867739D01*
X146429003Y-110865680D01*
X146282436Y-110180924D01*
X146284056Y-110172119D01*
X146289837Y-110167498D01*
X147326685Y-109786312D01*
X147335632Y-109786673D01*
G37*
%TD.AperFunction*%
%TD*%
%TA.AperFunction,Conductor*%
%TO.N,+3.3V*%
G36*
X155810868Y-111363954D02*
G01*
X156840507Y-112286233D01*
X156844383Y-112294305D01*
X156842050Y-112301982D01*
X156129904Y-113248543D01*
X156122192Y-113253094D01*
X156113521Y-113250858D01*
X156112282Y-113249782D01*
X155161876Y-112299376D01*
X155158449Y-112291103D01*
X155159695Y-112285849D01*
X155448220Y-111711801D01*
X155450397Y-111708788D01*
X155794790Y-111364395D01*
X155803062Y-111360969D01*
X155810868Y-111363954D01*
G37*
%TD.AperFunction*%
%TD*%
%TA.AperFunction,Conductor*%
%TO.N,+3.3V*%
G36*
X144376913Y-108355952D02*
G01*
X144377223Y-108356356D01*
X144657802Y-108739215D01*
X144659928Y-108747914D01*
X144656445Y-108754593D01*
X144305657Y-109089575D01*
X144253598Y-109139290D01*
X144248391Y-109144262D01*
X144240311Y-109147500D01*
X144003601Y-109147500D01*
X143995328Y-109144073D01*
X143992434Y-109139290D01*
X143872381Y-108755119D01*
X143873184Y-108746202D01*
X143876225Y-108742507D01*
X144360468Y-108354144D01*
X144369064Y-108351642D01*
X144376913Y-108355952D01*
G37*
%TD.AperFunction*%
%TD*%
%TA.AperFunction,Conductor*%
%TO.N,+3.3V*%
G36*
X155130526Y-109928427D02*
G01*
X155130984Y-109928912D01*
X155576888Y-110429546D01*
X155579831Y-110438003D01*
X155576778Y-110445232D01*
X155212295Y-110843037D01*
X155204179Y-110846822D01*
X155196479Y-110844364D01*
X154778221Y-110518642D01*
X154773799Y-110510855D01*
X154774096Y-110506430D01*
X154925201Y-109933715D01*
X154930625Y-109926590D01*
X154936514Y-109925000D01*
X155122253Y-109925000D01*
X155130526Y-109928427D01*
G37*
%TD.AperFunction*%
%TD*%
%TA.AperFunction,Conductor*%
%TO.N,+3.3V*%
G36*
X157018644Y-107439844D02*
G01*
X157026286Y-107444512D01*
X157028388Y-107453216D01*
X157023720Y-107460858D01*
X157019284Y-107462842D01*
X156381717Y-107599631D01*
X156378248Y-107599847D01*
X156279397Y-107591236D01*
X156271452Y-107587104D01*
X156269605Y-107584060D01*
X156200484Y-107417179D01*
X156200484Y-107408224D01*
X156206816Y-107401893D01*
X156207307Y-107401702D01*
X156377186Y-107340618D01*
X156382955Y-107340071D01*
X157018644Y-107439844D01*
G37*
%TD.AperFunction*%
%TD*%
%TA.AperFunction,Conductor*%
%TO.N,Net-(Y1-OUT)*%
G36*
X144620165Y-104530927D02*
G01*
X144622847Y-104535092D01*
X144767358Y-104920455D01*
X144767054Y-104929404D01*
X144764686Y-104932826D01*
X144378283Y-105320196D01*
X144370015Y-105323633D01*
X144361737Y-105320216D01*
X144361717Y-105320196D01*
X143975313Y-104932826D01*
X143971896Y-104924548D01*
X143972640Y-104920459D01*
X144117153Y-104535092D01*
X144123267Y-104528549D01*
X144128108Y-104527500D01*
X144611892Y-104527500D01*
X144620165Y-104530927D01*
G37*
%TD.AperFunction*%
%TD*%
%TA.AperFunction,Conductor*%
%TO.N,Net-(Y1-OUT)*%
G36*
X147446190Y-104491054D02*
G01*
X148140565Y-104850533D01*
X148146336Y-104857379D01*
X148146387Y-104864301D01*
X148007255Y-105325572D01*
X148001585Y-105332503D01*
X148000805Y-105332885D01*
X147563926Y-105527058D01*
X147554974Y-105527286D01*
X147549502Y-105522950D01*
X147419854Y-105332503D01*
X147090488Y-104848679D01*
X147088667Y-104839914D01*
X147091886Y-104833826D01*
X147432541Y-104493171D01*
X147440813Y-104489745D01*
X147446190Y-104491054D01*
G37*
%TD.AperFunction*%
%TD*%
%TA.AperFunction,Conductor*%
%TO.N,CLK1*%
G36*
X159486513Y-104321366D02*
G01*
X159740538Y-104491710D01*
X159887573Y-104590310D01*
X159892536Y-104597764D01*
X159891754Y-104604767D01*
X159583084Y-105301431D01*
X159576600Y-105307606D01*
X159572387Y-105308391D01*
X159387613Y-105308391D01*
X159379340Y-105304964D01*
X159376916Y-105301431D01*
X159068244Y-104604765D01*
X159068027Y-104595814D01*
X159072425Y-104590310D01*
X159473485Y-104321366D01*
X159482263Y-104319605D01*
X159486513Y-104321366D01*
G37*
%TD.AperFunction*%
%TD*%
%TA.AperFunction,Conductor*%
%TO.N,CLK2*%
G36*
X157978123Y-109402987D02*
G01*
X158377202Y-109606180D01*
X158383019Y-109612987D01*
X158382319Y-109621915D01*
X158381647Y-109623068D01*
X158252018Y-109818726D01*
X158248726Y-109822018D01*
X158053068Y-109951647D01*
X158044279Y-109953359D01*
X158036852Y-109948355D01*
X158036180Y-109947202D01*
X157972442Y-109822018D01*
X157832987Y-109548125D01*
X157832288Y-109539199D01*
X157835139Y-109534547D01*
X157964546Y-109405140D01*
X157972818Y-109401714D01*
X157978123Y-109402987D01*
G37*
%TD.AperFunction*%
%TD*%
%TA.AperFunction,Conductor*%
%TO.N,CLK2*%
G36*
X159891894Y-105637601D02*
G01*
X159892510Y-105637982D01*
X159976248Y-105693461D01*
X160088726Y-105767981D01*
X160092018Y-105771273D01*
X160222012Y-105967481D01*
X160223724Y-105976270D01*
X160218720Y-105983697D01*
X160218096Y-105984083D01*
X159836002Y-106204071D01*
X159827122Y-106205229D01*
X159821891Y-106202204D01*
X159657795Y-106038108D01*
X159654368Y-106029835D01*
X159655927Y-106024000D01*
X159875918Y-105641901D01*
X159883014Y-105636443D01*
X159891894Y-105637601D01*
G37*
%TD.AperFunction*%
%TD*%
M02*
