%TF.GenerationSoftware,KiCad,Pcbnew,9.0.0*%
%TF.CreationDate,2025-03-18T22:56:42+05:30*%
%TF.ProjectId,Adafruit Si5351A,41646166-7275-4697-9420-536935333531,rev?*%
%TF.SameCoordinates,Original*%
%TF.FileFunction,Legend,Top*%
%TF.FilePolarity,Positive*%
%FSLAX46Y46*%
G04 Gerber Fmt 4.6, Leading zero omitted, Abs format (unit mm)*
G04 Created by KiCad (PCBNEW 9.0.0) date 2025-03-18 22:56:42*
%MOMM*%
%LPD*%
G01*
G04 APERTURE LIST*
G04 Aperture macros list*
%AMRoundRect*
0 Rectangle with rounded corners*
0 $1 Rounding radius*
0 $2 $3 $4 $5 $6 $7 $8 $9 X,Y pos of 4 corners*
0 Add a 4 corners polygon primitive as box body*
4,1,4,$2,$3,$4,$5,$6,$7,$8,$9,$2,$3,0*
0 Add four circle primitives for the rounded corners*
1,1,$1+$1,$2,$3*
1,1,$1+$1,$4,$5*
1,1,$1+$1,$6,$7*
1,1,$1+$1,$8,$9*
0 Add four rect primitives between the rounded corners*
20,1,$1+$1,$2,$3,$4,$5,0*
20,1,$1+$1,$4,$5,$6,$7,0*
20,1,$1+$1,$6,$7,$8,$9,0*
20,1,$1+$1,$8,$9,$2,$3,0*%
G04 Aperture macros list end*
%ADD10C,0.203200*%
%ADD11C,0.152400*%
%ADD12C,0.150000*%
%ADD13C,0.120000*%
%ADD14C,0.250000*%
%ADD15C,0.300000*%
%ADD16RoundRect,0.250000X-0.337500X-0.475000X0.337500X-0.475000X0.337500X0.475000X-0.337500X0.475000X0*%
%ADD17RoundRect,0.050800X-0.762000X-2.032000X0.762000X-2.032000X0.762000X2.032000X-0.762000X2.032000X0*%
%ADD18RoundRect,0.050800X-0.635000X-2.032000X0.635000X-2.032000X0.635000X2.032000X-0.635000X2.032000X0*%
%ADD19C,2.000000*%
%ADD20RoundRect,0.250000X-0.350000X-0.450000X0.350000X-0.450000X0.350000X0.450000X-0.350000X0.450000X0*%
%ADD21C,2.500000*%
%ADD22RoundRect,0.250000X0.350000X0.450000X-0.350000X0.450000X-0.350000X-0.450000X0.350000X-0.450000X0*%
%ADD23RoundRect,0.050800X-0.965200X0.965200X-0.965200X-0.965200X0.965200X-0.965200X0.965200X0.965200X0*%
%ADD24C,2.032000*%
%ADD25R,1.000000X0.800000*%
%ADD26RoundRect,0.250000X-0.250000X-0.475000X0.250000X-0.475000X0.250000X0.475000X-0.250000X0.475000X0*%
%ADD27R,1.400000X0.300000*%
G04 APERTURE END LIST*
D10*
X148920200Y-100076355D02*
X148310600Y-100076355D01*
X148615400Y-100076355D02*
X148615400Y-99009555D01*
X148615400Y-99009555D02*
X148513800Y-99161955D01*
X148513800Y-99161955D02*
X148412200Y-99263555D01*
X148412200Y-99263555D02*
X148310600Y-99314355D01*
D11*
X153816180Y-114729117D02*
X153733933Y-114687993D01*
X153733933Y-114687993D02*
X153610561Y-114687993D01*
X153610561Y-114687993D02*
X153487190Y-114729117D01*
X153487190Y-114729117D02*
X153404942Y-114811365D01*
X153404942Y-114811365D02*
X153363819Y-114893612D01*
X153363819Y-114893612D02*
X153322695Y-115058108D01*
X153322695Y-115058108D02*
X153322695Y-115181479D01*
X153322695Y-115181479D02*
X153363819Y-115345974D01*
X153363819Y-115345974D02*
X153404942Y-115428222D01*
X153404942Y-115428222D02*
X153487190Y-115510470D01*
X153487190Y-115510470D02*
X153610561Y-115551593D01*
X153610561Y-115551593D02*
X153692809Y-115551593D01*
X153692809Y-115551593D02*
X153816180Y-115510470D01*
X153816180Y-115510470D02*
X153857304Y-115469346D01*
X153857304Y-115469346D02*
X153857304Y-115181479D01*
X153857304Y-115181479D02*
X153692809Y-115181479D01*
X140827276Y-111110193D02*
X140909523Y-111110193D01*
X140909523Y-111110193D02*
X140991771Y-111151317D01*
X140991771Y-111151317D02*
X141032895Y-111192441D01*
X141032895Y-111192441D02*
X141074019Y-111274689D01*
X141074019Y-111274689D02*
X141115142Y-111439184D01*
X141115142Y-111439184D02*
X141115142Y-111644803D01*
X141115142Y-111644803D02*
X141074019Y-111809298D01*
X141074019Y-111809298D02*
X141032895Y-111891546D01*
X141032895Y-111891546D02*
X140991771Y-111932670D01*
X140991771Y-111932670D02*
X140909523Y-111973793D01*
X140909523Y-111973793D02*
X140827276Y-111973793D01*
X140827276Y-111973793D02*
X140745028Y-111932670D01*
X140745028Y-111932670D02*
X140703904Y-111891546D01*
X140703904Y-111891546D02*
X140662781Y-111809298D01*
X140662781Y-111809298D02*
X140621657Y-111644803D01*
X140621657Y-111644803D02*
X140621657Y-111439184D01*
X140621657Y-111439184D02*
X140662781Y-111274689D01*
X140662781Y-111274689D02*
X140703904Y-111192441D01*
X140703904Y-111192441D02*
X140745028Y-111151317D01*
X140745028Y-111151317D02*
X140827276Y-111110193D01*
X147421905Y-115550470D02*
X147545276Y-115591593D01*
X147545276Y-115591593D02*
X147750895Y-115591593D01*
X147750895Y-115591593D02*
X147833143Y-115550470D01*
X147833143Y-115550470D02*
X147874267Y-115509346D01*
X147874267Y-115509346D02*
X147915390Y-115427098D01*
X147915390Y-115427098D02*
X147915390Y-115344850D01*
X147915390Y-115344850D02*
X147874267Y-115262603D01*
X147874267Y-115262603D02*
X147833143Y-115221479D01*
X147833143Y-115221479D02*
X147750895Y-115180355D01*
X147750895Y-115180355D02*
X147586400Y-115139231D01*
X147586400Y-115139231D02*
X147504152Y-115098108D01*
X147504152Y-115098108D02*
X147463029Y-115056984D01*
X147463029Y-115056984D02*
X147421905Y-114974736D01*
X147421905Y-114974736D02*
X147421905Y-114892489D01*
X147421905Y-114892489D02*
X147463029Y-114810241D01*
X147463029Y-114810241D02*
X147504152Y-114769117D01*
X147504152Y-114769117D02*
X147586400Y-114727993D01*
X147586400Y-114727993D02*
X147792019Y-114727993D01*
X147792019Y-114727993D02*
X147915390Y-114769117D01*
X148778990Y-115509346D02*
X148737866Y-115550470D01*
X148737866Y-115550470D02*
X148614495Y-115591593D01*
X148614495Y-115591593D02*
X148532247Y-115591593D01*
X148532247Y-115591593D02*
X148408876Y-115550470D01*
X148408876Y-115550470D02*
X148326628Y-115468222D01*
X148326628Y-115468222D02*
X148285505Y-115385974D01*
X148285505Y-115385974D02*
X148244381Y-115221479D01*
X148244381Y-115221479D02*
X148244381Y-115098108D01*
X148244381Y-115098108D02*
X148285505Y-114933612D01*
X148285505Y-114933612D02*
X148326628Y-114851365D01*
X148326628Y-114851365D02*
X148408876Y-114769117D01*
X148408876Y-114769117D02*
X148532247Y-114727993D01*
X148532247Y-114727993D02*
X148614495Y-114727993D01*
X148614495Y-114727993D02*
X148737866Y-114769117D01*
X148737866Y-114769117D02*
X148778990Y-114810241D01*
X149560343Y-115591593D02*
X149149105Y-115591593D01*
X149149105Y-115591593D02*
X149149105Y-114727993D01*
X145693257Y-114770241D02*
X145734381Y-114729117D01*
X145734381Y-114729117D02*
X145816628Y-114687993D01*
X145816628Y-114687993D02*
X146022247Y-114687993D01*
X146022247Y-114687993D02*
X146104495Y-114729117D01*
X146104495Y-114729117D02*
X146145619Y-114770241D01*
X146145619Y-114770241D02*
X146186742Y-114852489D01*
X146186742Y-114852489D02*
X146186742Y-114934736D01*
X146186742Y-114934736D02*
X146145619Y-115058108D01*
X146145619Y-115058108D02*
X145652133Y-115551593D01*
X145652133Y-115551593D02*
X146186742Y-115551593D01*
X150341343Y-115520470D02*
X150464714Y-115561593D01*
X150464714Y-115561593D02*
X150670333Y-115561593D01*
X150670333Y-115561593D02*
X150752581Y-115520470D01*
X150752581Y-115520470D02*
X150793705Y-115479346D01*
X150793705Y-115479346D02*
X150834828Y-115397098D01*
X150834828Y-115397098D02*
X150834828Y-115314850D01*
X150834828Y-115314850D02*
X150793705Y-115232603D01*
X150793705Y-115232603D02*
X150752581Y-115191479D01*
X150752581Y-115191479D02*
X150670333Y-115150355D01*
X150670333Y-115150355D02*
X150505838Y-115109231D01*
X150505838Y-115109231D02*
X150423590Y-115068108D01*
X150423590Y-115068108D02*
X150382467Y-115026984D01*
X150382467Y-115026984D02*
X150341343Y-114944736D01*
X150341343Y-114944736D02*
X150341343Y-114862489D01*
X150341343Y-114862489D02*
X150382467Y-114780241D01*
X150382467Y-114780241D02*
X150423590Y-114739117D01*
X150423590Y-114739117D02*
X150505838Y-114697993D01*
X150505838Y-114697993D02*
X150711457Y-114697993D01*
X150711457Y-114697993D02*
X150834828Y-114739117D01*
X151204943Y-115561593D02*
X151204943Y-114697993D01*
X151204943Y-114697993D02*
X151410562Y-114697993D01*
X151410562Y-114697993D02*
X151533933Y-114739117D01*
X151533933Y-114739117D02*
X151616181Y-114821365D01*
X151616181Y-114821365D02*
X151657304Y-114903612D01*
X151657304Y-114903612D02*
X151698428Y-115068108D01*
X151698428Y-115068108D02*
X151698428Y-115191479D01*
X151698428Y-115191479D02*
X151657304Y-115355974D01*
X151657304Y-115355974D02*
X151616181Y-115438222D01*
X151616181Y-115438222D02*
X151533933Y-115520470D01*
X151533933Y-115520470D02*
X151410562Y-115561593D01*
X151410562Y-115561593D02*
X151204943Y-115561593D01*
X152027419Y-115314850D02*
X152438657Y-115314850D01*
X151945171Y-115561593D02*
X152233038Y-114697993D01*
X152233038Y-114697993D02*
X152520904Y-115561593D01*
X143446742Y-111991593D02*
X142953257Y-111991593D01*
X143200000Y-111991593D02*
X143200000Y-111127993D01*
X143200000Y-111127993D02*
X143117752Y-111251365D01*
X143117752Y-111251365D02*
X143035504Y-111333612D01*
X143035504Y-111333612D02*
X142953257Y-111374736D01*
X154955162Y-114657993D02*
X155489771Y-114657993D01*
X155489771Y-114657993D02*
X155201905Y-114986984D01*
X155201905Y-114986984D02*
X155325276Y-114986984D01*
X155325276Y-114986984D02*
X155407524Y-115028108D01*
X155407524Y-115028108D02*
X155448648Y-115069231D01*
X155448648Y-115069231D02*
X155489771Y-115151479D01*
X155489771Y-115151479D02*
X155489771Y-115357098D01*
X155489771Y-115357098D02*
X155448648Y-115439346D01*
X155448648Y-115439346D02*
X155407524Y-115480470D01*
X155407524Y-115480470D02*
X155325276Y-115521593D01*
X155325276Y-115521593D02*
X155078533Y-115521593D01*
X155078533Y-115521593D02*
X154996286Y-115480470D01*
X154996286Y-115480470D02*
X154955162Y-115439346D01*
X155859886Y-115439346D02*
X155901009Y-115480470D01*
X155901009Y-115480470D02*
X155859886Y-115521593D01*
X155859886Y-115521593D02*
X155818762Y-115480470D01*
X155818762Y-115480470D02*
X155859886Y-115439346D01*
X155859886Y-115439346D02*
X155859886Y-115521593D01*
X156188876Y-114657993D02*
X156723485Y-114657993D01*
X156723485Y-114657993D02*
X156435619Y-114986984D01*
X156435619Y-114986984D02*
X156558990Y-114986984D01*
X156558990Y-114986984D02*
X156641238Y-115028108D01*
X156641238Y-115028108D02*
X156682362Y-115069231D01*
X156682362Y-115069231D02*
X156723485Y-115151479D01*
X156723485Y-115151479D02*
X156723485Y-115357098D01*
X156723485Y-115357098D02*
X156682362Y-115439346D01*
X156682362Y-115439346D02*
X156641238Y-115480470D01*
X156641238Y-115480470D02*
X156558990Y-115521593D01*
X156558990Y-115521593D02*
X156312247Y-115521593D01*
X156312247Y-115521593D02*
X156230000Y-115480470D01*
X156230000Y-115480470D02*
X156188876Y-115439346D01*
X156970228Y-114657993D02*
X157258095Y-115521593D01*
X157258095Y-115521593D02*
X157545961Y-114657993D01*
D10*
X158292800Y-99187355D02*
X158343600Y-99136555D01*
X158343600Y-99136555D02*
X158445200Y-99085755D01*
X158445200Y-99085755D02*
X158699200Y-99085755D01*
X158699200Y-99085755D02*
X158800800Y-99136555D01*
X158800800Y-99136555D02*
X158851600Y-99187355D01*
X158851600Y-99187355D02*
X158902400Y-99288955D01*
X158902400Y-99288955D02*
X158902400Y-99390555D01*
X158902400Y-99390555D02*
X158851600Y-99542955D01*
X158851600Y-99542955D02*
X158242000Y-100152555D01*
X158242000Y-100152555D02*
X158902400Y-100152555D01*
X138249200Y-99296155D02*
X138350800Y-99296155D01*
X138350800Y-99296155D02*
X138452400Y-99346955D01*
X138452400Y-99346955D02*
X138503200Y-99397755D01*
X138503200Y-99397755D02*
X138554000Y-99499355D01*
X138554000Y-99499355D02*
X138604800Y-99702555D01*
X138604800Y-99702555D02*
X138604800Y-99956555D01*
X138604800Y-99956555D02*
X138554000Y-100159755D01*
X138554000Y-100159755D02*
X138503200Y-100261355D01*
X138503200Y-100261355D02*
X138452400Y-100312155D01*
X138452400Y-100312155D02*
X138350800Y-100362955D01*
X138350800Y-100362955D02*
X138249200Y-100362955D01*
X138249200Y-100362955D02*
X138147600Y-100312155D01*
X138147600Y-100312155D02*
X138096800Y-100261355D01*
X138096800Y-100261355D02*
X138046000Y-100159755D01*
X138046000Y-100159755D02*
X137995200Y-99956555D01*
X137995200Y-99956555D02*
X137995200Y-99702555D01*
X137995200Y-99702555D02*
X138046000Y-99499355D01*
X138046000Y-99499355D02*
X138096800Y-99397755D01*
X138096800Y-99397755D02*
X138147600Y-99346955D01*
X138147600Y-99346955D02*
X138249200Y-99296155D01*
D12*
X148525333Y-107419580D02*
X148477714Y-107467200D01*
X148477714Y-107467200D02*
X148334857Y-107514819D01*
X148334857Y-107514819D02*
X148239619Y-107514819D01*
X148239619Y-107514819D02*
X148096762Y-107467200D01*
X148096762Y-107467200D02*
X148001524Y-107371961D01*
X148001524Y-107371961D02*
X147953905Y-107276723D01*
X147953905Y-107276723D02*
X147906286Y-107086247D01*
X147906286Y-107086247D02*
X147906286Y-106943390D01*
X147906286Y-106943390D02*
X147953905Y-106752914D01*
X147953905Y-106752914D02*
X148001524Y-106657676D01*
X148001524Y-106657676D02*
X148096762Y-106562438D01*
X148096762Y-106562438D02*
X148239619Y-106514819D01*
X148239619Y-106514819D02*
X148334857Y-106514819D01*
X148334857Y-106514819D02*
X148477714Y-106562438D01*
X148477714Y-106562438D02*
X148525333Y-106610057D01*
X148906286Y-106610057D02*
X148953905Y-106562438D01*
X148953905Y-106562438D02*
X149049143Y-106514819D01*
X149049143Y-106514819D02*
X149287238Y-106514819D01*
X149287238Y-106514819D02*
X149382476Y-106562438D01*
X149382476Y-106562438D02*
X149430095Y-106610057D01*
X149430095Y-106610057D02*
X149477714Y-106705295D01*
X149477714Y-106705295D02*
X149477714Y-106800533D01*
X149477714Y-106800533D02*
X149430095Y-106943390D01*
X149430095Y-106943390D02*
X148858667Y-107514819D01*
X148858667Y-107514819D02*
X149477714Y-107514819D01*
D13*
X154254276Y-103653055D02*
X154254276Y-104300674D01*
X154254276Y-104300674D02*
X154292371Y-104376864D01*
X154292371Y-104376864D02*
X154330466Y-104414960D01*
X154330466Y-104414960D02*
X154406657Y-104453055D01*
X154406657Y-104453055D02*
X154559038Y-104453055D01*
X154559038Y-104453055D02*
X154635228Y-104414960D01*
X154635228Y-104414960D02*
X154673323Y-104376864D01*
X154673323Y-104376864D02*
X154711419Y-104300674D01*
X154711419Y-104300674D02*
X154711419Y-103653055D01*
X155511418Y-104453055D02*
X155054275Y-104453055D01*
X155282847Y-104453055D02*
X155282847Y-103653055D01*
X155282847Y-103653055D02*
X155206656Y-103767340D01*
X155206656Y-103767340D02*
X155130466Y-103843531D01*
X155130466Y-103843531D02*
X155054275Y-103881626D01*
%TO.C,C3*%
X161498748Y-108555000D02*
X162021252Y-108555000D01*
X161498748Y-110025000D02*
X162021252Y-110025000D01*
%TO.C,R4*%
X151597936Y-110115000D02*
X152052064Y-110115000D01*
X151597936Y-111585000D02*
X152052064Y-111585000D01*
%TO.C,R3*%
X147658064Y-110136000D02*
X147203936Y-110136000D01*
X147658064Y-111606000D02*
X147203936Y-111606000D01*
%TO.C,C1*%
X155718748Y-110115000D02*
X156241252Y-110115000D01*
X155718748Y-111585000D02*
X156241252Y-111585000D01*
%TO.C,C4*%
X161498748Y-106475000D02*
X162021252Y-106475000D01*
X161498748Y-107945000D02*
X162021252Y-107945000D01*
D14*
%TO.C,Y1*%
X143670000Y-108437500D02*
X143670000Y-105237500D01*
X146470000Y-108437500D02*
X146470000Y-105237500D01*
D15*
X147120001Y-108237500D02*
X147120001Y-108237500D01*
X147120001Y-108237500D01*
X147120001Y-108237500D01*
X147120001Y-108237500D01*
X147120001Y-108237500D01*
X147120001Y-108237501D01*
X147120001Y-108237501D01*
X147120001Y-108237501D01*
X147120001Y-108237501D01*
X147120001Y-108237501D01*
X147120001Y-108237501D01*
X147120001Y-108237501D01*
X147120000Y-108237501D01*
X147120000Y-108237501D01*
X147120000Y-108237501D01*
X147120000Y-108237501D01*
X147120000Y-108237501D01*
X147120000Y-108237501D01*
X147120000Y-108237501D01*
X147120000Y-108237501D01*
X147120000Y-108237501D01*
X147120000Y-108237501D01*
X147120000Y-108237501D01*
X147120000Y-108237501D01*
X147119999Y-108237501D01*
X147119999Y-108237501D01*
X147119999Y-108237501D01*
X147119999Y-108237501D01*
X147119999Y-108237501D01*
X147119999Y-108237501D01*
X147119999Y-108237500D01*
X147119999Y-108237500D01*
X147119999Y-108237500D01*
X147119999Y-108237500D01*
X147119999Y-108237500D01*
X147119999Y-108237500D01*
X147119999Y-108237500D02*
X147119999Y-108237500D01*
X147119999Y-108237500D01*
X147119999Y-108237500D01*
X147119999Y-108237500D01*
X147119999Y-108237500D01*
X147119999Y-108237500D01*
X147119999Y-108237499D01*
X147119999Y-108237499D01*
X147119999Y-108237499D01*
X147119999Y-108237499D01*
X147119999Y-108237499D01*
X147120000Y-108237499D01*
X147120000Y-108237499D01*
X147120000Y-108237499D01*
X147120000Y-108237499D01*
X147120000Y-108237499D01*
X147120000Y-108237499D01*
X147120000Y-108237499D01*
X147120000Y-108237499D01*
X147120000Y-108237499D01*
X147120000Y-108237499D01*
X147120000Y-108237499D01*
X147120000Y-108237499D01*
X147120001Y-108237499D01*
X147120001Y-108237499D01*
X147120001Y-108237499D01*
X147120001Y-108237499D01*
X147120001Y-108237499D01*
X147120001Y-108237499D01*
X147120001Y-108237500D01*
X147120001Y-108237500D01*
X147120001Y-108237500D01*
X147120001Y-108237500D01*
X147120001Y-108237500D01*
X147120001Y-108237500D01*
X147120001Y-108237500D01*
D13*
%TO.C,C2*%
X148518748Y-104595000D02*
X149041252Y-104595000D01*
X148518748Y-106065000D02*
X149041252Y-106065000D01*
D12*
%TO.C,U1*%
X153205000Y-105275000D02*
X153205000Y-105500000D01*
X153205000Y-105275000D02*
X156555000Y-105275000D01*
X153205000Y-105500000D02*
X151980000Y-105500000D01*
X153205000Y-108625000D02*
X153205000Y-108325000D01*
X153205000Y-108625000D02*
X156555000Y-108625000D01*
X156555000Y-105275000D02*
X156555000Y-105575000D01*
X156555000Y-108625000D02*
X156555000Y-108325000D01*
%TD*%
%LPC*%
D16*
%TO.C,C3*%
X160722500Y-109290000D03*
X162797500Y-109290000D03*
%TD*%
D17*
%TO.C,X3*%
X156121100Y-96748600D03*
X161201100Y-96748600D03*
D18*
X158661100Y-96748600D03*
%TD*%
D19*
%TO.C,FID2*%
X138810000Y-109990000D03*
%TD*%
D20*
%TO.C,R4*%
X150825000Y-110850000D03*
X152825000Y-110850000D03*
%TD*%
D21*
%TO.C,H2*%
X161201100Y-113258600D03*
%TD*%
%TO.C,H1*%
X135801100Y-113258600D03*
%TD*%
D17*
%TO.C,X2*%
X145961100Y-96748600D03*
X151041100Y-96748600D03*
D18*
X148501100Y-96748600D03*
%TD*%
D22*
%TO.C,R3*%
X148431000Y-110871000D03*
X146431000Y-110871000D03*
%TD*%
D23*
%TO.C,JP1*%
X156121100Y-113258600D03*
D24*
X153581100Y-113258600D03*
X151041100Y-113258600D03*
X148501100Y-113258600D03*
X145961100Y-113258600D03*
X143421100Y-113258600D03*
X140881100Y-113258600D03*
%TD*%
D16*
%TO.C,C1*%
X154942500Y-110850000D03*
X157017500Y-110850000D03*
%TD*%
%TO.C,C4*%
X160722500Y-107210000D03*
X162797500Y-107210000D03*
%TD*%
D25*
%TO.C,Y1*%
X145770000Y-108347500D03*
X145770000Y-105327500D03*
X144370000Y-105327500D03*
X144370000Y-108347500D03*
%TD*%
D17*
%TO.C,X1*%
X135801100Y-96748600D03*
X140881100Y-96748600D03*
D18*
X138341100Y-96748600D03*
%TD*%
D26*
%TO.C,C2*%
X147830000Y-105330000D03*
X149730000Y-105330000D03*
%TD*%
D19*
%TO.C,FID1*%
X162320000Y-100710000D03*
%TD*%
D27*
%TO.C,U1*%
X152680000Y-105950000D03*
X152680000Y-106450000D03*
X152680000Y-106950000D03*
X152680000Y-107450000D03*
X152680000Y-107950000D03*
X157080000Y-107950000D03*
X157080000Y-107450000D03*
X157080000Y-106950000D03*
X157080000Y-106450000D03*
X157080000Y-105950000D03*
%TD*%
%LPD*%
M02*
