%TF.GenerationSoftware,KiCad,Pcbnew,9.0.0*%
%TF.CreationDate,2025-03-18T22:56:42+05:30*%
%TF.ProjectId,Adafruit Si5351A,41646166-7275-4697-9420-536935333531,rev?*%
%TF.SameCoordinates,Original*%
%TF.FileFunction,Copper,L2,Bot*%
%TF.FilePolarity,Positive*%
%FSLAX46Y46*%
G04 Gerber Fmt 4.6, Leading zero omitted, Abs format (unit mm)*
G04 Created by KiCad (PCBNEW 9.0.0) date 2025-03-18 22:56:42*
%MOMM*%
%LPD*%
G01*
G04 APERTURE LIST*
%TA.AperFunction,SMDPad,CuDef*%
%ADD10R,1.524000X4.064000*%
%TD*%
%TA.AperFunction,ComponentPad*%
%ADD11R,1.930400X1.930400*%
%TD*%
%TA.AperFunction,ComponentPad*%
%ADD12C,1.930400*%
%TD*%
%TA.AperFunction,ViaPad*%
%ADD13C,0.500000*%
%TD*%
%TA.AperFunction,ViaPad*%
%ADD14C,0.800000*%
%TD*%
%TA.AperFunction,ViaPad*%
%ADD15C,0.800100*%
%TD*%
%TA.AperFunction,Conductor*%
%ADD16C,0.200000*%
%TD*%
%TA.AperFunction,Conductor*%
%ADD17C,0.500000*%
%TD*%
%TA.AperFunction,Conductor*%
%ADD18C,0.250000*%
%TD*%
G04 APERTURE END LIST*
D10*
%TO.P,X3,GND@3,GND2*%
%TO.N,GND*%
X161201100Y-96748600D03*
%TO.P,X3,GND@4,GND1*%
X156121100Y-96748600D03*
%TD*%
%TO.P,X2,GND@3,GND2*%
%TO.N,GND*%
X151041100Y-96748600D03*
%TO.P,X2,GND@4,GND1*%
X145961100Y-96748600D03*
%TD*%
D11*
%TO.P,JP1,1,1*%
%TO.N,+3.3V*%
X156121100Y-113258600D03*
D12*
%TO.P,JP1,2,2*%
%TO.N,GND*%
X153581100Y-113258600D03*
%TO.P,JP1,3,3*%
%TO.N,/SDA_3V*%
X151041100Y-113258600D03*
%TO.P,JP1,4,4*%
%TO.N,/SCL_3V*%
X148501100Y-113258600D03*
%TO.P,JP1,5,5*%
%TO.N,CLK2*%
X145961100Y-113258600D03*
%TO.P,JP1,6,6*%
%TO.N,CLK1*%
X143421100Y-113258600D03*
%TO.P,JP1,7,7*%
%TO.N,CLK0*%
X140881100Y-113258600D03*
%TD*%
D10*
%TO.P,X1,GND@3,GND2*%
%TO.N,GND*%
X140881100Y-96748600D03*
%TO.P,X1,GND@4,GND1*%
X135801100Y-96748600D03*
%TD*%
D13*
%TO.N,GND*%
X152780000Y-104810000D03*
X153370000Y-104810000D03*
X154030000Y-104800000D03*
X154820000Y-104810000D03*
X155610000Y-104820000D03*
X150960000Y-100760000D03*
X151450000Y-101280000D03*
X151900000Y-101760000D03*
X152470000Y-102350000D03*
X156480000Y-102900000D03*
X155470000Y-102850000D03*
X154360000Y-102830000D03*
X153360000Y-102830000D03*
X154520000Y-107280000D03*
X154520000Y-106680000D03*
X154520000Y-106100000D03*
X155210000Y-106090000D03*
X155820000Y-106190000D03*
D14*
%TO.N,+3.3V*%
X158270491Y-107454427D03*
X160722500Y-107400000D03*
%TO.N,GND*%
X143700000Y-115200000D03*
D13*
X163400000Y-98000000D03*
D14*
X145940000Y-95350000D03*
X145000000Y-109400000D03*
D13*
X143490000Y-95860000D03*
D14*
X136680000Y-109910000D03*
X160290000Y-111440000D03*
D13*
X158450000Y-105570000D03*
D14*
X134114168Y-114376541D03*
X161260000Y-97860000D03*
X134050000Y-103330000D03*
D13*
X162306000Y-99187000D03*
D14*
X142060000Y-104020000D03*
D13*
X157620000Y-101070000D03*
X155300000Y-100710000D03*
X163400000Y-96800000D03*
D14*
X138110000Y-106620000D03*
D13*
X141859000Y-114427000D03*
X154140000Y-100710000D03*
X158710000Y-101410000D03*
X139115800Y-102489000D03*
X156000000Y-99430000D03*
X147193000Y-114427000D03*
X138430000Y-102235000D03*
X153500000Y-97400000D03*
X160909000Y-99568000D03*
X160401000Y-100076000D03*
X153600000Y-100500000D03*
D14*
X145540000Y-103040000D03*
X156160000Y-95260000D03*
D13*
X156470000Y-100010000D03*
D14*
X137760000Y-108610000D03*
D13*
X163200000Y-96200000D03*
D14*
X161210000Y-95190000D03*
X151090000Y-95300000D03*
X151140000Y-97970000D03*
D13*
X155000000Y-107700000D03*
X155829000Y-106807000D03*
X154461786Y-108552562D03*
D14*
X136690000Y-107620000D03*
D13*
X155702000Y-109524800D03*
X150114000Y-114427000D03*
D14*
X142087600Y-106146600D03*
X142036800Y-110540800D03*
X134950000Y-115120000D03*
D15*
X154293100Y-96748600D03*
D14*
X149610000Y-108070000D03*
D13*
X153500000Y-96100000D03*
X137541000Y-101219000D03*
D14*
X142070000Y-102900000D03*
X144430000Y-103050000D03*
X135380000Y-106620000D03*
D13*
X161544000Y-99314000D03*
D14*
X142036800Y-105050000D03*
D13*
X152273000Y-112141000D03*
X144399000Y-114554000D03*
D14*
X160401000Y-103505000D03*
X135350000Y-108830000D03*
D15*
X154270000Y-95490000D03*
D14*
X134080000Y-96850000D03*
X147470000Y-102750000D03*
X142036800Y-107188000D03*
D13*
X149606000Y-102743000D03*
D14*
X144000000Y-111700000D03*
X138110000Y-105520000D03*
X135380000Y-103330000D03*
X139319000Y-112522000D03*
X159131000Y-102235000D03*
X135390000Y-102140000D03*
D13*
X154740000Y-98730000D03*
D14*
X134050000Y-104430000D03*
X135410000Y-101120000D03*
D13*
X154730000Y-100700000D03*
X158440000Y-101900000D03*
X154440000Y-109170000D03*
D14*
X136950000Y-111540000D03*
D13*
X158000000Y-104310000D03*
D14*
X156200000Y-96510000D03*
X139065000Y-114427000D03*
D13*
X158240000Y-100970000D03*
D14*
X145000000Y-111700000D03*
X135800000Y-95660000D03*
X141500000Y-100300000D03*
X138090000Y-107640000D03*
D13*
X157530800Y-114380000D03*
X155230000Y-99430000D03*
D14*
X134020000Y-108830000D03*
D13*
X155170000Y-100040000D03*
D15*
X152780000Y-98050000D03*
D13*
X160430000Y-104220000D03*
D14*
X142800000Y-115200000D03*
X159588200Y-114554000D03*
D13*
X155194000Y-106680000D03*
D14*
X134030000Y-107640000D03*
X156210000Y-97930000D03*
X161790000Y-115200000D03*
D13*
X158360000Y-104910000D03*
D14*
X140480000Y-99430000D03*
X133810000Y-113330000D03*
X151130000Y-96550000D03*
X134080000Y-101120000D03*
D13*
X139700000Y-100330000D03*
X139810000Y-102520000D03*
X142214600Y-99974400D03*
X153950000Y-98820000D03*
D14*
X135900000Y-111300000D03*
X145990000Y-98020000D03*
X133970000Y-112300000D03*
X134060000Y-102140000D03*
D13*
X157226000Y-100076000D03*
X156660000Y-99410000D03*
D14*
X140970000Y-98190000D03*
X134080000Y-97950000D03*
X161250000Y-96440000D03*
X163280000Y-105050000D03*
X136690000Y-105430000D03*
D13*
X157090000Y-100720000D03*
X153210000Y-100060000D03*
D14*
X140920000Y-95520000D03*
D15*
X162725100Y-97663000D03*
D14*
X160490000Y-115200000D03*
D13*
X139954000Y-114427000D03*
D14*
X159190000Y-113460000D03*
D13*
X153960000Y-99880000D03*
D14*
X159385000Y-112268000D03*
X139430000Y-106620000D03*
D13*
X150241000Y-103251000D03*
X142570200Y-99491800D03*
D14*
X139410000Y-107640000D03*
D13*
X163449000Y-98806000D03*
D14*
X146200000Y-109400000D03*
X138684000Y-111760000D03*
D13*
X139319000Y-99822000D03*
D15*
X154300000Y-98020000D03*
D13*
X157099000Y-103378000D03*
D14*
X134050000Y-106620000D03*
X140480000Y-100300000D03*
D15*
X162725100Y-95631000D03*
D13*
X150749000Y-103759000D03*
X158030000Y-101500000D03*
X155702000Y-108966000D03*
D14*
X134060000Y-98970000D03*
X142036800Y-111658400D03*
X135800000Y-98270000D03*
D13*
X137972800Y-101701600D03*
X157370000Y-99460000D03*
D14*
X163280000Y-103100000D03*
X134090000Y-95890000D03*
X136710000Y-106600000D03*
X162763200Y-111887000D03*
D15*
X152746000Y-95490000D03*
D14*
X139430000Y-105520000D03*
X163290000Y-104000000D03*
X134030000Y-105450000D03*
X161645600Y-111201200D03*
D13*
X152810000Y-99590000D03*
X154460000Y-99330000D03*
D14*
X149700000Y-103700000D03*
D13*
X155500000Y-107300000D03*
D14*
X159766000Y-102870000D03*
D13*
X153500000Y-95100000D03*
D14*
X137290000Y-114680000D03*
D13*
X147193000Y-112141000D03*
X163400000Y-102400000D03*
X154686000Y-114427000D03*
X153440000Y-99370000D03*
X137337800Y-100584000D03*
D14*
X151350000Y-104700000D03*
X135380000Y-104430000D03*
D13*
X142494000Y-114427000D03*
X157770000Y-100500000D03*
D14*
X148600000Y-102750000D03*
D13*
X163400000Y-97400000D03*
X145034000Y-114554000D03*
D14*
X140960000Y-96770000D03*
D13*
X156440000Y-100720000D03*
D14*
X139770000Y-108580000D03*
X135360000Y-107640000D03*
X135410000Y-100020000D03*
D15*
X162750000Y-98640000D03*
D13*
X154460000Y-107940000D03*
D14*
X136190000Y-115280000D03*
X141510000Y-99430000D03*
D15*
X162725100Y-96748600D03*
D14*
X144600000Y-115200000D03*
X134020000Y-109930000D03*
D13*
X152990000Y-98890000D03*
X163449000Y-99695000D03*
D14*
X141800000Y-115200000D03*
X136680000Y-108810000D03*
X140800000Y-115200000D03*
D13*
X149479000Y-114427000D03*
D14*
X145980000Y-96600000D03*
X148485000Y-108120000D03*
X142036800Y-109360000D03*
X162780000Y-114460000D03*
X139220000Y-113500000D03*
D13*
X163449000Y-101727000D03*
D14*
X136740000Y-101100000D03*
X137640000Y-112350000D03*
D13*
X152273000Y-114300000D03*
X156260800Y-108991400D03*
X155720000Y-100050000D03*
X153500000Y-98300000D03*
D14*
X139700000Y-115189000D03*
X148600000Y-103700000D03*
X135350000Y-109930000D03*
D13*
X154580000Y-100040000D03*
D14*
X163220000Y-113170000D03*
X134080000Y-100020000D03*
X137850000Y-113600000D03*
X139700000Y-111506000D03*
X135360000Y-105450000D03*
D13*
X157550000Y-103830000D03*
X154686000Y-112090200D03*
X162700000Y-102600000D03*
X137100000Y-99900000D03*
X156260800Y-109601000D03*
D15*
X152769100Y-96748600D03*
D14*
X134760000Y-111590000D03*
X138760000Y-108300000D03*
D13*
X152360000Y-99090000D03*
D14*
X135790000Y-97090000D03*
D13*
X155890000Y-100710000D03*
D14*
X138410000Y-115110000D03*
X142062200Y-108305600D03*
D13*
%TO.N,CLK1*%
X147574000Y-99900000D03*
D14*
%TO.N,CLK2*%
X158250000Y-110740000D03*
D13*
%TO.N,+3.3V*%
X151070000Y-105875500D03*
X151070000Y-107090000D03*
%TD*%
D16*
%TO.N,+3.3V*%
X158270491Y-107454427D02*
X158324918Y-107400000D01*
X158324918Y-107400000D02*
X160722500Y-107400000D01*
D17*
%TO.N,CLK1*%
X147475000Y-99900000D02*
X143200000Y-99900000D01*
X143200000Y-99900000D02*
X142950000Y-100150000D01*
X142950000Y-100150000D02*
X142950000Y-112787500D01*
%TO.N,CLK2*%
X158250000Y-114830000D02*
X158250000Y-110740000D01*
X146320000Y-115230000D02*
X157850000Y-115230000D01*
X145961100Y-113258600D02*
X145961100Y-114871100D01*
X145961100Y-114871100D02*
X146320000Y-115230000D01*
X157850000Y-115230000D02*
X158250000Y-114830000D01*
D18*
%TO.N,+3.3V*%
X151070000Y-107090000D02*
X151070000Y-105875500D01*
%TD*%
%TA.AperFunction,Conductor*%
%TO.N,GND*%
G36*
X140071377Y-94253785D02*
G01*
X140117132Y-94306589D01*
X140127076Y-94375747D01*
X140098051Y-94439303D01*
X140039273Y-94477077D01*
X140028529Y-94479717D01*
X140021559Y-94481103D01*
X140021555Y-94481105D01*
X139938860Y-94536360D01*
X139883605Y-94619055D01*
X139883603Y-94619059D01*
X139869100Y-94691971D01*
X139869100Y-95559824D01*
X140881100Y-96571824D01*
X141893099Y-95559824D01*
X141893100Y-95559823D01*
X141893100Y-94691973D01*
X141893099Y-94691971D01*
X141878596Y-94619059D01*
X141878594Y-94619055D01*
X141823339Y-94536360D01*
X141740644Y-94481105D01*
X141740640Y-94481103D01*
X141733671Y-94479717D01*
X141671760Y-94447332D01*
X141637186Y-94386617D01*
X141640925Y-94316847D01*
X141681792Y-94260175D01*
X141746810Y-94234594D01*
X141757862Y-94234100D01*
X145084338Y-94234100D01*
X145151377Y-94253785D01*
X145197132Y-94306589D01*
X145207076Y-94375747D01*
X145178051Y-94439303D01*
X145119273Y-94477077D01*
X145108529Y-94479717D01*
X145101559Y-94481103D01*
X145101555Y-94481105D01*
X145018860Y-94536360D01*
X144963605Y-94619055D01*
X144963603Y-94619059D01*
X144949100Y-94691971D01*
X144949100Y-95559824D01*
X145961100Y-96571824D01*
X146973099Y-95559824D01*
X146973100Y-95559823D01*
X146973100Y-94691973D01*
X146973099Y-94691971D01*
X146958596Y-94619059D01*
X146958594Y-94619055D01*
X146903339Y-94536360D01*
X146820644Y-94481105D01*
X146820640Y-94481103D01*
X146813671Y-94479717D01*
X146751760Y-94447332D01*
X146717186Y-94386617D01*
X146720925Y-94316847D01*
X146761792Y-94260175D01*
X146826810Y-94234594D01*
X146837862Y-94234100D01*
X150164338Y-94234100D01*
X150231377Y-94253785D01*
X150277132Y-94306589D01*
X150287076Y-94375747D01*
X150258051Y-94439303D01*
X150199273Y-94477077D01*
X150188529Y-94479717D01*
X150181559Y-94481103D01*
X150181555Y-94481105D01*
X150098860Y-94536360D01*
X150043605Y-94619055D01*
X150043603Y-94619059D01*
X150029100Y-94691971D01*
X150029100Y-95559824D01*
X151041100Y-96571824D01*
X152053099Y-95559824D01*
X152053100Y-95559823D01*
X152053100Y-94691973D01*
X152053099Y-94691971D01*
X152038596Y-94619059D01*
X152038594Y-94619055D01*
X151983339Y-94536360D01*
X151900644Y-94481105D01*
X151900640Y-94481103D01*
X151893671Y-94479717D01*
X151831760Y-94447332D01*
X151797186Y-94386617D01*
X151800925Y-94316847D01*
X151841792Y-94260175D01*
X151906810Y-94234594D01*
X151917862Y-94234100D01*
X155244338Y-94234100D01*
X155311377Y-94253785D01*
X155357132Y-94306589D01*
X155367076Y-94375747D01*
X155338051Y-94439303D01*
X155279273Y-94477077D01*
X155268529Y-94479717D01*
X155261559Y-94481103D01*
X155261555Y-94481105D01*
X155178860Y-94536360D01*
X155123605Y-94619055D01*
X155123603Y-94619059D01*
X155109100Y-94691971D01*
X155109100Y-95559824D01*
X156121100Y-96571824D01*
X157133099Y-95559824D01*
X157133100Y-95559823D01*
X157133100Y-94691973D01*
X157133099Y-94691971D01*
X157118596Y-94619059D01*
X157118594Y-94619055D01*
X157063339Y-94536360D01*
X156980644Y-94481105D01*
X156980640Y-94481103D01*
X156973671Y-94479717D01*
X156911760Y-94447332D01*
X156877186Y-94386617D01*
X156880925Y-94316847D01*
X156921792Y-94260175D01*
X156986810Y-94234594D01*
X156997862Y-94234100D01*
X160324338Y-94234100D01*
X160391377Y-94253785D01*
X160437132Y-94306589D01*
X160447076Y-94375747D01*
X160418051Y-94439303D01*
X160359273Y-94477077D01*
X160348529Y-94479717D01*
X160341559Y-94481103D01*
X160341555Y-94481105D01*
X160258860Y-94536360D01*
X160203605Y-94619055D01*
X160203603Y-94619059D01*
X160189100Y-94691971D01*
X160189100Y-95559824D01*
X161201100Y-96571824D01*
X162213099Y-95559824D01*
X162213100Y-95559823D01*
X162213100Y-94691973D01*
X162208153Y-94667104D01*
X162214380Y-94597512D01*
X162257243Y-94542335D01*
X162323132Y-94519090D01*
X162391129Y-94535158D01*
X162393915Y-94536792D01*
X162623086Y-94675330D01*
X162635397Y-94683828D01*
X162645794Y-94691973D01*
X162862620Y-94861846D01*
X162873828Y-94871776D01*
X163077923Y-95075871D01*
X163087853Y-95087079D01*
X163265867Y-95314296D01*
X163274373Y-95326619D01*
X163423697Y-95573633D01*
X163430656Y-95586892D01*
X163549122Y-95850112D01*
X163554431Y-95864113D01*
X163640299Y-96139674D01*
X163643883Y-96154212D01*
X163695913Y-96438132D01*
X163697718Y-96452996D01*
X163715374Y-96744862D01*
X163715600Y-96752350D01*
X163715600Y-113254849D01*
X163715374Y-113262337D01*
X163697718Y-113554203D01*
X163695913Y-113569067D01*
X163643883Y-113852987D01*
X163640299Y-113867525D01*
X163554431Y-114143086D01*
X163549122Y-114157087D01*
X163430656Y-114420307D01*
X163423697Y-114433566D01*
X163274373Y-114680580D01*
X163265867Y-114692903D01*
X163087853Y-114920120D01*
X163077923Y-114931328D01*
X162873828Y-115135423D01*
X162862620Y-115145353D01*
X162635403Y-115323367D01*
X162623080Y-115331873D01*
X162376066Y-115481197D01*
X162362807Y-115488156D01*
X162099587Y-115606622D01*
X162085586Y-115611931D01*
X161810023Y-115697800D01*
X161795484Y-115701384D01*
X161568016Y-115743068D01*
X161545949Y-115745099D01*
X158264122Y-115752626D01*
X158197038Y-115733095D01*
X158151162Y-115680396D01*
X158141060Y-115611261D01*
X158169939Y-115547638D01*
X158176143Y-115540959D01*
X158610489Y-115106614D01*
X158669798Y-115003887D01*
X158669799Y-115003886D01*
X158700500Y-114889309D01*
X158700500Y-113140502D01*
X159700600Y-113140502D01*
X159700600Y-113376697D01*
X159737546Y-113609968D01*
X159810533Y-113834596D01*
X159908161Y-114026199D01*
X159917757Y-114045033D01*
X160056583Y-114236110D01*
X160223590Y-114403117D01*
X160414667Y-114541943D01*
X160512978Y-114592035D01*
X160625103Y-114649166D01*
X160625105Y-114649166D01*
X160625108Y-114649168D01*
X160745512Y-114688289D01*
X160849731Y-114722153D01*
X161083003Y-114759100D01*
X161083008Y-114759100D01*
X161319197Y-114759100D01*
X161552468Y-114722153D01*
X161599070Y-114707011D01*
X161777092Y-114649168D01*
X161987533Y-114541943D01*
X162178610Y-114403117D01*
X162345617Y-114236110D01*
X162484443Y-114045033D01*
X162591668Y-113834592D01*
X162664653Y-113609968D01*
X162673485Y-113554203D01*
X162701600Y-113376697D01*
X162701600Y-113140502D01*
X162664653Y-112907231D01*
X162591666Y-112682603D01*
X162535102Y-112571591D01*
X162484443Y-112472167D01*
X162345617Y-112281090D01*
X162178610Y-112114083D01*
X161987533Y-111975257D01*
X161945973Y-111954081D01*
X161777096Y-111868033D01*
X161552468Y-111795046D01*
X161319197Y-111758100D01*
X161319192Y-111758100D01*
X161083008Y-111758100D01*
X161083003Y-111758100D01*
X160849731Y-111795046D01*
X160625103Y-111868033D01*
X160414666Y-111975257D01*
X160358483Y-112016077D01*
X160223590Y-112114083D01*
X160223588Y-112114085D01*
X160223587Y-112114085D01*
X160056585Y-112281087D01*
X160056585Y-112281088D01*
X160056583Y-112281090D01*
X160032510Y-112314224D01*
X159917757Y-112472166D01*
X159810533Y-112682603D01*
X159737546Y-112907231D01*
X159700600Y-113140502D01*
X158700500Y-113140502D01*
X158700500Y-111589916D01*
X158702890Y-111565686D01*
X158703413Y-111563058D01*
X158703415Y-111563055D01*
X158841571Y-110869641D01*
X158841571Y-110868606D01*
X158841978Y-110865525D01*
X158842170Y-110863594D01*
X158842232Y-110863600D01*
X158845796Y-110836607D01*
X158850500Y-110819057D01*
X158850500Y-110660943D01*
X158809577Y-110508216D01*
X158809573Y-110508209D01*
X158730524Y-110371290D01*
X158730518Y-110371282D01*
X158618717Y-110259481D01*
X158618709Y-110259475D01*
X158481790Y-110180426D01*
X158481786Y-110180424D01*
X158481784Y-110180423D01*
X158329057Y-110139500D01*
X158170943Y-110139500D01*
X158018216Y-110180423D01*
X158018209Y-110180426D01*
X157881290Y-110259475D01*
X157881282Y-110259481D01*
X157769481Y-110371282D01*
X157769475Y-110371290D01*
X157690426Y-110508209D01*
X157690423Y-110508216D01*
X157649500Y-110660943D01*
X157649500Y-110819056D01*
X157654203Y-110836610D01*
X157657759Y-110863586D01*
X157657829Y-110863580D01*
X157658038Y-110865702D01*
X157658427Y-110868647D01*
X157658427Y-110869638D01*
X157658428Y-110869641D01*
X157770618Y-111432728D01*
X157797110Y-111565689D01*
X157799500Y-111589919D01*
X157799500Y-114592035D01*
X157790855Y-114621475D01*
X157784332Y-114651462D01*
X157780577Y-114656477D01*
X157779815Y-114659074D01*
X157763181Y-114679716D01*
X157699716Y-114743181D01*
X157638393Y-114776666D01*
X157612035Y-114779500D01*
X146798173Y-114779500D01*
X146731134Y-114759815D01*
X146685379Y-114707011D01*
X146675435Y-114637853D01*
X146682359Y-114611193D01*
X146818398Y-114255596D01*
X146987808Y-113812771D01*
X146993127Y-113800806D01*
X147041397Y-113706074D01*
X147098097Y-113531569D01*
X147100660Y-113515382D01*
X147100791Y-113514931D01*
X147102305Y-113509395D01*
X147102458Y-113504030D01*
X147108627Y-113465080D01*
X147138555Y-113401948D01*
X147197867Y-113365017D01*
X147267729Y-113366015D01*
X147325962Y-113404625D01*
X147353572Y-113465082D01*
X147364103Y-113531570D01*
X147376287Y-113569067D01*
X147420803Y-113706074D01*
X147504104Y-113869560D01*
X147611954Y-114018003D01*
X147741697Y-114147746D01*
X147890140Y-114255596D01*
X148053626Y-114338897D01*
X148186134Y-114381951D01*
X148228130Y-114395597D01*
X148409352Y-114424300D01*
X148409357Y-114424300D01*
X148592848Y-114424300D01*
X148774069Y-114395597D01*
X148807397Y-114384768D01*
X148948574Y-114338897D01*
X149112060Y-114255596D01*
X149260503Y-114147746D01*
X149390246Y-114018003D01*
X149498096Y-113869560D01*
X149581397Y-113706074D01*
X149638097Y-113531569D01*
X149648627Y-113465086D01*
X149678556Y-113401951D01*
X149737868Y-113365020D01*
X149807730Y-113366018D01*
X149865963Y-113404628D01*
X149893573Y-113465086D01*
X149900591Y-113509395D01*
X149904103Y-113531569D01*
X149960803Y-113706074D01*
X150044104Y-113869560D01*
X150151954Y-114018003D01*
X150281697Y-114147746D01*
X150430140Y-114255596D01*
X150593626Y-114338897D01*
X150726134Y-114381951D01*
X150768130Y-114395597D01*
X150949352Y-114424300D01*
X150949357Y-114424300D01*
X151132848Y-114424300D01*
X151314069Y-114395597D01*
X151347397Y-114384768D01*
X151488574Y-114338897D01*
X151652060Y-114255596D01*
X151800503Y-114147746D01*
X151930246Y-114018003D01*
X152038096Y-113869560D01*
X152121397Y-113706074D01*
X152167145Y-113565274D01*
X152206582Y-113507599D01*
X152270941Y-113480401D01*
X152339787Y-113492316D01*
X152391263Y-113539560D01*
X152403007Y-113565274D01*
X152454931Y-113725079D01*
X152541768Y-113895505D01*
X152541774Y-113895514D01*
X152636721Y-114026199D01*
X152636723Y-114026200D01*
X153150370Y-113512553D01*
X153181001Y-113565607D01*
X153274093Y-113658699D01*
X153327145Y-113689329D01*
X152813498Y-114202975D01*
X152944191Y-114297929D01*
X152944194Y-114297931D01*
X153114620Y-114384768D01*
X153296539Y-114443878D01*
X153485457Y-114473800D01*
X153676743Y-114473800D01*
X153865660Y-114443878D01*
X154047579Y-114384768D01*
X154218004Y-114297932D01*
X154348699Y-114202975D01*
X154348700Y-114202975D01*
X153835053Y-113689329D01*
X153888107Y-113658699D01*
X153981199Y-113565607D01*
X154011829Y-113512554D01*
X154525475Y-114026200D01*
X154525475Y-114026199D01*
X154620432Y-113895504D01*
X154707269Y-113725076D01*
X154713469Y-113705996D01*
X154752906Y-113648320D01*
X154817264Y-113621121D01*
X154886111Y-113633035D01*
X154937587Y-113680279D01*
X154955400Y-113744313D01*
X154955400Y-114243552D01*
X154967031Y-114302029D01*
X154967032Y-114302030D01*
X155011347Y-114368352D01*
X155077669Y-114412667D01*
X155077670Y-114412668D01*
X155136147Y-114424299D01*
X155136150Y-114424300D01*
X155136152Y-114424300D01*
X157106050Y-114424300D01*
X157106051Y-114424299D01*
X157120868Y-114421352D01*
X157164529Y-114412668D01*
X157164529Y-114412667D01*
X157164531Y-114412667D01*
X157230852Y-114368352D01*
X157275167Y-114302031D01*
X157275167Y-114302029D01*
X157275168Y-114302029D01*
X157283852Y-114258368D01*
X157286800Y-114243548D01*
X157286800Y-112273652D01*
X157286800Y-112273649D01*
X157286799Y-112273647D01*
X157275168Y-112215170D01*
X157275167Y-112215169D01*
X157230852Y-112148847D01*
X157164530Y-112104532D01*
X157164529Y-112104531D01*
X157106052Y-112092900D01*
X157106048Y-112092900D01*
X155136152Y-112092900D01*
X155136147Y-112092900D01*
X155077670Y-112104531D01*
X155077669Y-112104532D01*
X155011347Y-112148847D01*
X154967032Y-112215169D01*
X154967031Y-112215170D01*
X154955400Y-112273647D01*
X154955400Y-112772886D01*
X154935715Y-112839925D01*
X154882911Y-112885680D01*
X154813753Y-112895624D01*
X154750197Y-112866599D01*
X154713469Y-112811205D01*
X154707268Y-112792120D01*
X154620431Y-112621694D01*
X154620429Y-112621691D01*
X154525475Y-112490999D01*
X154525475Y-112490998D01*
X154011828Y-113004645D01*
X153981199Y-112951593D01*
X153888107Y-112858501D01*
X153835053Y-112827870D01*
X154348700Y-112314223D01*
X154348699Y-112314221D01*
X154218014Y-112219274D01*
X154218005Y-112219268D01*
X154047579Y-112132431D01*
X153865660Y-112073321D01*
X153676743Y-112043400D01*
X153485457Y-112043400D01*
X153296539Y-112073321D01*
X153114620Y-112132431D01*
X152944192Y-112219269D01*
X152813499Y-112314222D01*
X152813499Y-112314224D01*
X153327146Y-112827870D01*
X153274093Y-112858501D01*
X153181001Y-112951593D01*
X153150370Y-113004645D01*
X152636724Y-112490999D01*
X152636722Y-112490999D01*
X152541769Y-112621692D01*
X152454931Y-112792120D01*
X152403007Y-112951925D01*
X152363569Y-113009600D01*
X152299210Y-113036798D01*
X152230364Y-113024883D01*
X152178888Y-112977638D01*
X152167145Y-112951924D01*
X152165154Y-112945796D01*
X152121397Y-112811126D01*
X152038096Y-112647640D01*
X151930246Y-112499197D01*
X151800503Y-112369454D01*
X151652060Y-112261604D01*
X151488574Y-112178303D01*
X151431954Y-112159906D01*
X151314069Y-112121602D01*
X151132848Y-112092900D01*
X151132843Y-112092900D01*
X150949357Y-112092900D01*
X150949352Y-112092900D01*
X150768130Y-112121602D01*
X150593623Y-112178304D01*
X150430139Y-112261604D01*
X150281694Y-112369456D01*
X150151956Y-112499194D01*
X150044104Y-112647639D01*
X149960804Y-112811123D01*
X149904102Y-112985630D01*
X149893573Y-113052113D01*
X149863644Y-113115248D01*
X149804332Y-113152179D01*
X149734470Y-113151181D01*
X149676237Y-113112571D01*
X149648627Y-113052113D01*
X149638097Y-112985630D01*
X149624451Y-112943634D01*
X149581397Y-112811126D01*
X149498096Y-112647640D01*
X149390246Y-112499197D01*
X149260503Y-112369454D01*
X149112060Y-112261604D01*
X148948574Y-112178303D01*
X148891954Y-112159906D01*
X148774069Y-112121602D01*
X148592848Y-112092900D01*
X148592843Y-112092900D01*
X148409357Y-112092900D01*
X148409352Y-112092900D01*
X148228130Y-112121602D01*
X148053623Y-112178304D01*
X147890139Y-112261604D01*
X147741694Y-112369456D01*
X147611956Y-112499194D01*
X147504104Y-112647639D01*
X147420804Y-112811123D01*
X147364102Y-112985630D01*
X147353573Y-113052113D01*
X147323644Y-113115248D01*
X147264332Y-113152179D01*
X147194470Y-113151181D01*
X147136237Y-113112571D01*
X147108627Y-113052113D01*
X147098097Y-112985630D01*
X147084451Y-112943634D01*
X147041397Y-112811126D01*
X146958096Y-112647640D01*
X146850246Y-112499197D01*
X146720503Y-112369454D01*
X146572060Y-112261604D01*
X146408574Y-112178303D01*
X146351954Y-112159906D01*
X146234069Y-112121602D01*
X146052848Y-112092900D01*
X146052843Y-112092900D01*
X145869357Y-112092900D01*
X145869352Y-112092900D01*
X145688130Y-112121602D01*
X145513623Y-112178304D01*
X145350139Y-112261604D01*
X145201694Y-112369456D01*
X145071956Y-112499194D01*
X144964104Y-112647639D01*
X144880804Y-112811123D01*
X144824102Y-112985630D01*
X144813573Y-113052113D01*
X144783644Y-113115248D01*
X144724332Y-113152179D01*
X144654470Y-113151181D01*
X144596237Y-113112571D01*
X144568627Y-113052113D01*
X144558097Y-112985630D01*
X144544451Y-112943634D01*
X144501397Y-112811126D01*
X144418096Y-112647640D01*
X144415917Y-112644641D01*
X144390877Y-112610175D01*
X144390877Y-112610176D01*
X144385699Y-112603049D01*
X144374952Y-112582729D01*
X144337334Y-112536481D01*
X144310246Y-112499197D01*
X144297393Y-112486344D01*
X144288878Y-112476908D01*
X144201476Y-112369454D01*
X144031032Y-112159906D01*
X144000417Y-112132431D01*
X143983350Y-112117114D01*
X143983339Y-112117105D01*
X143977299Y-112113192D01*
X143977295Y-112113190D01*
X143977292Y-112113188D01*
X143957823Y-112104533D01*
X143918752Y-112087164D01*
X143918733Y-112087157D01*
X143863307Y-112072307D01*
X143833399Y-112059919D01*
X143771596Y-112024237D01*
X143745915Y-112004531D01*
X143695465Y-111954081D01*
X143675759Y-111928400D01*
X143640906Y-111868033D01*
X143640076Y-111866595D01*
X143627690Y-111836690D01*
X143609225Y-111767772D01*
X143605000Y-111735681D01*
X143605000Y-111713315D01*
X143605000Y-111713313D01*
X143593139Y-111644508D01*
X143590516Y-111637126D01*
X143590514Y-111637122D01*
X143556303Y-111576265D01*
X143556300Y-111576261D01*
X143556299Y-111576259D01*
X143518527Y-111529821D01*
X143428304Y-111418898D01*
X143401272Y-111354469D01*
X143400500Y-111340653D01*
X143400500Y-105816191D01*
X150619500Y-105816191D01*
X150619500Y-105934809D01*
X150628080Y-105966831D01*
X150628936Y-105979660D01*
X150628939Y-105979702D01*
X150629609Y-105989730D01*
X150740236Y-106400609D01*
X150744500Y-106432846D01*
X150744500Y-106532653D01*
X150740235Y-106564891D01*
X150630112Y-106973907D01*
X150629606Y-106975785D01*
X150627984Y-106982215D01*
X150627825Y-106982892D01*
X150627824Y-106982899D01*
X150627768Y-106985814D01*
X150623567Y-107015509D01*
X150619500Y-107030686D01*
X150619500Y-107030691D01*
X150619500Y-107149309D01*
X150650201Y-107263886D01*
X150709511Y-107366613D01*
X150793387Y-107450489D01*
X150896114Y-107509799D01*
X151010691Y-107540500D01*
X151010694Y-107540500D01*
X151129306Y-107540500D01*
X151129309Y-107540500D01*
X151243886Y-107509799D01*
X151346613Y-107450489D01*
X151421732Y-107375370D01*
X157669991Y-107375370D01*
X157669991Y-107533484D01*
X157696331Y-107631784D01*
X157710914Y-107686210D01*
X157710917Y-107686217D01*
X157789966Y-107823136D01*
X157789970Y-107823141D01*
X157789971Y-107823143D01*
X157901775Y-107934947D01*
X157901777Y-107934948D01*
X157901781Y-107934951D01*
X157990990Y-107986455D01*
X158038707Y-108014004D01*
X158191434Y-108054927D01*
X158191436Y-108054927D01*
X158349546Y-108054927D01*
X158349548Y-108054927D01*
X158502275Y-108014004D01*
X158549991Y-107986455D01*
X158563766Y-107978502D01*
X158592687Y-107966382D01*
X158594351Y-107965922D01*
X159095238Y-107713744D01*
X159150999Y-107700500D01*
X159853155Y-107700500D01*
X159900120Y-107709738D01*
X160177232Y-107823144D01*
X160442285Y-107931615D01*
X160490716Y-107959577D01*
X160548334Y-107975015D01*
X160553525Y-107977140D01*
X160571799Y-107983629D01*
X160573308Y-107984086D01*
X160573905Y-107984267D01*
X160573916Y-107984270D01*
X160573919Y-107984271D01*
X160581674Y-107986455D01*
X160581682Y-107986455D01*
X160589160Y-107987605D01*
X160589099Y-107987997D01*
X160606141Y-107990504D01*
X160643443Y-108000500D01*
X160643445Y-108000500D01*
X160801555Y-108000500D01*
X160801557Y-108000500D01*
X160954284Y-107959577D01*
X161091216Y-107880520D01*
X161203020Y-107768716D01*
X161282077Y-107631784D01*
X161323000Y-107479057D01*
X161323000Y-107320943D01*
X161282077Y-107168216D01*
X161271161Y-107149309D01*
X161203024Y-107031290D01*
X161203018Y-107031282D01*
X161091217Y-106919481D01*
X161091209Y-106919475D01*
X160954290Y-106840426D01*
X160954286Y-106840424D01*
X160954284Y-106840423D01*
X160801557Y-106799500D01*
X160643443Y-106799500D01*
X160643439Y-106799500D01*
X160567693Y-106819795D01*
X160567694Y-106819796D01*
X160563517Y-106820914D01*
X160553525Y-106822859D01*
X160548330Y-106824984D01*
X160540734Y-106827020D01*
X160540732Y-106827019D01*
X160490715Y-106840423D01*
X160467325Y-106853927D01*
X160449559Y-106864183D01*
X160434530Y-106871556D01*
X159900116Y-107090262D01*
X159853150Y-107099500D01*
X159131245Y-107099500D01*
X159092063Y-107093147D01*
X158521860Y-106903243D01*
X158521860Y-106903242D01*
X158509929Y-106899268D01*
X158502275Y-106894850D01*
X158473543Y-106887151D01*
X158470023Y-106885979D01*
X158470013Y-106885976D01*
X158426009Y-106871320D01*
X158413964Y-106867715D01*
X158412515Y-106867329D01*
X158411495Y-106867061D01*
X158411298Y-106867055D01*
X158382995Y-106862888D01*
X158349553Y-106853927D01*
X158349548Y-106853927D01*
X158191434Y-106853927D01*
X158038707Y-106894850D01*
X158038700Y-106894853D01*
X157901781Y-106973902D01*
X157901773Y-106973908D01*
X157789972Y-107085709D01*
X157789966Y-107085717D01*
X157710917Y-107222636D01*
X157710914Y-107222643D01*
X157669991Y-107375370D01*
X151421732Y-107375370D01*
X151430489Y-107366613D01*
X151456857Y-107320943D01*
X151465923Y-107305242D01*
X151489797Y-107263889D01*
X151489798Y-107263887D01*
X151489799Y-107263886D01*
X151520500Y-107149309D01*
X151520500Y-107030691D01*
X151520500Y-107030689D01*
X151520499Y-107030687D01*
X151515061Y-107010393D01*
X151511109Y-106986550D01*
X151511060Y-106985814D01*
X151510390Y-106975770D01*
X151399763Y-106564890D01*
X151395500Y-106532654D01*
X151395500Y-106432846D01*
X151399764Y-106400608D01*
X151510394Y-105989715D01*
X151511986Y-105983402D01*
X151511994Y-105983370D01*
X151512162Y-105982656D01*
X151512218Y-105979731D01*
X151516421Y-105950030D01*
X151520500Y-105934809D01*
X151520500Y-105816191D01*
X151489799Y-105701614D01*
X151430489Y-105598887D01*
X151346613Y-105515011D01*
X151243886Y-105455701D01*
X151129309Y-105425000D01*
X151010691Y-105425000D01*
X150896114Y-105455701D01*
X150896112Y-105455701D01*
X150896112Y-105455702D01*
X150793387Y-105515011D01*
X150793384Y-105515013D01*
X150709513Y-105598884D01*
X150709511Y-105598887D01*
X150650201Y-105701614D01*
X150619500Y-105816191D01*
X143400500Y-105816191D01*
X143400500Y-100474500D01*
X143420185Y-100407461D01*
X143472989Y-100361706D01*
X143524500Y-100350500D01*
X147633306Y-100350500D01*
X147633309Y-100350500D01*
X147747886Y-100319799D01*
X147850613Y-100260489D01*
X147934489Y-100176613D01*
X147993799Y-100073886D01*
X148024500Y-99959309D01*
X148024500Y-99840691D01*
X147993799Y-99726114D01*
X147934489Y-99623387D01*
X147850613Y-99539511D01*
X147747886Y-99480201D01*
X147633309Y-99449500D01*
X147534309Y-99449500D01*
X143140691Y-99449500D01*
X143071944Y-99467920D01*
X143026112Y-99480201D01*
X143026107Y-99480204D01*
X142982695Y-99505267D01*
X142982696Y-99505268D01*
X142923389Y-99539508D01*
X142923383Y-99539513D01*
X142589513Y-99873383D01*
X142589509Y-99873389D01*
X142530201Y-99976112D01*
X142530200Y-99976117D01*
X142499500Y-100090691D01*
X142499500Y-111412342D01*
X142496013Y-111441542D01*
X142495079Y-111445392D01*
X142271716Y-113036202D01*
X142242902Y-113099853D01*
X142184249Y-113137821D01*
X142114379Y-113138052D01*
X142055477Y-113100472D01*
X142026448Y-113038357D01*
X142018097Y-112985630D01*
X142004451Y-112943634D01*
X141961397Y-112811126D01*
X141878096Y-112647640D01*
X141770246Y-112499197D01*
X141640503Y-112369454D01*
X141492060Y-112261604D01*
X141328574Y-112178303D01*
X141271954Y-112159906D01*
X141154069Y-112121602D01*
X140972848Y-112092900D01*
X140972843Y-112092900D01*
X140789357Y-112092900D01*
X140789352Y-112092900D01*
X140608130Y-112121602D01*
X140433623Y-112178304D01*
X140270139Y-112261604D01*
X140121694Y-112369456D01*
X139991956Y-112499194D01*
X139884104Y-112647639D01*
X139800804Y-112811123D01*
X139744102Y-112985630D01*
X139715400Y-113166851D01*
X139715400Y-113350348D01*
X139744102Y-113531569D01*
X139769576Y-113609968D01*
X139800803Y-113706074D01*
X139884104Y-113869560D01*
X139991954Y-114018003D01*
X140121697Y-114147746D01*
X140270140Y-114255596D01*
X140433626Y-114338897D01*
X140566134Y-114381951D01*
X140608130Y-114395597D01*
X140789352Y-114424300D01*
X140789357Y-114424300D01*
X140972848Y-114424300D01*
X141154069Y-114395597D01*
X141187397Y-114384768D01*
X141328574Y-114338897D01*
X141492060Y-114255596D01*
X141640503Y-114147746D01*
X141770246Y-114018003D01*
X141878096Y-113869560D01*
X141961397Y-113706074D01*
X142018097Y-113531569D01*
X142028627Y-113465086D01*
X142058556Y-113401951D01*
X142117868Y-113365020D01*
X142187730Y-113366018D01*
X142245963Y-113404628D01*
X142273573Y-113465086D01*
X142280591Y-113509395D01*
X142284103Y-113531569D01*
X142340803Y-113706074D01*
X142424104Y-113869560D01*
X142531954Y-114018003D01*
X142661697Y-114147746D01*
X142810140Y-114255596D01*
X142973626Y-114338897D01*
X143106134Y-114381951D01*
X143148130Y-114395597D01*
X143329352Y-114424300D01*
X143329357Y-114424300D01*
X143512848Y-114424300D01*
X143694069Y-114395597D01*
X143727397Y-114384768D01*
X143868574Y-114338897D01*
X144032060Y-114255596D01*
X144180503Y-114147746D01*
X144310246Y-114018003D01*
X144418096Y-113869560D01*
X144501397Y-113706074D01*
X144558097Y-113531569D01*
X144568627Y-113465086D01*
X144598556Y-113401951D01*
X144657868Y-113365020D01*
X144727730Y-113366018D01*
X144785963Y-113404628D01*
X144813573Y-113465086D01*
X144824103Y-113531569D01*
X144880804Y-113706076D01*
X144964104Y-113869560D01*
X144969903Y-113877542D01*
X144982084Y-113901176D01*
X144983081Y-113900730D01*
X144985572Y-113906289D01*
X144985573Y-113906291D01*
X144985575Y-113906296D01*
X145484819Y-114779500D01*
X145494248Y-114795992D01*
X145510600Y-114857538D01*
X145510600Y-114930410D01*
X145533405Y-115015522D01*
X145541299Y-115044983D01*
X145541300Y-115044986D01*
X145541301Y-115044987D01*
X145600611Y-115147714D01*
X145829876Y-115376979D01*
X145837048Y-115385653D01*
X145842219Y-115389322D01*
X146014316Y-115561419D01*
X146047801Y-115622742D01*
X146042817Y-115692434D01*
X146000945Y-115748367D01*
X145935481Y-115772784D01*
X145926635Y-115773100D01*
X135804851Y-115773100D01*
X135797364Y-115772874D01*
X135505497Y-115755218D01*
X135490632Y-115753413D01*
X135206712Y-115701383D01*
X135192174Y-115697799D01*
X134916613Y-115611931D01*
X134902612Y-115606622D01*
X134639392Y-115488156D01*
X134626133Y-115481197D01*
X134453734Y-115376979D01*
X134379116Y-115331871D01*
X134366796Y-115323367D01*
X134139579Y-115145353D01*
X134128371Y-115135423D01*
X133924276Y-114931328D01*
X133914346Y-114920120D01*
X133890206Y-114889308D01*
X133736328Y-114692897D01*
X133727830Y-114680586D01*
X133578501Y-114433565D01*
X133571543Y-114420307D01*
X133516465Y-114297929D01*
X133453075Y-114157082D01*
X133447768Y-114143086D01*
X133424381Y-114068035D01*
X133361899Y-113867524D01*
X133358316Y-113852987D01*
X133350948Y-113812783D01*
X133306285Y-113569066D01*
X133304481Y-113554202D01*
X133302105Y-113514931D01*
X133286826Y-113262336D01*
X133286600Y-113254849D01*
X133286600Y-113140502D01*
X134300600Y-113140502D01*
X134300600Y-113376697D01*
X134337546Y-113609968D01*
X134410533Y-113834596D01*
X134508161Y-114026199D01*
X134517757Y-114045033D01*
X134656583Y-114236110D01*
X134823590Y-114403117D01*
X135014667Y-114541943D01*
X135112978Y-114592035D01*
X135225103Y-114649166D01*
X135225105Y-114649166D01*
X135225108Y-114649168D01*
X135345512Y-114688289D01*
X135449731Y-114722153D01*
X135683003Y-114759100D01*
X135683008Y-114759100D01*
X135919197Y-114759100D01*
X136152468Y-114722153D01*
X136199070Y-114707011D01*
X136377092Y-114649168D01*
X136587533Y-114541943D01*
X136778610Y-114403117D01*
X136945617Y-114236110D01*
X137084443Y-114045033D01*
X137191668Y-113834592D01*
X137264653Y-113609968D01*
X137273485Y-113554203D01*
X137301600Y-113376697D01*
X137301600Y-113140502D01*
X137264653Y-112907231D01*
X137191666Y-112682603D01*
X137135102Y-112571591D01*
X137084443Y-112472167D01*
X136945617Y-112281090D01*
X136778610Y-112114083D01*
X136587533Y-111975257D01*
X136545973Y-111954081D01*
X136377096Y-111868033D01*
X136152468Y-111795046D01*
X135919197Y-111758100D01*
X135919192Y-111758100D01*
X135683008Y-111758100D01*
X135683003Y-111758100D01*
X135449731Y-111795046D01*
X135225103Y-111868033D01*
X135014666Y-111975257D01*
X134958483Y-112016077D01*
X134823590Y-112114083D01*
X134823588Y-112114085D01*
X134823587Y-112114085D01*
X134656585Y-112281087D01*
X134656585Y-112281088D01*
X134656583Y-112281090D01*
X134632510Y-112314224D01*
X134517757Y-112472166D01*
X134410533Y-112682603D01*
X134337546Y-112907231D01*
X134300600Y-113140502D01*
X133286600Y-113140502D01*
X133286600Y-97937375D01*
X134789100Y-97937375D01*
X134789100Y-98805228D01*
X134803603Y-98878140D01*
X134803605Y-98878144D01*
X134858860Y-98960839D01*
X134941555Y-99016094D01*
X134941559Y-99016096D01*
X135014471Y-99030599D01*
X135014474Y-99030600D01*
X136587726Y-99030600D01*
X136587728Y-99030599D01*
X136660640Y-99016096D01*
X136660644Y-99016094D01*
X136743339Y-98960839D01*
X136798594Y-98878144D01*
X136798596Y-98878140D01*
X136813099Y-98805228D01*
X136813100Y-98805226D01*
X136813100Y-97937376D01*
X136813099Y-97937375D01*
X139869100Y-97937375D01*
X139869100Y-98805228D01*
X139883603Y-98878140D01*
X139883605Y-98878144D01*
X139938860Y-98960839D01*
X140021555Y-99016094D01*
X140021559Y-99016096D01*
X140094471Y-99030599D01*
X140094474Y-99030600D01*
X141667726Y-99030600D01*
X141667728Y-99030599D01*
X141740640Y-99016096D01*
X141740644Y-99016094D01*
X141823339Y-98960839D01*
X141878594Y-98878144D01*
X141878596Y-98878140D01*
X141893099Y-98805228D01*
X141893100Y-98805226D01*
X141893100Y-97937376D01*
X141893099Y-97937375D01*
X144949100Y-97937375D01*
X144949100Y-98805228D01*
X144963603Y-98878140D01*
X144963605Y-98878144D01*
X145018860Y-98960839D01*
X145101555Y-99016094D01*
X145101559Y-99016096D01*
X145174471Y-99030599D01*
X145174474Y-99030600D01*
X146747726Y-99030600D01*
X146747728Y-99030599D01*
X146820640Y-99016096D01*
X146820644Y-99016094D01*
X146903339Y-98960839D01*
X146958594Y-98878144D01*
X146958596Y-98878140D01*
X146973099Y-98805228D01*
X146973100Y-98805226D01*
X146973100Y-97937376D01*
X146973099Y-97937375D01*
X150029100Y-97937375D01*
X150029100Y-98805228D01*
X150043603Y-98878140D01*
X150043605Y-98878144D01*
X150098860Y-98960839D01*
X150181555Y-99016094D01*
X150181559Y-99016096D01*
X150254471Y-99030599D01*
X150254474Y-99030600D01*
X151827726Y-99030600D01*
X151827728Y-99030599D01*
X151900640Y-99016096D01*
X151900644Y-99016094D01*
X151983339Y-98960839D01*
X152038594Y-98878144D01*
X152038596Y-98878140D01*
X152053099Y-98805228D01*
X152053100Y-98805226D01*
X152053100Y-97937376D01*
X152053099Y-97937375D01*
X155109100Y-97937375D01*
X155109100Y-98805228D01*
X155123603Y-98878140D01*
X155123605Y-98878144D01*
X155178860Y-98960839D01*
X155261555Y-99016094D01*
X155261559Y-99016096D01*
X155334471Y-99030599D01*
X155334474Y-99030600D01*
X156907726Y-99030600D01*
X156907728Y-99030599D01*
X156980640Y-99016096D01*
X156980644Y-99016094D01*
X157063339Y-98960839D01*
X157118594Y-98878144D01*
X157118596Y-98878140D01*
X157133099Y-98805228D01*
X157133100Y-98805226D01*
X157133100Y-97937376D01*
X157133099Y-97937375D01*
X160189100Y-97937375D01*
X160189100Y-98805228D01*
X160203603Y-98878140D01*
X160203605Y-98878144D01*
X160258860Y-98960839D01*
X160341555Y-99016094D01*
X160341559Y-99016096D01*
X160414471Y-99030599D01*
X160414474Y-99030600D01*
X161987726Y-99030600D01*
X161987728Y-99030599D01*
X162060640Y-99016096D01*
X162060644Y-99016094D01*
X162143339Y-98960839D01*
X162198594Y-98878144D01*
X162198596Y-98878140D01*
X162213099Y-98805228D01*
X162213100Y-98805226D01*
X162213100Y-97937376D01*
X161201100Y-96925376D01*
X160189100Y-97937375D01*
X157133099Y-97937375D01*
X156121100Y-96925376D01*
X155109100Y-97937375D01*
X152053099Y-97937375D01*
X151041100Y-96925376D01*
X150029100Y-97937375D01*
X146973099Y-97937375D01*
X145961100Y-96925376D01*
X144949100Y-97937375D01*
X141893099Y-97937375D01*
X140881100Y-96925376D01*
X139869100Y-97937375D01*
X136813099Y-97937375D01*
X135801100Y-96925376D01*
X134789100Y-97937375D01*
X133286600Y-97937375D01*
X133286600Y-97583824D01*
X134789100Y-97583824D01*
X135624324Y-96748600D01*
X135624324Y-96748599D01*
X135977876Y-96748599D01*
X135977876Y-96748600D01*
X136813099Y-97583824D01*
X139869100Y-97583824D01*
X140704324Y-96748600D01*
X140704324Y-96748599D01*
X141057876Y-96748599D01*
X141057876Y-96748600D01*
X141893099Y-97583824D01*
X144949100Y-97583824D01*
X145784324Y-96748600D01*
X145784324Y-96748599D01*
X146137876Y-96748599D01*
X146137876Y-96748600D01*
X146973099Y-97583824D01*
X150029100Y-97583824D01*
X150864324Y-96748600D01*
X150864324Y-96748599D01*
X151217876Y-96748599D01*
X151217876Y-96748600D01*
X152053099Y-97583824D01*
X155109100Y-97583824D01*
X155944324Y-96748600D01*
X155944324Y-96748599D01*
X156297876Y-96748599D01*
X156297876Y-96748600D01*
X157133099Y-97583824D01*
X160189100Y-97583824D01*
X161024324Y-96748600D01*
X161024324Y-96748599D01*
X161377876Y-96748599D01*
X161377876Y-96748600D01*
X162213099Y-97583824D01*
X162213100Y-97583823D01*
X162213100Y-95913376D01*
X162213099Y-95913375D01*
X161377876Y-96748599D01*
X161024324Y-96748599D01*
X160189100Y-95913375D01*
X160189100Y-97583824D01*
X157133099Y-97583824D01*
X157133100Y-97583823D01*
X157133100Y-95913376D01*
X157133099Y-95913375D01*
X156297876Y-96748599D01*
X155944324Y-96748599D01*
X155109100Y-95913375D01*
X155109100Y-97583824D01*
X152053099Y-97583824D01*
X152053100Y-97583823D01*
X152053100Y-95913376D01*
X152053099Y-95913375D01*
X151217876Y-96748599D01*
X150864324Y-96748599D01*
X150029100Y-95913375D01*
X150029100Y-97583824D01*
X146973099Y-97583824D01*
X146973100Y-97583823D01*
X146973100Y-95913376D01*
X146973099Y-95913375D01*
X146137876Y-96748599D01*
X145784324Y-96748599D01*
X144949100Y-95913375D01*
X144949100Y-97583824D01*
X141893099Y-97583824D01*
X141893100Y-97583823D01*
X141893100Y-95913376D01*
X141893099Y-95913375D01*
X141057876Y-96748599D01*
X140704324Y-96748599D01*
X139869100Y-95913375D01*
X139869100Y-97583824D01*
X136813099Y-97583824D01*
X136813100Y-97583823D01*
X136813100Y-95913376D01*
X136813099Y-95913375D01*
X135977876Y-96748599D01*
X135624324Y-96748599D01*
X134789100Y-95913375D01*
X134789100Y-97583824D01*
X133286600Y-97583824D01*
X133286600Y-96752350D01*
X133286826Y-96744863D01*
X133304481Y-96452997D01*
X133306286Y-96438132D01*
X133358316Y-96154212D01*
X133361900Y-96139674D01*
X133447771Y-95864103D01*
X133453073Y-95850122D01*
X133571546Y-95586885D01*
X133578497Y-95573640D01*
X133727835Y-95326605D01*
X133736322Y-95314309D01*
X133914353Y-95087070D01*
X133924268Y-95075879D01*
X134128379Y-94871768D01*
X134139570Y-94861853D01*
X134366809Y-94683822D01*
X134379105Y-94675335D01*
X134608281Y-94536794D01*
X134675834Y-94518959D01*
X134742308Y-94540477D01*
X134786595Y-94594517D01*
X134794636Y-94663923D01*
X134794047Y-94667100D01*
X134789100Y-94691973D01*
X134789100Y-95559824D01*
X135801100Y-96571824D01*
X136813099Y-95559824D01*
X136813100Y-95559823D01*
X136813100Y-94691973D01*
X136813099Y-94691971D01*
X136798596Y-94619059D01*
X136798594Y-94619055D01*
X136743339Y-94536360D01*
X136660644Y-94481105D01*
X136660640Y-94481103D01*
X136653671Y-94479717D01*
X136591760Y-94447332D01*
X136557186Y-94386617D01*
X136560925Y-94316847D01*
X136601792Y-94260175D01*
X136666810Y-94234594D01*
X136677862Y-94234100D01*
X140004338Y-94234100D01*
X140071377Y-94253785D01*
G37*
%TD.AperFunction*%
%TD*%
%TA.AperFunction,Conductor*%
%TO.N,+3.3V*%
G36*
X160640313Y-107013087D02*
G01*
X160646618Y-107019446D01*
X160647260Y-107021566D01*
X160723034Y-107397689D01*
X160723034Y-107402311D01*
X160647260Y-107778433D01*
X160642266Y-107785866D01*
X160633479Y-107787592D01*
X160631359Y-107786950D01*
X159937455Y-107502974D01*
X159931096Y-107496669D01*
X159930186Y-107492146D01*
X159930186Y-107307853D01*
X159933613Y-107299580D01*
X159937454Y-107297025D01*
X160631359Y-107013049D01*
X160640313Y-107013087D01*
G37*
%TD.AperFunction*%
%TD*%
%TA.AperFunction,Conductor*%
%TO.N,+3.3V*%
G36*
X158361080Y-107066294D02*
G01*
X158573338Y-107136985D01*
X159054803Y-107297335D01*
X159061568Y-107303200D01*
X159062805Y-107308435D01*
X159062805Y-107492791D01*
X159059378Y-107501064D01*
X159056366Y-107503241D01*
X158501941Y-107782372D01*
X158493011Y-107783032D01*
X158486965Y-107778442D01*
X158272209Y-107458476D01*
X158270444Y-107449697D01*
X158270454Y-107449645D01*
X158345914Y-107075082D01*
X158350907Y-107067651D01*
X158359694Y-107065925D01*
X158361080Y-107066294D01*
G37*
%TD.AperFunction*%
%TD*%
%TA.AperFunction,Conductor*%
%TO.N,CLK1*%
G36*
X143202707Y-111467313D02*
G01*
X143203511Y-111468203D01*
X143396877Y-111705931D01*
X143399500Y-111713313D01*
X143399500Y-111779059D01*
X143440421Y-111931781D01*
X143440423Y-111931784D01*
X143519480Y-112068716D01*
X143631284Y-112180520D01*
X143768216Y-112259577D01*
X143768218Y-112259578D01*
X143816816Y-112272599D01*
X143865562Y-112285660D01*
X143871610Y-112289578D01*
X144215530Y-112712401D01*
X144218092Y-112720982D01*
X144213836Y-112728861D01*
X144212962Y-112729507D01*
X143425137Y-113256897D01*
X143416355Y-113258651D01*
X143416334Y-113258647D01*
X142485273Y-113072464D01*
X142477832Y-113067481D01*
X142475981Y-113059364D01*
X142698586Y-111473959D01*
X142703130Y-111466243D01*
X142710172Y-111463886D01*
X143194434Y-111463886D01*
X143202707Y-111467313D01*
G37*
%TD.AperFunction*%
%TD*%
%TA.AperFunction,Conductor*%
%TO.N,CLK2*%
G36*
X158630869Y-110815730D02*
G01*
X158638302Y-110820724D01*
X158640032Y-110829486D01*
X158501876Y-111522900D01*
X158496899Y-111530344D01*
X158490402Y-111532314D01*
X158009598Y-111532314D01*
X158001325Y-111528887D01*
X157998124Y-111522900D01*
X157859967Y-110829486D01*
X157861711Y-110820703D01*
X157869128Y-110815730D01*
X158247692Y-110739465D01*
X158252308Y-110739465D01*
X158630869Y-110815730D01*
G37*
%TD.AperFunction*%
%TD*%
%TA.AperFunction,Conductor*%
%TO.N,CLK2*%
G36*
X146894163Y-113444189D02*
G01*
X146901606Y-113449168D01*
X146903348Y-113457952D01*
X146902802Y-113459844D01*
X146350441Y-114903670D01*
X146347786Y-114907762D01*
X146006826Y-115248722D01*
X145998553Y-115252149D01*
X145990280Y-115248722D01*
X145988398Y-115246259D01*
X145163975Y-113804298D01*
X145162845Y-113795416D01*
X145167621Y-113788771D01*
X145956358Y-113260594D01*
X145965136Y-113258839D01*
X146894163Y-113444189D01*
G37*
%TD.AperFunction*%
%TD*%
%TA.AperFunction,Conductor*%
%TO.N,+3.3V*%
G36*
X151194306Y-106598231D02*
G01*
X151197331Y-106603462D01*
X151311957Y-107029197D01*
X151310799Y-107038077D01*
X151303701Y-107043537D01*
X151302987Y-107043705D01*
X151072328Y-107090527D01*
X151067672Y-107090527D01*
X150837012Y-107043705D01*
X150829586Y-107038701D01*
X150827874Y-107029911D01*
X150828035Y-107029226D01*
X150942669Y-106603462D01*
X150948129Y-106596364D01*
X150953967Y-106594804D01*
X151186033Y-106594804D01*
X151194306Y-106598231D01*
G37*
%TD.AperFunction*%
%TD*%
%TA.AperFunction,Conductor*%
%TO.N,+3.3V*%
G36*
X151302988Y-105921794D02*
G01*
X151310413Y-105926798D01*
X151312125Y-105935588D01*
X151311957Y-105936302D01*
X151197331Y-106362038D01*
X151191871Y-106369136D01*
X151186033Y-106370696D01*
X150953967Y-106370696D01*
X150945694Y-106367269D01*
X150942669Y-106362038D01*
X150928549Y-106309597D01*
X150828042Y-105936300D01*
X150829200Y-105927422D01*
X150836298Y-105921962D01*
X150836985Y-105921800D01*
X151067675Y-105874972D01*
X151072325Y-105874972D01*
X151302988Y-105921794D01*
G37*
%TD.AperFunction*%
%TD*%
M02*
