%TF.GenerationSoftware,KiCad,Pcbnew,9.0.0*%
%TF.CreationDate,2025-03-18T22:56:42+05:30*%
%TF.ProjectId,Adafruit Si5351A,41646166-7275-4697-9420-536935333531,rev?*%
%TF.SameCoordinates,Original*%
%TF.FileFunction,Copper,L1,Top*%
%TF.FilePolarity,Positive*%
%FSLAX46Y46*%
G04 Gerber Fmt 4.6, Leading zero omitted, Abs format (unit mm)*
G04 Created by KiCad (PCBNEW 9.0.0) date 2025-03-18 22:56:42*
%MOMM*%
%LPD*%
G01*
G04 APERTURE LIST*
G04 Aperture macros list*
%AMRoundRect*
0 Rectangle with rounded corners*
0 $1 Rounding radius*
0 $2 $3 $4 $5 $6 $7 $8 $9 X,Y pos of 4 corners*
0 Add a 4 corners polygon primitive as box body*
4,1,4,$2,$3,$4,$5,$6,$7,$8,$9,$2,$3,0*
0 Add four circle primitives for the rounded corners*
1,1,$1+$1,$2,$3*
1,1,$1+$1,$4,$5*
1,1,$1+$1,$6,$7*
1,1,$1+$1,$8,$9*
0 Add four rect primitives between the rounded corners*
20,1,$1+$1,$2,$3,$4,$5,0*
20,1,$1+$1,$4,$5,$6,$7,0*
20,1,$1+$1,$6,$7,$8,$9,0*
20,1,$1+$1,$8,$9,$2,$3,0*%
G04 Aperture macros list end*
%TA.AperFunction,SMDPad,CuDef*%
%ADD10RoundRect,0.250000X-0.337500X-0.475000X0.337500X-0.475000X0.337500X0.475000X-0.337500X0.475000X0*%
%TD*%
%TA.AperFunction,SMDPad,CuDef*%
%ADD11R,1.524000X4.064000*%
%TD*%
%TA.AperFunction,SMDPad,CuDef*%
%ADD12R,1.270000X4.064000*%
%TD*%
%TA.AperFunction,SMDPad,CuDef*%
%ADD13C,1.000000*%
%TD*%
%TA.AperFunction,SMDPad,CuDef*%
%ADD14RoundRect,0.250000X-0.350000X-0.450000X0.350000X-0.450000X0.350000X0.450000X-0.350000X0.450000X0*%
%TD*%
%TA.AperFunction,SMDPad,CuDef*%
%ADD15RoundRect,0.250000X0.350000X0.450000X-0.350000X0.450000X-0.350000X-0.450000X0.350000X-0.450000X0*%
%TD*%
%TA.AperFunction,ComponentPad*%
%ADD16R,1.930400X1.930400*%
%TD*%
%TA.AperFunction,ComponentPad*%
%ADD17C,1.930400*%
%TD*%
%TA.AperFunction,SMDPad,CuDef*%
%ADD18R,1.000000X0.800000*%
%TD*%
%TA.AperFunction,SMDPad,CuDef*%
%ADD19RoundRect,0.250000X-0.250000X-0.475000X0.250000X-0.475000X0.250000X0.475000X-0.250000X0.475000X0*%
%TD*%
%TA.AperFunction,SMDPad,CuDef*%
%ADD20R,1.400000X0.300000*%
%TD*%
%TA.AperFunction,ViaPad*%
%ADD21C,0.500000*%
%TD*%
%TA.AperFunction,ViaPad*%
%ADD22C,0.800000*%
%TD*%
%TA.AperFunction,ViaPad*%
%ADD23C,0.800100*%
%TD*%
%TA.AperFunction,Conductor*%
%ADD24C,0.500000*%
%TD*%
%TA.AperFunction,Conductor*%
%ADD25C,0.250000*%
%TD*%
%TA.AperFunction,Conductor*%
%ADD26C,0.200000*%
%TD*%
%TA.AperFunction,Conductor*%
%ADD27C,0.254000*%
%TD*%
%TA.AperFunction,Conductor*%
%ADD28C,1.000000*%
%TD*%
G04 APERTURE END LIST*
D10*
%TO.P,C3,1*%
%TO.N,+3.3V*%
X160722500Y-109290000D03*
%TO.P,C3,2*%
%TO.N,GND*%
X162797500Y-109290000D03*
%TD*%
D11*
%TO.P,X3,GND@1,GND4*%
%TO.N,GND*%
X156121100Y-96748600D03*
%TO.P,X3,GND@2,GND3*%
X161201100Y-96748600D03*
D12*
%TO.P,X3,P,ANT*%
%TO.N,CLK2*%
X158661100Y-96748600D03*
%TD*%
D13*
%TO.P,FID2,*%
%TO.N,*%
X138810000Y-109990000D03*
%TD*%
D14*
%TO.P,R4,1*%
%TO.N,/SDA_3V*%
X150825000Y-110850000D03*
%TO.P,R4,2*%
%TO.N,+3.3V*%
X152825000Y-110850000D03*
%TD*%
D11*
%TO.P,X2,GND@1,GND4*%
%TO.N,GND*%
X145961100Y-96748600D03*
%TO.P,X2,GND@2,GND3*%
X151041100Y-96748600D03*
D12*
%TO.P,X2,P,ANT*%
%TO.N,CLK1*%
X148501100Y-96748600D03*
%TD*%
D15*
%TO.P,R3,1*%
%TO.N,/SCL_3V*%
X148431000Y-110871000D03*
%TO.P,R3,2*%
%TO.N,+3.3V*%
X146431000Y-110871000D03*
%TD*%
D16*
%TO.P,JP1,1,1*%
%TO.N,+3.3V*%
X156121100Y-113258600D03*
D17*
%TO.P,JP1,2,2*%
%TO.N,GND*%
X153581100Y-113258600D03*
%TO.P,JP1,3,3*%
%TO.N,/SDA_3V*%
X151041100Y-113258600D03*
%TO.P,JP1,4,4*%
%TO.N,/SCL_3V*%
X148501100Y-113258600D03*
%TO.P,JP1,5,5*%
%TO.N,CLK2*%
X145961100Y-113258600D03*
%TO.P,JP1,6,6*%
%TO.N,CLK1*%
X143421100Y-113258600D03*
%TO.P,JP1,7,7*%
%TO.N,CLK0*%
X140881100Y-113258600D03*
%TD*%
D10*
%TO.P,C1,1*%
%TO.N,+3.3V*%
X154942500Y-110850000D03*
%TO.P,C1,2*%
%TO.N,GND*%
X157017500Y-110850000D03*
%TD*%
%TO.P,C4,1*%
%TO.N,+3.3V*%
X160722500Y-107210000D03*
%TO.P,C4,2*%
%TO.N,GND*%
X162797500Y-107210000D03*
%TD*%
D18*
%TO.P,Y1,1,OE*%
%TO.N,GND*%
X145770000Y-108347500D03*
%TO.P,Y1,2,GND*%
X145770000Y-105327500D03*
%TO.P,Y1,3,OUT*%
%TO.N,Net-(Y1-OUT)*%
X144370000Y-105327500D03*
%TO.P,Y1,4,VDD*%
%TO.N,+3.3V*%
X144370000Y-108347500D03*
%TD*%
D11*
%TO.P,X1,GND@1,GND4*%
%TO.N,GND*%
X135801100Y-96748600D03*
%TO.P,X1,GND@2,GND3*%
X140881100Y-96748600D03*
D12*
%TO.P,X1,P,ANT*%
%TO.N,CLK0*%
X138341100Y-96748600D03*
%TD*%
D19*
%TO.P,C2,1*%
%TO.N,Net-(Y1-OUT)*%
X147830000Y-105330000D03*
%TO.P,C2,2*%
%TO.N,Net-(U1-XA)*%
X149730000Y-105330000D03*
%TD*%
D13*
%TO.P,FID1,*%
%TO.N,*%
X162320000Y-100710000D03*
%TD*%
D20*
%TO.P,U1,1,VDD*%
%TO.N,+3.3V*%
X152680000Y-105950000D03*
%TO.P,U1,2,XA*%
%TO.N,Net-(U1-XA)*%
X152680000Y-106450000D03*
%TO.P,U1,3,XB*%
%TO.N,unconnected-(U1-XB-Pad3)*%
X152680000Y-106950000D03*
%TO.P,U1,4,SCL*%
%TO.N,/SCL_3V*%
X152680000Y-107450000D03*
%TO.P,U1,5,SDA*%
%TO.N,/SDA_3V*%
X152680000Y-107950000D03*
%TO.P,U1,6,CLK2*%
%TO.N,CLK2*%
X157080000Y-107950000D03*
%TO.P,U1,7,VDDO*%
%TO.N,+3.3V*%
X157080000Y-107450000D03*
%TO.P,U1,8,GND*%
%TO.N,GND*%
X157080000Y-106950000D03*
%TO.P,U1,9,CLK1*%
%TO.N,CLK1*%
X157080000Y-106450000D03*
%TO.P,U1,10,CLK0*%
%TO.N,CLK0*%
X157080000Y-105950000D03*
%TD*%
D21*
%TO.N,GND*%
X152780000Y-104810000D03*
X153370000Y-104810000D03*
X154030000Y-104800000D03*
X154820000Y-104810000D03*
X155610000Y-104820000D03*
X150960000Y-100760000D03*
X151450000Y-101280000D03*
X151900000Y-101760000D03*
X152470000Y-102350000D03*
X156480000Y-102900000D03*
X155470000Y-102850000D03*
X154360000Y-102830000D03*
X153360000Y-102830000D03*
X154520000Y-107280000D03*
X154520000Y-106680000D03*
X154520000Y-106100000D03*
X155210000Y-106090000D03*
X155820000Y-106190000D03*
D22*
%TO.N,+3.3V*%
X158270491Y-107454427D03*
X160722500Y-107400000D03*
%TO.N,GND*%
X143700000Y-115200000D03*
D21*
X163400000Y-98000000D03*
D22*
X145940000Y-95350000D03*
X145000000Y-109400000D03*
D21*
X143490000Y-95860000D03*
D22*
X136680000Y-109910000D03*
X160290000Y-111440000D03*
D21*
X158450000Y-105570000D03*
D22*
X134114168Y-114376541D03*
X161260000Y-97860000D03*
X134050000Y-103330000D03*
D21*
X162306000Y-99187000D03*
D22*
X142060000Y-104020000D03*
D21*
X157620000Y-101070000D03*
X155300000Y-100710000D03*
X163400000Y-96800000D03*
D22*
X138110000Y-106620000D03*
D21*
X141859000Y-114427000D03*
X154140000Y-100710000D03*
X158710000Y-101410000D03*
X139115800Y-102489000D03*
X156000000Y-99430000D03*
X147193000Y-114427000D03*
X138430000Y-102235000D03*
X153500000Y-97400000D03*
X160909000Y-99568000D03*
X160401000Y-100076000D03*
X153600000Y-100500000D03*
D22*
X145540000Y-103040000D03*
X156160000Y-95260000D03*
D21*
X156470000Y-100010000D03*
D22*
X137760000Y-108610000D03*
D21*
X163200000Y-96200000D03*
D22*
X161210000Y-95190000D03*
X151090000Y-95300000D03*
X151140000Y-97970000D03*
D21*
X155000000Y-107700000D03*
X155829000Y-106807000D03*
X154461786Y-108552562D03*
D22*
X136690000Y-107620000D03*
D21*
X155702000Y-109524800D03*
X150114000Y-114427000D03*
D22*
X142087600Y-106146600D03*
X142036800Y-110540800D03*
X134950000Y-115120000D03*
D23*
X154293100Y-96748600D03*
D22*
X149610000Y-108070000D03*
D21*
X153500000Y-96100000D03*
X137541000Y-101219000D03*
D22*
X142070000Y-102900000D03*
X144430000Y-103050000D03*
X135380000Y-106620000D03*
D21*
X161544000Y-99314000D03*
D22*
X142036800Y-105050000D03*
D21*
X152273000Y-112141000D03*
X144399000Y-114554000D03*
D22*
X160401000Y-103505000D03*
X135350000Y-108830000D03*
D23*
X154270000Y-95490000D03*
D22*
X134080000Y-96850000D03*
X147470000Y-102750000D03*
X142036800Y-107188000D03*
D21*
X149606000Y-102743000D03*
D22*
X144000000Y-111700000D03*
X138110000Y-105520000D03*
X135380000Y-103330000D03*
X139319000Y-112522000D03*
X159131000Y-102235000D03*
X135390000Y-102140000D03*
D21*
X154740000Y-98730000D03*
D22*
X134050000Y-104430000D03*
X135410000Y-101120000D03*
D21*
X154730000Y-100700000D03*
X158440000Y-101900000D03*
X154440000Y-109170000D03*
D22*
X136950000Y-111540000D03*
D21*
X158000000Y-104310000D03*
D22*
X156200000Y-96510000D03*
X139065000Y-114427000D03*
D21*
X158240000Y-100970000D03*
D22*
X145000000Y-111700000D03*
X135800000Y-95660000D03*
X141500000Y-100300000D03*
X138090000Y-107640000D03*
D21*
X157530800Y-114380000D03*
X155230000Y-99430000D03*
D22*
X134020000Y-108830000D03*
D21*
X155170000Y-100040000D03*
D23*
X152780000Y-98050000D03*
D21*
X160430000Y-104220000D03*
D22*
X142800000Y-115200000D03*
X159588200Y-114554000D03*
D21*
X155194000Y-106680000D03*
D22*
X134030000Y-107640000D03*
X156210000Y-97930000D03*
X161790000Y-115200000D03*
D21*
X158360000Y-104910000D03*
D22*
X140480000Y-99430000D03*
X133810000Y-113330000D03*
X151130000Y-96550000D03*
X134080000Y-101120000D03*
D21*
X139700000Y-100330000D03*
X139810000Y-102520000D03*
X142214600Y-99974400D03*
X153950000Y-98820000D03*
D22*
X135900000Y-111300000D03*
X145990000Y-98020000D03*
X133970000Y-112300000D03*
X134060000Y-102140000D03*
D21*
X157226000Y-100076000D03*
X156660000Y-99410000D03*
D22*
X140970000Y-98190000D03*
X134080000Y-97950000D03*
X161250000Y-96440000D03*
X163280000Y-105050000D03*
X136690000Y-105430000D03*
D21*
X157090000Y-100720000D03*
X153210000Y-100060000D03*
D22*
X140920000Y-95520000D03*
D23*
X162725100Y-97663000D03*
D22*
X160490000Y-115200000D03*
D21*
X139954000Y-114427000D03*
D22*
X159190000Y-113460000D03*
D21*
X153960000Y-99880000D03*
D22*
X159385000Y-112268000D03*
X139430000Y-106620000D03*
D21*
X150241000Y-103251000D03*
X142570200Y-99491800D03*
D22*
X139410000Y-107640000D03*
D21*
X163449000Y-98806000D03*
D22*
X146200000Y-109400000D03*
X138684000Y-111760000D03*
D21*
X139319000Y-99822000D03*
D23*
X154300000Y-98020000D03*
D21*
X157099000Y-103378000D03*
D22*
X134050000Y-106620000D03*
X140480000Y-100300000D03*
D23*
X162725100Y-95631000D03*
D21*
X150749000Y-103759000D03*
X158030000Y-101500000D03*
X155702000Y-108966000D03*
D22*
X134060000Y-98970000D03*
X142036800Y-111658400D03*
X135800000Y-98270000D03*
D21*
X137972800Y-101701600D03*
X157370000Y-99460000D03*
D22*
X163280000Y-103100000D03*
X134090000Y-95890000D03*
X136710000Y-106600000D03*
X162763200Y-111887000D03*
D23*
X152746000Y-95490000D03*
D22*
X139430000Y-105520000D03*
X163290000Y-104000000D03*
X134030000Y-105450000D03*
X161645600Y-111201200D03*
D21*
X152810000Y-99590000D03*
X154460000Y-99330000D03*
D22*
X149700000Y-103700000D03*
D21*
X155500000Y-107300000D03*
D22*
X159766000Y-102870000D03*
D21*
X153500000Y-95100000D03*
D22*
X137290000Y-114680000D03*
D21*
X147193000Y-112141000D03*
X163400000Y-102400000D03*
X154686000Y-114427000D03*
X153440000Y-99370000D03*
X137337800Y-100584000D03*
D22*
X151350000Y-104700000D03*
X135380000Y-104430000D03*
D21*
X142494000Y-114427000D03*
X157770000Y-100500000D03*
D22*
X148600000Y-102750000D03*
D21*
X163400000Y-97400000D03*
X145034000Y-114554000D03*
D22*
X140960000Y-96770000D03*
D21*
X156440000Y-100720000D03*
D22*
X139770000Y-108580000D03*
X135360000Y-107640000D03*
X135410000Y-100020000D03*
D23*
X162750000Y-98640000D03*
D21*
X154460000Y-107940000D03*
D22*
X136190000Y-115280000D03*
X141510000Y-99430000D03*
D23*
X162725100Y-96748600D03*
D22*
X144600000Y-115200000D03*
X134020000Y-109930000D03*
D21*
X152990000Y-98890000D03*
X163449000Y-99695000D03*
D22*
X141800000Y-115200000D03*
X136680000Y-108810000D03*
X140800000Y-115200000D03*
D21*
X149479000Y-114427000D03*
D22*
X145980000Y-96600000D03*
X148485000Y-108120000D03*
X142036800Y-109360000D03*
X162780000Y-114460000D03*
X139220000Y-113500000D03*
D21*
X163449000Y-101727000D03*
D22*
X136740000Y-101100000D03*
X137640000Y-112350000D03*
D21*
X152273000Y-114300000D03*
X156260800Y-108991400D03*
X155720000Y-100050000D03*
X153500000Y-98300000D03*
D22*
X139700000Y-115189000D03*
X148600000Y-103700000D03*
X135350000Y-109930000D03*
D21*
X154580000Y-100040000D03*
D22*
X163220000Y-113170000D03*
X134080000Y-100020000D03*
X137850000Y-113600000D03*
X139700000Y-111506000D03*
X135360000Y-105450000D03*
D21*
X157550000Y-103830000D03*
X154686000Y-112090200D03*
X162700000Y-102600000D03*
X137100000Y-99900000D03*
X156260800Y-109601000D03*
D23*
X152769100Y-96748600D03*
D22*
X134760000Y-111590000D03*
X138760000Y-108300000D03*
D21*
X152360000Y-99090000D03*
D22*
X135790000Y-97090000D03*
D21*
X155890000Y-100710000D03*
D22*
X138410000Y-115110000D03*
X142062200Y-108305600D03*
D21*
%TO.N,CLK1*%
X147574000Y-99900000D03*
D22*
%TO.N,CLK2*%
X158250000Y-110740000D03*
D21*
%TO.N,+3.3V*%
X151070000Y-105875500D03*
X151070000Y-107090000D03*
%TD*%
D24*
%TO.N,CLK2*%
X158661100Y-96748600D02*
X158661100Y-99971100D01*
X158661100Y-99971100D02*
X161490000Y-102800000D01*
X161490000Y-102800000D02*
X161490000Y-104370000D01*
X161490000Y-104370000D02*
X160090000Y-105770000D01*
D25*
X158996491Y-106863509D02*
X160090000Y-105770000D01*
D26*
%TO.N,CLK1*%
X159480000Y-105732000D02*
X159480000Y-104317998D01*
X158770000Y-106442000D02*
X159480000Y-105732000D01*
%TO.N,CLK0*%
X157230000Y-105891999D02*
X157230000Y-105260000D01*
X157230000Y-105260000D02*
X155920000Y-103950000D01*
X155920000Y-103950000D02*
X152380000Y-103950000D01*
X152380000Y-103950000D02*
X149980000Y-101550000D01*
X149980000Y-101550000D02*
X143764000Y-101550000D01*
D25*
%TO.N,GND*%
X157080000Y-106950000D02*
X155972000Y-106950000D01*
X155972000Y-106950000D02*
X155829000Y-106807000D01*
X157080000Y-106950000D02*
X155850000Y-106950000D01*
X155850000Y-106950000D02*
X155500000Y-107300000D01*
%TO.N,CLK2*%
X157080000Y-107950000D02*
X157310427Y-108180427D01*
X157310427Y-108180427D02*
X158920000Y-108180427D01*
X158920000Y-108180427D02*
X158996491Y-108103936D01*
X158996491Y-108103936D02*
X158996491Y-106863509D01*
D26*
%TO.N,+3.3V*%
X157080000Y-107450000D02*
X158266064Y-107450000D01*
X158266064Y-107450000D02*
X158270491Y-107454427D01*
X160722500Y-107400000D02*
X160722500Y-109290000D01*
%TO.N,CLK2*%
X157230000Y-108800000D02*
X158250000Y-109820000D01*
D27*
%TO.N,Net-(U1-XA)*%
X149730000Y-106350000D02*
X149832500Y-106452500D01*
X149730000Y-105330000D02*
X149730000Y-106350000D01*
X149832500Y-106452500D02*
X152677500Y-106452500D01*
D25*
X152680000Y-106450000D02*
X150060500Y-106450000D01*
D24*
%TO.N,GND*%
X145790000Y-109400000D02*
X145770000Y-109380000D01*
X145770000Y-109380000D02*
X145770000Y-108347500D01*
D25*
X146020000Y-105687500D02*
X146020000Y-108097500D01*
D24*
X145790000Y-109400000D02*
X145000000Y-109400000D01*
X146200000Y-109400000D02*
X145790000Y-109400000D01*
D25*
%TO.N,/SDA_3V*%
X150825000Y-110850000D02*
X152680000Y-108995000D01*
D24*
X150825000Y-110850000D02*
X150825000Y-113042500D01*
D25*
X152680000Y-107950000D02*
X152680000Y-108995000D01*
%TO.N,/SCL_3V*%
X152680000Y-107450000D02*
X151740000Y-107450000D01*
X151395000Y-109590000D02*
X148685000Y-109590000D01*
X151740000Y-107450000D02*
X151655000Y-107535000D01*
X151655000Y-109330000D02*
X151395000Y-109590000D01*
X151655000Y-107535000D02*
X151655000Y-109330000D01*
X148420000Y-109855000D02*
X148420000Y-110680000D01*
X148685000Y-109590000D02*
X148420000Y-109855000D01*
D24*
X148501100Y-113258600D02*
X148501100Y-110959900D01*
D28*
%TO.N,CLK0*%
X143764000Y-101550000D02*
X142621000Y-101550000D01*
X138341100Y-96748600D02*
X138341100Y-100626735D01*
X138341100Y-100626735D02*
X139264365Y-101550000D01*
X140881100Y-113258600D02*
X140881100Y-101631100D01*
X142621000Y-101550000D02*
X140800000Y-101550000D01*
X140881100Y-101631100D02*
X140800000Y-101550000D01*
X139264365Y-101550000D02*
X142621000Y-101550000D01*
X139264365Y-101550000D02*
X143764000Y-101550000D01*
D24*
%TO.N,CLK1*%
X147590000Y-99884000D02*
X148610000Y-99884000D01*
D28*
X148501100Y-99641100D02*
X148501100Y-96748600D01*
X147824000Y-99650000D02*
X147574000Y-99900000D01*
D24*
X148610000Y-99884000D02*
X148844000Y-99650000D01*
D28*
X148844000Y-99650000D02*
X148510000Y-99650000D01*
D25*
X148260000Y-99900000D02*
X148510000Y-99650000D01*
X148425000Y-99735000D02*
X148510000Y-99650000D01*
D28*
X150020000Y-99650000D02*
X147824000Y-99650000D01*
X148510000Y-99650000D02*
X148501100Y-99641100D01*
X150020000Y-99650000D02*
X148844000Y-99650000D01*
D24*
X147574000Y-99900000D02*
X147590000Y-99884000D01*
D26*
%TO.N,CLK2*%
X157230000Y-108800000D02*
X157230000Y-108000000D01*
D24*
X158250000Y-110740000D02*
X158250000Y-109820000D01*
D26*
%TO.N,+3.3V*%
X151144500Y-105950000D02*
X151070000Y-105875500D01*
D24*
X156121100Y-112028600D02*
X154942500Y-110850000D01*
D25*
X151070000Y-108890000D02*
X150880000Y-109080000D01*
D26*
X157080000Y-107450000D02*
X156130000Y-107450000D01*
D25*
X144399000Y-110871000D02*
X146431000Y-110871000D01*
X151070000Y-107090000D02*
X151070000Y-108890000D01*
X144120000Y-110592000D02*
X144399000Y-110871000D01*
D24*
X154832750Y-110871000D02*
X153015250Y-110871000D01*
D26*
X152680000Y-105950000D02*
X151144500Y-105950000D01*
X153800000Y-105950000D02*
X152680000Y-105950000D01*
D24*
X156121100Y-113258600D02*
X156121100Y-112028600D01*
D25*
X146431000Y-110871000D02*
X147320000Y-109982000D01*
D26*
X153830000Y-110750000D02*
X153830000Y-105980000D01*
D25*
X144120000Y-107987500D02*
X144120000Y-110592000D01*
D26*
X153830000Y-105980000D02*
X153800000Y-105950000D01*
X156130000Y-107450000D02*
X155027500Y-108552500D01*
X155027500Y-108552500D02*
X155027500Y-110850000D01*
D25*
X147320000Y-109080000D02*
X150880000Y-109080000D01*
X147320000Y-109982000D02*
X147320000Y-109080000D01*
D24*
%TO.N,Net-(Y1-OUT)*%
X144410000Y-104350000D02*
X146947918Y-104350000D01*
X144370000Y-104390000D02*
X144410000Y-104350000D01*
X144370000Y-105327500D02*
X144370000Y-104390000D01*
X147830000Y-105232082D02*
X146947918Y-104350000D01*
D26*
%TO.N,CLK1*%
X158770000Y-106442000D02*
X157220000Y-106442000D01*
D28*
X159480000Y-104317998D02*
X156862002Y-101700000D01*
X156862002Y-101700000D02*
X153440000Y-101700000D01*
X153440000Y-101700000D02*
X151390000Y-99650000D01*
X151390000Y-99650000D02*
X150020000Y-99650000D01*
%TD*%
%TA.AperFunction,Conductor*%
%TO.N,GND*%
G36*
X160221859Y-94364263D02*
G01*
X160267684Y-94417007D01*
X160277718Y-94486152D01*
X160258060Y-94537555D01*
X160203605Y-94619053D01*
X160203603Y-94619059D01*
X160189100Y-94691971D01*
X160189100Y-95559824D01*
X161201100Y-96571824D01*
X162213099Y-95559824D01*
X162213100Y-95559823D01*
X162213100Y-94691973D01*
X162208153Y-94667104D01*
X162214380Y-94597512D01*
X162257243Y-94542335D01*
X162323132Y-94519090D01*
X162391129Y-94535158D01*
X162393915Y-94536792D01*
X162623086Y-94675330D01*
X162635397Y-94683828D01*
X162825343Y-94832641D01*
X162862620Y-94861846D01*
X162873828Y-94871776D01*
X163077923Y-95075871D01*
X163087853Y-95087079D01*
X163265867Y-95314296D01*
X163274373Y-95326619D01*
X163423697Y-95573633D01*
X163430656Y-95586892D01*
X163549122Y-95850112D01*
X163554431Y-95864113D01*
X163640299Y-96139674D01*
X163643883Y-96154212D01*
X163695913Y-96438132D01*
X163697718Y-96452996D01*
X163715374Y-96744862D01*
X163715600Y-96752350D01*
X163715600Y-106303693D01*
X163695915Y-106370732D01*
X163643111Y-106416487D01*
X163573953Y-106426431D01*
X163510397Y-106397406D01*
X163492335Y-106378006D01*
X163492189Y-106377811D01*
X163492187Y-106377809D01*
X163377093Y-106291649D01*
X163377086Y-106291645D01*
X163242379Y-106241403D01*
X163242372Y-106241401D01*
X163182844Y-106235000D01*
X162922500Y-106235000D01*
X162922500Y-108195682D01*
X162924932Y-108198489D01*
X162926848Y-108211820D01*
X162933304Y-108223642D01*
X162931724Y-108245728D01*
X162934876Y-108267647D01*
X162929280Y-108279898D01*
X162928320Y-108293334D01*
X162922500Y-108301108D01*
X162922500Y-110265000D01*
X163182828Y-110265000D01*
X163182844Y-110264999D01*
X163242372Y-110258598D01*
X163242379Y-110258596D01*
X163377086Y-110208354D01*
X163377093Y-110208350D01*
X163492187Y-110122190D01*
X163492330Y-110122000D01*
X163492520Y-110121857D01*
X163498460Y-110115918D01*
X163499313Y-110116771D01*
X163548262Y-110080126D01*
X163617953Y-110075139D01*
X163679278Y-110108621D01*
X163712765Y-110169943D01*
X163715600Y-110196306D01*
X163715600Y-113254849D01*
X163715374Y-113262337D01*
X163697718Y-113554203D01*
X163695913Y-113569067D01*
X163643883Y-113852987D01*
X163640299Y-113867525D01*
X163554431Y-114143086D01*
X163549122Y-114157087D01*
X163430656Y-114420307D01*
X163423697Y-114433566D01*
X163274373Y-114680580D01*
X163265867Y-114692903D01*
X163087853Y-114920120D01*
X163077923Y-114931328D01*
X162873828Y-115135423D01*
X162862620Y-115145353D01*
X162635403Y-115323367D01*
X162623080Y-115331873D01*
X162376066Y-115481197D01*
X162362807Y-115488156D01*
X162099587Y-115606622D01*
X162085586Y-115611931D01*
X161810025Y-115697799D01*
X161795487Y-115701383D01*
X161511567Y-115753413D01*
X161496702Y-115755218D01*
X161369371Y-115762920D01*
X161362047Y-115763146D01*
X153780549Y-115773100D01*
X135804851Y-115773100D01*
X135797364Y-115772874D01*
X135505497Y-115755218D01*
X135490632Y-115753413D01*
X135206712Y-115701383D01*
X135192174Y-115697799D01*
X134916613Y-115611931D01*
X134902612Y-115606622D01*
X134639392Y-115488156D01*
X134626133Y-115481197D01*
X134463216Y-115382711D01*
X134379116Y-115331871D01*
X134366796Y-115323367D01*
X134139579Y-115145353D01*
X134128371Y-115135423D01*
X133924276Y-114931328D01*
X133914346Y-114920120D01*
X133736328Y-114692897D01*
X133727830Y-114680586D01*
X133578501Y-114433565D01*
X133571543Y-114420307D01*
X133516465Y-114297929D01*
X133453075Y-114157082D01*
X133447768Y-114143086D01*
X133424381Y-114068035D01*
X133361899Y-113867524D01*
X133358316Y-113852987D01*
X133306286Y-113569067D01*
X133304481Y-113554202D01*
X133286826Y-113262336D01*
X133286600Y-113254849D01*
X133286600Y-113140502D01*
X134300600Y-113140502D01*
X134300600Y-113376697D01*
X134337546Y-113609968D01*
X134410533Y-113834596D01*
X134508161Y-114026199D01*
X134517757Y-114045033D01*
X134656583Y-114236110D01*
X134823590Y-114403117D01*
X135014667Y-114541943D01*
X135114091Y-114592602D01*
X135225103Y-114649166D01*
X135225105Y-114649166D01*
X135225108Y-114649168D01*
X135345512Y-114688289D01*
X135449731Y-114722153D01*
X135683003Y-114759100D01*
X135683008Y-114759100D01*
X135919197Y-114759100D01*
X136152468Y-114722153D01*
X136377092Y-114649168D01*
X136587533Y-114541943D01*
X136778610Y-114403117D01*
X136945617Y-114236110D01*
X137084443Y-114045033D01*
X137191668Y-113834592D01*
X137264653Y-113609968D01*
X137273485Y-113554203D01*
X137301600Y-113376697D01*
X137301600Y-113140502D01*
X137264653Y-112907231D01*
X137191666Y-112682603D01*
X137094038Y-112490999D01*
X137084443Y-112472167D01*
X136945617Y-112281090D01*
X136778610Y-112114083D01*
X136587533Y-111975257D01*
X136567836Y-111965221D01*
X136377096Y-111868033D01*
X136152468Y-111795046D01*
X135919197Y-111758100D01*
X135919192Y-111758100D01*
X135683008Y-111758100D01*
X135683003Y-111758100D01*
X135449731Y-111795046D01*
X135225103Y-111868033D01*
X135014666Y-111975257D01*
X134920876Y-112043400D01*
X134823590Y-112114083D01*
X134823588Y-112114085D01*
X134823587Y-112114085D01*
X134656585Y-112281087D01*
X134656585Y-112281088D01*
X134656583Y-112281090D01*
X134632510Y-112314224D01*
X134517757Y-112472166D01*
X134410533Y-112682603D01*
X134337546Y-112907231D01*
X134300600Y-113140502D01*
X133286600Y-113140502D01*
X133286600Y-110088543D01*
X137809499Y-110088543D01*
X137847947Y-110281829D01*
X137847950Y-110281839D01*
X137923364Y-110463907D01*
X137923371Y-110463920D01*
X138032860Y-110627781D01*
X138032863Y-110627785D01*
X138172214Y-110767136D01*
X138172218Y-110767139D01*
X138336079Y-110876628D01*
X138336092Y-110876635D01*
X138518160Y-110952049D01*
X138518165Y-110952051D01*
X138518169Y-110952051D01*
X138518170Y-110952052D01*
X138711456Y-110990500D01*
X138711459Y-110990500D01*
X138908543Y-110990500D01*
X139038582Y-110964632D01*
X139101835Y-110952051D01*
X139283914Y-110876632D01*
X139447782Y-110767139D01*
X139587139Y-110627782D01*
X139696632Y-110463914D01*
X139772051Y-110281835D01*
X139791937Y-110181862D01*
X139810500Y-110088543D01*
X139810500Y-109891456D01*
X139772052Y-109698170D01*
X139772051Y-109698169D01*
X139772051Y-109698165D01*
X139771486Y-109696800D01*
X139696635Y-109516092D01*
X139696628Y-109516079D01*
X139587139Y-109352218D01*
X139587136Y-109352214D01*
X139447785Y-109212863D01*
X139447781Y-109212860D01*
X139283920Y-109103371D01*
X139283907Y-109103364D01*
X139101839Y-109027950D01*
X139101829Y-109027947D01*
X138908543Y-108989500D01*
X138908541Y-108989500D01*
X138711459Y-108989500D01*
X138711457Y-108989500D01*
X138518170Y-109027947D01*
X138518160Y-109027950D01*
X138336092Y-109103364D01*
X138336079Y-109103371D01*
X138172218Y-109212860D01*
X138172214Y-109212863D01*
X138032863Y-109352214D01*
X138032860Y-109352218D01*
X137923371Y-109516079D01*
X137923364Y-109516092D01*
X137847950Y-109698160D01*
X137847947Y-109698170D01*
X137809500Y-109891456D01*
X137809500Y-109891459D01*
X137809500Y-110088541D01*
X137809500Y-110088543D01*
X137809499Y-110088543D01*
X133286600Y-110088543D01*
X133286600Y-97937375D01*
X134789100Y-97937375D01*
X134789100Y-98805228D01*
X134803603Y-98878140D01*
X134803605Y-98878144D01*
X134858860Y-98960839D01*
X134941555Y-99016094D01*
X134941559Y-99016096D01*
X135014471Y-99030599D01*
X135014474Y-99030600D01*
X136587726Y-99030600D01*
X136587728Y-99030599D01*
X136660640Y-99016096D01*
X136660644Y-99016094D01*
X136743339Y-98960839D01*
X136798594Y-98878144D01*
X136798596Y-98878140D01*
X136813099Y-98805228D01*
X136813100Y-98805226D01*
X136813100Y-97937376D01*
X135801100Y-96925376D01*
X134789100Y-97937375D01*
X133286600Y-97937375D01*
X133286600Y-97583824D01*
X134789100Y-97583824D01*
X135624324Y-96748600D01*
X135624324Y-96748599D01*
X135977876Y-96748599D01*
X135977876Y-96748600D01*
X136813099Y-97583824D01*
X136813100Y-97583823D01*
X136813100Y-95913376D01*
X136813099Y-95913375D01*
X135977876Y-96748599D01*
X135624324Y-96748599D01*
X134789100Y-95913375D01*
X134789100Y-97583824D01*
X133286600Y-97583824D01*
X133286600Y-96752350D01*
X133286826Y-96744863D01*
X133304481Y-96452997D01*
X133306286Y-96438132D01*
X133358316Y-96154212D01*
X133361900Y-96139674D01*
X133447771Y-95864103D01*
X133453073Y-95850122D01*
X133571546Y-95586885D01*
X133578497Y-95573640D01*
X133727835Y-95326605D01*
X133736322Y-95314309D01*
X133914353Y-95087070D01*
X133924268Y-95075879D01*
X134128379Y-94871768D01*
X134139570Y-94861853D01*
X134366809Y-94683822D01*
X134379105Y-94675335D01*
X134608281Y-94536794D01*
X134675834Y-94518959D01*
X134742308Y-94540477D01*
X134786595Y-94594517D01*
X134794636Y-94663923D01*
X134794047Y-94667100D01*
X134789100Y-94691973D01*
X134789100Y-95559824D01*
X135801100Y-96571824D01*
X136813099Y-95559824D01*
X136813100Y-95559823D01*
X136813100Y-94691973D01*
X136813099Y-94691971D01*
X136798596Y-94619059D01*
X136798595Y-94619056D01*
X136764565Y-94568126D01*
X136743688Y-94501449D01*
X136762173Y-94434069D01*
X136814152Y-94387379D01*
X136867498Y-94375237D01*
X137461424Y-94374457D01*
X137528488Y-94394054D01*
X137574312Y-94446798D01*
X137584346Y-94515943D01*
X137564687Y-94567347D01*
X137517233Y-94638366D01*
X137517231Y-94638370D01*
X137505600Y-94696847D01*
X137505600Y-98735353D01*
X137503713Y-98756905D01*
X137501735Y-98768106D01*
X137501460Y-98774030D01*
X137505729Y-98826333D01*
X137637889Y-99447973D01*
X137640600Y-99473755D01*
X137640600Y-100557741D01*
X137640600Y-100695729D01*
X137640600Y-100695731D01*
X137640599Y-100695731D01*
X137667518Y-100831057D01*
X137667521Y-100831067D01*
X137720322Y-100958542D01*
X137796987Y-101073280D01*
X138817819Y-102094112D01*
X138932557Y-102170777D01*
X139060032Y-102223578D01*
X139060037Y-102223580D01*
X139060041Y-102223580D01*
X139060042Y-102223581D01*
X139195368Y-102250500D01*
X139195371Y-102250500D01*
X139195372Y-102250500D01*
X140056600Y-102250500D01*
X140123639Y-102270185D01*
X140169394Y-102322989D01*
X140180600Y-102374500D01*
X140180600Y-111285451D01*
X140176635Y-111316557D01*
X139739688Y-113002651D01*
X139738610Y-113006809D01*
X139737184Y-113012663D01*
X139737049Y-113013252D01*
X139737048Y-113013262D01*
X139736907Y-113023013D01*
X139735394Y-113040610D01*
X139715400Y-113166856D01*
X139715400Y-113350348D01*
X139744102Y-113531569D01*
X139769576Y-113609968D01*
X139800803Y-113706074D01*
X139884104Y-113869560D01*
X139991954Y-114018003D01*
X140121697Y-114147746D01*
X140270140Y-114255596D01*
X140433626Y-114338897D01*
X140566134Y-114381951D01*
X140608130Y-114395597D01*
X140789352Y-114424300D01*
X140789357Y-114424300D01*
X140972848Y-114424300D01*
X141154069Y-114395597D01*
X141187397Y-114384768D01*
X141328574Y-114338897D01*
X141492060Y-114255596D01*
X141640503Y-114147746D01*
X141770246Y-114018003D01*
X141878096Y-113869560D01*
X141961397Y-113706074D01*
X142018097Y-113531569D01*
X142028627Y-113465086D01*
X142058556Y-113401951D01*
X142117868Y-113365020D01*
X142187730Y-113366018D01*
X142245963Y-113404628D01*
X142273573Y-113465086D01*
X142284103Y-113531569D01*
X142340803Y-113706074D01*
X142424104Y-113869560D01*
X142531954Y-114018003D01*
X142661697Y-114147746D01*
X142810140Y-114255596D01*
X142973626Y-114338897D01*
X143106134Y-114381951D01*
X143148130Y-114395597D01*
X143329352Y-114424300D01*
X143329357Y-114424300D01*
X143512848Y-114424300D01*
X143694069Y-114395597D01*
X143727397Y-114384768D01*
X143868574Y-114338897D01*
X144032060Y-114255596D01*
X144180503Y-114147746D01*
X144310246Y-114018003D01*
X144418096Y-113869560D01*
X144501397Y-113706074D01*
X144558097Y-113531569D01*
X144568627Y-113465086D01*
X144598556Y-113401951D01*
X144657868Y-113365020D01*
X144727730Y-113366018D01*
X144785963Y-113404628D01*
X144813573Y-113465086D01*
X144824103Y-113531569D01*
X144880803Y-113706074D01*
X144964104Y-113869560D01*
X145071954Y-114018003D01*
X145201697Y-114147746D01*
X145350140Y-114255596D01*
X145513626Y-114338897D01*
X145646134Y-114381951D01*
X145688130Y-114395597D01*
X145869352Y-114424300D01*
X145869357Y-114424300D01*
X146052848Y-114424300D01*
X146234069Y-114395597D01*
X146267397Y-114384768D01*
X146408574Y-114338897D01*
X146572060Y-114255596D01*
X146720503Y-114147746D01*
X146850246Y-114018003D01*
X146958096Y-113869560D01*
X147041397Y-113706074D01*
X147098097Y-113531569D01*
X147108627Y-113465086D01*
X147138556Y-113401951D01*
X147197868Y-113365020D01*
X147267730Y-113366018D01*
X147325963Y-113404628D01*
X147353573Y-113465086D01*
X147364103Y-113531569D01*
X147420803Y-113706074D01*
X147504104Y-113869560D01*
X147611954Y-114018003D01*
X147741697Y-114147746D01*
X147890140Y-114255596D01*
X148053626Y-114338897D01*
X148186134Y-114381951D01*
X148228130Y-114395597D01*
X148409352Y-114424300D01*
X148409357Y-114424300D01*
X148592848Y-114424300D01*
X148774069Y-114395597D01*
X148807397Y-114384768D01*
X148948574Y-114338897D01*
X149112060Y-114255596D01*
X149260503Y-114147746D01*
X149390246Y-114018003D01*
X149498096Y-113869560D01*
X149581397Y-113706074D01*
X149638097Y-113531569D01*
X149648627Y-113465086D01*
X149678556Y-113401951D01*
X149737868Y-113365020D01*
X149807730Y-113366018D01*
X149865963Y-113404628D01*
X149893573Y-113465086D01*
X149904103Y-113531569D01*
X149960803Y-113706074D01*
X150044104Y-113869560D01*
X150151954Y-114018003D01*
X150281697Y-114147746D01*
X150430140Y-114255596D01*
X150593626Y-114338897D01*
X150726134Y-114381951D01*
X150768130Y-114395597D01*
X150949352Y-114424300D01*
X150949357Y-114424300D01*
X151132848Y-114424300D01*
X151314069Y-114395597D01*
X151347397Y-114384768D01*
X151488574Y-114338897D01*
X151652060Y-114255596D01*
X151800503Y-114147746D01*
X151930246Y-114018003D01*
X152038096Y-113869560D01*
X152121397Y-113706074D01*
X152167145Y-113565274D01*
X152206582Y-113507599D01*
X152270941Y-113480401D01*
X152339787Y-113492316D01*
X152391263Y-113539560D01*
X152403007Y-113565274D01*
X152454931Y-113725079D01*
X152541768Y-113895505D01*
X152541774Y-113895514D01*
X152636721Y-114026199D01*
X152636723Y-114026200D01*
X153150370Y-113512553D01*
X153181001Y-113565607D01*
X153274093Y-113658699D01*
X153327145Y-113689329D01*
X152813498Y-114202975D01*
X152944191Y-114297929D01*
X152944194Y-114297931D01*
X153114620Y-114384768D01*
X153296539Y-114443878D01*
X153485457Y-114473800D01*
X153676743Y-114473800D01*
X153865660Y-114443878D01*
X154047579Y-114384768D01*
X154218004Y-114297932D01*
X154348699Y-114202975D01*
X154348700Y-114202975D01*
X153835053Y-113689329D01*
X153888107Y-113658699D01*
X153981199Y-113565607D01*
X154011829Y-113512554D01*
X154525475Y-114026200D01*
X154525475Y-114026199D01*
X154620432Y-113895504D01*
X154707269Y-113725076D01*
X154713469Y-113705996D01*
X154752906Y-113648320D01*
X154817264Y-113621121D01*
X154886111Y-113633035D01*
X154937587Y-113680279D01*
X154955400Y-113744313D01*
X154955400Y-114243552D01*
X154967031Y-114302029D01*
X154967032Y-114302030D01*
X155011347Y-114368352D01*
X155077669Y-114412667D01*
X155077670Y-114412668D01*
X155136147Y-114424299D01*
X155136150Y-114424300D01*
X155136152Y-114424300D01*
X157106050Y-114424300D01*
X157106051Y-114424299D01*
X157120868Y-114421352D01*
X157164529Y-114412668D01*
X157164529Y-114412667D01*
X157164531Y-114412667D01*
X157230852Y-114368352D01*
X157275167Y-114302031D01*
X157275167Y-114302029D01*
X157275168Y-114302029D01*
X157283852Y-114258368D01*
X157286800Y-114243548D01*
X157286800Y-113140502D01*
X159700600Y-113140502D01*
X159700600Y-113376697D01*
X159737546Y-113609968D01*
X159810533Y-113834596D01*
X159908161Y-114026199D01*
X159917757Y-114045033D01*
X160056583Y-114236110D01*
X160223590Y-114403117D01*
X160414667Y-114541943D01*
X160514091Y-114592602D01*
X160625103Y-114649166D01*
X160625105Y-114649166D01*
X160625108Y-114649168D01*
X160745512Y-114688289D01*
X160849731Y-114722153D01*
X161083003Y-114759100D01*
X161083008Y-114759100D01*
X161319197Y-114759100D01*
X161552468Y-114722153D01*
X161777092Y-114649168D01*
X161987533Y-114541943D01*
X162178610Y-114403117D01*
X162345617Y-114236110D01*
X162484443Y-114045033D01*
X162591668Y-113834592D01*
X162664653Y-113609968D01*
X162673485Y-113554203D01*
X162701600Y-113376697D01*
X162701600Y-113140502D01*
X162664653Y-112907231D01*
X162591666Y-112682603D01*
X162494038Y-112490999D01*
X162484443Y-112472167D01*
X162345617Y-112281090D01*
X162178610Y-112114083D01*
X161987533Y-111975257D01*
X161967836Y-111965221D01*
X161777096Y-111868033D01*
X161552468Y-111795046D01*
X161319197Y-111758100D01*
X161319192Y-111758100D01*
X161083008Y-111758100D01*
X161083003Y-111758100D01*
X160849731Y-111795046D01*
X160625103Y-111868033D01*
X160414666Y-111975257D01*
X160320876Y-112043400D01*
X160223590Y-112114083D01*
X160223588Y-112114085D01*
X160223587Y-112114085D01*
X160056585Y-112281087D01*
X160056585Y-112281088D01*
X160056583Y-112281090D01*
X160032510Y-112314224D01*
X159917757Y-112472166D01*
X159810533Y-112682603D01*
X159737546Y-112907231D01*
X159700600Y-113140502D01*
X157286800Y-113140502D01*
X157286800Y-112273652D01*
X157286800Y-112273649D01*
X157286799Y-112273647D01*
X157275168Y-112215170D01*
X157275167Y-112215169D01*
X157230852Y-112148847D01*
X157164530Y-112104532D01*
X157164529Y-112104531D01*
X157106052Y-112092900D01*
X157106048Y-112092900D01*
X156980084Y-112092900D01*
X156953789Y-112085179D01*
X156926724Y-112080832D01*
X156917060Y-112074393D01*
X156913045Y-112073215D01*
X156897351Y-112061264D01*
X156867746Y-112034746D01*
X156830943Y-111975355D01*
X156832093Y-111905495D01*
X156862798Y-111854700D01*
X156892500Y-111824998D01*
X156892500Y-110975000D01*
X156179999Y-110975000D01*
X156158166Y-110996833D01*
X156096843Y-111030317D01*
X156027151Y-111025332D01*
X155971218Y-110983461D01*
X155961642Y-110968557D01*
X155745656Y-110572827D01*
X155741973Y-110558393D01*
X155735523Y-110548356D01*
X155730500Y-110513421D01*
X155730500Y-110327155D01*
X156180000Y-110327155D01*
X156180000Y-110725000D01*
X156892500Y-110725000D01*
X156892500Y-109875000D01*
X156632155Y-109875000D01*
X156572627Y-109881401D01*
X156572620Y-109881403D01*
X156437913Y-109931645D01*
X156437906Y-109931649D01*
X156322812Y-110017809D01*
X156322809Y-110017812D01*
X156236649Y-110132906D01*
X156236645Y-110132913D01*
X156186403Y-110267620D01*
X156186401Y-110267627D01*
X156180000Y-110327155D01*
X155730500Y-110327155D01*
X155730500Y-110320730D01*
X155727647Y-110290310D01*
X155727646Y-110290308D01*
X155727646Y-110290301D01*
X155696488Y-110201258D01*
X155689605Y-110177387D01*
X155685057Y-110168590D01*
X155682793Y-110162118D01*
X155682791Y-110162115D01*
X155682790Y-110162112D01*
X155680802Y-110158350D01*
X155674658Y-110148472D01*
X155666785Y-110133242D01*
X155343554Y-109507943D01*
X155341847Y-109504640D01*
X155328000Y-109447699D01*
X155328000Y-108728333D01*
X155347685Y-108661294D01*
X155364319Y-108640652D01*
X155967819Y-108037152D01*
X156029142Y-108003667D01*
X156098834Y-108008651D01*
X156154767Y-108050523D01*
X156178346Y-108113742D01*
X156178903Y-108113688D01*
X156179109Y-108115788D01*
X156179184Y-108115987D01*
X156179215Y-108116857D01*
X156179500Y-108119752D01*
X156191131Y-108178229D01*
X156191132Y-108178230D01*
X156235447Y-108244552D01*
X156301769Y-108288867D01*
X156301770Y-108288868D01*
X156360247Y-108300499D01*
X156360250Y-108300500D01*
X156360252Y-108300500D01*
X156805500Y-108300500D01*
X156872539Y-108320185D01*
X156918294Y-108372989D01*
X156929500Y-108424500D01*
X156929500Y-108839562D01*
X156935023Y-108860173D01*
X156949979Y-108915990D01*
X156970853Y-108952143D01*
X156970854Y-108952147D01*
X156970855Y-108952147D01*
X156989539Y-108984509D01*
X156989541Y-108984512D01*
X157639548Y-109634519D01*
X157640948Y-109636446D01*
X157642041Y-109637085D01*
X157662367Y-109665936D01*
X157689446Y-109719120D01*
X157700227Y-109740293D01*
X157713103Y-109808966D01*
X157686808Y-109873699D01*
X157629690Y-109913939D01*
X157559884Y-109916911D01*
X157546393Y-109912738D01*
X157462379Y-109881403D01*
X157462372Y-109881401D01*
X157402844Y-109875000D01*
X157142500Y-109875000D01*
X157142500Y-111825000D01*
X157402828Y-111825000D01*
X157402844Y-111824999D01*
X157462372Y-111818598D01*
X157462379Y-111818596D01*
X157597086Y-111768354D01*
X157597093Y-111768350D01*
X157712187Y-111682190D01*
X157712190Y-111682187D01*
X157798350Y-111567093D01*
X157798354Y-111567086D01*
X157848596Y-111432379D01*
X157848598Y-111432372D01*
X157851792Y-111402670D01*
X157878530Y-111338119D01*
X157935923Y-111298271D01*
X158005748Y-111295778D01*
X158012800Y-111298125D01*
X158018213Y-111299575D01*
X158018216Y-111299577D01*
X158170943Y-111340500D01*
X158170945Y-111340500D01*
X158329055Y-111340500D01*
X158329057Y-111340500D01*
X158481784Y-111299577D01*
X158618716Y-111220520D01*
X158730520Y-111108716D01*
X158809577Y-110971784D01*
X158850500Y-110819057D01*
X158850500Y-110660943D01*
X158845796Y-110643391D01*
X158842240Y-110616413D01*
X158842170Y-110616421D01*
X158841955Y-110614246D01*
X158841571Y-110611332D01*
X158841571Y-110610358D01*
X158703415Y-109916945D01*
X158703414Y-109916943D01*
X158702890Y-109914311D01*
X158700500Y-109890081D01*
X158700500Y-109760693D01*
X158700500Y-109760691D01*
X158669799Y-109646114D01*
X158610489Y-109543387D01*
X158526613Y-109459511D01*
X158497311Y-109442593D01*
X158482576Y-109432609D01*
X158470451Y-109423056D01*
X158470439Y-109423048D01*
X158095941Y-109232371D01*
X158064522Y-109209551D01*
X157572579Y-108717608D01*
X157539094Y-108656285D01*
X157544078Y-108586593D01*
X157585950Y-108530660D01*
X157651414Y-108506243D01*
X157660260Y-108505927D01*
X158962851Y-108505927D01*
X158962853Y-108505927D01*
X159045639Y-108483745D01*
X159119862Y-108440892D01*
X159178912Y-108381840D01*
X159178914Y-108381839D01*
X159196352Y-108364401D01*
X159196353Y-108364401D01*
X159256956Y-108303798D01*
X159299809Y-108229574D01*
X159300245Y-108227947D01*
X159321992Y-108146789D01*
X159321992Y-108061083D01*
X159321992Y-108053488D01*
X159321991Y-108053470D01*
X159321991Y-107049697D01*
X159341676Y-106982658D01*
X159358306Y-106962020D01*
X159722819Y-106597506D01*
X159784142Y-106564022D01*
X159853834Y-106569006D01*
X159909767Y-106610878D01*
X159934184Y-106676342D01*
X159934500Y-106685188D01*
X159934500Y-107739269D01*
X159937353Y-107769696D01*
X159982207Y-107897882D01*
X159998899Y-107920499D01*
X160003970Y-107927919D01*
X160022494Y-107957252D01*
X160165553Y-108183789D01*
X160184705Y-108250983D01*
X160165553Y-108316209D01*
X160006337Y-108568328D01*
X160006326Y-108568348D01*
X160001566Y-108575886D01*
X159982207Y-108602118D01*
X159972210Y-108630687D01*
X159968275Y-108639425D01*
X159968268Y-108639440D01*
X159961673Y-108654089D01*
X159959865Y-108660309D01*
X159959863Y-108660316D01*
X159959687Y-108661341D01*
X159959144Y-108663433D01*
X159959085Y-108663690D01*
X159959078Y-108663688D01*
X159954541Y-108681180D01*
X159937353Y-108730302D01*
X159937353Y-108730305D01*
X159934500Y-108760730D01*
X159934500Y-109819269D01*
X159937353Y-109849699D01*
X159937353Y-109849701D01*
X159982206Y-109977880D01*
X159982207Y-109977882D01*
X160062850Y-110087150D01*
X160172118Y-110167793D01*
X160199605Y-110177411D01*
X160300299Y-110212646D01*
X160330730Y-110215500D01*
X160330734Y-110215500D01*
X161114270Y-110215500D01*
X161144699Y-110212646D01*
X161144701Y-110212646D01*
X161217657Y-110187117D01*
X161272882Y-110167793D01*
X161382150Y-110087150D01*
X161462793Y-109977882D01*
X161486965Y-109908803D01*
X161507646Y-109849701D01*
X161507646Y-109849699D01*
X161510500Y-109819269D01*
X161510500Y-109812844D01*
X161960000Y-109812844D01*
X161966401Y-109872372D01*
X161966403Y-109872379D01*
X162016645Y-110007086D01*
X162016649Y-110007093D01*
X162102809Y-110122187D01*
X162102812Y-110122190D01*
X162217906Y-110208350D01*
X162217913Y-110208354D01*
X162352620Y-110258596D01*
X162352627Y-110258598D01*
X162412155Y-110264999D01*
X162412172Y-110265000D01*
X162672500Y-110265000D01*
X162672500Y-109415000D01*
X161960000Y-109415000D01*
X161960000Y-109812844D01*
X161510500Y-109812844D01*
X161510500Y-108760730D01*
X161507646Y-108730300D01*
X161507646Y-108730298D01*
X161462793Y-108602119D01*
X161462793Y-108602118D01*
X161446100Y-108579500D01*
X161441027Y-108572077D01*
X161279444Y-108316208D01*
X161260292Y-108249014D01*
X161279443Y-108183789D01*
X161443421Y-107924129D01*
X161462793Y-107897882D01*
X161472789Y-107869314D01*
X161483317Y-107845936D01*
X161485124Y-107839722D01*
X161485298Y-107838712D01*
X161485835Y-107836639D01*
X161485904Y-107836343D01*
X161485911Y-107836344D01*
X161490449Y-107818839D01*
X161507646Y-107769699D01*
X161507647Y-107769690D01*
X161510500Y-107739269D01*
X161510500Y-107732844D01*
X161960000Y-107732844D01*
X161966401Y-107792372D01*
X161966403Y-107792379D01*
X162016645Y-107927086D01*
X162016649Y-107927093D01*
X162102809Y-108042187D01*
X162102812Y-108042190D01*
X162217906Y-108128350D01*
X162217911Y-108128353D01*
X162232563Y-108133818D01*
X162288496Y-108175690D01*
X162312913Y-108241154D01*
X162298061Y-108309427D01*
X162248656Y-108358832D01*
X162232563Y-108366182D01*
X162217911Y-108371646D01*
X162217906Y-108371649D01*
X162102812Y-108457809D01*
X162102809Y-108457812D01*
X162016649Y-108572906D01*
X162016645Y-108572913D01*
X161966403Y-108707620D01*
X161966401Y-108707627D01*
X161960000Y-108767155D01*
X161960000Y-109165000D01*
X162672500Y-109165000D01*
X162672500Y-108304317D01*
X162670068Y-108301511D01*
X162668151Y-108288179D01*
X162661696Y-108276358D01*
X162663275Y-108254271D01*
X162660124Y-108232353D01*
X162665719Y-108220101D01*
X162666680Y-108206666D01*
X162672500Y-108197610D01*
X162672500Y-107335000D01*
X161960000Y-107335000D01*
X161960000Y-107732844D01*
X161510500Y-107732844D01*
X161510500Y-106687155D01*
X161960000Y-106687155D01*
X161960000Y-107085000D01*
X162672500Y-107085000D01*
X162672500Y-106235000D01*
X162412155Y-106235000D01*
X162352627Y-106241401D01*
X162352620Y-106241403D01*
X162217913Y-106291645D01*
X162217906Y-106291649D01*
X162102812Y-106377809D01*
X162102809Y-106377812D01*
X162016649Y-106492906D01*
X162016645Y-106492913D01*
X161966403Y-106627620D01*
X161966401Y-106627627D01*
X161960000Y-106687155D01*
X161510500Y-106687155D01*
X161510500Y-106680730D01*
X161507646Y-106650300D01*
X161507646Y-106650298D01*
X161462793Y-106522119D01*
X161462792Y-106522117D01*
X161382150Y-106412850D01*
X161272882Y-106332207D01*
X161272880Y-106332206D01*
X161144700Y-106287353D01*
X161114270Y-106284500D01*
X161114266Y-106284500D01*
X160511966Y-106284500D01*
X160444927Y-106264815D01*
X160399172Y-106212011D01*
X160389228Y-106142853D01*
X160418253Y-106079297D01*
X160424285Y-106072819D01*
X161487648Y-105009455D01*
X161850489Y-104646614D01*
X161909799Y-104543887D01*
X161915576Y-104522326D01*
X161926464Y-104481691D01*
X161926464Y-104481690D01*
X161940500Y-104429309D01*
X161940500Y-102740691D01*
X161909799Y-102626114D01*
X161909799Y-102626113D01*
X161909799Y-102626112D01*
X161850492Y-102523389D01*
X161850488Y-102523384D01*
X160135647Y-100808543D01*
X161319499Y-100808543D01*
X161357947Y-101001829D01*
X161357950Y-101001839D01*
X161433364Y-101183907D01*
X161433371Y-101183920D01*
X161542860Y-101347781D01*
X161542863Y-101347785D01*
X161682214Y-101487136D01*
X161682218Y-101487139D01*
X161846079Y-101596628D01*
X161846092Y-101596635D01*
X162028160Y-101672049D01*
X162028165Y-101672051D01*
X162028169Y-101672051D01*
X162028170Y-101672052D01*
X162221456Y-101710500D01*
X162221459Y-101710500D01*
X162418543Y-101710500D01*
X162548582Y-101684632D01*
X162611835Y-101672051D01*
X162793914Y-101596632D01*
X162957782Y-101487139D01*
X163097139Y-101347782D01*
X163206632Y-101183914D01*
X163218242Y-101155886D01*
X163249995Y-101079225D01*
X163282051Y-101001835D01*
X163312353Y-100849500D01*
X163320500Y-100808543D01*
X163320500Y-100611456D01*
X163282052Y-100418170D01*
X163282051Y-100418169D01*
X163282051Y-100418165D01*
X163262177Y-100370185D01*
X163206635Y-100236092D01*
X163206628Y-100236079D01*
X163097139Y-100072218D01*
X163097136Y-100072214D01*
X162957785Y-99932863D01*
X162957781Y-99932860D01*
X162793920Y-99823371D01*
X162793907Y-99823364D01*
X162611839Y-99747950D01*
X162611829Y-99747947D01*
X162418543Y-99709500D01*
X162418541Y-99709500D01*
X162221459Y-99709500D01*
X162221457Y-99709500D01*
X162028170Y-99747947D01*
X162028160Y-99747950D01*
X161846092Y-99823364D01*
X161846079Y-99823371D01*
X161682218Y-99932860D01*
X161682214Y-99932863D01*
X161542863Y-100072214D01*
X161542860Y-100072218D01*
X161433371Y-100236079D01*
X161433364Y-100236092D01*
X161357950Y-100418160D01*
X161357947Y-100418170D01*
X161319500Y-100611456D01*
X161319500Y-100611459D01*
X161319500Y-100808541D01*
X161319500Y-100808543D01*
X161319499Y-100808543D01*
X160135647Y-100808543D01*
X159147919Y-99820815D01*
X159133215Y-99793887D01*
X159116623Y-99768069D01*
X159115731Y-99761868D01*
X159114434Y-99759492D01*
X159111600Y-99733134D01*
X159111600Y-99515932D01*
X159129567Y-99451644D01*
X159469078Y-98891670D01*
X159469087Y-98891655D01*
X159472441Y-98885916D01*
X159472799Y-98885280D01*
X159477586Y-98869875D01*
X159484967Y-98858831D01*
X159491982Y-98823560D01*
X159498388Y-98802953D01*
X159499193Y-98794035D01*
X159497300Y-98776313D01*
X159496600Y-98763149D01*
X159496600Y-97937375D01*
X160189100Y-97937375D01*
X160189100Y-98805228D01*
X160203603Y-98878140D01*
X160203605Y-98878144D01*
X160258860Y-98960839D01*
X160341555Y-99016094D01*
X160341559Y-99016096D01*
X160414471Y-99030599D01*
X160414474Y-99030600D01*
X161987726Y-99030600D01*
X161987728Y-99030599D01*
X162060640Y-99016096D01*
X162060644Y-99016094D01*
X162143339Y-98960839D01*
X162198594Y-98878144D01*
X162198596Y-98878140D01*
X162213099Y-98805228D01*
X162213100Y-98805226D01*
X162213100Y-97937376D01*
X161201100Y-96925376D01*
X160189100Y-97937375D01*
X159496600Y-97937375D01*
X159496600Y-97583824D01*
X160189100Y-97583824D01*
X161024324Y-96748600D01*
X161024324Y-96748599D01*
X161377876Y-96748599D01*
X161377876Y-96748600D01*
X162213099Y-97583824D01*
X162213100Y-97583823D01*
X162213100Y-95913376D01*
X162213099Y-95913375D01*
X161377876Y-96748599D01*
X161024324Y-96748599D01*
X160189100Y-95913375D01*
X160189100Y-97583824D01*
X159496600Y-97583824D01*
X159496600Y-94696849D01*
X159496599Y-94696847D01*
X159484968Y-94638370D01*
X159484967Y-94638369D01*
X159440651Y-94572046D01*
X159432017Y-94563412D01*
X159432993Y-94562435D01*
X159396693Y-94518994D01*
X159387990Y-94449669D01*
X159418149Y-94386643D01*
X159477595Y-94349928D01*
X159510220Y-94345513D01*
X160154797Y-94344666D01*
X160221859Y-94364263D01*
G37*
%TD.AperFunction*%
%TA.AperFunction,Conductor*%
G36*
X149871206Y-101870185D02*
G01*
X149891848Y-101886819D01*
X152195489Y-104190460D01*
X152239921Y-104216113D01*
X152264008Y-104230020D01*
X152264012Y-104230022D01*
X152340438Y-104250500D01*
X152419562Y-104250500D01*
X155744167Y-104250500D01*
X155811206Y-104270185D01*
X155831848Y-104286819D01*
X156893181Y-105348152D01*
X156907884Y-105375079D01*
X156924477Y-105400898D01*
X156925368Y-105407098D01*
X156926666Y-105409475D01*
X156929500Y-105435833D01*
X156929500Y-105475500D01*
X156909815Y-105542539D01*
X156857011Y-105588294D01*
X156805500Y-105599500D01*
X156360247Y-105599500D01*
X156301770Y-105611131D01*
X156301769Y-105611132D01*
X156235447Y-105655447D01*
X156191132Y-105721769D01*
X156191131Y-105721770D01*
X156179500Y-105780247D01*
X156179500Y-106119747D01*
X156190651Y-106175810D01*
X156190651Y-106224190D01*
X156179500Y-106280252D01*
X156179500Y-106612465D01*
X156159815Y-106679504D01*
X156158604Y-106681354D01*
X156144504Y-106702456D01*
X156130000Y-106775373D01*
X156130000Y-106825000D01*
X156956000Y-106825000D01*
X156964685Y-106827550D01*
X156973647Y-106826262D01*
X156997687Y-106837240D01*
X157023039Y-106844685D01*
X157028966Y-106851525D01*
X157037203Y-106855287D01*
X157051492Y-106877521D01*
X157068794Y-106897489D01*
X157071081Y-106908003D01*
X157074977Y-106914065D01*
X157080000Y-106949000D01*
X157080000Y-106951000D01*
X157060315Y-107018039D01*
X157007511Y-107063794D01*
X156956000Y-107075000D01*
X156130000Y-107075000D01*
X156117009Y-107087990D01*
X156110315Y-107110790D01*
X156058610Y-107156037D01*
X156048681Y-107160688D01*
X156014011Y-107169979D01*
X155954688Y-107204229D01*
X155950101Y-107206876D01*
X155950095Y-107206880D01*
X155945492Y-107209537D01*
X155945487Y-107209541D01*
X154787041Y-108367987D01*
X154787035Y-108367995D01*
X154747482Y-108436504D01*
X154747479Y-108436509D01*
X154735493Y-108481241D01*
X154729305Y-108504338D01*
X154727000Y-108512939D01*
X154727000Y-109420388D01*
X154707315Y-109487427D01*
X154701931Y-109495145D01*
X154353431Y-109956335D01*
X154297309Y-109997954D01*
X154227596Y-110002624D01*
X154166424Y-109968863D01*
X154133216Y-109907389D01*
X154130500Y-109881578D01*
X154130500Y-105940439D01*
X154130500Y-105940438D01*
X154110021Y-105864011D01*
X154107283Y-105859269D01*
X154070464Y-105795495D01*
X154070458Y-105795487D01*
X153984513Y-105709542D01*
X153984511Y-105709540D01*
X153984267Y-105709399D01*
X153984249Y-105709388D01*
X153915991Y-105669980D01*
X153915990Y-105669979D01*
X153878475Y-105659927D01*
X153839562Y-105649500D01*
X153839560Y-105649500D01*
X153598472Y-105649500D01*
X153559260Y-105643137D01*
X153508029Y-105626060D01*
X153448008Y-105606053D01*
X153394381Y-105595821D01*
X153394379Y-105595820D01*
X153394375Y-105595820D01*
X153388239Y-105595480D01*
X153346869Y-105598704D01*
X153341464Y-105599125D01*
X153331835Y-105599500D01*
X152028161Y-105599500D01*
X152018531Y-105599125D01*
X152010428Y-105598493D01*
X151971765Y-105595481D01*
X151971760Y-105595481D01*
X151971757Y-105595481D01*
X151968686Y-105595651D01*
X151965608Y-105595821D01*
X151911998Y-105606051D01*
X151911992Y-105606052D01*
X151800739Y-105643137D01*
X151797806Y-105643612D01*
X151796462Y-105644477D01*
X151761527Y-105649500D01*
X151645612Y-105649500D01*
X151587748Y-105635171D01*
X151314086Y-105490783D01*
X151304627Y-105487692D01*
X151281153Y-105477216D01*
X151243890Y-105455703D01*
X151243887Y-105455701D01*
X151195791Y-105442814D01*
X151129309Y-105425000D01*
X151010691Y-105425000D01*
X150896114Y-105455701D01*
X150896112Y-105455701D01*
X150896112Y-105455702D01*
X150793387Y-105515011D01*
X150793384Y-105515013D01*
X150709513Y-105598884D01*
X150709507Y-105598893D01*
X150661886Y-105681373D01*
X150611319Y-105729588D01*
X150542712Y-105742810D01*
X150477847Y-105716842D01*
X150437319Y-105659927D01*
X150430500Y-105619372D01*
X150430500Y-104800730D01*
X150427646Y-104770300D01*
X150427646Y-104770298D01*
X150382793Y-104642119D01*
X150382792Y-104642117D01*
X150302150Y-104532850D01*
X150192882Y-104452207D01*
X150192880Y-104452206D01*
X150064700Y-104407353D01*
X150034270Y-104404500D01*
X150034266Y-104404500D01*
X149425734Y-104404500D01*
X149425730Y-104404500D01*
X149395300Y-104407353D01*
X149395298Y-104407353D01*
X149267119Y-104452206D01*
X149267117Y-104452207D01*
X149157850Y-104532850D01*
X149077207Y-104642117D01*
X149077206Y-104642119D01*
X149032353Y-104770298D01*
X149032353Y-104770300D01*
X149029500Y-104800730D01*
X149029500Y-105859269D01*
X149032353Y-105889696D01*
X149032353Y-105889698D01*
X149032354Y-105889699D01*
X149039738Y-105910801D01*
X149077207Y-106017882D01*
X149135411Y-106096747D01*
X149146270Y-106114372D01*
X149146669Y-106115161D01*
X149146673Y-106115166D01*
X149146674Y-106115168D01*
X149240627Y-106235000D01*
X149408647Y-106449301D01*
X149420473Y-106469537D01*
X149420757Y-106469374D01*
X149424818Y-106476409D01*
X149424819Y-106476410D01*
X149467935Y-106551090D01*
X149562949Y-106646104D01*
X149572835Y-106658713D01*
X149580776Y-106668235D01*
X149581705Y-106669283D01*
X149582252Y-106669897D01*
X149597712Y-106680867D01*
X149631410Y-106714565D01*
X149706090Y-106757681D01*
X149789384Y-106780000D01*
X150525073Y-106780000D01*
X150592112Y-106799685D01*
X150637867Y-106852489D01*
X150647811Y-106921647D01*
X150644850Y-106936083D01*
X150619500Y-107030691D01*
X150619500Y-107149309D01*
X150624940Y-107169615D01*
X150628888Y-107193438D01*
X150629382Y-107200839D01*
X150629609Y-107204229D01*
X150740236Y-107615109D01*
X150744500Y-107647347D01*
X150744500Y-108630500D01*
X150724815Y-108697539D01*
X150672011Y-108743294D01*
X150620500Y-108754500D01*
X147277147Y-108754500D01*
X147194362Y-108776682D01*
X147194355Y-108776685D01*
X147185996Y-108781511D01*
X147118095Y-108797981D01*
X147052069Y-108775127D01*
X147008881Y-108720204D01*
X147000000Y-108674122D01*
X147000000Y-107000000D01*
X145200000Y-107000000D01*
X145200000Y-107627320D01*
X145197763Y-107634937D01*
X145199033Y-107642773D01*
X145188059Y-107667982D01*
X145180315Y-107694359D01*
X145173606Y-107701188D01*
X145171148Y-107706837D01*
X145144891Y-107730422D01*
X145094342Y-107764198D01*
X145027665Y-107785076D01*
X144960284Y-107766592D01*
X144956560Y-107764198D01*
X144948230Y-107758632D01*
X144948229Y-107758631D01*
X144889752Y-107747000D01*
X144889748Y-107747000D01*
X144387668Y-107747000D01*
X144325668Y-107730387D01*
X144245640Y-107684183D01*
X144245639Y-107684182D01*
X144245638Y-107684182D01*
X144162853Y-107662000D01*
X144077147Y-107662000D01*
X143994362Y-107684182D01*
X143994359Y-107684183D01*
X143914332Y-107730387D01*
X143856266Y-107745945D01*
X143856312Y-107746403D01*
X143853542Y-107746675D01*
X143852332Y-107747000D01*
X143850247Y-107747000D01*
X143791770Y-107758631D01*
X143791769Y-107758632D01*
X143725447Y-107802947D01*
X143681132Y-107869269D01*
X143681131Y-107869270D01*
X143669500Y-107927747D01*
X143669500Y-107927752D01*
X143669500Y-108724730D01*
X143668512Y-108727771D01*
X143667709Y-108736688D01*
X143669500Y-108753435D01*
X143669500Y-108767250D01*
X143671607Y-108777845D01*
X143673284Y-108788837D01*
X143676233Y-108816404D01*
X143676234Y-108816408D01*
X143676235Y-108816414D01*
X143771306Y-109120640D01*
X143788856Y-109176801D01*
X143794500Y-109213787D01*
X143794500Y-110634852D01*
X143816682Y-110717640D01*
X143838108Y-110754750D01*
X143859535Y-110791862D01*
X144138533Y-111070860D01*
X144138535Y-111070862D01*
X144199138Y-111131465D01*
X144267804Y-111171109D01*
X144273362Y-111174318D01*
X144356148Y-111196501D01*
X144441853Y-111196501D01*
X144441857Y-111196500D01*
X145117247Y-111196500D01*
X145184286Y-111216185D01*
X145190011Y-111220095D01*
X145726220Y-111608752D01*
X145753218Y-111635519D01*
X145758850Y-111643150D01*
X145868118Y-111723793D01*
X145910845Y-111738744D01*
X145996299Y-111768646D01*
X146026730Y-111771500D01*
X146026734Y-111771500D01*
X146835270Y-111771500D01*
X146865699Y-111768646D01*
X146865701Y-111768646D01*
X146929790Y-111746219D01*
X146993882Y-111723793D01*
X147103150Y-111643150D01*
X147183793Y-111533882D01*
X147207736Y-111465457D01*
X147228646Y-111405701D01*
X147228646Y-111405699D01*
X147231500Y-111375269D01*
X147231500Y-111162455D01*
X147237725Y-111123659D01*
X147242648Y-111108716D01*
X147388725Y-110665264D01*
X147428397Y-110607750D01*
X147492865Y-110580813D01*
X147561662Y-110593006D01*
X147612946Y-110640459D01*
X147630500Y-110704061D01*
X147630500Y-111375269D01*
X147633353Y-111405699D01*
X147633353Y-111405701D01*
X147678206Y-111533880D01*
X147678207Y-111533882D01*
X147685071Y-111543182D01*
X147694918Y-111558849D01*
X147808977Y-111774535D01*
X147822915Y-111843000D01*
X147814324Y-111878970D01*
X147503840Y-112647119D01*
X147499361Y-112656946D01*
X147420801Y-112811128D01*
X147364104Y-112985627D01*
X147364102Y-112985634D01*
X147362263Y-112997238D01*
X147361148Y-113004282D01*
X147360176Y-113007769D01*
X147360081Y-113011018D01*
X147358838Y-113018866D01*
X147353572Y-113052113D01*
X147323642Y-113115247D01*
X147264331Y-113152178D01*
X147194468Y-113151180D01*
X147136236Y-113112570D01*
X147108626Y-113052115D01*
X147098097Y-112985631D01*
X147041397Y-112811126D01*
X146958096Y-112647640D01*
X146850246Y-112499197D01*
X146720503Y-112369454D01*
X146572060Y-112261604D01*
X146408574Y-112178303D01*
X146363317Y-112163598D01*
X146234069Y-112121602D01*
X146052848Y-112092900D01*
X146052843Y-112092900D01*
X145869357Y-112092900D01*
X145869352Y-112092900D01*
X145688130Y-112121602D01*
X145513623Y-112178304D01*
X145350139Y-112261604D01*
X145201694Y-112369456D01*
X145071956Y-112499194D01*
X144964104Y-112647639D01*
X144880804Y-112811123D01*
X144824102Y-112985630D01*
X144813573Y-113052113D01*
X144783644Y-113115248D01*
X144724332Y-113152179D01*
X144654470Y-113151181D01*
X144596237Y-113112571D01*
X144568627Y-113052113D01*
X144558097Y-112985630D01*
X144544451Y-112943634D01*
X144501397Y-112811126D01*
X144418096Y-112647640D01*
X144310246Y-112499197D01*
X144180503Y-112369454D01*
X144032060Y-112261604D01*
X143868574Y-112178303D01*
X143823317Y-112163598D01*
X143694069Y-112121602D01*
X143512848Y-112092900D01*
X143512843Y-112092900D01*
X143329357Y-112092900D01*
X143329352Y-112092900D01*
X143148130Y-112121602D01*
X142973623Y-112178304D01*
X142810139Y-112261604D01*
X142661694Y-112369456D01*
X142531956Y-112499194D01*
X142424104Y-112647639D01*
X142340804Y-112811123D01*
X142284103Y-112985629D01*
X142273572Y-113052117D01*
X142266679Y-113066655D01*
X142264618Y-113082612D01*
X142252020Y-113097576D01*
X142243642Y-113115251D01*
X142229984Y-113123754D01*
X142219623Y-113136064D01*
X142200935Y-113141842D01*
X142184330Y-113152182D01*
X142168242Y-113151952D01*
X142152872Y-113156705D01*
X142134028Y-113151463D01*
X142114468Y-113151184D01*
X142101057Y-113142292D01*
X142085558Y-113137981D01*
X142072538Y-113123382D01*
X142056235Y-113112573D01*
X142049243Y-113097264D01*
X142039052Y-113085837D01*
X142028627Y-113052123D01*
X142025752Y-113033971D01*
X142024433Y-113021702D01*
X142023578Y-113006765D01*
X141757520Y-111980099D01*
X141743251Y-111941480D01*
X141741205Y-111937290D01*
X141733475Y-111924812D01*
X141734248Y-111924366D01*
X141675909Y-111823320D01*
X141674992Y-111821610D01*
X141674496Y-111819249D01*
X141664490Y-111795090D01*
X141664478Y-111795047D01*
X141646025Y-111726173D01*
X141641800Y-111694081D01*
X141641800Y-111595084D01*
X141642892Y-111578661D01*
X141643580Y-111573511D01*
X141643604Y-111567553D01*
X141637035Y-111515175D01*
X141603223Y-111384699D01*
X141585565Y-111316558D01*
X141581600Y-111285452D01*
X141581600Y-104907747D01*
X143669500Y-104907747D01*
X143669500Y-105747252D01*
X143681131Y-105805729D01*
X143681132Y-105805730D01*
X143725447Y-105872052D01*
X143791769Y-105916367D01*
X143791770Y-105916368D01*
X143850247Y-105927999D01*
X143850250Y-105928000D01*
X143850252Y-105928000D01*
X144889750Y-105928000D01*
X144889751Y-105927999D01*
X144918989Y-105922183D01*
X144948227Y-105916368D01*
X144948227Y-105916367D01*
X144948231Y-105916367D01*
X144956559Y-105910801D01*
X145023233Y-105889923D01*
X145090614Y-105908405D01*
X145094342Y-105910801D01*
X145172455Y-105962994D01*
X145172459Y-105962996D01*
X145245371Y-105977499D01*
X145245374Y-105977500D01*
X145645000Y-105977500D01*
X145895000Y-105977500D01*
X146294626Y-105977500D01*
X146294628Y-105977499D01*
X146367540Y-105962996D01*
X146367544Y-105962994D01*
X146450239Y-105907739D01*
X146505494Y-105825044D01*
X146505496Y-105825040D01*
X146519999Y-105752128D01*
X146520000Y-105752126D01*
X146520000Y-105452500D01*
X145895000Y-105452500D01*
X145895000Y-105977500D01*
X145645000Y-105977500D01*
X145645000Y-105451500D01*
X145647550Y-105442814D01*
X145646262Y-105433853D01*
X145657240Y-105409812D01*
X145664685Y-105384461D01*
X145671525Y-105378533D01*
X145675287Y-105370297D01*
X145697521Y-105356007D01*
X145717489Y-105338706D01*
X145728003Y-105336418D01*
X145734065Y-105332523D01*
X145769000Y-105327500D01*
X145770000Y-105327500D01*
X145770000Y-105326500D01*
X145789685Y-105259461D01*
X145842489Y-105213706D01*
X145894000Y-105202500D01*
X146520000Y-105202500D01*
X146520000Y-104942045D01*
X146539685Y-104875006D01*
X146592489Y-104829251D01*
X146661647Y-104819307D01*
X146725203Y-104848332D01*
X146753174Y-104883249D01*
X147108226Y-105542539D01*
X147114675Y-105554513D01*
X147129500Y-105613308D01*
X147129500Y-105859269D01*
X147132353Y-105889699D01*
X147132353Y-105889701D01*
X147177073Y-106017500D01*
X147177207Y-106017882D01*
X147257850Y-106127150D01*
X147367118Y-106207793D01*
X147407059Y-106221769D01*
X147495299Y-106252646D01*
X147525730Y-106255500D01*
X147525734Y-106255500D01*
X148134270Y-106255500D01*
X148164699Y-106252646D01*
X148164701Y-106252646D01*
X148228790Y-106230219D01*
X148292882Y-106207793D01*
X148402150Y-106127150D01*
X148482793Y-106017882D01*
X148508882Y-105943324D01*
X148527646Y-105889701D01*
X148527646Y-105889699D01*
X148530500Y-105859269D01*
X148530500Y-104800730D01*
X148527646Y-104770300D01*
X148527646Y-104770298D01*
X148482793Y-104642119D01*
X148482792Y-104642117D01*
X148402150Y-104532850D01*
X148292882Y-104452207D01*
X148292880Y-104452206D01*
X148164700Y-104407353D01*
X148134270Y-104404500D01*
X148134266Y-104404500D01*
X147947572Y-104404500D01*
X147886751Y-104388559D01*
X147299565Y-104058062D01*
X147272705Y-104037684D01*
X147224534Y-103989513D01*
X147224532Y-103989511D01*
X147121805Y-103930201D01*
X147081871Y-103919501D01*
X147081868Y-103919500D01*
X147050321Y-103911047D01*
X147007227Y-103899500D01*
X144350691Y-103899500D01*
X144281944Y-103917920D01*
X144236112Y-103930201D01*
X144236107Y-103930204D01*
X144133393Y-103989505D01*
X144133385Y-103989511D01*
X144009513Y-104113383D01*
X144009511Y-104113386D01*
X143950200Y-104216113D01*
X143950200Y-104216114D01*
X143946473Y-104230020D01*
X143946474Y-104230021D01*
X143919500Y-104330691D01*
X143919500Y-104454414D01*
X143918455Y-104460175D01*
X143919168Y-104463480D01*
X143911604Y-104497954D01*
X143845256Y-104674878D01*
X143803286Y-104730737D01*
X143798044Y-104734440D01*
X143725447Y-104782948D01*
X143681132Y-104849269D01*
X143681131Y-104849270D01*
X143669500Y-104907747D01*
X141581600Y-104907747D01*
X141581600Y-102374500D01*
X141601285Y-102307461D01*
X141654089Y-102261706D01*
X141705600Y-102250500D01*
X143832995Y-102250500D01*
X143924041Y-102232389D01*
X143968328Y-102223580D01*
X144095811Y-102170775D01*
X144107011Y-102163290D01*
X144128709Y-102152706D01*
X144128444Y-102152107D01*
X144785171Y-101861130D01*
X144835402Y-101850500D01*
X149804167Y-101850500D01*
X149871206Y-101870185D01*
G37*
%TD.AperFunction*%
%TA.AperFunction,Conductor*%
G36*
X151963981Y-110707339D02*
G01*
X152011492Y-110758568D01*
X152024500Y-110813857D01*
X152024500Y-111354269D01*
X152027353Y-111384699D01*
X152027353Y-111384701D01*
X152072206Y-111512880D01*
X152072207Y-111512882D01*
X152152850Y-111622150D01*
X152262118Y-111702793D01*
X152283872Y-111710405D01*
X152390299Y-111747646D01*
X152420730Y-111750500D01*
X152420734Y-111750500D01*
X153229270Y-111750500D01*
X153259699Y-111747646D01*
X153259701Y-111747646D01*
X153335312Y-111721188D01*
X153387882Y-111702793D01*
X153490218Y-111627265D01*
X153507364Y-111616651D01*
X153836743Y-111448141D01*
X153905390Y-111435133D01*
X153950663Y-111448643D01*
X154227660Y-111593455D01*
X154269978Y-111629709D01*
X154282850Y-111647150D01*
X154392118Y-111727793D01*
X154434845Y-111742744D01*
X154520299Y-111772646D01*
X154550730Y-111775500D01*
X154550734Y-111775500D01*
X154751558Y-111775500D01*
X154763105Y-111778115D01*
X154771291Y-111777080D01*
X154804980Y-111787597D01*
X154993330Y-111877518D01*
X155045347Y-111924164D01*
X155063888Y-111991528D01*
X155050699Y-112045104D01*
X154976089Y-112193549D01*
X154976077Y-112193577D01*
X154974736Y-112197255D01*
X154974737Y-112197256D01*
X154969625Y-112211288D01*
X154967033Y-112215169D01*
X154965614Y-112222299D01*
X154962365Y-112231220D01*
X154962363Y-112231229D01*
X154959745Y-112238415D01*
X154959739Y-112238437D01*
X154958495Y-112243680D01*
X154958492Y-112243698D01*
X154953271Y-112279582D01*
X154953272Y-112279585D01*
X154953648Y-112281798D01*
X154955400Y-112302568D01*
X154955400Y-112772886D01*
X154935715Y-112839925D01*
X154882911Y-112885680D01*
X154813753Y-112895624D01*
X154750197Y-112866599D01*
X154713469Y-112811205D01*
X154707268Y-112792120D01*
X154620431Y-112621694D01*
X154620429Y-112621691D01*
X154525475Y-112490999D01*
X154525475Y-112490998D01*
X154011828Y-113004645D01*
X153981199Y-112951593D01*
X153888107Y-112858501D01*
X153835053Y-112827870D01*
X154348700Y-112314223D01*
X154348699Y-112314221D01*
X154218014Y-112219274D01*
X154218005Y-112219268D01*
X154047579Y-112132431D01*
X153865660Y-112073321D01*
X153676743Y-112043400D01*
X153485457Y-112043400D01*
X153296539Y-112073321D01*
X153114620Y-112132431D01*
X152944192Y-112219269D01*
X152813499Y-112314222D01*
X152813499Y-112314224D01*
X153327146Y-112827870D01*
X153274093Y-112858501D01*
X153181001Y-112951593D01*
X153150370Y-113004645D01*
X152636724Y-112490999D01*
X152636722Y-112490999D01*
X152541769Y-112621692D01*
X152454931Y-112792120D01*
X152403007Y-112951925D01*
X152363569Y-113009600D01*
X152299210Y-113036798D01*
X152230364Y-113024883D01*
X152178888Y-112977638D01*
X152167145Y-112951924D01*
X152165154Y-112945796D01*
X152121397Y-112811126D01*
X152038096Y-112647640D01*
X152032997Y-112640622D01*
X152024975Y-112628054D01*
X152019191Y-112617665D01*
X152017348Y-112612042D01*
X151530143Y-111747394D01*
X151514383Y-111679327D01*
X151524621Y-111636707D01*
X151590834Y-111485800D01*
X151604390Y-111442368D01*
X151605066Y-111438879D01*
X151609755Y-111421534D01*
X151622646Y-111384699D01*
X151622646Y-111384696D01*
X151622647Y-111384694D01*
X151625500Y-111354269D01*
X151625500Y-111176407D01*
X151635031Y-111128732D01*
X151786031Y-110766182D01*
X151829978Y-110711863D01*
X151896315Y-110689928D01*
X151963981Y-110707339D01*
G37*
%TD.AperFunction*%
%TA.AperFunction,Conductor*%
G36*
X145838039Y-108819685D02*
G01*
X145883794Y-108872489D01*
X145895000Y-108924000D01*
X145895000Y-108997500D01*
X146294626Y-108997500D01*
X146294628Y-108997499D01*
X146367540Y-108982996D01*
X146367544Y-108982994D01*
X146450239Y-108927739D01*
X146498770Y-108855109D01*
X146552382Y-108810304D01*
X146601872Y-108800000D01*
X146896444Y-108800000D01*
X146963483Y-108819685D01*
X147009238Y-108872489D01*
X147019182Y-108941647D01*
X147016222Y-108956076D01*
X146994500Y-109037147D01*
X146994500Y-109037149D01*
X146994500Y-109602080D01*
X146974815Y-109669119D01*
X146922011Y-109714874D01*
X146911458Y-109719120D01*
X146654716Y-109808966D01*
X146283022Y-109939039D01*
X146213008Y-109963540D01*
X146172050Y-109970500D01*
X146026730Y-109970500D01*
X145996300Y-109973353D01*
X145996298Y-109973353D01*
X145868119Y-110018206D01*
X145868118Y-110018207D01*
X145758852Y-110098847D01*
X145758849Y-110098850D01*
X145753216Y-110106483D01*
X145726224Y-110133242D01*
X145190017Y-110521900D01*
X145124184Y-110545306D01*
X145117244Y-110545500D01*
X144585189Y-110545500D01*
X144555743Y-110536853D01*
X144525759Y-110530330D01*
X144520746Y-110526577D01*
X144518150Y-110525815D01*
X144497505Y-110509178D01*
X144481816Y-110493488D01*
X144448333Y-110432164D01*
X144445500Y-110405810D01*
X144445500Y-109293226D01*
X144465185Y-109226187D01*
X144483863Y-109203548D01*
X144715528Y-108982322D01*
X144777606Y-108950259D01*
X144801165Y-108948000D01*
X144889750Y-108948000D01*
X144889751Y-108947999D01*
X144921687Y-108941647D01*
X144948227Y-108936368D01*
X144948227Y-108936367D01*
X144948231Y-108936367D01*
X144956559Y-108930801D01*
X145023233Y-108909923D01*
X145090614Y-108928405D01*
X145094342Y-108930801D01*
X145172455Y-108982994D01*
X145172459Y-108982996D01*
X145245371Y-108997499D01*
X145245374Y-108997500D01*
X145645000Y-108997500D01*
X145645000Y-108924000D01*
X145647550Y-108915314D01*
X145646262Y-108906353D01*
X145657240Y-108882312D01*
X145664685Y-108856961D01*
X145671525Y-108851033D01*
X145675287Y-108842797D01*
X145697521Y-108828507D01*
X145717489Y-108811206D01*
X145728003Y-108808918D01*
X145734065Y-108805023D01*
X145769000Y-108800000D01*
X145771000Y-108800000D01*
X145838039Y-108819685D01*
G37*
%TD.AperFunction*%
%TA.AperFunction,Conductor*%
G36*
X147700030Y-94380702D02*
G01*
X147745854Y-94433446D01*
X147755888Y-94502591D01*
X147726946Y-94566185D01*
X147721680Y-94571848D01*
X147677232Y-94638369D01*
X147677231Y-94638370D01*
X147665600Y-94696847D01*
X147665600Y-94696852D01*
X147665600Y-98746210D01*
X147661736Y-98768107D01*
X147661460Y-98774028D01*
X147665729Y-98826331D01*
X147671924Y-98855471D01*
X147672428Y-98865293D01*
X147666505Y-98890099D01*
X147664566Y-98915528D01*
X147658529Y-98923513D01*
X147656204Y-98933253D01*
X147637810Y-98950919D01*
X147622431Y-98971263D01*
X147608293Y-98979269D01*
X147605813Y-98981652D01*
X147603168Y-98982171D01*
X147596045Y-98986206D01*
X147568473Y-98997627D01*
X147492189Y-99029225D01*
X147492188Y-99029226D01*
X147377456Y-99105886D01*
X147377453Y-99105889D01*
X147029888Y-99453453D01*
X147029887Y-99453454D01*
X146953222Y-99568192D01*
X146900421Y-99695667D01*
X146900418Y-99695677D01*
X146873500Y-99831003D01*
X146873500Y-99831006D01*
X146873500Y-99968994D01*
X146873500Y-99968996D01*
X146873499Y-99968996D01*
X146900418Y-100104322D01*
X146900421Y-100104332D01*
X146953222Y-100231807D01*
X147029887Y-100346545D01*
X147127454Y-100444112D01*
X147242192Y-100520777D01*
X147369667Y-100573578D01*
X147369672Y-100573580D01*
X147369676Y-100573580D01*
X147369677Y-100573581D01*
X147505003Y-100600500D01*
X147505006Y-100600500D01*
X147642996Y-100600500D01*
X147734040Y-100582389D01*
X147778328Y-100573580D01*
X147842069Y-100547177D01*
X147905807Y-100520777D01*
X147905808Y-100520776D01*
X147905811Y-100520775D01*
X148020543Y-100444114D01*
X148077839Y-100386817D01*
X148139160Y-100353334D01*
X148165519Y-100350500D01*
X148441007Y-100350500D01*
X148578994Y-100350500D01*
X148775007Y-100350500D01*
X149951007Y-100350500D01*
X151048481Y-100350500D01*
X151115520Y-100370185D01*
X151136162Y-100386819D01*
X152993453Y-102244111D01*
X152993454Y-102244112D01*
X153108192Y-102320777D01*
X153235667Y-102373578D01*
X153235672Y-102373580D01*
X153235676Y-102373580D01*
X153235677Y-102373581D01*
X153371003Y-102400500D01*
X153371006Y-102400500D01*
X153371007Y-102400500D01*
X156520483Y-102400500D01*
X156587522Y-102420185D01*
X156608164Y-102436819D01*
X158880736Y-104709391D01*
X158906425Y-104746841D01*
X159168870Y-105339171D01*
X159170943Y-105348968D01*
X159174477Y-105354467D01*
X159179500Y-105389402D01*
X159179500Y-105556167D01*
X159159815Y-105623206D01*
X159143181Y-105643848D01*
X158681848Y-106105181D01*
X158620525Y-106138666D01*
X158594167Y-106141500D01*
X158104500Y-106141500D01*
X158037461Y-106121815D01*
X157991706Y-106069011D01*
X157980500Y-106017500D01*
X157980500Y-105780249D01*
X157980499Y-105780247D01*
X157968868Y-105721770D01*
X157968867Y-105721769D01*
X157924552Y-105655447D01*
X157858230Y-105611132D01*
X157858229Y-105611131D01*
X157799752Y-105599500D01*
X157799748Y-105599500D01*
X157654500Y-105599500D01*
X157587461Y-105579815D01*
X157541706Y-105527011D01*
X157530500Y-105475500D01*
X157530500Y-105220438D01*
X157527400Y-105208868D01*
X157510022Y-105144012D01*
X157470460Y-105075489D01*
X156104511Y-103709540D01*
X156104509Y-103709539D01*
X156104504Y-103709535D01*
X156035995Y-103669982D01*
X156035990Y-103669979D01*
X156010513Y-103663152D01*
X155959562Y-103649500D01*
X155959560Y-103649500D01*
X152555833Y-103649500D01*
X152488794Y-103629815D01*
X152468152Y-103613181D01*
X150164513Y-101309542D01*
X150164507Y-101309537D01*
X150148533Y-101300315D01*
X150095991Y-101269980D01*
X150095990Y-101269979D01*
X150070513Y-101263152D01*
X150019562Y-101249500D01*
X150019560Y-101249500D01*
X144835404Y-101249500D01*
X144785173Y-101238870D01*
X144597882Y-101155887D01*
X144134013Y-100950360D01*
X144134012Y-100950359D01*
X144129675Y-100948438D01*
X144129798Y-100948159D01*
X144107149Y-100936801D01*
X144095811Y-100929225D01*
X144095807Y-100929223D01*
X144095805Y-100929222D01*
X143968332Y-100876421D01*
X143968322Y-100876418D01*
X143832995Y-100849500D01*
X143832993Y-100849500D01*
X139605884Y-100849500D01*
X139538845Y-100829815D01*
X139518203Y-100813181D01*
X139077919Y-100372897D01*
X139044434Y-100311574D01*
X139041600Y-100285216D01*
X139041600Y-99473755D01*
X139044311Y-99447969D01*
X139113345Y-99123252D01*
X139176470Y-98826331D01*
X139180739Y-98774028D01*
X139180463Y-98768107D01*
X139178486Y-98756907D01*
X139176600Y-98735359D01*
X139176600Y-97937375D01*
X139869100Y-97937375D01*
X139869100Y-98805228D01*
X139883603Y-98878140D01*
X139883605Y-98878144D01*
X139938860Y-98960839D01*
X140021555Y-99016094D01*
X140021559Y-99016096D01*
X140094471Y-99030599D01*
X140094474Y-99030600D01*
X141667726Y-99030600D01*
X141667728Y-99030599D01*
X141740640Y-99016096D01*
X141740644Y-99016094D01*
X141823339Y-98960839D01*
X141878594Y-98878144D01*
X141878596Y-98878140D01*
X141893099Y-98805228D01*
X141893100Y-98805226D01*
X141893100Y-97937376D01*
X141893099Y-97937375D01*
X144949100Y-97937375D01*
X144949100Y-98805228D01*
X144963603Y-98878140D01*
X144963605Y-98878144D01*
X145018860Y-98960839D01*
X145101555Y-99016094D01*
X145101559Y-99016096D01*
X145174471Y-99030599D01*
X145174474Y-99030600D01*
X146747726Y-99030600D01*
X146747728Y-99030599D01*
X146820640Y-99016096D01*
X146820644Y-99016094D01*
X146903339Y-98960839D01*
X146958594Y-98878144D01*
X146958596Y-98878140D01*
X146973099Y-98805228D01*
X146973100Y-98805226D01*
X146973100Y-97937376D01*
X145961100Y-96925376D01*
X144949100Y-97937375D01*
X141893099Y-97937375D01*
X140881100Y-96925376D01*
X139869100Y-97937375D01*
X139176600Y-97937375D01*
X139176600Y-97583824D01*
X139869100Y-97583824D01*
X140704324Y-96748600D01*
X140704324Y-96748599D01*
X141057876Y-96748599D01*
X141057876Y-96748600D01*
X141893099Y-97583824D01*
X144949100Y-97583824D01*
X145784324Y-96748600D01*
X145784324Y-96748599D01*
X146137876Y-96748599D01*
X146137876Y-96748600D01*
X146973099Y-97583824D01*
X146973100Y-97583823D01*
X146973100Y-95913376D01*
X146973099Y-95913375D01*
X146137876Y-96748599D01*
X145784324Y-96748599D01*
X144949100Y-95913375D01*
X144949100Y-97583824D01*
X141893099Y-97583824D01*
X141893100Y-97583823D01*
X141893100Y-95913376D01*
X141893099Y-95913375D01*
X141057876Y-96748599D01*
X140704324Y-96748599D01*
X139869100Y-95913375D01*
X139869100Y-97583824D01*
X139176600Y-97583824D01*
X139176600Y-94696849D01*
X139176599Y-94696847D01*
X139164968Y-94638371D01*
X139152062Y-94619056D01*
X139120652Y-94572048D01*
X139120650Y-94572047D01*
X139115970Y-94565042D01*
X139095092Y-94498364D01*
X139113576Y-94430984D01*
X139165554Y-94384294D01*
X139218906Y-94372150D01*
X139816956Y-94371365D01*
X139884020Y-94390962D01*
X139929845Y-94443706D01*
X139939879Y-94512851D01*
X139920221Y-94564255D01*
X139883604Y-94619056D01*
X139883603Y-94619059D01*
X139869100Y-94691971D01*
X139869100Y-95559824D01*
X140881100Y-96571824D01*
X141893099Y-95559824D01*
X141893100Y-95559823D01*
X141893100Y-94691973D01*
X141893099Y-94691971D01*
X141878596Y-94619059D01*
X141878594Y-94619055D01*
X141840114Y-94561465D01*
X141819236Y-94494788D01*
X141837720Y-94427407D01*
X141889699Y-94380717D01*
X141943050Y-94368574D01*
X144901418Y-94364690D01*
X144968480Y-94384287D01*
X145014305Y-94437030D01*
X145024339Y-94506176D01*
X145004681Y-94557580D01*
X144963604Y-94619056D01*
X144963603Y-94619059D01*
X144949100Y-94691971D01*
X144949100Y-95559824D01*
X145961100Y-96571824D01*
X146973099Y-95559824D01*
X146973100Y-95559823D01*
X146973100Y-94691973D01*
X146973099Y-94691971D01*
X146958596Y-94619059D01*
X146958594Y-94619055D01*
X146915662Y-94554802D01*
X146894784Y-94488124D01*
X146913268Y-94420744D01*
X146965247Y-94374054D01*
X147018598Y-94361911D01*
X147632964Y-94361105D01*
X147700030Y-94380702D01*
G37*
%TD.AperFunction*%
%TA.AperFunction,Conductor*%
G36*
X157840883Y-94357267D02*
G01*
X157873627Y-94366249D01*
X157874341Y-94367044D01*
X157875367Y-94367344D01*
X157897626Y-94392965D01*
X157920319Y-94418226D01*
X157920490Y-94419281D01*
X157921191Y-94420088D01*
X157926067Y-94453689D01*
X157931498Y-94487196D01*
X157931071Y-94488175D01*
X157931225Y-94489233D01*
X157917164Y-94520128D01*
X157903614Y-94551261D01*
X157902568Y-94552200D01*
X157902283Y-94552827D01*
X157889280Y-94564314D01*
X157881548Y-94572046D01*
X157837232Y-94638369D01*
X157837231Y-94638370D01*
X157825600Y-94696847D01*
X157825600Y-94696852D01*
X157825600Y-98786699D01*
X157824358Y-98807450D01*
X157825717Y-98816301D01*
X157832465Y-98834864D01*
X157835120Y-98848212D01*
X157835121Y-98848216D01*
X157837232Y-98858830D01*
X157837233Y-98858832D01*
X157837568Y-98859333D01*
X157851001Y-98885852D01*
X157853108Y-98891649D01*
X157853115Y-98891662D01*
X158192633Y-99451645D01*
X158210600Y-99515932D01*
X158210600Y-100030409D01*
X158221802Y-100072214D01*
X158228321Y-100096543D01*
X158228321Y-100096544D01*
X158241299Y-100144985D01*
X158276540Y-100206022D01*
X158300611Y-100247714D01*
X158300613Y-100247716D01*
X161003181Y-102950284D01*
X161036666Y-103011607D01*
X161039500Y-103037965D01*
X161039500Y-104132035D01*
X161019815Y-104199074D01*
X161003181Y-104219716D01*
X160188180Y-105034716D01*
X160177041Y-105040798D01*
X160168852Y-105050494D01*
X160146959Y-105057224D01*
X160126857Y-105068201D01*
X160114198Y-105067295D01*
X160102067Y-105071025D01*
X160080011Y-105064850D01*
X160057165Y-105063217D01*
X160047004Y-105055611D01*
X160034784Y-105052190D01*
X160019566Y-105035070D01*
X160001232Y-105021345D01*
X159996797Y-105009455D01*
X159988365Y-104999969D01*
X159984818Y-104977340D01*
X159976815Y-104955881D01*
X159979256Y-104941842D01*
X159977548Y-104930941D01*
X159987021Y-104897187D01*
X159987061Y-104896956D01*
X160079638Y-104688013D01*
X160080161Y-104686077D01*
X160082864Y-104679956D01*
X160085092Y-104677317D01*
X160093199Y-104661145D01*
X160100775Y-104649809D01*
X160153580Y-104522326D01*
X160180499Y-104386992D01*
X160180499Y-104249004D01*
X160153580Y-104113669D01*
X160100775Y-103986187D01*
X160024114Y-103871455D01*
X160024112Y-103871452D01*
X157308547Y-101155887D01*
X157193809Y-101079222D01*
X157066334Y-101026421D01*
X157066324Y-101026418D01*
X156930998Y-100999500D01*
X156930996Y-100999500D01*
X156930995Y-100999500D01*
X153781519Y-100999500D01*
X153714480Y-100979815D01*
X153693838Y-100963181D01*
X151915233Y-99184575D01*
X151881748Y-99123252D01*
X151886732Y-99053560D01*
X151928604Y-98997627D01*
X151934024Y-98993792D01*
X151983339Y-98960840D01*
X152038594Y-98878144D01*
X152038596Y-98878140D01*
X152053099Y-98805228D01*
X152053100Y-98805226D01*
X152053100Y-97937376D01*
X152053099Y-97937375D01*
X155109100Y-97937375D01*
X155109100Y-98805228D01*
X155123603Y-98878140D01*
X155123605Y-98878144D01*
X155178860Y-98960839D01*
X155261555Y-99016094D01*
X155261559Y-99016096D01*
X155334471Y-99030599D01*
X155334474Y-99030600D01*
X156907726Y-99030600D01*
X156907728Y-99030599D01*
X156980640Y-99016096D01*
X156980644Y-99016094D01*
X157063339Y-98960839D01*
X157118594Y-98878144D01*
X157118596Y-98878140D01*
X157133099Y-98805228D01*
X157133100Y-98805226D01*
X157133100Y-97937376D01*
X156121100Y-96925376D01*
X155109100Y-97937375D01*
X152053099Y-97937375D01*
X151041100Y-96925376D01*
X150029100Y-97937375D01*
X150029100Y-98805226D01*
X150029697Y-98811289D01*
X150027402Y-98811514D01*
X150022103Y-98870877D01*
X149979251Y-98926063D01*
X149913366Y-98949321D01*
X149906704Y-98949500D01*
X149460950Y-98949500D01*
X149452495Y-98947017D01*
X149443780Y-98948305D01*
X149419487Y-98937325D01*
X149393911Y-98929815D01*
X149388142Y-98923157D01*
X149380112Y-98919528D01*
X149365609Y-98897152D01*
X149348156Y-98877011D01*
X149345903Y-98866750D01*
X149342109Y-98860897D01*
X149339835Y-98839117D01*
X149336951Y-98825981D01*
X149336930Y-98820689D01*
X149340739Y-98774028D01*
X149340463Y-98768107D01*
X149336642Y-98746454D01*
X149336601Y-98735840D01*
X149336632Y-98735730D01*
X149336600Y-98735359D01*
X149336600Y-97583824D01*
X150029100Y-97583824D01*
X150864324Y-96748600D01*
X150864324Y-96748599D01*
X151217876Y-96748599D01*
X151217876Y-96748600D01*
X152053099Y-97583824D01*
X155109100Y-97583824D01*
X155944324Y-96748600D01*
X155944324Y-96748599D01*
X156297876Y-96748599D01*
X156297876Y-96748600D01*
X157133099Y-97583824D01*
X157133100Y-97583823D01*
X157133100Y-95913376D01*
X157133099Y-95913375D01*
X156297876Y-96748599D01*
X155944324Y-96748599D01*
X155109100Y-95913375D01*
X155109100Y-97583824D01*
X152053099Y-97583824D01*
X152053100Y-97583823D01*
X152053100Y-95913376D01*
X152053099Y-95913375D01*
X151217876Y-96748599D01*
X150864324Y-96748599D01*
X150029100Y-95913375D01*
X150029100Y-97583824D01*
X149336600Y-97583824D01*
X149336600Y-94696849D01*
X149336599Y-94696847D01*
X149324968Y-94638370D01*
X149324967Y-94638369D01*
X149280651Y-94572046D01*
X149279115Y-94570510D01*
X149276836Y-94566336D01*
X149273867Y-94561893D01*
X149274264Y-94561627D01*
X149245630Y-94509187D01*
X149250614Y-94439495D01*
X149292486Y-94383562D01*
X149357950Y-94359145D01*
X149366628Y-94358829D01*
X149985875Y-94358016D01*
X150052940Y-94377613D01*
X150098765Y-94430356D01*
X150108799Y-94499502D01*
X150089140Y-94550906D01*
X150043606Y-94619052D01*
X150043603Y-94619059D01*
X150029100Y-94691971D01*
X150029100Y-95559824D01*
X151041100Y-96571824D01*
X152053099Y-95559824D01*
X152053100Y-95559823D01*
X152053100Y-94691973D01*
X152053099Y-94691971D01*
X152038596Y-94619059D01*
X152038594Y-94619055D01*
X151991210Y-94548139D01*
X151970332Y-94481461D01*
X151988817Y-94414081D01*
X152040795Y-94367391D01*
X152094146Y-94355248D01*
X155070336Y-94351341D01*
X155137400Y-94370938D01*
X155183225Y-94423682D01*
X155193259Y-94492827D01*
X155173601Y-94544231D01*
X155123604Y-94619056D01*
X155123603Y-94619059D01*
X155109100Y-94691971D01*
X155109100Y-95559824D01*
X156121100Y-96571824D01*
X157133099Y-95559824D01*
X157133100Y-95559823D01*
X157133100Y-94691973D01*
X157133099Y-94691971D01*
X157118596Y-94619059D01*
X157118594Y-94619055D01*
X157066758Y-94541476D01*
X157045880Y-94474798D01*
X157064365Y-94407418D01*
X157116343Y-94360728D01*
X157169694Y-94348585D01*
X157808302Y-94347747D01*
X157840883Y-94357267D01*
G37*
%TD.AperFunction*%
%TD*%
%TA.AperFunction,Conductor*%
%TO.N,CLK2*%
G36*
X158671463Y-96781413D02*
G01*
X158672268Y-96783355D01*
X159294525Y-98775560D01*
X159293720Y-98784478D01*
X159293362Y-98785114D01*
X158914516Y-99409966D01*
X158907296Y-99415264D01*
X158904511Y-99415600D01*
X158417689Y-99415600D01*
X158409416Y-99412173D01*
X158407684Y-99409966D01*
X158028837Y-98785114D01*
X158027478Y-98776263D01*
X158027674Y-98775560D01*
X158649932Y-96783355D01*
X158655670Y-96776480D01*
X158664588Y-96775675D01*
X158671463Y-96781413D01*
G37*
%TD.AperFunction*%
%TD*%
%TA.AperFunction,Conductor*%
%TO.N,CLK0*%
G36*
X157326001Y-105653427D02*
G01*
X157329428Y-105661700D01*
X157329415Y-105662258D01*
X157323135Y-105793865D01*
X157319317Y-105801965D01*
X157317626Y-105803243D01*
X157090009Y-105944776D01*
X157081174Y-105946234D01*
X157073895Y-105941018D01*
X156992334Y-105807650D01*
X156990942Y-105798806D01*
X156993827Y-105793496D01*
X157126540Y-105653645D01*
X157134721Y-105650004D01*
X157135027Y-105650000D01*
X157317728Y-105650000D01*
X157326001Y-105653427D01*
G37*
%TD.AperFunction*%
%TD*%
%TA.AperFunction,Conductor*%
%TO.N,GND*%
G36*
X156282760Y-106825000D02*
G01*
X156282760Y-107075000D01*
X155780227Y-107052196D01*
X155828000Y-106807000D01*
X155967893Y-106599133D01*
X156282760Y-106825000D01*
G37*
%TD.AperFunction*%
%TD*%
%TA.AperFunction,Conductor*%
%TO.N,GND*%
G36*
X156282760Y-106825000D02*
G01*
X156282760Y-107075000D01*
X155780227Y-107052196D01*
X155828000Y-106807000D01*
X155967893Y-106599133D01*
X156282760Y-106825000D01*
G37*
%TD.AperFunction*%
%TD*%
%TA.AperFunction,Conductor*%
%TO.N,GND*%
G36*
X155850222Y-107075000D02*
G01*
X155745196Y-107348773D01*
X155499000Y-107300000D01*
X155361107Y-107092133D01*
X155850222Y-106825000D01*
X155850222Y-107075000D01*
G37*
%TD.AperFunction*%
%TD*%
%TA.AperFunction,Conductor*%
%TO.N,GND*%
G36*
X155829707Y-106806293D02*
G01*
X155967893Y-107014867D01*
X155668912Y-107307865D01*
X155492135Y-107131088D01*
X155583804Y-106758227D01*
X155829707Y-106806293D01*
G37*
%TD.AperFunction*%
%TD*%
%TA.AperFunction,Conductor*%
%TO.N,+3.3V*%
G36*
X157783300Y-107301100D02*
G01*
X157922000Y-107347333D01*
X157928765Y-107353201D01*
X157930000Y-107358433D01*
X157930000Y-107541566D01*
X157926573Y-107549839D01*
X157922000Y-107552666D01*
X157783300Y-107598900D01*
X157779600Y-107599500D01*
X157778901Y-107599500D01*
X157776453Y-107599241D01*
X157506918Y-107541566D01*
X157132466Y-107461440D01*
X157125094Y-107456359D01*
X157123474Y-107447552D01*
X157128556Y-107440179D01*
X157132466Y-107438559D01*
X157776453Y-107300759D01*
X157778901Y-107300500D01*
X157779600Y-107300500D01*
X157783300Y-107301100D01*
G37*
%TD.AperFunction*%
%TD*%
%TA.AperFunction,Conductor*%
%TO.N,+3.3V*%
G36*
X158188347Y-107067463D02*
G01*
X158194618Y-107073855D01*
X158195236Y-107075918D01*
X158270527Y-107449645D01*
X158268801Y-107458432D01*
X158268772Y-107458476D01*
X158053610Y-107779047D01*
X158046154Y-107784007D01*
X158039403Y-107783331D01*
X157981621Y-107759308D01*
X157975298Y-107752967D01*
X157974640Y-107750794D01*
X157968867Y-107721769D01*
X157924552Y-107655448D01*
X157858231Y-107611133D01*
X157799748Y-107599500D01*
X157599575Y-107599500D01*
X157595083Y-107598603D01*
X157485385Y-107552995D01*
X157479062Y-107546655D01*
X157478177Y-107542192D01*
X157478177Y-107357899D01*
X157481604Y-107349626D01*
X157485501Y-107347047D01*
X157598888Y-107301348D01*
X157603262Y-107300500D01*
X157799747Y-107300500D01*
X157799748Y-107300500D01*
X157858231Y-107288867D01*
X157924552Y-107244552D01*
X157968867Y-107178231D01*
X157973256Y-107156164D01*
X157978228Y-107148722D01*
X157980346Y-107147602D01*
X158179394Y-107067377D01*
X158188347Y-107067463D01*
G37*
%TD.AperFunction*%
%TD*%
%TA.AperFunction,Conductor*%
%TO.N,+3.3V*%
G36*
X160730749Y-107217295D02*
G01*
X161262911Y-107752454D01*
X161284394Y-107774058D01*
X161287798Y-107782341D01*
X161285991Y-107788555D01*
X160825944Y-108517047D01*
X160818629Y-108522213D01*
X160816051Y-108522500D01*
X160628949Y-108522500D01*
X160620676Y-108519073D01*
X160619056Y-108517047D01*
X160159007Y-107788553D01*
X160157488Y-107779730D01*
X160160603Y-107774060D01*
X160714205Y-107217341D01*
X160722467Y-107213892D01*
X160730749Y-107217295D01*
G37*
%TD.AperFunction*%
%TD*%
%TA.AperFunction,Conductor*%
%TO.N,+3.3V*%
G36*
X160824324Y-107980927D02*
G01*
X160825944Y-107982953D01*
X161285991Y-108711444D01*
X161287511Y-108720269D01*
X161284394Y-108725941D01*
X160730796Y-109282657D01*
X160722533Y-109286107D01*
X160714250Y-109282703D01*
X160714204Y-109282657D01*
X160160605Y-108725941D01*
X160157201Y-108717658D01*
X160159006Y-108711448D01*
X160619056Y-107982952D01*
X160626371Y-107977787D01*
X160628949Y-107977500D01*
X160816051Y-107977500D01*
X160824324Y-107980927D01*
G37*
%TD.AperFunction*%
%TD*%
%TA.AperFunction,Conductor*%
%TO.N,+3.3V*%
G36*
X161100934Y-107475239D02*
G01*
X161108366Y-107480233D01*
X161110092Y-107489020D01*
X161109450Y-107491140D01*
X160825475Y-108185045D01*
X160819170Y-108191404D01*
X160814647Y-108192314D01*
X160630353Y-108192314D01*
X160622080Y-108188887D01*
X160619525Y-108185045D01*
X160335549Y-107491140D01*
X160335587Y-107482186D01*
X160341946Y-107475881D01*
X160344058Y-107475241D01*
X160720192Y-107399465D01*
X160724808Y-107399465D01*
X161100934Y-107475239D01*
G37*
%TD.AperFunction*%
%TD*%
%TA.AperFunction,Conductor*%
%TO.N,Net-(U1-XA)*%
G36*
X149736884Y-105339066D02*
G01*
X149739432Y-105341321D01*
X150205477Y-105894156D01*
X150208190Y-105902690D01*
X150206455Y-105907896D01*
X149923007Y-106361565D01*
X149921357Y-106363639D01*
X149752030Y-106532966D01*
X149743757Y-106536393D01*
X149735484Y-106532966D01*
X149734555Y-106531918D01*
X149308394Y-105988373D01*
X149305987Y-105979749D01*
X149307806Y-105974758D01*
X149351467Y-105907896D01*
X149720692Y-105342464D01*
X149728083Y-105337412D01*
X149736884Y-105339066D01*
G37*
%TD.AperFunction*%
%TD*%
%TA.AperFunction,Conductor*%
%TO.N,Net-(U1-XA)*%
G36*
X151968746Y-106304061D02*
G01*
X151980400Y-106305000D01*
X151981099Y-106305000D01*
X151990271Y-106304515D01*
X151990699Y-106304525D01*
X151992860Y-106304773D01*
X152627130Y-106438631D01*
X152634517Y-106443693D01*
X152636162Y-106452495D01*
X152631100Y-106459882D01*
X152627162Y-106461520D01*
X151983547Y-106599241D01*
X151981099Y-106599500D01*
X151977135Y-106599500D01*
X151975551Y-106599392D01*
X151840116Y-106580882D01*
X151832383Y-106576367D01*
X151830000Y-106569290D01*
X151830000Y-106335513D01*
X151833427Y-106327240D01*
X151839891Y-106323954D01*
X151966358Y-106304190D01*
X151968233Y-106304121D01*
X151968406Y-106304054D01*
X151968746Y-106304061D01*
G37*
%TD.AperFunction*%
%TD*%
%TA.AperFunction,Conductor*%
%TO.N,Net-(U1-XA)*%
G36*
X151980399Y-106305000D02*
G01*
X151980400Y-106305000D01*
X151981096Y-106305000D01*
X151981099Y-106305000D01*
X151997421Y-106304138D01*
X152000471Y-106304380D01*
X152627533Y-106438559D01*
X152634905Y-106443640D01*
X152636525Y-106452447D01*
X152631443Y-106459820D01*
X152627532Y-106461440D01*
X151983547Y-106599241D01*
X151981099Y-106599500D01*
X151977969Y-106599500D01*
X151976046Y-106599341D01*
X151930622Y-106591770D01*
X151839776Y-106576629D01*
X151832179Y-106571888D01*
X151830000Y-106565088D01*
X151830000Y-106334911D01*
X151833427Y-106326638D01*
X151839775Y-106323370D01*
X151958484Y-106303585D01*
X151961345Y-106303465D01*
X151980399Y-106305000D01*
G37*
%TD.AperFunction*%
%TD*%
%TA.AperFunction,Conductor*%
%TO.N,GND*%
G36*
X145792314Y-109150000D02*
G01*
X145792314Y-109650000D01*
X145078036Y-109792314D01*
X144999000Y-109400000D01*
X145078036Y-109007686D01*
X145792314Y-109150000D01*
G37*
%TD.AperFunction*%
%TD*%
%TA.AperFunction,Conductor*%
%TO.N,GND*%
G36*
X146201000Y-109400000D02*
G01*
X146121964Y-109792314D01*
X145407686Y-109650000D01*
X145407686Y-109150000D01*
X146121964Y-109007686D01*
X146201000Y-109400000D01*
G37*
%TD.AperFunction*%
%TD*%
%TA.AperFunction,Conductor*%
%TO.N,/SDA_3V*%
G36*
X151729661Y-109773454D02*
G01*
X151732961Y-109775772D01*
X151898943Y-109941754D01*
X151902370Y-109950027D01*
X151901471Y-109954525D01*
X151429483Y-111087762D01*
X151423138Y-111094082D01*
X151414220Y-111094080D01*
X150830003Y-110853062D01*
X150823662Y-110846739D01*
X150823018Y-110844666D01*
X150678573Y-110159960D01*
X150680218Y-110151160D01*
X150686045Y-110146544D01*
X151324153Y-109916195D01*
X151328126Y-109915500D01*
X151437854Y-109915500D01*
X151437854Y-109915499D01*
X151479246Y-109904409D01*
X151520637Y-109893319D01*
X151520641Y-109893317D01*
X151545380Y-109879033D01*
X151594862Y-109850465D01*
X151643088Y-109802238D01*
X151647374Y-109799515D01*
X151720716Y-109773040D01*
X151729661Y-109773454D01*
G37*
%TD.AperFunction*%
%TD*%
%TA.AperFunction,Conductor*%
%TO.N,/SDA_3V*%
G36*
X151076436Y-111361688D02*
G01*
X151078356Y-111364217D01*
X151838314Y-112712923D01*
X151839390Y-112721813D01*
X151834630Y-112728390D01*
X151045137Y-113256897D01*
X151036355Y-113258651D01*
X151036334Y-113258647D01*
X150106829Y-113072775D01*
X150099388Y-113067792D01*
X150097650Y-113059008D01*
X150097852Y-113058162D01*
X150572603Y-111366798D01*
X150578138Y-111359760D01*
X150583868Y-111358261D01*
X151068163Y-111358261D01*
X151076436Y-111361688D01*
G37*
%TD.AperFunction*%
%TD*%
%TA.AperFunction,Conductor*%
%TO.N,/SDA_3V*%
G36*
X150833016Y-110856543D02*
G01*
X151399955Y-111390011D01*
X151403632Y-111398176D01*
X151402651Y-111403233D01*
X151078071Y-112143001D01*
X151071609Y-112149200D01*
X151067357Y-112150000D01*
X150582643Y-112150000D01*
X150574370Y-112146573D01*
X150571929Y-112143001D01*
X150247348Y-111403233D01*
X150247162Y-111394280D01*
X150250042Y-111390013D01*
X150816983Y-110856543D01*
X150825356Y-110853370D01*
X150833016Y-110856543D01*
G37*
%TD.AperFunction*%
%TD*%
%TA.AperFunction,Conductor*%
%TO.N,/SDA_3V*%
G36*
X152688246Y-107957301D02*
G01*
X152825774Y-108095746D01*
X152829173Y-108104030D01*
X152829014Y-108105914D01*
X152806630Y-108240223D01*
X152801890Y-108247821D01*
X152795089Y-108250000D01*
X152564911Y-108250000D01*
X152556638Y-108246573D01*
X152553370Y-108240223D01*
X152530985Y-108105912D01*
X152533005Y-108097191D01*
X152534214Y-108095757D01*
X152671699Y-107957355D01*
X152679961Y-107953902D01*
X152688246Y-107957301D01*
G37*
%TD.AperFunction*%
%TD*%
%TA.AperFunction,Conductor*%
%TO.N,/SCL_3V*%
G36*
X151983547Y-107300759D02*
G01*
X152627532Y-107438559D01*
X152634905Y-107443641D01*
X152636525Y-107452448D01*
X152631443Y-107459821D01*
X152627532Y-107461441D01*
X151983547Y-107599241D01*
X151981099Y-107599500D01*
X151977969Y-107599500D01*
X151976046Y-107599341D01*
X151930622Y-107591770D01*
X151839776Y-107576629D01*
X151832179Y-107571888D01*
X151830000Y-107565088D01*
X151830000Y-107334911D01*
X151833427Y-107326638D01*
X151839775Y-107323370D01*
X151976046Y-107300659D01*
X151977969Y-107300500D01*
X151981099Y-107300500D01*
X151983547Y-107300759D01*
G37*
%TD.AperFunction*%
%TD*%
%TA.AperFunction,Conductor*%
%TO.N,/SCL_3V*%
G36*
X148540702Y-109574083D02*
G01*
X148541076Y-109574441D01*
X148707929Y-109741294D01*
X148710038Y-109744173D01*
X149007887Y-110317470D01*
X149008661Y-110326391D01*
X149005515Y-110331392D01*
X148439570Y-110862992D01*
X148431194Y-110866158D01*
X148423032Y-110862474D01*
X148422389Y-110861729D01*
X147929351Y-110239378D01*
X147926900Y-110230766D01*
X147929890Y-110224216D01*
X148524174Y-109574813D01*
X148532285Y-109571025D01*
X148540702Y-109574083D01*
G37*
%TD.AperFunction*%
%TD*%
%TA.AperFunction,Conductor*%
%TO.N,/SCL_3V*%
G36*
X148751483Y-111350173D02*
G01*
X148754057Y-111354062D01*
X149442463Y-113057210D01*
X149442387Y-113066164D01*
X149436000Y-113072441D01*
X149433910Y-113073067D01*
X148503394Y-113259141D01*
X148498806Y-113259141D01*
X147568289Y-113073067D01*
X147560848Y-113068084D01*
X147559110Y-113059300D01*
X147559734Y-113057215D01*
X148248143Y-111354062D01*
X148254420Y-111347675D01*
X148258990Y-111346746D01*
X148743210Y-111346746D01*
X148751483Y-111350173D01*
G37*
%TD.AperFunction*%
%TD*%
%TA.AperFunction,Conductor*%
%TO.N,/SCL_3V*%
G36*
X148439204Y-110877720D02*
G01*
X149006456Y-111411482D01*
X149010133Y-111419647D01*
X149009495Y-111423827D01*
X148753824Y-112163124D01*
X148747882Y-112169823D01*
X148742767Y-112171000D01*
X148258148Y-112171000D01*
X148249875Y-112167573D01*
X148247805Y-112164769D01*
X148218063Y-112108527D01*
X147864490Y-111439917D01*
X147863653Y-111431004D01*
X147866620Y-111426117D01*
X148422976Y-110877905D01*
X148431272Y-110874541D01*
X148439204Y-110877720D01*
G37*
%TD.AperFunction*%
%TD*%
%TA.AperFunction,Conductor*%
%TO.N,CLK0*%
G36*
X138351463Y-96781413D02*
G01*
X138352268Y-96783355D01*
X138975186Y-98777676D01*
X138975462Y-98783597D01*
X138843070Y-99406333D01*
X138837998Y-99413713D01*
X138831626Y-99415600D01*
X137850574Y-99415600D01*
X137842301Y-99412173D01*
X137839130Y-99406333D01*
X137706737Y-98783597D01*
X137707013Y-98777676D01*
X138329932Y-96783355D01*
X138335670Y-96776480D01*
X138344588Y-96775675D01*
X138351463Y-96781413D01*
G37*
%TD.AperFunction*%
%TD*%
%TA.AperFunction,Conductor*%
%TO.N,CLK0*%
G36*
X141380318Y-111350173D02*
G01*
X141383371Y-111355511D01*
X141438106Y-111566726D01*
X141438082Y-111572687D01*
X141436300Y-111579342D01*
X141436300Y-111737459D01*
X141477221Y-111890181D01*
X141477223Y-111890184D01*
X141556280Y-112027116D01*
X141556282Y-112027118D01*
X141556545Y-112027461D01*
X141558591Y-112031651D01*
X141824649Y-113058317D01*
X141823407Y-113067185D01*
X141816258Y-113072578D01*
X141815617Y-113072725D01*
X140883394Y-113259141D01*
X140878806Y-113259141D01*
X139946582Y-113072725D01*
X139939141Y-113067742D01*
X139937403Y-113058958D01*
X139937541Y-113058353D01*
X140279848Y-111737459D01*
X140378829Y-111355511D01*
X140384222Y-111348362D01*
X140390155Y-111346746D01*
X141372045Y-111346746D01*
X141380318Y-111350173D01*
G37*
%TD.AperFunction*%
%TD*%
%TA.AperFunction,Conductor*%
%TO.N,CLK1*%
G36*
X148511463Y-96781413D02*
G01*
X148512268Y-96783355D01*
X149135186Y-98777676D01*
X149135462Y-98783597D01*
X149003070Y-99406333D01*
X148997998Y-99413713D01*
X148991626Y-99415600D01*
X148010574Y-99415600D01*
X148002301Y-99412173D01*
X147999130Y-99406333D01*
X147866737Y-98783597D01*
X147867013Y-98777676D01*
X148489932Y-96783355D01*
X148495670Y-96776480D01*
X148504588Y-96775675D01*
X148511463Y-96781413D01*
G37*
%TD.AperFunction*%
%TD*%
%TA.AperFunction,Conductor*%
%TO.N,CLK2*%
G36*
X157089935Y-107955178D02*
G01*
X157089964Y-107955196D01*
X157310535Y-108092347D01*
X157317626Y-108096756D01*
X157322842Y-108104035D01*
X157323135Y-108106134D01*
X157329415Y-108237742D01*
X157326386Y-108246169D01*
X157318286Y-108249987D01*
X157317728Y-108250000D01*
X157135027Y-108250000D01*
X157126754Y-108246573D01*
X157126540Y-108246354D01*
X157126364Y-108246169D01*
X156993829Y-108106505D01*
X156990620Y-108098145D01*
X156992333Y-108092350D01*
X157073851Y-107959053D01*
X157081089Y-107953785D01*
X157089935Y-107955178D01*
G37*
%TD.AperFunction*%
%TD*%
%TA.AperFunction,Conductor*%
%TO.N,CLK2*%
G36*
X158498675Y-109951113D02*
G01*
X158501876Y-109957100D01*
X158640032Y-110650513D01*
X158638288Y-110659296D01*
X158630869Y-110664269D01*
X158252311Y-110740534D01*
X158247689Y-110740534D01*
X157869130Y-110664269D01*
X157861697Y-110659275D01*
X157859967Y-110650514D01*
X157998124Y-109957099D01*
X158003101Y-109949656D01*
X158009598Y-109947686D01*
X158490402Y-109947686D01*
X158498675Y-109951113D01*
G37*
%TD.AperFunction*%
%TD*%
%TA.AperFunction,Conductor*%
%TO.N,+3.3V*%
G36*
X155529251Y-110610665D02*
G01*
X155535028Y-110615863D01*
X155778181Y-111061368D01*
X156099341Y-111649797D01*
X156100296Y-111658699D01*
X156097344Y-111663674D01*
X155755831Y-112005187D01*
X155747558Y-112008614D01*
X155742518Y-112007472D01*
X155491955Y-111887850D01*
X154844423Y-111578710D01*
X154838434Y-111572054D01*
X154837885Y-111566474D01*
X154940837Y-110855889D01*
X154945415Y-110848193D01*
X154947950Y-110846752D01*
X155520298Y-110610652D01*
X155529251Y-110610665D01*
G37*
%TD.AperFunction*%
%TD*%
%TA.AperFunction,Conductor*%
%TO.N,+3.3V*%
G36*
X156383547Y-107300759D02*
G01*
X157027532Y-107438559D01*
X157034905Y-107443641D01*
X157036525Y-107452448D01*
X157031443Y-107459821D01*
X157027532Y-107461441D01*
X156383547Y-107599241D01*
X156381099Y-107599500D01*
X156380400Y-107599500D01*
X156376700Y-107598900D01*
X156238000Y-107552666D01*
X156231235Y-107546798D01*
X156230000Y-107541566D01*
X156230000Y-107358433D01*
X156233427Y-107350160D01*
X156237998Y-107347333D01*
X156376700Y-107301100D01*
X156380400Y-107300500D01*
X156381099Y-107300500D01*
X156383547Y-107300759D01*
G37*
%TD.AperFunction*%
%TD*%
%TA.AperFunction,Conductor*%
%TO.N,+3.3V*%
G36*
X145893375Y-110278745D02*
G01*
X146424840Y-110863128D01*
X146427871Y-110871554D01*
X146424840Y-110878872D01*
X145893375Y-111463254D01*
X145885273Y-111467069D01*
X145877853Y-111464855D01*
X145235834Y-110999503D01*
X145231146Y-110991873D01*
X145231000Y-110990030D01*
X145231000Y-110751969D01*
X145234427Y-110743696D01*
X145235834Y-110742496D01*
X145877855Y-110277143D01*
X145886562Y-110275063D01*
X145893375Y-110278745D01*
G37*
%TD.AperFunction*%
%TD*%
%TA.AperFunction,Conductor*%
%TO.N,+3.3V*%
G36*
X151302988Y-107136294D02*
G01*
X151310413Y-107141298D01*
X151312125Y-107150088D01*
X151311957Y-107150802D01*
X151197331Y-107576538D01*
X151191871Y-107583636D01*
X151186033Y-107585196D01*
X150953967Y-107585196D01*
X150945694Y-107581769D01*
X150942669Y-107576538D01*
X150928549Y-107524097D01*
X150828042Y-107150800D01*
X150829200Y-107141922D01*
X150836298Y-107136462D01*
X150836985Y-107136300D01*
X151067675Y-107089472D01*
X151072325Y-107089472D01*
X151302988Y-107136294D01*
G37*
%TD.AperFunction*%
%TD*%
%TA.AperFunction,Conductor*%
%TO.N,+3.3V*%
G36*
X154384908Y-110278947D02*
G01*
X154716203Y-110617632D01*
X154935724Y-110842051D01*
X154939059Y-110850361D01*
X154935957Y-110858169D01*
X154397995Y-111440858D01*
X154389865Y-111444612D01*
X154383977Y-111443290D01*
X153773779Y-111124282D01*
X153768035Y-111117412D01*
X153767500Y-111113913D01*
X153767500Y-110627795D01*
X153770927Y-110619522D01*
X153773398Y-110617635D01*
X154370753Y-110276966D01*
X154379635Y-110275845D01*
X154384908Y-110278947D01*
G37*
%TD.AperFunction*%
%TD*%
%TA.AperFunction,Conductor*%
%TO.N,+3.3V*%
G36*
X153384045Y-110264010D02*
G01*
X154018993Y-110617654D01*
X154024553Y-110624674D01*
X154025000Y-110627876D01*
X154025000Y-111113843D01*
X154021573Y-111122116D01*
X154018629Y-111124259D01*
X153371384Y-111455388D01*
X153362458Y-111456105D01*
X153357293Y-111452725D01*
X152831052Y-110857970D01*
X152828136Y-110849503D01*
X152831267Y-110842227D01*
X153369811Y-110266240D01*
X153377962Y-110262540D01*
X153384045Y-110264010D01*
G37*
%TD.AperFunction*%
%TD*%
%TA.AperFunction,Conductor*%
%TO.N,+3.3V*%
G36*
X152568310Y-105925886D02*
G01*
X152627532Y-105938559D01*
X152634905Y-105943641D01*
X152636525Y-105952448D01*
X152631443Y-105959821D01*
X152627532Y-105961441D01*
X151983547Y-106099241D01*
X151981099Y-106099500D01*
X151980400Y-106099500D01*
X151976700Y-106098900D01*
X151838000Y-106052666D01*
X151831235Y-106046798D01*
X151830000Y-106041566D01*
X151830000Y-105858433D01*
X151833427Y-105850160D01*
X151837998Y-105847333D01*
X151976976Y-105801007D01*
X151983117Y-105800667D01*
X152568310Y-105925886D01*
G37*
%TD.AperFunction*%
%TD*%
%TA.AperFunction,Conductor*%
%TO.N,+3.3V*%
G36*
X151218189Y-105672537D02*
G01*
X151548301Y-105846708D01*
X151554018Y-105853598D01*
X151554540Y-105857055D01*
X151554540Y-106040045D01*
X151551113Y-106048318D01*
X151544714Y-106051594D01*
X151129875Y-106118894D01*
X151121159Y-106116836D01*
X151116535Y-106109673D01*
X151069974Y-105880298D01*
X151071685Y-105871509D01*
X151203024Y-105676353D01*
X151210486Y-105671403D01*
X151218189Y-105672537D01*
G37*
%TD.AperFunction*%
%TD*%
%TA.AperFunction,Conductor*%
%TO.N,+3.3V*%
G36*
X153383023Y-105801007D02*
G01*
X153522000Y-105847333D01*
X153528765Y-105853201D01*
X153530000Y-105858433D01*
X153530000Y-106041566D01*
X153526573Y-106049839D01*
X153522000Y-106052666D01*
X153383300Y-106098900D01*
X153379600Y-106099500D01*
X153378901Y-106099500D01*
X153376453Y-106099241D01*
X153106918Y-106041566D01*
X152732466Y-105961440D01*
X152725094Y-105956359D01*
X152723474Y-105947552D01*
X152728556Y-105940179D01*
X152732466Y-105938559D01*
X153376881Y-105800667D01*
X153383023Y-105801007D01*
G37*
%TD.AperFunction*%
%TD*%
%TA.AperFunction,Conductor*%
%TO.N,+3.3V*%
G36*
X155810868Y-111363954D02*
G01*
X156840507Y-112286233D01*
X156844383Y-112294305D01*
X156842050Y-112301982D01*
X156129904Y-113248543D01*
X156122192Y-113253094D01*
X156113521Y-113250858D01*
X156112282Y-113249782D01*
X155161876Y-112299376D01*
X155158449Y-112291103D01*
X155159695Y-112285849D01*
X155448220Y-111711801D01*
X155450397Y-111708788D01*
X155794790Y-111364395D01*
X155803062Y-111360969D01*
X155810868Y-111363954D01*
G37*
%TD.AperFunction*%
%TD*%
%TA.AperFunction,Conductor*%
%TO.N,+3.3V*%
G36*
X147437100Y-109841043D02*
G01*
X147440527Y-109849316D01*
X147439940Y-109852977D01*
X147034797Y-111082877D01*
X147028953Y-111089662D01*
X147020023Y-111090329D01*
X147019617Y-111090187D01*
X146436661Y-110874098D01*
X146430095Y-110868009D01*
X146429430Y-110866168D01*
X146245150Y-110181494D01*
X146246309Y-110172614D01*
X146252581Y-110167411D01*
X147151105Y-109852977D01*
X147193123Y-109838273D01*
X147196988Y-109837616D01*
X147428827Y-109837616D01*
X147437100Y-109841043D01*
G37*
%TD.AperFunction*%
%TD*%
%TA.AperFunction,Conductor*%
%TO.N,+3.3V*%
G36*
X144376913Y-108355952D02*
G01*
X144377223Y-108356356D01*
X144657802Y-108739215D01*
X144659928Y-108747914D01*
X144656445Y-108754593D01*
X144305657Y-109089575D01*
X144253598Y-109139290D01*
X144248391Y-109144262D01*
X144240311Y-109147500D01*
X144003601Y-109147500D01*
X143995328Y-109144073D01*
X143992434Y-109139290D01*
X143872381Y-108755119D01*
X143873184Y-108746202D01*
X143876225Y-108742507D01*
X144360468Y-108354144D01*
X144369064Y-108351642D01*
X144376913Y-108355952D01*
G37*
%TD.AperFunction*%
%TD*%
%TA.AperFunction,Conductor*%
%TO.N,+3.3V*%
G36*
X155128651Y-109540927D02*
G01*
X155130771Y-109543827D01*
X155507053Y-110271753D01*
X155507808Y-110280676D01*
X155504956Y-110285376D01*
X154951812Y-110841634D01*
X154943549Y-110845084D01*
X154935266Y-110841680D01*
X154934326Y-110840625D01*
X154433809Y-110205314D01*
X154431382Y-110196695D01*
X154433663Y-110191022D01*
X154923989Y-109542145D01*
X154931711Y-109537612D01*
X154933324Y-109537500D01*
X155120378Y-109537500D01*
X155128651Y-109540927D01*
G37*
%TD.AperFunction*%
%TD*%
%TA.AperFunction,Conductor*%
%TO.N,Net-(Y1-OUT)*%
G36*
X144620165Y-104530927D02*
G01*
X144622847Y-104535092D01*
X144767358Y-104920455D01*
X144767054Y-104929404D01*
X144764686Y-104932826D01*
X144378283Y-105320196D01*
X144370015Y-105323633D01*
X144361737Y-105320216D01*
X144361717Y-105320196D01*
X143975313Y-104932826D01*
X143971896Y-104924548D01*
X143972640Y-104920459D01*
X144117153Y-104535092D01*
X144123267Y-104528549D01*
X144128108Y-104527500D01*
X144611892Y-104527500D01*
X144620165Y-104530927D01*
G37*
%TD.AperFunction*%
%TD*%
%TA.AperFunction,Conductor*%
%TO.N,Net-(Y1-OUT)*%
G36*
X147183277Y-104228425D02*
G01*
X147768935Y-104558061D01*
X147846163Y-104601529D01*
X147851692Y-104608573D01*
X147852119Y-104612073D01*
X147830939Y-105322894D01*
X147827267Y-105331062D01*
X147823399Y-105333483D01*
X147339591Y-105517297D01*
X147330641Y-105517032D01*
X147325135Y-105511908D01*
X146840541Y-104612073D01*
X146826117Y-104585289D01*
X146825212Y-104576383D01*
X146828144Y-104571473D01*
X147169269Y-104230348D01*
X147177541Y-104226922D01*
X147183277Y-104228425D01*
G37*
%TD.AperFunction*%
%TD*%
%TA.AperFunction,Conductor*%
%TO.N,CLK1*%
G36*
X157783332Y-106300933D02*
G01*
X157921455Y-106339607D01*
X157928497Y-106345138D01*
X157930000Y-106350874D01*
X157930000Y-106533641D01*
X157926573Y-106541914D01*
X157922094Y-106544709D01*
X157783016Y-106592382D01*
X157776877Y-106592777D01*
X157133772Y-106461205D01*
X157126353Y-106456189D01*
X157124654Y-106447397D01*
X157129670Y-106439978D01*
X157133664Y-106438302D01*
X157776453Y-106300759D01*
X157778901Y-106300500D01*
X157780177Y-106300500D01*
X157783332Y-106300933D01*
G37*
%TD.AperFunction*%
%TD*%
%TA.AperFunction,Conductor*%
%TO.N,CLK0*%
G36*
X144050767Y-101138244D02*
G01*
X144747433Y-101446916D01*
X144753608Y-101453400D01*
X144754393Y-101457613D01*
X144754393Y-101642386D01*
X144750966Y-101650659D01*
X144747433Y-101653083D01*
X144050769Y-101961754D01*
X144041816Y-101961972D01*
X144036312Y-101957573D01*
X143937712Y-101810538D01*
X143767368Y-101556514D01*
X143765607Y-101547737D01*
X143767368Y-101543486D01*
X144036312Y-101142425D01*
X144043766Y-101137463D01*
X144050767Y-101138244D01*
G37*
%TD.AperFunction*%
%TD*%
%TA.AperFunction,Conductor*%
%TO.N,CLK0*%
G36*
X144050767Y-101138244D02*
G01*
X144747433Y-101446916D01*
X144753608Y-101453400D01*
X144754393Y-101457613D01*
X144754393Y-101642386D01*
X144750966Y-101650659D01*
X144747433Y-101653083D01*
X144050769Y-101961754D01*
X144041816Y-101961972D01*
X144036312Y-101957573D01*
X143937712Y-101810538D01*
X143767368Y-101556514D01*
X143765607Y-101547737D01*
X143767368Y-101543486D01*
X144036312Y-101142425D01*
X144043766Y-101137463D01*
X144050767Y-101138244D01*
G37*
%TD.AperFunction*%
%TD*%
%TA.AperFunction,Conductor*%
%TO.N,CLK1*%
G36*
X159486513Y-104321366D02*
G01*
X159740538Y-104491710D01*
X159887573Y-104590310D01*
X159892536Y-104597764D01*
X159891754Y-104604767D01*
X159583084Y-105301431D01*
X159576600Y-105307606D01*
X159572387Y-105308391D01*
X159387613Y-105308391D01*
X159379340Y-105304964D01*
X159376916Y-105301431D01*
X159068244Y-104604765D01*
X159068027Y-104595814D01*
X159072425Y-104590310D01*
X159473485Y-104321366D01*
X159482263Y-104319605D01*
X159486513Y-104321366D01*
G37*
%TD.AperFunction*%
%TD*%
%TA.AperFunction,Conductor*%
%TO.N,CLK2*%
G36*
X157978123Y-109402987D02*
G01*
X158377202Y-109606180D01*
X158383019Y-109612987D01*
X158382319Y-109621915D01*
X158381647Y-109623068D01*
X158252018Y-109818726D01*
X158248726Y-109822018D01*
X158053068Y-109951647D01*
X158044279Y-109953359D01*
X158036852Y-109948355D01*
X158036180Y-109947202D01*
X157972442Y-109822018D01*
X157832987Y-109548125D01*
X157832288Y-109539199D01*
X157835139Y-109534547D01*
X157964546Y-109405140D01*
X157972818Y-109401714D01*
X157978123Y-109402987D01*
G37*
%TD.AperFunction*%
%TD*%
%TA.AperFunction,Conductor*%
%TO.N,CLK2*%
G36*
X159891894Y-105637601D02*
G01*
X159892510Y-105637982D01*
X159976248Y-105693461D01*
X160088726Y-105767981D01*
X160092018Y-105771273D01*
X160222012Y-105967481D01*
X160223724Y-105976270D01*
X160218720Y-105983697D01*
X160218096Y-105984083D01*
X159836002Y-106204071D01*
X159827122Y-106205229D01*
X159821891Y-106202204D01*
X159657795Y-106038108D01*
X159654368Y-106029835D01*
X159655927Y-106024000D01*
X159713457Y-105924077D01*
X159715307Y-105921663D01*
X159720460Y-105916511D01*
X159760022Y-105847988D01*
X159762027Y-105840502D01*
X159763179Y-105837715D01*
X159875918Y-105641901D01*
X159883014Y-105636443D01*
X159891894Y-105637601D01*
G37*
%TD.AperFunction*%
%TD*%
M02*
