M48
; DRILL file {KiCad 9.0.3} date 2025-07-23T07:55:48+0530
; FORMAT={-:-/ absolute / inch / decimal}
; #@! TF.CreationDate,2025-07-23T07:55:48+05:30
; #@! TF.GenerationSoftware,Kicad,Pcbnew,9.0.3
; #@! TF.FileFunction,Plated,1,2,PTH
FMAT,2
INCH
; #@! TA.AperFunction,Plated,PTH,ViaDrill
T1C0.0118
; #@! TA.AperFunction,Plated,PTH,ViaDrill
T2C0.0157
; #@! TA.AperFunction,Plated,PTH,ComponentDrill
T3C0.0394
%
G90
G05
T1
X0.0939Y-0.5839
X0.1189Y-0.5839
X0.1772Y-0.0538
X0.2008Y-0.0538
X0.2047Y-0.5787
X0.2244Y-0.0538
X0.248Y-0.0538
X0.2717Y-0.0538
X0.2953Y-0.0538
X0.3039Y-0.4939
X0.3039Y-0.5839
X0.3189Y-0.0538
X0.3425Y-0.0538
X0.3661Y-0.0538
X0.3898Y-0.0538
X0.3939Y-0.5839
X0.4134Y-0.0538
X0.4189Y-0.5839
X0.4409Y-0.0578
X0.4566Y-0.2472
X0.4566Y-0.295
X0.4646Y-0.0696
X0.4882Y-0.0866
X0.5039Y-0.4939
X0.5039Y-0.5789
X0.5117Y-0.1084
X0.5239Y-0.2053
X0.5354Y-0.1181
X0.5471Y-0.2053
X0.5591Y-0.1181
X0.5709Y-0.0184
X0.5731Y-0.2049
X0.5774Y-0.0439
X0.5827Y-0.1181
X0.5892Y-0.3769
X0.59Y-0.3285
X0.5901Y-0.3526
X0.5924Y-0.2561
X0.5924Y-0.2789
X0.5924Y-0.3025
X0.5948Y-0.0175
X0.5989Y-0.4919
X0.5989Y-0.5839
X0.6007Y-0.0435
X0.6042Y-0.2053
X0.6063Y-0.1181
X0.6113Y-0.3191
X0.618Y-0.0175
X0.6189Y-0.2789
X0.6196Y-0.2557
X0.6231Y-0.0439
X0.6299Y-0.1181
X0.631Y-0.3033
X0.6353Y-0.2057
X0.6389Y-0.3689
X0.6389Y-0.3909
X0.6396Y-0.0179
X0.6436Y-0.2596
X0.6439Y-0.2839
X0.6463Y-0.0439
X0.6535Y-0.1181
X0.6609Y-0.3699
X0.6609Y-0.3939
X0.668Y-0.0443
X0.6692Y-0.0163
X0.6772Y-0.1299
X0.6936Y-0.0443
X0.6939Y-0.1489
X0.6989Y-0.0189
X0.7087Y-0.1732
X0.7109Y-0.5821
X0.7126Y-0.2008
X0.7144Y-0.058
X0.7203Y-0.0356
T2
X0.0236Y-0.1644
X0.0236Y-0.2486
X0.0236Y-0.3341
X0.0236Y-0.3806
X0.0236Y-0.4168
X0.0236Y-0.4633
X0.0245Y-0.1239
X0.0246Y-0.2926
X0.0256Y-0.2076
X0.0916Y-0.6102
X0.1009Y-0.2147
X0.1009Y-0.2989
X0.1009Y-0.3844
X0.1009Y-0.4309
X0.1009Y-0.4749
X0.1018Y-0.1742
X0.1019Y-0.3429
X0.1029Y-0.2579
X0.131Y-0.6102
X0.1369Y-0.0472
X0.1664Y-0.6102
X0.1782Y-0.4765
X0.1811Y-0.109
X0.1811Y-0.1444
X0.2018Y-0.6102
X0.2165Y-0.109
X0.2165Y-0.1444
X0.2176Y-0.386
X0.2176Y-0.4765
X0.252Y-0.109
X0.252Y-0.1444
X0.2648Y-0.386
X0.2874Y-0.109
X0.2874Y-0.1444
X0.3071Y-0.2861
X0.3228Y-0.109
X0.3228Y-0.1444
X0.3425Y-0.2861
X0.3425Y-0.3216
X0.3583Y-0.109
X0.3583Y-0.1444
X0.378Y-0.2861
X0.378Y-0.3216
X0.3937Y-0.109
X0.3937Y-0.1444
X0.4173Y-0.3216
X0.4331Y-0.1601
X0.4646Y-0.1877
X0.4961Y-0.2035
X0.7392Y-0.4387
X0.7835Y-0.5066
X0.7835Y-0.542
X0.7835Y-0.5775
X0.7874Y-0.1247
X0.8189Y-0.5066
X0.8189Y-0.542
X0.8189Y-0.5775
X0.8228Y-0.1247
T3
X0.0554Y-0.5379
X0.1554Y-0.5379
X0.2554Y-0.5379
X0.3554Y-0.5379
X0.4554Y-0.5379
X0.5554Y-0.5379
X0.6554Y-0.5379
M30
