%TF.GenerationSoftware,KiCad,Pcbnew,9.0.3*%
%TF.CreationDate,2025-07-23T07:55:48+05:30*%
%TF.ProjectId,Adafruit Si5351A,41646166-7275-4697-9420-536935333531,rev?*%
%TF.SameCoordinates,Original*%
%TF.FileFunction,Copper,L2,Bot*%
%TF.FilePolarity,Positive*%
%FSLAX46Y46*%
G04 Gerber Fmt 4.6, Leading zero omitted, Abs format (unit mm)*
G04 Created by KiCad (PCBNEW 9.0.3) date 2025-07-23 07:55:48*
%MOMM*%
%LPD*%
G01*
G04 APERTURE LIST*
%TA.AperFunction,ComponentPad*%
%ADD10R,1.930400X1.930400*%
%TD*%
%TA.AperFunction,ComponentPad*%
%ADD11C,1.930400*%
%TD*%
%TA.AperFunction,ViaPad*%
%ADD12C,0.800000*%
%TD*%
%TA.AperFunction,ViaPad*%
%ADD13C,0.500000*%
%TD*%
%TA.AperFunction,Conductor*%
%ADD14C,0.500000*%
%TD*%
%TA.AperFunction,Conductor*%
%ADD15C,0.250000*%
%TD*%
G04 APERTURE END LIST*
D10*
%TO.P,JP1,1,1*%
%TO.N,+3.3V*%
X16647787Y-13662816D03*
D11*
%TO.P,JP1,2,2*%
%TO.N,GND*%
X14107787Y-13662816D03*
%TO.P,JP1,3,3*%
%TO.N,/SDA_3V*%
X11567787Y-13662816D03*
%TO.P,JP1,4,4*%
%TO.N,/SCL_3V*%
X9027787Y-13662816D03*
%TO.P,JP1,5,5*%
%TO.N,CLK2*%
X6487787Y-13662816D03*
%TO.P,JP1,6,6*%
%TO.N,CLK1*%
X3947787Y-13662816D03*
%TO.P,JP1,7,7*%
%TO.N,CLK0*%
X1407787Y-13662816D03*
%TD*%
D12*
%TO.N,GND*%
X4226687Y-15500000D03*
D13*
X6300000Y-1367743D03*
D12*
X600000Y-10586943D03*
X5526687Y-9804216D03*
X9100000Y-3667743D03*
X7800000Y-7267743D03*
X11000000Y-4067743D03*
X12600000Y-5167743D03*
X20800000Y-14667743D03*
X2586687Y-4424216D03*
D13*
X18146687Y-1474216D03*
X15826687Y-1114216D03*
X2385687Y-14831216D03*
X9900000Y-1367743D03*
X14666687Y-1114216D03*
X7719687Y-14831216D03*
D12*
X19900000Y-13767743D03*
X600000Y-4176943D03*
D13*
X16000000Y-3000000D03*
X16996687Y-414216D03*
D12*
X6400000Y-3667743D03*
X4600000Y-3667743D03*
D13*
X15526687Y-8104216D03*
X16355687Y-7211216D03*
X14988473Y-8956778D03*
X16228687Y-9929016D03*
X10640687Y-14831216D03*
D12*
X2614287Y-6550816D03*
X2563487Y-10945016D03*
X8200000Y-3667743D03*
D13*
X5700000Y-1367743D03*
D12*
X8200000Y-2767743D03*
X600000Y-6314943D03*
X2563487Y-5454216D03*
D13*
X12799687Y-12545216D03*
D12*
X2563487Y-7592216D03*
X4526687Y-12104216D03*
D13*
X14200000Y-3000000D03*
D12*
X19900000Y-14667743D03*
D13*
X6900000Y-1367743D03*
X13896687Y-5214216D03*
X15256687Y-1104216D03*
X8100000Y-1367743D03*
X14966687Y-9574216D03*
D12*
X625400Y-7432543D03*
X5526687Y-12104216D03*
D13*
X15046687Y-7084216D03*
D12*
X5500000Y-3667743D03*
X9100000Y-2767743D03*
D13*
X18057487Y-14784216D03*
X14556687Y-5204216D03*
X7500000Y-1367743D03*
X13306687Y-5214216D03*
X15696687Y-444216D03*
X17200000Y-3300000D03*
X8700000Y-1367743D03*
X15400000Y-3000000D03*
D12*
X3326687Y-15500000D03*
X20800000Y-12867743D03*
D13*
X15720687Y-7084216D03*
X15046687Y-7684216D03*
D12*
X9600000Y-7267743D03*
X600000Y-11767743D03*
D13*
X9300000Y-1367743D03*
X17752687Y-480216D03*
D12*
X6400000Y-2767743D03*
X19900000Y-12867743D03*
X10000000Y-3667743D03*
X4600000Y-2767743D03*
X600000Y-8486943D03*
D13*
X17616687Y-1124216D03*
X14800000Y-3000000D03*
D12*
X10000000Y-2767743D03*
D13*
X4500000Y-1367743D03*
X12996687Y-2754216D03*
D12*
X10600000Y-8167743D03*
D13*
X14500000Y-467743D03*
X5100000Y-1367743D03*
D12*
X650800Y-5273543D03*
X6726687Y-9804216D03*
D13*
X17625687Y-3782216D03*
D12*
X20900000Y-3167743D03*
D13*
X16346687Y-6594216D03*
D12*
X7300000Y-2767743D03*
D13*
X16228687Y-9370216D03*
X10500000Y-1367743D03*
D12*
X2563487Y-12062616D03*
D13*
X18100000Y-5100000D03*
X16026687Y-7704216D03*
X15736687Y-6494216D03*
D12*
X20000000Y-3167743D03*
D13*
X7719687Y-12545216D03*
X13600000Y-3000000D03*
X15212687Y-14831216D03*
D12*
X9600000Y-8167743D03*
X11800000Y-4767743D03*
X5500000Y-2767743D03*
D13*
X3020687Y-14831216D03*
D12*
X8700000Y-7267743D03*
X600000Y-9667743D03*
X7300000Y-3667743D03*
D13*
X18296687Y-904216D03*
X18000000Y-4400000D03*
X12400000Y-2200000D03*
D12*
X8700000Y-8167743D03*
D13*
X11800000Y-1767743D03*
X5200000Y-14700000D03*
X16600000Y-3000000D03*
X16136687Y-5224216D03*
X16966687Y-1124216D03*
X15046687Y-6504216D03*
X14986687Y-8344216D03*
X11200000Y-1467743D03*
D12*
X623200Y-3146943D03*
X5126687Y-15500000D03*
X2326687Y-15500000D03*
D13*
X10005687Y-14831216D03*
D12*
X2563487Y-9764216D03*
X20800000Y-13767743D03*
D13*
X12799687Y-14704216D03*
X16787487Y-9395616D03*
X16246687Y-454216D03*
X15106687Y-444216D03*
X15346687Y-5214216D03*
X15212687Y-12494416D03*
X16787487Y-10005216D03*
X16416687Y-1114216D03*
D12*
X2588887Y-8709816D03*
%TO.N,CLK1*%
X3476687Y-1200000D03*
%TO.N,CLK2*%
X18776687Y-11144216D03*
D13*
%TO.N,+3.3V*%
X11596687Y-6279716D03*
X11596687Y-7494216D03*
%TD*%
D14*
%TO.N,CLK1*%
X3476687Y-13191716D02*
X3476687Y-1200000D01*
%TO.N,CLK2*%
X18776687Y-11144216D02*
X18776687Y-15234216D01*
X18776687Y-15234216D02*
X18376687Y-15634216D01*
X6487787Y-15027814D02*
X6487787Y-13662816D01*
X18376687Y-15634216D02*
X7094189Y-15634216D01*
X7094189Y-15634216D02*
X6487787Y-15027814D01*
D15*
%TO.N,+3.3V*%
X11596687Y-7494216D02*
X11596687Y-6279716D01*
%TD*%
%TA.AperFunction,Conductor*%
%TO.N,GND*%
G36*
X5254417Y-13770234D02*
G01*
X5312650Y-13808844D01*
X5340260Y-13869302D01*
X5347964Y-13917944D01*
X5350790Y-13935785D01*
X5407490Y-14110290D01*
X5490791Y-14273776D01*
X5509895Y-14300071D01*
X5522156Y-14320980D01*
X5526203Y-14329748D01*
X5526205Y-14329751D01*
X5658931Y-14512264D01*
X5989953Y-14967457D01*
X6013573Y-14999936D01*
X6034716Y-15047746D01*
X6037287Y-15060175D01*
X6037287Y-15087123D01*
X6060809Y-15174907D01*
X6067988Y-15201701D01*
X6127298Y-15304428D01*
X6522126Y-15699256D01*
X6523446Y-15701071D01*
X6533396Y-15713685D01*
X6534580Y-15715071D01*
X6537598Y-15718525D01*
X6550672Y-15727802D01*
X6560689Y-15737819D01*
X6594174Y-15799142D01*
X6589190Y-15868834D01*
X6547318Y-15924767D01*
X6481854Y-15949184D01*
X6473008Y-15949500D01*
X2004067Y-15949500D01*
X1995957Y-15949235D01*
X1753642Y-15933353D01*
X1737562Y-15931235D01*
X1624798Y-15908804D01*
X1503401Y-15884657D01*
X1487735Y-15880459D01*
X1261654Y-15803715D01*
X1246674Y-15797510D01*
X1032541Y-15691912D01*
X1018495Y-15683803D01*
X819977Y-15551157D01*
X807109Y-15541283D01*
X627605Y-15383863D01*
X616136Y-15372394D01*
X458716Y-15192890D01*
X448842Y-15180022D01*
X447731Y-15178360D01*
X316196Y-14981504D01*
X308089Y-14967463D01*
X202485Y-14753318D01*
X196287Y-14738352D01*
X119538Y-14512257D01*
X115344Y-14496607D01*
X68762Y-14262424D01*
X66647Y-14246367D01*
X54441Y-14060129D01*
X69700Y-13991947D01*
X119398Y-13942837D01*
X187758Y-13928392D01*
X253076Y-13953198D01*
X294614Y-14009380D01*
X296107Y-14013703D01*
X327490Y-14110290D01*
X410791Y-14273776D01*
X518641Y-14422219D01*
X648384Y-14551962D01*
X796827Y-14659812D01*
X960313Y-14743113D01*
X1092821Y-14786167D01*
X1134817Y-14799813D01*
X1316039Y-14828516D01*
X1316044Y-14828516D01*
X1499535Y-14828516D01*
X1680756Y-14799813D01*
X1714084Y-14788984D01*
X1855261Y-14743113D01*
X2018747Y-14659812D01*
X2167190Y-14551962D01*
X2296933Y-14422219D01*
X2404783Y-14273776D01*
X2488084Y-14110290D01*
X2544784Y-13935785D01*
X2555314Y-13869302D01*
X2585243Y-13806167D01*
X2644555Y-13769236D01*
X2714417Y-13770234D01*
X2772650Y-13808844D01*
X2800260Y-13869302D01*
X2807964Y-13917944D01*
X2810790Y-13935785D01*
X2867490Y-14110290D01*
X2950791Y-14273776D01*
X3058641Y-14422219D01*
X3188384Y-14551962D01*
X3336827Y-14659812D01*
X3500313Y-14743113D01*
X3632821Y-14786167D01*
X3674817Y-14799813D01*
X3856039Y-14828516D01*
X3856044Y-14828516D01*
X4039535Y-14828516D01*
X4220756Y-14799813D01*
X4254084Y-14788984D01*
X4395261Y-14743113D01*
X4558747Y-14659812D01*
X4707190Y-14551962D01*
X4836933Y-14422219D01*
X4944783Y-14273776D01*
X5028084Y-14110290D01*
X5084784Y-13935785D01*
X5095314Y-13869302D01*
X5125243Y-13806167D01*
X5184555Y-13769236D01*
X5254417Y-13770234D01*
G37*
%TD.AperFunction*%
%TA.AperFunction,Conductor*%
G36*
X19504042Y-50765D02*
G01*
X19525951Y-52200D01*
X19746367Y-66647D01*
X19762424Y-68762D01*
X19996607Y-115344D01*
X20012257Y-119538D01*
X20238352Y-196287D01*
X20253318Y-202485D01*
X20467460Y-308088D01*
X20481504Y-316196D01*
X20515950Y-339212D01*
X20680026Y-448845D01*
X20692890Y-458716D01*
X20872394Y-616136D01*
X20883863Y-627605D01*
X21041283Y-807109D01*
X21051157Y-819977D01*
X21183803Y-1018495D01*
X21191913Y-1032542D01*
X21297508Y-1246668D01*
X21303715Y-1261654D01*
X21380459Y-1487735D01*
X21384657Y-1503401D01*
X21431235Y-1737560D01*
X21433353Y-1753642D01*
X21449235Y-1995955D01*
X21449500Y-2004065D01*
X21449500Y-13995933D01*
X21449235Y-14004043D01*
X21433353Y-14246357D01*
X21431235Y-14262439D01*
X21384657Y-14496598D01*
X21380459Y-14512264D01*
X21303715Y-14738345D01*
X21297508Y-14753331D01*
X21191913Y-14967457D01*
X21183803Y-14981504D01*
X21051157Y-15180022D01*
X21041283Y-15192890D01*
X20883863Y-15372394D01*
X20872394Y-15383863D01*
X20692890Y-15541283D01*
X20680022Y-15551157D01*
X20481504Y-15683803D01*
X20467457Y-15691913D01*
X20253331Y-15797508D01*
X20238345Y-15803715D01*
X20012264Y-15880459D01*
X19996598Y-15884657D01*
X19762439Y-15931235D01*
X19746357Y-15933353D01*
X19504043Y-15949235D01*
X19495933Y-15949500D01*
X18997868Y-15949500D01*
X18930829Y-15929815D01*
X18885074Y-15877011D01*
X18875130Y-15807853D01*
X18904155Y-15744297D01*
X18910187Y-15737819D01*
X18964203Y-15683803D01*
X19137176Y-15510830D01*
X19196485Y-15408103D01*
X19196486Y-15408102D01*
X19227187Y-15293525D01*
X19227187Y-11994132D01*
X19229577Y-11969902D01*
X19230100Y-11967274D01*
X19230102Y-11967271D01*
X19368258Y-11273857D01*
X19368258Y-11272822D01*
X19368665Y-11269741D01*
X19368857Y-11267810D01*
X19368919Y-11267816D01*
X19372483Y-11240823D01*
X19377187Y-11223273D01*
X19377187Y-11065159D01*
X19336264Y-10912432D01*
X19336260Y-10912425D01*
X19257211Y-10775506D01*
X19257205Y-10775498D01*
X19145404Y-10663697D01*
X19145396Y-10663691D01*
X19008477Y-10584642D01*
X19008473Y-10584640D01*
X19008471Y-10584639D01*
X18855744Y-10543716D01*
X18697630Y-10543716D01*
X18544903Y-10584639D01*
X18544896Y-10584642D01*
X18407977Y-10663691D01*
X18407969Y-10663697D01*
X18296168Y-10775498D01*
X18296162Y-10775506D01*
X18217113Y-10912425D01*
X18217110Y-10912432D01*
X18176187Y-11065159D01*
X18176187Y-11223272D01*
X18180890Y-11240826D01*
X18184446Y-11267802D01*
X18184516Y-11267796D01*
X18184725Y-11269918D01*
X18185114Y-11272863D01*
X18185114Y-11273854D01*
X18185115Y-11273857D01*
X18297305Y-11836944D01*
X18323797Y-11969905D01*
X18326187Y-11994135D01*
X18326187Y-14996251D01*
X18317542Y-15025691D01*
X18311019Y-15055678D01*
X18307264Y-15060693D01*
X18306502Y-15063290D01*
X18289868Y-15083932D01*
X18226403Y-15147397D01*
X18165080Y-15180882D01*
X18138722Y-15183716D01*
X7442291Y-15183716D01*
X7375252Y-15164031D01*
X7329497Y-15111227D01*
X7319553Y-15042069D01*
X7322771Y-15026686D01*
X7323046Y-15025691D01*
X7620456Y-13949494D01*
X7622031Y-13944254D01*
X7624784Y-13935785D01*
X7624785Y-13935775D01*
X7625921Y-13931046D01*
X7625946Y-13931052D01*
X7627365Y-13924494D01*
X7629165Y-13917985D01*
X7631008Y-13910811D01*
X7631205Y-13909983D01*
X7631359Y-13901816D01*
X7632861Y-13884785D01*
X7635314Y-13869293D01*
X7665244Y-13806163D01*
X7724557Y-13769233D01*
X7794419Y-13770233D01*
X7852651Y-13808844D01*
X7880259Y-13869299D01*
X7890790Y-13935786D01*
X7906323Y-13983592D01*
X7947490Y-14110290D01*
X8030791Y-14273776D01*
X8138641Y-14422219D01*
X8268384Y-14551962D01*
X8416827Y-14659812D01*
X8580313Y-14743113D01*
X8712821Y-14786167D01*
X8754817Y-14799813D01*
X8936039Y-14828516D01*
X8936044Y-14828516D01*
X9119535Y-14828516D01*
X9300756Y-14799813D01*
X9334084Y-14788984D01*
X9475261Y-14743113D01*
X9638747Y-14659812D01*
X9787190Y-14551962D01*
X9916933Y-14422219D01*
X10024783Y-14273776D01*
X10108084Y-14110290D01*
X10164784Y-13935785D01*
X10175314Y-13869302D01*
X10205243Y-13806167D01*
X10264555Y-13769236D01*
X10334417Y-13770234D01*
X10392650Y-13808844D01*
X10420260Y-13869302D01*
X10427964Y-13917944D01*
X10430790Y-13935785D01*
X10487490Y-14110290D01*
X10570791Y-14273776D01*
X10678641Y-14422219D01*
X10808384Y-14551962D01*
X10956827Y-14659812D01*
X11120313Y-14743113D01*
X11252821Y-14786167D01*
X11294817Y-14799813D01*
X11476039Y-14828516D01*
X11476044Y-14828516D01*
X11659535Y-14828516D01*
X11840756Y-14799813D01*
X11874084Y-14788984D01*
X12015261Y-14743113D01*
X12178747Y-14659812D01*
X12327190Y-14551962D01*
X12456933Y-14422219D01*
X12564783Y-14273776D01*
X12648084Y-14110290D01*
X12693832Y-13969490D01*
X12733269Y-13911815D01*
X12797628Y-13884617D01*
X12866474Y-13896532D01*
X12917950Y-13943776D01*
X12929694Y-13969490D01*
X12981618Y-14129295D01*
X13068455Y-14299721D01*
X13068461Y-14299730D01*
X13163408Y-14430415D01*
X13163410Y-14430416D01*
X13677057Y-13916769D01*
X13707688Y-13969823D01*
X13800780Y-14062915D01*
X13853832Y-14093545D01*
X13340185Y-14607191D01*
X13470878Y-14702145D01*
X13470881Y-14702147D01*
X13641307Y-14788984D01*
X13823226Y-14848094D01*
X14012144Y-14878016D01*
X14203430Y-14878016D01*
X14392347Y-14848094D01*
X14574266Y-14788984D01*
X14744691Y-14702148D01*
X14875386Y-14607191D01*
X14875387Y-14607191D01*
X14361740Y-14093545D01*
X14414794Y-14062915D01*
X14507886Y-13969823D01*
X14538516Y-13916769D01*
X15052162Y-14430416D01*
X15052162Y-14430415D01*
X15147119Y-14299720D01*
X15233956Y-14129292D01*
X15240156Y-14110212D01*
X15279593Y-14052536D01*
X15343951Y-14025337D01*
X15412798Y-14037251D01*
X15464274Y-14084495D01*
X15482087Y-14148529D01*
X15482087Y-14647768D01*
X15493718Y-14706245D01*
X15493719Y-14706246D01*
X15538034Y-14772568D01*
X15604356Y-14816883D01*
X15604357Y-14816884D01*
X15662834Y-14828515D01*
X15662837Y-14828516D01*
X15662839Y-14828516D01*
X17632737Y-14828516D01*
X17632738Y-14828515D01*
X17647555Y-14825568D01*
X17691216Y-14816884D01*
X17691216Y-14816883D01*
X17691218Y-14816883D01*
X17757539Y-14772568D01*
X17801854Y-14706247D01*
X17801854Y-14706245D01*
X17801855Y-14706245D01*
X17810948Y-14660526D01*
X17813487Y-14647764D01*
X17813487Y-12677868D01*
X17813487Y-12677865D01*
X17813486Y-12677863D01*
X17801855Y-12619386D01*
X17801854Y-12619385D01*
X17757539Y-12553063D01*
X17691217Y-12508748D01*
X17691216Y-12508747D01*
X17632739Y-12497116D01*
X17632735Y-12497116D01*
X15662839Y-12497116D01*
X15662834Y-12497116D01*
X15604357Y-12508747D01*
X15604356Y-12508748D01*
X15538034Y-12553063D01*
X15493719Y-12619385D01*
X15493718Y-12619386D01*
X15482087Y-12677863D01*
X15482087Y-13177102D01*
X15462402Y-13244141D01*
X15409598Y-13289896D01*
X15340440Y-13299840D01*
X15276884Y-13270815D01*
X15240156Y-13215421D01*
X15233955Y-13196336D01*
X15147118Y-13025910D01*
X15147116Y-13025907D01*
X15052162Y-12895215D01*
X15052162Y-12895214D01*
X14538515Y-13408861D01*
X14507886Y-13355809D01*
X14414794Y-13262717D01*
X14361740Y-13232086D01*
X14875387Y-12718439D01*
X14875386Y-12718437D01*
X14744701Y-12623490D01*
X14744692Y-12623484D01*
X14574266Y-12536647D01*
X14392347Y-12477537D01*
X14203430Y-12447616D01*
X14012144Y-12447616D01*
X13823226Y-12477537D01*
X13641307Y-12536647D01*
X13470879Y-12623485D01*
X13340186Y-12718438D01*
X13340186Y-12718440D01*
X13853833Y-13232086D01*
X13800780Y-13262717D01*
X13707688Y-13355809D01*
X13677057Y-13408861D01*
X13163411Y-12895215D01*
X13163409Y-12895215D01*
X13068456Y-13025908D01*
X12981618Y-13196336D01*
X12929694Y-13356141D01*
X12890256Y-13413816D01*
X12825897Y-13441014D01*
X12757051Y-13429099D01*
X12705575Y-13381854D01*
X12693832Y-13356140D01*
X12672308Y-13289896D01*
X12648084Y-13215342D01*
X12564783Y-13051856D01*
X12456933Y-12903413D01*
X12327190Y-12773670D01*
X12178747Y-12665820D01*
X12015261Y-12582519D01*
X11970004Y-12567814D01*
X11840756Y-12525818D01*
X11659535Y-12497116D01*
X11659530Y-12497116D01*
X11476044Y-12497116D01*
X11476039Y-12497116D01*
X11294817Y-12525818D01*
X11120310Y-12582520D01*
X10956826Y-12665820D01*
X10808381Y-12773672D01*
X10678643Y-12903410D01*
X10570791Y-13051855D01*
X10487491Y-13215339D01*
X10430789Y-13389846D01*
X10420260Y-13456329D01*
X10390331Y-13519464D01*
X10331019Y-13556395D01*
X10261157Y-13555397D01*
X10202924Y-13516787D01*
X10175314Y-13456329D01*
X10164784Y-13389846D01*
X10132308Y-13289896D01*
X10108084Y-13215342D01*
X10024783Y-13051856D01*
X9916933Y-12903413D01*
X9787190Y-12773670D01*
X9638747Y-12665820D01*
X9475261Y-12582519D01*
X9430004Y-12567814D01*
X9300756Y-12525818D01*
X9119535Y-12497116D01*
X9119530Y-12497116D01*
X8936044Y-12497116D01*
X8936039Y-12497116D01*
X8754817Y-12525818D01*
X8580310Y-12582520D01*
X8416826Y-12665820D01*
X8268381Y-12773672D01*
X8138643Y-12903410D01*
X8030791Y-13051855D01*
X7947491Y-13215339D01*
X7890789Y-13389846D01*
X7880260Y-13456329D01*
X7850331Y-13519464D01*
X7791019Y-13556395D01*
X7721157Y-13555397D01*
X7662924Y-13516787D01*
X7635314Y-13456329D01*
X7624784Y-13389846D01*
X7592308Y-13289896D01*
X7568084Y-13215342D01*
X7484783Y-13051856D01*
X7376933Y-12903413D01*
X7247190Y-12773670D01*
X7098747Y-12665820D01*
X6935261Y-12582519D01*
X6890004Y-12567814D01*
X6760756Y-12525818D01*
X6579535Y-12497116D01*
X6579530Y-12497116D01*
X6396044Y-12497116D01*
X6396039Y-12497116D01*
X6214817Y-12525818D01*
X6040310Y-12582520D01*
X5876826Y-12665820D01*
X5728381Y-12773672D01*
X5598643Y-12903410D01*
X5490791Y-13051855D01*
X5407491Y-13215339D01*
X5350789Y-13389846D01*
X5340260Y-13456329D01*
X5310331Y-13519464D01*
X5251019Y-13556395D01*
X5181157Y-13555397D01*
X5122924Y-13516787D01*
X5095314Y-13456329D01*
X5084784Y-13389846D01*
X5052308Y-13289896D01*
X5028084Y-13215342D01*
X4944783Y-13051856D01*
X4925930Y-13025907D01*
X4917565Y-13014393D01*
X4912385Y-13007264D01*
X4901639Y-12986945D01*
X4864022Y-12940698D01*
X4836933Y-12903413D01*
X4824080Y-12890560D01*
X4815565Y-12881124D01*
X4503880Y-12497932D01*
X4502971Y-12497116D01*
X4456176Y-12455124D01*
X4450137Y-12451212D01*
X4450118Y-12451202D01*
X4402053Y-12429836D01*
X4390422Y-12423914D01*
X4328991Y-12388447D01*
X4303310Y-12368741D01*
X4262160Y-12327591D01*
X4242457Y-12301915D01*
X4213355Y-12251508D01*
X4200972Y-12221613D01*
X4174593Y-12123163D01*
X4159102Y-12082869D01*
X4156879Y-12078517D01*
X4133294Y-12042325D01*
X4133290Y-12042321D01*
X4133284Y-12042312D01*
X3954991Y-11823114D01*
X3927959Y-11758685D01*
X3927187Y-11744869D01*
X3927187Y-6220407D01*
X11146187Y-6220407D01*
X11146187Y-6339025D01*
X11154767Y-6371047D01*
X11155623Y-6383876D01*
X11155626Y-6383918D01*
X11156296Y-6393946D01*
X11266923Y-6804825D01*
X11271187Y-6837062D01*
X11271187Y-6936869D01*
X11266923Y-6969107D01*
X11156293Y-7380001D01*
X11154671Y-7386431D01*
X11154512Y-7387108D01*
X11154511Y-7387115D01*
X11154455Y-7390030D01*
X11150254Y-7419725D01*
X11146187Y-7434902D01*
X11146187Y-7434907D01*
X11146187Y-7553525D01*
X11176888Y-7668102D01*
X11236198Y-7770829D01*
X11320074Y-7854705D01*
X11422801Y-7914015D01*
X11537378Y-7944716D01*
X11537381Y-7944716D01*
X11655993Y-7944716D01*
X11655996Y-7944716D01*
X11770573Y-7914015D01*
X11873300Y-7854705D01*
X11957176Y-7770829D01*
X12016486Y-7668102D01*
X12047187Y-7553525D01*
X12047187Y-7434907D01*
X12047187Y-7434905D01*
X12047186Y-7434903D01*
X12041748Y-7414609D01*
X12037796Y-7390766D01*
X12037747Y-7390030D01*
X12037077Y-7379986D01*
X11926450Y-6969106D01*
X11922187Y-6936870D01*
X11922187Y-6837062D01*
X11926451Y-6804824D01*
X12037081Y-6393931D01*
X12038673Y-6387618D01*
X12038681Y-6387586D01*
X12038849Y-6386872D01*
X12038905Y-6383947D01*
X12043108Y-6354246D01*
X12047187Y-6339025D01*
X12047187Y-6220407D01*
X12016486Y-6105830D01*
X11957176Y-6003103D01*
X11873300Y-5919227D01*
X11770573Y-5859917D01*
X11655996Y-5829216D01*
X11537378Y-5829216D01*
X11422801Y-5859917D01*
X11422799Y-5859917D01*
X11422799Y-5859918D01*
X11320074Y-5919227D01*
X11320071Y-5919229D01*
X11236200Y-6003100D01*
X11236198Y-6003103D01*
X11176888Y-6105830D01*
X11146187Y-6220407D01*
X3927187Y-6220407D01*
X3927187Y-2049916D01*
X3929577Y-2025686D01*
X3930100Y-2023058D01*
X3930102Y-2023055D01*
X4068258Y-1329641D01*
X4068258Y-1328606D01*
X4068665Y-1325525D01*
X4068857Y-1323594D01*
X4068919Y-1323600D01*
X4072483Y-1296607D01*
X4077187Y-1279057D01*
X4077187Y-1120943D01*
X4036264Y-968216D01*
X3972838Y-858358D01*
X3957211Y-831290D01*
X3957205Y-831282D01*
X3845404Y-719481D01*
X3845396Y-719475D01*
X3708477Y-640426D01*
X3708473Y-640424D01*
X3708471Y-640423D01*
X3555744Y-599500D01*
X3397630Y-599500D01*
X3244903Y-640423D01*
X3244896Y-640426D01*
X3107977Y-719475D01*
X3107969Y-719481D01*
X2996168Y-831282D01*
X2996162Y-831290D01*
X2917113Y-968209D01*
X2917110Y-968216D01*
X2876187Y-1120943D01*
X2876187Y-1279056D01*
X2880890Y-1296610D01*
X2884446Y-1323586D01*
X2884516Y-1323580D01*
X2884725Y-1325702D01*
X2885114Y-1328647D01*
X2885114Y-1329638D01*
X2918147Y-1495432D01*
X3019488Y-2004065D01*
X3023797Y-2025689D01*
X3026187Y-2049919D01*
X3026187Y-11816558D01*
X3022700Y-11845758D01*
X3021766Y-11849608D01*
X2798403Y-13440418D01*
X2769589Y-13504069D01*
X2710936Y-13542037D01*
X2641066Y-13542268D01*
X2582164Y-13504688D01*
X2553135Y-13442573D01*
X2544784Y-13389846D01*
X2512308Y-13289896D01*
X2488084Y-13215342D01*
X2404783Y-13051856D01*
X2296933Y-12903413D01*
X2167190Y-12773670D01*
X2018747Y-12665820D01*
X1855261Y-12582519D01*
X1810004Y-12567814D01*
X1680756Y-12525818D01*
X1499535Y-12497116D01*
X1499530Y-12497116D01*
X1316044Y-12497116D01*
X1316039Y-12497116D01*
X1134817Y-12525818D01*
X960310Y-12582520D01*
X796826Y-12665820D01*
X648381Y-12773672D01*
X518643Y-12903410D01*
X410791Y-13051855D01*
X327491Y-13215337D01*
X292431Y-13323243D01*
X252993Y-13380918D01*
X188634Y-13408116D01*
X119788Y-13396201D01*
X68312Y-13348957D01*
X50500Y-13284924D01*
X50500Y-2004066D01*
X50765Y-1995957D01*
X51871Y-1979082D01*
X66647Y-1753628D01*
X68762Y-1737574D01*
X115342Y-1503401D01*
X119539Y-1487738D01*
X169868Y-1339474D01*
X196286Y-1261646D01*
X202485Y-1246680D01*
X308091Y-1032533D01*
X316191Y-1018502D01*
X448851Y-819962D01*
X458706Y-807119D01*
X616141Y-627599D01*
X627599Y-616141D01*
X807119Y-458706D01*
X819962Y-448851D01*
X1018502Y-316191D01*
X1032533Y-308091D01*
X1246680Y-202485D01*
X1261646Y-196286D01*
X1422498Y-141684D01*
X1487738Y-119539D01*
X1503405Y-115341D01*
X1737574Y-68762D01*
X1753630Y-66647D01*
X1975606Y-52098D01*
X1995958Y-50765D01*
X2004067Y-50500D01*
X2016408Y-50500D01*
X19483592Y-50500D01*
X19495933Y-50500D01*
X19504042Y-50765D01*
G37*
%TD.AperFunction*%
%TD*%
%TA.AperFunction,Conductor*%
%TO.N,CLK2*%
G36*
X19157556Y-11219946D02*
G01*
X19164989Y-11224940D01*
X19166719Y-11233702D01*
X19028563Y-11927116D01*
X19023586Y-11934560D01*
X19017089Y-11936530D01*
X18536285Y-11936530D01*
X18528012Y-11933103D01*
X18524811Y-11927116D01*
X18386654Y-11233702D01*
X18388398Y-11224919D01*
X18395815Y-11219946D01*
X18774379Y-11143681D01*
X18778995Y-11143681D01*
X19157556Y-11219946D01*
G37*
%TD.AperFunction*%
%TD*%
%TA.AperFunction,Conductor*%
%TO.N,+3.3V*%
G36*
X11720993Y-7002447D02*
G01*
X11724018Y-7007678D01*
X11838644Y-7433413D01*
X11837486Y-7442293D01*
X11830388Y-7447753D01*
X11829674Y-7447921D01*
X11599015Y-7494743D01*
X11594359Y-7494743D01*
X11363699Y-7447921D01*
X11356273Y-7442917D01*
X11354561Y-7434127D01*
X11354722Y-7433442D01*
X11469356Y-7007678D01*
X11474816Y-7000580D01*
X11480654Y-6999020D01*
X11712720Y-6999020D01*
X11720993Y-7002447D01*
G37*
%TD.AperFunction*%
%TD*%
%TA.AperFunction,Conductor*%
%TO.N,+3.3V*%
G36*
X11829675Y-6326010D02*
G01*
X11837100Y-6331014D01*
X11838812Y-6339804D01*
X11838644Y-6340518D01*
X11724018Y-6766254D01*
X11718558Y-6773352D01*
X11712720Y-6774912D01*
X11480654Y-6774912D01*
X11472381Y-6771485D01*
X11469356Y-6766254D01*
X11455236Y-6713813D01*
X11354729Y-6340516D01*
X11355887Y-6331638D01*
X11362985Y-6326178D01*
X11363672Y-6326016D01*
X11594362Y-6279188D01*
X11599012Y-6279188D01*
X11829675Y-6326010D01*
G37*
%TD.AperFunction*%
%TD*%
%TA.AperFunction,Conductor*%
%TO.N,CLK1*%
G36*
X3857556Y-1275730D02*
G01*
X3864989Y-1280724D01*
X3866719Y-1289486D01*
X3728563Y-1982900D01*
X3723586Y-1990344D01*
X3717089Y-1992314D01*
X3236285Y-1992314D01*
X3228012Y-1988887D01*
X3224811Y-1982900D01*
X3086654Y-1289486D01*
X3088398Y-1280703D01*
X3095815Y-1275730D01*
X3474379Y-1199465D01*
X3478995Y-1199465D01*
X3857556Y-1275730D01*
G37*
%TD.AperFunction*%
%TD*%
%TA.AperFunction,Conductor*%
%TO.N,CLK1*%
G36*
X3726687Y-11868102D02*
G01*
X3226687Y-11868102D01*
X3001133Y-13474515D01*
X3947787Y-13663816D01*
X4750321Y-13126580D01*
X3726687Y-11868102D01*
G37*
%TD.AperFunction*%
%TD*%
%TA.AperFunction,Conductor*%
%TO.N,CLK2*%
G36*
X6697695Y-15591276D02*
G01*
X7051249Y-15237722D01*
X7434441Y-13851117D01*
X6487080Y-13662109D01*
X5685253Y-14199052D01*
X6697695Y-15591276D01*
G37*
%TD.AperFunction*%
%TD*%
M02*
