%TF.GenerationSoftware,KiCad,Pcbnew,9.0.2*%
%TF.CreationDate,2025-06-02T11:38:11+05:30*%
%TF.ProjectId,Adafruit Si5351A,41646166-7275-4697-9420-536935333531,rev?*%
%TF.SameCoordinates,Original*%
%TF.FileFunction,Legend,Top*%
%TF.FilePolarity,Positive*%
%FSLAX46Y46*%
G04 Gerber Fmt 4.6, Leading zero omitted, Abs format (unit mm)*
G04 Created by KiCad (PCBNEW 9.0.2) date 2025-06-02 11:38:11*
%MOMM*%
%LPD*%
G01*
G04 APERTURE LIST*
G04 Aperture macros list*
%AMRoundRect*
0 Rectangle with rounded corners*
0 $1 Rounding radius*
0 $2 $3 $4 $5 $6 $7 $8 $9 X,Y pos of 4 corners*
0 Add a 4 corners polygon primitive as box body*
4,1,4,$2,$3,$4,$5,$6,$7,$8,$9,$2,$3,0*
0 Add four circle primitives for the rounded corners*
1,1,$1+$1,$2,$3*
1,1,$1+$1,$4,$5*
1,1,$1+$1,$6,$7*
1,1,$1+$1,$8,$9*
0 Add four rect primitives between the rounded corners*
20,1,$1+$1,$2,$3,$4,$5,0*
20,1,$1+$1,$4,$5,$6,$7,0*
20,1,$1+$1,$6,$7,$8,$9,0*
20,1,$1+$1,$8,$9,$2,$3,0*%
G04 Aperture macros list end*
%ADD10C,0.120000*%
%ADD11C,0.152400*%
%ADD12C,0.250000*%
%ADD13C,0.300000*%
%ADD14C,0.150000*%
%ADD15RoundRect,0.250000X-0.475000X0.337500X-0.475000X-0.337500X0.475000X-0.337500X0.475000X0.337500X0*%
%ADD16C,2.000000*%
%ADD17RoundRect,0.250000X-0.350000X-0.450000X0.350000X-0.450000X0.350000X0.450000X-0.350000X0.450000X0*%
%ADD18RoundRect,0.250000X0.350000X0.450000X-0.350000X0.450000X-0.350000X-0.450000X0.350000X-0.450000X0*%
%ADD19RoundRect,0.050800X-0.965200X0.965200X-0.965200X-0.965200X0.965200X-0.965200X0.965200X0.965200X0*%
%ADD20C,2.032000*%
%ADD21RoundRect,0.250000X-0.337500X-0.475000X0.337500X-0.475000X0.337500X0.475000X-0.337500X0.475000X0*%
%ADD22RoundRect,0.250000X0.475000X-0.337500X0.475000X0.337500X-0.475000X0.337500X-0.475000X-0.337500X0*%
%ADD23R,1.000000X0.800000*%
%ADD24RoundRect,0.250000X-0.250000X-0.475000X0.250000X-0.475000X0.250000X0.475000X-0.250000X0.475000X0*%
%ADD25R,1.400000X0.300000*%
G04 APERTURE END LIST*
D10*
X14309523Y-15001950D02*
X14233333Y-14963855D01*
X14233333Y-14963855D02*
X14119047Y-14963855D01*
X14119047Y-14963855D02*
X14004761Y-15001950D01*
X14004761Y-15001950D02*
X13928571Y-15078140D01*
X13928571Y-15078140D02*
X13890476Y-15154331D01*
X13890476Y-15154331D02*
X13852380Y-15306712D01*
X13852380Y-15306712D02*
X13852380Y-15420998D01*
X13852380Y-15420998D02*
X13890476Y-15573379D01*
X13890476Y-15573379D02*
X13928571Y-15649569D01*
X13928571Y-15649569D02*
X14004761Y-15725760D01*
X14004761Y-15725760D02*
X14119047Y-15763855D01*
X14119047Y-15763855D02*
X14195238Y-15763855D01*
X14195238Y-15763855D02*
X14309523Y-15725760D01*
X14309523Y-15725760D02*
X14347619Y-15687664D01*
X14347619Y-15687664D02*
X14347619Y-15420998D01*
X14347619Y-15420998D02*
X14195238Y-15420998D01*
D11*
X1353963Y-11514409D02*
X1436210Y-11514409D01*
X1436210Y-11514409D02*
X1518458Y-11555533D01*
X1518458Y-11555533D02*
X1559582Y-11596657D01*
X1559582Y-11596657D02*
X1600706Y-11678905D01*
X1600706Y-11678905D02*
X1641829Y-11843400D01*
X1641829Y-11843400D02*
X1641829Y-12049019D01*
X1641829Y-12049019D02*
X1600706Y-12213514D01*
X1600706Y-12213514D02*
X1559582Y-12295762D01*
X1559582Y-12295762D02*
X1518458Y-12336886D01*
X1518458Y-12336886D02*
X1436210Y-12378009D01*
X1436210Y-12378009D02*
X1353963Y-12378009D01*
X1353963Y-12378009D02*
X1271715Y-12336886D01*
X1271715Y-12336886D02*
X1230591Y-12295762D01*
X1230591Y-12295762D02*
X1189468Y-12213514D01*
X1189468Y-12213514D02*
X1148344Y-12049019D01*
X1148344Y-12049019D02*
X1148344Y-11843400D01*
X1148344Y-11843400D02*
X1189468Y-11678905D01*
X1189468Y-11678905D02*
X1230591Y-11596657D01*
X1230591Y-11596657D02*
X1271715Y-11555533D01*
X1271715Y-11555533D02*
X1353963Y-11514409D01*
D10*
X8047618Y-15725760D02*
X8161904Y-15763855D01*
X8161904Y-15763855D02*
X8352380Y-15763855D01*
X8352380Y-15763855D02*
X8428571Y-15725760D01*
X8428571Y-15725760D02*
X8466666Y-15687664D01*
X8466666Y-15687664D02*
X8504761Y-15611474D01*
X8504761Y-15611474D02*
X8504761Y-15535283D01*
X8504761Y-15535283D02*
X8466666Y-15459093D01*
X8466666Y-15459093D02*
X8428571Y-15420998D01*
X8428571Y-15420998D02*
X8352380Y-15382902D01*
X8352380Y-15382902D02*
X8199999Y-15344807D01*
X8199999Y-15344807D02*
X8123809Y-15306712D01*
X8123809Y-15306712D02*
X8085714Y-15268617D01*
X8085714Y-15268617D02*
X8047618Y-15192426D01*
X8047618Y-15192426D02*
X8047618Y-15116236D01*
X8047618Y-15116236D02*
X8085714Y-15040045D01*
X8085714Y-15040045D02*
X8123809Y-15001950D01*
X8123809Y-15001950D02*
X8199999Y-14963855D01*
X8199999Y-14963855D02*
X8390476Y-14963855D01*
X8390476Y-14963855D02*
X8504761Y-15001950D01*
X9304762Y-15687664D02*
X9266666Y-15725760D01*
X9266666Y-15725760D02*
X9152381Y-15763855D01*
X9152381Y-15763855D02*
X9076190Y-15763855D01*
X9076190Y-15763855D02*
X8961904Y-15725760D01*
X8961904Y-15725760D02*
X8885714Y-15649569D01*
X8885714Y-15649569D02*
X8847619Y-15573379D01*
X8847619Y-15573379D02*
X8809523Y-15420998D01*
X8809523Y-15420998D02*
X8809523Y-15306712D01*
X8809523Y-15306712D02*
X8847619Y-15154331D01*
X8847619Y-15154331D02*
X8885714Y-15078140D01*
X8885714Y-15078140D02*
X8961904Y-15001950D01*
X8961904Y-15001950D02*
X9076190Y-14963855D01*
X9076190Y-14963855D02*
X9152381Y-14963855D01*
X9152381Y-14963855D02*
X9266666Y-15001950D01*
X9266666Y-15001950D02*
X9304762Y-15040045D01*
X10028571Y-15763855D02*
X9647619Y-15763855D01*
X9647619Y-15763855D02*
X9647619Y-14963855D01*
X6271428Y-15040045D02*
X6309524Y-15001950D01*
X6309524Y-15001950D02*
X6385714Y-14963855D01*
X6385714Y-14963855D02*
X6576190Y-14963855D01*
X6576190Y-14963855D02*
X6652381Y-15001950D01*
X6652381Y-15001950D02*
X6690476Y-15040045D01*
X6690476Y-15040045D02*
X6728571Y-15116236D01*
X6728571Y-15116236D02*
X6728571Y-15192426D01*
X6728571Y-15192426D02*
X6690476Y-15306712D01*
X6690476Y-15306712D02*
X6233333Y-15763855D01*
X6233333Y-15763855D02*
X6728571Y-15763855D01*
X10828571Y-15725760D02*
X10942857Y-15763855D01*
X10942857Y-15763855D02*
X11133333Y-15763855D01*
X11133333Y-15763855D02*
X11209524Y-15725760D01*
X11209524Y-15725760D02*
X11247619Y-15687664D01*
X11247619Y-15687664D02*
X11285714Y-15611474D01*
X11285714Y-15611474D02*
X11285714Y-15535283D01*
X11285714Y-15535283D02*
X11247619Y-15459093D01*
X11247619Y-15459093D02*
X11209524Y-15420998D01*
X11209524Y-15420998D02*
X11133333Y-15382902D01*
X11133333Y-15382902D02*
X10980952Y-15344807D01*
X10980952Y-15344807D02*
X10904762Y-15306712D01*
X10904762Y-15306712D02*
X10866667Y-15268617D01*
X10866667Y-15268617D02*
X10828571Y-15192426D01*
X10828571Y-15192426D02*
X10828571Y-15116236D01*
X10828571Y-15116236D02*
X10866667Y-15040045D01*
X10866667Y-15040045D02*
X10904762Y-15001950D01*
X10904762Y-15001950D02*
X10980952Y-14963855D01*
X10980952Y-14963855D02*
X11171429Y-14963855D01*
X11171429Y-14963855D02*
X11285714Y-15001950D01*
X11628572Y-15763855D02*
X11628572Y-14963855D01*
X11628572Y-14963855D02*
X11819048Y-14963855D01*
X11819048Y-14963855D02*
X11933334Y-15001950D01*
X11933334Y-15001950D02*
X12009524Y-15078140D01*
X12009524Y-15078140D02*
X12047619Y-15154331D01*
X12047619Y-15154331D02*
X12085715Y-15306712D01*
X12085715Y-15306712D02*
X12085715Y-15420998D01*
X12085715Y-15420998D02*
X12047619Y-15573379D01*
X12047619Y-15573379D02*
X12009524Y-15649569D01*
X12009524Y-15649569D02*
X11933334Y-15725760D01*
X11933334Y-15725760D02*
X11819048Y-15763855D01*
X11819048Y-15763855D02*
X11628572Y-15763855D01*
X12390476Y-15535283D02*
X12771429Y-15535283D01*
X12314286Y-15763855D02*
X12580953Y-14963855D01*
X12580953Y-14963855D02*
X12847619Y-15763855D01*
D11*
X3973429Y-12395809D02*
X3479944Y-12395809D01*
X3726687Y-12395809D02*
X3726687Y-11532209D01*
X3726687Y-11532209D02*
X3644439Y-11655581D01*
X3644439Y-11655581D02*
X3562191Y-11737828D01*
X3562191Y-11737828D02*
X3479944Y-11778952D01*
D10*
X15861904Y-14963855D02*
X16357142Y-14963855D01*
X16357142Y-14963855D02*
X16090476Y-15268617D01*
X16090476Y-15268617D02*
X16204761Y-15268617D01*
X16204761Y-15268617D02*
X16280952Y-15306712D01*
X16280952Y-15306712D02*
X16319047Y-15344807D01*
X16319047Y-15344807D02*
X16357142Y-15420998D01*
X16357142Y-15420998D02*
X16357142Y-15611474D01*
X16357142Y-15611474D02*
X16319047Y-15687664D01*
X16319047Y-15687664D02*
X16280952Y-15725760D01*
X16280952Y-15725760D02*
X16204761Y-15763855D01*
X16204761Y-15763855D02*
X15976190Y-15763855D01*
X15976190Y-15763855D02*
X15899999Y-15725760D01*
X15899999Y-15725760D02*
X15861904Y-15687664D01*
X16700000Y-15687664D02*
X16738095Y-15725760D01*
X16738095Y-15725760D02*
X16700000Y-15763855D01*
X16700000Y-15763855D02*
X16661904Y-15725760D01*
X16661904Y-15725760D02*
X16700000Y-15687664D01*
X16700000Y-15687664D02*
X16700000Y-15763855D01*
X17004761Y-14963855D02*
X17499999Y-14963855D01*
X17499999Y-14963855D02*
X17233333Y-15268617D01*
X17233333Y-15268617D02*
X17347618Y-15268617D01*
X17347618Y-15268617D02*
X17423809Y-15306712D01*
X17423809Y-15306712D02*
X17461904Y-15344807D01*
X17461904Y-15344807D02*
X17499999Y-15420998D01*
X17499999Y-15420998D02*
X17499999Y-15611474D01*
X17499999Y-15611474D02*
X17461904Y-15687664D01*
X17461904Y-15687664D02*
X17423809Y-15725760D01*
X17423809Y-15725760D02*
X17347618Y-15763855D01*
X17347618Y-15763855D02*
X17119047Y-15763855D01*
X17119047Y-15763855D02*
X17042856Y-15725760D01*
X17042856Y-15725760D02*
X17004761Y-15687664D01*
%TO.C,C3*%
X19591687Y-9742964D02*
X19591687Y-10265468D01*
X21061687Y-9742964D02*
X21061687Y-10265468D01*
%TO.C,R4*%
X12124623Y-10519216D02*
X12578751Y-10519216D01*
X12124623Y-11989216D02*
X12578751Y-11989216D01*
%TO.C,R3*%
X8184751Y-10540216D02*
X7730623Y-10540216D01*
X8184751Y-12010216D02*
X7730623Y-12010216D01*
%TO.C,C1*%
X16245435Y-10519216D02*
X16767939Y-10519216D01*
X16245435Y-11989216D02*
X16767939Y-11989216D01*
%TO.C,C4*%
X19191687Y-6065468D02*
X19191687Y-5542964D01*
X20661687Y-6065468D02*
X20661687Y-5542964D01*
D12*
%TO.C,Y1*%
X4196687Y-8841716D02*
X4196687Y-5641716D01*
X6996687Y-8841716D02*
X6996687Y-5641716D01*
D13*
X7646688Y-8641716D02*
X7646688Y-8641716D01*
X7646688Y-8641716D01*
X7646688Y-8641716D01*
X7646688Y-8641716D01*
X7646688Y-8641716D01*
X7646688Y-8641717D01*
X7646688Y-8641717D01*
X7646688Y-8641717D01*
X7646688Y-8641717D01*
X7646688Y-8641717D01*
X7646688Y-8641717D01*
X7646688Y-8641717D01*
X7646687Y-8641717D01*
X7646687Y-8641717D01*
X7646687Y-8641717D01*
X7646687Y-8641717D01*
X7646687Y-8641717D01*
X7646687Y-8641717D01*
X7646687Y-8641717D01*
X7646687Y-8641717D01*
X7646687Y-8641717D01*
X7646687Y-8641717D01*
X7646687Y-8641717D01*
X7646687Y-8641717D01*
X7646686Y-8641717D01*
X7646686Y-8641717D01*
X7646686Y-8641717D01*
X7646686Y-8641717D01*
X7646686Y-8641717D01*
X7646686Y-8641717D01*
X7646686Y-8641716D01*
X7646686Y-8641716D01*
X7646686Y-8641716D01*
X7646686Y-8641716D01*
X7646686Y-8641716D01*
X7646686Y-8641716D01*
X7646686Y-8641716D02*
X7646686Y-8641716D01*
X7646686Y-8641716D01*
X7646686Y-8641716D01*
X7646686Y-8641716D01*
X7646686Y-8641716D01*
X7646686Y-8641716D01*
X7646686Y-8641715D01*
X7646686Y-8641715D01*
X7646686Y-8641715D01*
X7646686Y-8641715D01*
X7646686Y-8641715D01*
X7646687Y-8641715D01*
X7646687Y-8641715D01*
X7646687Y-8641715D01*
X7646687Y-8641715D01*
X7646687Y-8641715D01*
X7646687Y-8641715D01*
X7646687Y-8641715D01*
X7646687Y-8641715D01*
X7646687Y-8641715D01*
X7646687Y-8641715D01*
X7646687Y-8641715D01*
X7646687Y-8641715D01*
X7646688Y-8641715D01*
X7646688Y-8641715D01*
X7646688Y-8641715D01*
X7646688Y-8641715D01*
X7646688Y-8641715D01*
X7646688Y-8641715D01*
X7646688Y-8641716D01*
X7646688Y-8641716D01*
X7646688Y-8641716D01*
X7646688Y-8641716D01*
X7646688Y-8641716D01*
X7646688Y-8641716D01*
X7646688Y-8641716D01*
D10*
%TO.C,C2*%
X9045435Y-4999216D02*
X9567939Y-4999216D01*
X9045435Y-6469216D02*
X9567939Y-6469216D01*
D14*
%TO.C,U1*%
X13731687Y-5679216D02*
X13731687Y-5904216D01*
X13731687Y-5679216D02*
X17081687Y-5679216D01*
X13731687Y-5904216D02*
X12506687Y-5904216D01*
X13731687Y-9029216D02*
X13731687Y-8729216D01*
X13731687Y-9029216D02*
X17081687Y-9029216D01*
X17081687Y-5679216D02*
X17081687Y-5979216D01*
X17081687Y-9029216D02*
X17081687Y-8729216D01*
%TD*%
%LPC*%
D15*
%TO.C,C3*%
X20326687Y-8966716D03*
X20326687Y-11041716D03*
%TD*%
D16*
%TO.C,FID2*%
X1900000Y-1300000D03*
%TD*%
D17*
%TO.C,R4*%
X11351687Y-11254216D03*
X13351687Y-11254216D03*
%TD*%
D18*
%TO.C,R3*%
X8957687Y-11275216D03*
X6957687Y-11275216D03*
%TD*%
D19*
%TO.C,JP1*%
X16647787Y-13662816D03*
D20*
X14107787Y-13662816D03*
X11567787Y-13662816D03*
X9027787Y-13662816D03*
X6487787Y-13662816D03*
X3947787Y-13662816D03*
X1407787Y-13662816D03*
%TD*%
D21*
%TO.C,C1*%
X15469187Y-11254216D03*
X17544187Y-11254216D03*
%TD*%
D22*
%TO.C,C4*%
X19926687Y-6841716D03*
X19926687Y-4766716D03*
%TD*%
D23*
%TO.C,Y1*%
X6296687Y-8751716D03*
X6296687Y-5731716D03*
X4896687Y-5731716D03*
X4896687Y-8751716D03*
%TD*%
D24*
%TO.C,C2*%
X8356687Y-5734216D03*
X10256687Y-5734216D03*
%TD*%
D16*
%TO.C,FID1*%
X20000000Y-1700000D03*
%TD*%
D25*
%TO.C,U1*%
X13206687Y-6354216D03*
X13206687Y-6854216D03*
X13206687Y-7354216D03*
X13206687Y-7854216D03*
X13206687Y-8354216D03*
X17606687Y-8354216D03*
X17606687Y-7854216D03*
X17606687Y-7354216D03*
X17606687Y-6854216D03*
X17606687Y-6354216D03*
%TD*%
%LPD*%
M02*
